<?xml version="1.0" encoding="UTF-8" standalone="no"?>
<!DOCTYPE svg PUBLIC "-//W3C//DTD SVG 1.1//EN"
 "http://www.w3.org/Graphics/SVG/1.1/DTD/svg11.dtd">
<!-- Generated by graphviz-ts -->
<svg width="765pt" height="723pt"
     viewBox="0.00 0.00 765.00 723.00"
     xmlns="http://www.w3.org/2000/svg" xmlns:xlink="http://www.w3.org/1999/xlink">
<g id="graph0" class="graph" transform="scale(1 1) rotate(0) translate(4 718.89)">
<title>G</title>
<polygon fill="white" stroke="none" points="-4,4 -4,-718.89 760.52,-718.89 760.52,4 -4,4"/>
<g id="node1" class="node">
<title>n0</title>
<ellipse fill="none" stroke="black" cx="465.41" cy="-308.04" rx="27" ry="18"/>
<text xml:space="preserve" text-anchor="middle" x="465.41" y="-303.84" font-family="Times,serif" font-size="14.00">n0</text>
</g>
<g id="node2" class="node">
<title>n1</title>
<ellipse fill="none" stroke="black" cx="524.43" cy="-263.62" rx="27" ry="18"/>
<text xml:space="preserve" text-anchor="middle" x="524.43" y="-259.42" font-family="Times,serif" font-size="14.00">n1</text>
</g>
<g id="edge1" class="edge">
<title>n0&#45;&#45;n1</title>
<path fill="none" stroke="black" d="M483.44,-294.47C490.63,-289.06 498.89,-282.84 506.11,-277.41"/>
</g>
<g id="node21" class="node">
<title>n20</title>
<ellipse fill="none" stroke="black" cx="376.07" cy="-269.83" rx="27" ry="18"/>
<text xml:space="preserve" text-anchor="middle" x="376.07" y="-265.63" font-family="Times,serif" font-size="14.00">n20</text>
</g>
<g id="edge101" class="edge">
<title>n0&#45;&#45;n20</title>
<path fill="none" stroke="black" d="M442.41,-298.2C429.07,-292.49 412.33,-285.34 399,-279.64"/>
</g>
<g id="node3" class="node">
<title>n2</title>
<ellipse fill="none" stroke="black" cx="576.99" cy="-226.08" rx="27" ry="18"/>
<text xml:space="preserve" text-anchor="middle" x="576.99" y="-221.88" font-family="Times,serif" font-size="14.00">n2</text>
</g>
<g id="edge2" class="edge">
<title>n1&#45;&#45;n2</title>
<path fill="none" stroke="black" d="M543.11,-250.28C548.06,-246.74 553.42,-242.92 558.37,-239.38"/>
</g>
<g id="node4" class="node">
<title>n3</title>
<ellipse fill="none" stroke="black" cx="616.62" cy="-194.8" rx="27" ry="18"/>
<text xml:space="preserve" text-anchor="middle" x="616.62" y="-190.6" font-family="Times,serif" font-size="14.00">n3</text>
</g>
<g id="edge3" class="edge">
<title>n2&#45;&#45;n3</title>
<path fill="none" stroke="black" d="M594.49,-212.27C595.98,-211.09 597.49,-209.9 598.98,-208.72"/>
</g>
<g id="node5" class="node">
<title>n4</title>
<ellipse fill="none" stroke="black" cx="627.43" cy="-169.44" rx="27" ry="18"/>
<text xml:space="preserve" text-anchor="middle" x="627.43" y="-165.24" font-family="Times,serif" font-size="14.00">n4</text>
</g>
<g id="edge4" class="edge">
<title>n3&#45;&#45;n4</title>
<path fill="none" stroke="black" d="M624.13,-177.19C624.18,-177.05 624.24,-176.92 624.3,-176.79"/>
</g>
<g id="node6" class="node">
<title>n5</title>
<ellipse fill="none" stroke="black" cx="611.24" cy="-145.42" rx="27" ry="18"/>
<text xml:space="preserve" text-anchor="middle" x="611.24" y="-141.22" font-family="Times,serif" font-size="14.00">n5</text>
</g>
<g id="edge5" class="edge">
<title>n4&#45;&#45;n5</title>
<path fill="none" stroke="black" d="M616.19,-152.76C616.1,-152.63 616.02,-152.5 615.93,-152.38"/>
</g>
<g id="node7" class="node">
<title>n6</title>
<ellipse fill="none" stroke="black" cx="585.82" cy="-129.15" rx="27" ry="18"/>
<text xml:space="preserve" text-anchor="middle" x="585.82" y="-124.95" font-family="Times,serif" font-size="14.00">n6</text>
</g>
<g id="edge6" class="edge">
<title>n5&#45;&#45;n6</title>
<path fill="none" stroke="black" d="M591.72,-132.93C591.61,-132.86 591.5,-132.79 591.4,-132.72"/>
</g>
<g id="node8" class="node">
<title>n7</title>
<ellipse fill="none" stroke="black" cx="551.59" cy="-153.57" rx="27" ry="18"/>
<text xml:space="preserve" text-anchor="middle" x="551.59" y="-149.37" font-family="Times,serif" font-size="14.00">n7</text>
</g>
<g id="edge7" class="edge">
<title>n6&#45;&#45;n7</title>
<path fill="none" stroke="black" d="M567.1,-142.51C566.98,-142.6 566.85,-142.69 566.73,-142.77"/>
</g>
<g id="node9" class="node">
<title>n8</title>
<ellipse fill="none" stroke="black" cx="514.3" cy="-198.82" rx="27" ry="18"/>
<text xml:space="preserve" text-anchor="middle" x="514.3" y="-194.62" font-family="Times,serif" font-size="14.00">n8</text>
</g>
<g id="edge8" class="edge">
<title>n7&#45;&#45;n8</title>
<path fill="none" stroke="black" d="M538.33,-169.65C534.82,-173.92 531.02,-178.53 527.51,-182.79"/>
</g>
<g id="node10" class="node">
<title>n9</title>
<ellipse fill="none" stroke="black" cx="472.87" cy="-255.02" rx="27" ry="18"/>
<text xml:space="preserve" text-anchor="middle" x="472.87" y="-250.82" font-family="Times,serif" font-size="14.00">n9</text>
</g>
<g id="edge9" class="edge">
<title>n8&#45;&#45;n9</title>
<path fill="none" stroke="black" d="M502.09,-215.37C496.65,-222.76 490.26,-231.42 484.84,-238.77"/>
</g>
<g id="node11" class="node">
<title>n10</title>
<ellipse fill="none" stroke="black" cx="427.87" cy="-317.74" rx="27" ry="18"/>
<text xml:space="preserve" text-anchor="middle" x="427.87" y="-313.54" font-family="Times,serif" font-size="14.00">n10</text>
</g>
<g id="edge10" class="edge">
<title>n9&#45;&#45;n10</title>
<path fill="none" stroke="black" d="M461.04,-271.5C454.48,-280.64 446.34,-291.99 439.77,-301.15"/>
</g>
<g id="node12" class="node">
<title>n11</title>
<ellipse fill="none" stroke="black" cx="441.45" cy="-233.89" rx="27" ry="18"/>
<text xml:space="preserve" text-anchor="middle" x="441.45" y="-229.69" font-family="Times,serif" font-size="14.00">n11</text>
</g>
<g id="edge11" class="edge">
<title>n10&#45;&#45;n11</title>
<path fill="none" stroke="black" d="M430.82,-299.54C433.09,-285.48 436.23,-266.1 438.51,-252.05"/>
</g>
<g id="node31" class="node">
<title>n30</title>
<ellipse fill="none" stroke="black" cx="334.58" cy="-338.76" rx="27" ry="18"/>
<text xml:space="preserve" text-anchor="middle" x="334.58" y="-334.56" font-family="Times,serif" font-size="14.00">n30</text>
</g>
<g id="edge102" class="edge">
<title>n10&#45;&#45;n30</title>
<path fill="none" stroke="black" d="M401.88,-323.59C388.95,-326.51 373.35,-330.03 360.43,-332.94"/>
</g>
<g id="node13" class="node">
<title>n12</title>
<ellipse fill="none" stroke="black" cx="452.93" cy="-156.91" rx="27" ry="18"/>
<text xml:space="preserve" text-anchor="middle" x="452.93" y="-152.71" font-family="Times,serif" font-size="14.00">n12</text>
</g>
<g id="edge12" class="edge">
<title>n11&#45;&#45;n12</title>
<path fill="none" stroke="black" d="M444.17,-215.64C445.98,-203.46 448.36,-187.5 450.18,-175.29"/>
</g>
<g id="node14" class="node">
<title>n13</title>
<ellipse fill="none" stroke="black" cx="458.53" cy="-90.43" rx="27" ry="18"/>
<text xml:space="preserve" text-anchor="middle" x="458.53" y="-86.23" font-family="Times,serif" font-size="14.00">n13</text>
</g>
<g id="edge13" class="edge">
<title>n12&#45;&#45;n13</title>
<path fill="none" stroke="black" d="M454.46,-138.74C455.25,-129.36 456.21,-117.95 457,-108.57"/>
</g>
<g id="node15" class="node">
<title>n14</title>
<ellipse fill="none" stroke="black" cx="452.93" cy="-38.4" rx="27" ry="18"/>
<text xml:space="preserve" text-anchor="middle" x="452.93" y="-34.2" font-family="Times,serif" font-size="14.00">n14</text>
</g>
<g id="edge14" class="edge">
<title>n13&#45;&#45;n14</title>
<path fill="none" stroke="black" d="M456.57,-72.23C456.03,-67.19 455.44,-61.72 454.9,-56.67"/>
</g>
<g id="node16" class="node">
<title>n15</title>
<ellipse fill="none" stroke="black" cx="423.13" cy="-18" rx="27" ry="18"/>
<text xml:space="preserve" text-anchor="middle" x="423.13" y="-13.8" font-family="Times,serif" font-size="14.00">n15</text>
</g>
<g id="edge15" class="edge">
<title>n14&#45;&#45;n15</title>
<path fill="none" stroke="black" d="M433.89,-25.36C433.79,-25.3 433.7,-25.24 433.61,-25.18"/>
</g>
<g id="node17" class="node">
<title>n16</title>
<ellipse fill="none" stroke="black" cx="392.23" cy="-28.29" rx="27" ry="18"/>
<text xml:space="preserve" text-anchor="middle" x="392.23" y="-24.09" font-family="Times,serif" font-size="14.00">n16</text>
</g>
<g id="edge16" class="edge">
<title>n15&#45;&#45;n16</title>
<path fill="none" stroke="black" d="M398.48,-26.21C398.37,-26.25 398.26,-26.29 398.14,-26.32"/>
</g>
<g id="node18" class="node">
<title>n17</title>
<ellipse fill="none" stroke="black" cx="381.89" cy="-64.23" rx="27" ry="18"/>
<text xml:space="preserve" text-anchor="middle" x="381.89" y="-60.03" font-family="Times,serif" font-size="14.00">n17</text>
</g>
<g id="edge17" class="edge">
<title>n16&#45;&#45;n17</title>
<path fill="none" stroke="black" d="M387.06,-46.26C387.02,-46.4 386.98,-46.54 386.94,-46.68"/>
</g>
<g id="node19" class="node">
<title>n18</title>
<ellipse fill="none" stroke="black" cx="379.53" cy="-120.71" rx="27" ry="18"/>
<text xml:space="preserve" text-anchor="middle" x="379.53" y="-116.51" font-family="Times,serif" font-size="14.00">n18</text>
</g>
<g id="edge18" class="edge">
<title>n17&#45;&#45;n18</title>
<path fill="none" stroke="black" d="M381.12,-82.73C380.86,-89.03 380.56,-96.08 380.3,-102.37"/>
</g>
<g id="node20" class="node">
<title>n19</title>
<ellipse fill="none" stroke="black" cx="378.95" cy="-190.75" rx="27" ry="18"/>
<text xml:space="preserve" text-anchor="middle" x="378.95" y="-186.55" font-family="Times,serif" font-size="14.00">n19</text>
</g>
<g id="edge19" class="edge">
<title>n18&#45;&#45;n19</title>
<path fill="none" stroke="black" d="M379.38,-139.11C379.29,-149.49 379.19,-162.4 379.1,-172.72"/>
</g>
<g id="edge20" class="edge">
<title>n19&#45;&#45;n20</title>
<path fill="none" stroke="black" d="M378.29,-209.09C377.82,-221.87 377.2,-238.84 376.74,-251.59"/>
</g>
<g id="node22" class="node">
<title>n21</title>
<ellipse fill="none" stroke="black" cx="346.78" cy="-207.98" rx="27" ry="18"/>
<text xml:space="preserve" text-anchor="middle" x="346.78" y="-203.78" font-family="Times,serif" font-size="14.00">n21</text>
</g>
<g id="edge21" class="edge">
<title>n20&#45;&#45;n21</title>
<path fill="none" stroke="black" d="M367.76,-252.27C363.77,-243.84 359,-233.77 355.02,-225.37"/>
</g>
<g id="node41" class="node">
<title>n40</title>
<ellipse fill="none" stroke="black" cx="307.73" cy="-343.46" rx="27" ry="18"/>
<text xml:space="preserve" text-anchor="middle" x="307.73" y="-339.26" font-family="Times,serif" font-size="14.00">n40</text>
</g>
<g id="edge103" class="edge">
<title>n20&#45;&#45;n40</title>
<path fill="none" stroke="black" d="M361.58,-285.45C349.98,-297.94 333.79,-315.38 322.2,-327.87"/>
</g>
<g id="node23" class="node">
<title>n22</title>
<ellipse fill="none" stroke="black" cx="317.86" cy="-155.39" rx="27" ry="18"/>
<text xml:space="preserve" text-anchor="middle" x="317.86" y="-151.19" font-family="Times,serif" font-size="14.00">n22</text>
</g>
<g id="edge22" class="edge">
<title>n21&#45;&#45;n22</title>
<path fill="none" stroke="black" d="M337.31,-190.76C334.08,-184.89 330.48,-178.33 327.25,-172.47"/>
</g>
<g id="node24" class="node">
<title>n23</title>
<ellipse fill="none" stroke="black" cx="288.19" cy="-120.06" rx="27" ry="18"/>
<text xml:space="preserve" text-anchor="middle" x="288.19" y="-115.86" font-family="Times,serif" font-size="14.00">n23</text>
</g>
<g id="edge23" class="edge">
<title>n22&#45;&#45;n23</title>
<path fill="none" stroke="black" d="M304.41,-139.38C303.43,-138.21 302.44,-137.03 301.46,-135.86"/>
</g>
<g id="node25" class="node">
<title>n24</title>
<ellipse fill="none" stroke="black" cx="256.49" cy="-99.71" rx="27" ry="18"/>
<text xml:space="preserve" text-anchor="middle" x="256.49" y="-95.51" font-family="Times,serif" font-size="14.00">n24</text>
</g>
<g id="edge24" class="edge">
<title>n23&#45;&#45;n24</title>
<path fill="none" stroke="black" d="M268.29,-107.29C268.19,-107.22 268.1,-107.16 268,-107.09"/>
</g>
<g id="node26" class="node">
<title>n25</title>
<ellipse fill="none" stroke="black" cx="227.62" cy="-109.57" rx="27" ry="18"/>
<text xml:space="preserve" text-anchor="middle" x="227.62" y="-105.37" font-family="Times,serif" font-size="14.00">n25</text>
</g>
<g id="edge25" class="edge">
<title>n24&#45;&#45;n25</title>
<path fill="none" stroke="black" d="M232.13,-108.03C231.96,-108.09 231.79,-108.14 231.63,-108.2"/>
</g>
<g id="node27" class="node">
<title>n26</title>
<ellipse fill="none" stroke="black" cx="218.41" cy="-138.43" rx="27" ry="18"/>
<text xml:space="preserve" text-anchor="middle" x="218.41" y="-134.23" font-family="Times,serif" font-size="14.00">n26</text>
</g>
<g id="edge26" class="edge">
<title>n25&#45;&#45;n26</title>
<path fill="none" stroke="black" d="M221.94,-127.35C221.91,-127.45 221.88,-127.54 221.86,-127.63"/>
</g>
<g id="node28" class="node">
<title>n27</title>
<ellipse fill="none" stroke="black" cx="230.26" cy="-173.42" rx="27" ry="18"/>
<text xml:space="preserve" text-anchor="middle" x="230.26" y="-169.22" font-family="Times,serif" font-size="14.00">n27</text>
</g>
<g id="edge27" class="edge">
<title>n26&#45;&#45;n27</title>
<path fill="none" stroke="black" d="M224.48,-156.34C224.52,-156.47 224.57,-156.61 224.61,-156.74"/>
</g>
<g id="node29" class="node">
<title>n28</title>
<ellipse fill="none" stroke="black" cx="260.07" cy="-220.13" rx="27" ry="18"/>
<text xml:space="preserve" text-anchor="middle" x="260.07" y="-215.93" font-family="Times,serif" font-size="14.00">n28</text>
</g>
<g id="edge28" class="edge">
<title>n27&#45;&#45;n28</title>
<path fill="none" stroke="black" d="M241.02,-190.29C243.69,-194.47 246.55,-198.95 249.22,-203.13"/>
</g>
<g id="node30" class="node">
<title>n29</title>
<ellipse fill="none" stroke="black" cx="296.89" cy="-275.8" rx="27" ry="18"/>
<text xml:space="preserve" text-anchor="middle" x="296.89" y="-271.6" font-family="Times,serif" font-size="14.00">n29</text>
</g>
<g id="edge29" class="edge">
<title>n28&#45;&#45;n29</title>
<path fill="none" stroke="black" d="M271.12,-236.83C275.78,-243.88 281.19,-252.07 285.85,-259.11"/>
</g>
<g id="edge30" class="edge">
<title>n29&#45;&#45;n30</title>
<path fill="none" stroke="black" d="M306.99,-292.68C312.4,-301.71 319.04,-312.8 324.45,-321.84"/>
</g>
<g id="node32" class="node">
<title>n31</title>
<ellipse fill="none" stroke="black" cx="275.47" cy="-300.97" rx="27" ry="18"/>
<text xml:space="preserve" text-anchor="middle" x="275.47" y="-296.77" font-family="Times,serif" font-size="14.00">n31</text>
</g>
<g id="edge31" class="edge">
<title>n30&#45;&#45;n31</title>
<path fill="none" stroke="black" d="M314.9,-326.18C308.58,-322.14 301.59,-317.67 295.27,-313.63"/>
</g>
<g id="node51" class="node">
<title>n50</title>
<ellipse fill="none" stroke="black" cx="313.47" cy="-435.2" rx="27" ry="18"/>
<text xml:space="preserve" text-anchor="middle" x="313.47" y="-431" font-family="Times,serif" font-size="14.00">n50</text>
</g>
<g id="edge104" class="edge">
<title>n30&#45;&#45;n50</title>
<path fill="none" stroke="black" d="M330.61,-356.9C326.83,-374.14 321.19,-399.93 317.42,-417.14"/>
</g>
<g id="node33" class="node">
<title>n32</title>
<ellipse fill="none" stroke="black" cx="221.43" cy="-266.64" rx="27" ry="18"/>
<text xml:space="preserve" text-anchor="middle" x="221.43" y="-262.44" font-family="Times,serif" font-size="14.00">n32</text>
</g>
<g id="edge32" class="edge">
<title>n31&#45;&#45;n32</title>
<path fill="none" stroke="black" d="M255.65,-288.39C250.95,-285.4 245.94,-282.21 241.24,-279.23"/>
</g>
<g id="node34" class="node">
<title>n33</title>
<ellipse fill="none" stroke="black" cx="175.85" cy="-241.03" rx="27" ry="18"/>
<text xml:space="preserve" text-anchor="middle" x="175.85" y="-236.83" font-family="Times,serif" font-size="14.00">n33</text>
</g>
<g id="edge33" class="edge">
<title>n32&#45;&#45;n33</title>
<path fill="none" stroke="black" d="M200.51,-254.88C199.29,-254.2 198.07,-253.51 196.85,-252.83"/>
</g>
<g id="node35" class="node">
<title>n34</title>
<ellipse fill="none" stroke="black" cx="143.01" cy="-238.62" rx="27" ry="18"/>
<text xml:space="preserve" text-anchor="middle" x="143.01" y="-234.42" font-family="Times,serif" font-size="14.00">n34</text>
</g>
<g id="edge34" class="edge">
<title>n33&#45;&#45;n34</title>
<path fill="none" stroke="black" d="M148.73,-239.04C148.62,-239.03 148.52,-239.03 148.41,-239.02"/>
</g>
<g id="node36" class="node">
<title>n35</title>
<ellipse fill="none" stroke="black" cx="126.44" cy="-260.97" rx="27" ry="18"/>
<text xml:space="preserve" text-anchor="middle" x="126.44" y="-256.77" font-family="Times,serif" font-size="14.00">n35</text>
</g>
<g id="edge35" class="edge">
<title>n34&#45;&#45;n35</title>
<path fill="none" stroke="black" d="M130.96,-254.87C130.88,-254.97 130.8,-255.08 130.72,-255.19"/>
</g>
<g id="node37" class="node">
<title>n36</title>
<ellipse fill="none" stroke="black" cx="126.08" cy="-287.31" rx="27" ry="18"/>
<text xml:space="preserve" text-anchor="middle" x="126.08" y="-283.11" font-family="Times,serif" font-size="14.00">n36</text>
</g>
<g id="edge36" class="edge">
<title>n35&#45;&#45;n36</title>
<path fill="none" stroke="black" d="M126.19,-279.26C126.19,-279.4 126.19,-279.54 126.18,-279.68"/>
</g>
<g id="node38" class="node">
<title>n37</title>
<ellipse fill="none" stroke="black" cx="144.92" cy="-303.57" rx="27" ry="18"/>
<text xml:space="preserve" text-anchor="middle" x="144.92" y="-299.37" font-family="Times,serif" font-size="14.00">n37</text>
</g>
<g id="edge37" class="edge">
<title>n36&#45;&#45;n37</title>
<path fill="none" stroke="black" d="M142.9,-301.83C143.06,-301.96 143.21,-302.09 143.35,-302.21"/>
</g>
<g id="node39" class="node">
<title>n38</title>
<ellipse fill="none" stroke="black" cx="187.99" cy="-314.84" rx="27" ry="18"/>
<text xml:space="preserve" text-anchor="middle" x="187.99" y="-310.64" font-family="Times,serif" font-size="14.00">n38</text>
</g>
<g id="edge38" class="edge">
<title>n37&#45;&#45;n38</title>
<path fill="none" stroke="black" d="M170.47,-310.25C170.62,-310.29 170.76,-310.33 170.9,-310.37"/>
</g>
<g id="node40" class="node">
<title>n39</title>
<ellipse fill="none" stroke="black" cx="244.35" cy="-328.05" rx="27" ry="18"/>
<text xml:space="preserve" text-anchor="middle" x="244.35" y="-323.85" font-family="Times,serif" font-size="14.00">n39</text>
</g>
<g id="edge39" class="edge">
<title>n38&#45;&#45;n39</title>
<path fill="none" stroke="black" d="M213.86,-320.9C215.36,-321.25 216.88,-321.61 218.38,-321.96"/>
</g>
<g id="edge40" class="edge">
<title>n39&#45;&#45;n40</title>
<path fill="none" stroke="black" d="M270.13,-334.32C274.1,-335.29 278.21,-336.28 282.18,-337.25"/>
</g>
<g id="node42" class="node">
<title>n41</title>
<ellipse fill="none" stroke="black" cx="223.34" cy="-352.58" rx="27" ry="18"/>
<text xml:space="preserve" text-anchor="middle" x="223.34" y="-348.38" font-family="Times,serif" font-size="14.00">n41</text>
</g>
<g id="edge41" class="edge">
<title>n40&#45;&#45;n41</title>
<path fill="none" stroke="black" d="M281.03,-346.34C271.27,-347.4 260.24,-348.59 250.45,-349.65"/>
</g>
<g id="node61" class="node">
<title>n60</title>
<ellipse fill="none" stroke="black" cx="360.47" cy="-423.38" rx="27" ry="18"/>
<text xml:space="preserve" text-anchor="middle" x="360.47" y="-419.18" font-family="Times,serif" font-size="14.00">n60</text>
</g>
<g id="edge105" class="edge">
<title>n40&#45;&#45;n60</title>
<path fill="none" stroke="black" d="M318.66,-360.02C327.65,-373.64 340.34,-392.87 349.37,-406.57"/>
</g>
<g id="node43" class="node">
<title>n42</title>
<ellipse fill="none" stroke="black" cx="146.17" cy="-359.74" rx="27" ry="18"/>
<text xml:space="preserve" text-anchor="middle" x="146.17" y="-355.54" font-family="Times,serif" font-size="14.00">n42</text>
</g>
<g id="edge42" class="edge">
<title>n41&#45;&#45;n42</title>
<path fill="none" stroke="black" d="M196.35,-355.08C188.88,-355.77 180.76,-356.53 173.28,-357.22"/>
</g>
<g id="node44" class="node">
<title>n43</title>
<ellipse fill="none" stroke="black" cx="80.55" cy="-366.76" rx="27" ry="18"/>
<text xml:space="preserve" text-anchor="middle" x="80.55" y="-362.56" font-family="Times,serif" font-size="14.00">n43</text>
</g>
<g id="edge43" class="edge">
<title>n42&#45;&#45;n43</title>
<path fill="none" stroke="black" d="M119.1,-362.63C115.29,-363.04 111.37,-363.46 107.56,-363.87"/>
</g>
<g id="node45" class="node">
<title>n44</title>
<ellipse fill="none" stroke="black" cx="32.58" cy="-380.08" rx="27" ry="18"/>
<text xml:space="preserve" text-anchor="middle" x="32.58" y="-375.88" font-family="Times,serif" font-size="14.00">n44</text>
</g>
<g id="edge44" class="edge">
<title>n43&#45;&#45;n44</title>
<path fill="none" stroke="black" d="M55.16,-373.81C55.07,-373.84 54.98,-373.86 54.89,-373.89"/>
</g>
<g id="node46" class="node">
<title>n45</title>
<ellipse fill="none" stroke="black" cx="27" cy="-410.84" rx="27" ry="18"/>
<text xml:space="preserve" text-anchor="middle" x="27" y="-406.64" font-family="Times,serif" font-size="14.00">n45</text>
</g>
<g id="edge45" class="edge">
<title>n44&#45;&#45;n45</title>
<path fill="none" stroke="black" d="M29.27,-398.33C29.25,-398.43 29.23,-398.54 29.21,-398.64"/>
</g>
<g id="node47" class="node">
<title>n46</title>
<ellipse fill="none" stroke="black" cx="49.97" cy="-440.07" rx="27" ry="18"/>
<text xml:space="preserve" text-anchor="middle" x="49.97" y="-435.87" font-family="Times,serif" font-size="14.00">n46</text>
</g>
<g id="edge46" class="edge">
<title>n45&#45;&#45;n46</title>
<path fill="none" stroke="black" d="M39.83,-427.17C39.91,-427.27 39.99,-427.38 40.07,-427.48"/>
</g>
<g id="node48" class="node">
<title>n47</title>
<ellipse fill="none" stroke="black" cx="94.36" cy="-455.47" rx="27" ry="18"/>
<text xml:space="preserve" text-anchor="middle" x="94.36" y="-451.27" font-family="Times,serif" font-size="14.00">n47</text>
</g>
<g id="edge47" class="edge">
<title>n46&#45;&#45;n47</title>
<path fill="none" stroke="black" d="M74.24,-448.49C74.4,-448.55 74.57,-448.6 74.73,-448.66"/>
</g>
<g id="node49" class="node">
<title>n48</title>
<ellipse fill="none" stroke="black" cx="156.7" cy="-455.15" rx="27" ry="18"/>
<text xml:space="preserve" text-anchor="middle" x="156.7" y="-450.95" font-family="Times,serif" font-size="14.00">n48</text>
</g>
<g id="edge48" class="edge">
<title>n47&#45;&#45;n48</title>
<path fill="none" stroke="black" d="M121.52,-455.33C124.15,-455.32 126.81,-455.31 129.44,-455.29"/>
</g>
<g id="node50" class="node">
<title>n49</title>
<ellipse fill="none" stroke="black" cx="230.74" cy="-447.29" rx="27" ry="18"/>
<text xml:space="preserve" text-anchor="middle" x="230.74" y="-443.09" font-family="Times,serif" font-size="14.00">n49</text>
</g>
<g id="edge49" class="edge">
<title>n48&#45;&#45;n49</title>
<path fill="none" stroke="black" d="M183.85,-452.27C190.29,-451.59 197.16,-450.86 203.6,-450.17"/>
</g>
<g id="edge50" class="edge">
<title>n49&#45;&#45;n50</title>
<path fill="none" stroke="black" d="M257.37,-443.4C266.73,-442.03 277.23,-440.5 286.6,-439.13"/>
</g>
<g id="node52" class="node">
<title>n51</title>
<ellipse fill="none" stroke="black" cx="257.85" cy="-476.85" rx="27" ry="18"/>
<text xml:space="preserve" text-anchor="middle" x="257.85" y="-472.65" font-family="Times,serif" font-size="14.00">n51</text>
</g>
<g id="edge51" class="edge">
<title>n50&#45;&#45;n51</title>
<path fill="none" stroke="black" d="M295.26,-448.84C289.05,-453.49 282.11,-458.69 275.91,-463.33"/>
</g>
<g id="node71" class="node">
<title>n70</title>
<ellipse fill="none" stroke="black" cx="403.74" cy="-486.12" rx="27" ry="18"/>
<text xml:space="preserve" text-anchor="middle" x="403.74" y="-481.92" font-family="Times,serif" font-size="14.00">n70</text>
</g>
<g id="edge106" class="edge">
<title>n50&#45;&#45;n70</title>
<path fill="none" stroke="black" d="M334.4,-447.01C348.99,-455.24 368.36,-466.16 382.91,-474.37"/>
</g>
<g id="node53" class="node">
<title>n52</title>
<ellipse fill="none" stroke="black" cx="208.98" cy="-512.4" rx="27" ry="18"/>
<text xml:space="preserve" text-anchor="middle" x="208.98" y="-508.2" font-family="Times,serif" font-size="14.00">n52</text>
</g>
<g id="edge52" class="edge">
<title>n51&#45;&#45;n52</title>
<path fill="none" stroke="black" d="M239.37,-490.29C235.48,-493.12 231.37,-496.11 227.48,-498.94"/>
</g>
<g id="node54" class="node">
<title>n53</title>
<ellipse fill="none" stroke="black" cx="173.18" cy="-542" rx="27" ry="18"/>
<text xml:space="preserve" text-anchor="middle" x="173.18" y="-537.8" font-family="Times,serif" font-size="14.00">n53</text>
</g>
<g id="edge53" class="edge">
<title>n52&#45;&#45;n53</title>
<path fill="none" stroke="black" d="M191.92,-526.51C191.34,-526.98 190.76,-527.46 190.19,-527.94"/>
</g>
<g id="node55" class="node">
<title>n54</title>
<ellipse fill="none" stroke="black" cx="155" cy="-571.64" rx="27" ry="18"/>
<text xml:space="preserve" text-anchor="middle" x="155" y="-567.44" font-family="Times,serif" font-size="14.00">n54</text>
</g>
<g id="edge54" class="edge">
<title>n53&#45;&#45;n54</title>
<path fill="none" stroke="black" d="M162.82,-558.9C162.75,-559.01 162.69,-559.11 162.63,-559.21"/>
</g>
<g id="node56" class="node">
<title>n55</title>
<ellipse fill="none" stroke="black" cx="170.77" cy="-595.45" rx="27" ry="18"/>
<text xml:space="preserve" text-anchor="middle" x="170.77" y="-591.25" font-family="Times,serif" font-size="14.00">n55</text>
</g>
<g id="edge55" class="edge">
<title>n54&#45;&#45;n55</title>
<path fill="none" stroke="black" d="M166.12,-588.44C166.2,-588.56 166.29,-588.68 166.37,-588.8"/>
</g>
<g id="node57" class="node">
<title>n56</title>
<ellipse fill="none" stroke="black" cx="200.92" cy="-596.47" rx="27" ry="18"/>
<text xml:space="preserve" text-anchor="middle" x="200.92" y="-592.27" font-family="Times,serif" font-size="14.00">n56</text>
</g>
<g id="edge56" class="edge">
<title>n55&#45;&#45;n56</title>
<path fill="none" stroke="black" d="M198.13,-596.37C198.24,-596.38 198.35,-596.38 198.45,-596.38"/>
</g>
<g id="node58" class="node">
<title>n57</title>
<ellipse fill="none" stroke="black" cx="234.54" cy="-575.71" rx="27" ry="18"/>
<text xml:space="preserve" text-anchor="middle" x="234.54" y="-571.51" font-family="Times,serif" font-size="14.00">n57</text>
</g>
<g id="edge57" class="edge">
<title>n56&#45;&#45;n57</title>
<path fill="none" stroke="black" d="M220.87,-584.15C220.98,-584.08 221.09,-584.01 221.2,-583.94"/>
</g>
<g id="node59" class="node">
<title>n58</title>
<ellipse fill="none" stroke="black" cx="272.36" cy="-534.5" rx="27" ry="18"/>
<text xml:space="preserve" text-anchor="middle" x="272.36" y="-530.3" font-family="Times,serif" font-size="14.00">n58</text>
</g>
<g id="edge58" class="edge">
<title>n57&#45;&#45;n58</title>
<path fill="none" stroke="black" d="M248.62,-560.36C251.73,-556.98 255.03,-553.39 258.14,-549.99"/>
</g>
<g id="node60" class="node">
<title>n59</title>
<ellipse fill="none" stroke="black" cx="314.71" cy="-481.86" rx="27" ry="18"/>
<text xml:space="preserve" text-anchor="middle" x="314.71" y="-477.66" font-family="Times,serif" font-size="14.00">n59</text>
</g>
<g id="edge59" class="edge">
<title>n58&#45;&#45;n59</title>
<path fill="none" stroke="black" d="M285.3,-518.42C290.55,-511.89 296.61,-504.36 301.85,-497.84"/>
</g>
<g id="edge60" class="edge">
<title>n59&#45;&#45;n60</title>
<path fill="none" stroke="black" d="M327.45,-465.57C333.8,-457.46 341.45,-447.68 347.79,-439.58"/>
</g>
<g id="node62" class="node">
<title>n61</title>
<ellipse fill="none" stroke="black" cx="343.87" cy="-501.48" rx="27" ry="18"/>
<text xml:space="preserve" text-anchor="middle" x="343.87" y="-497.28" font-family="Times,serif" font-size="14.00">n61</text>
</g>
<g id="edge61" class="edge">
<title>n60&#45;&#45;n61</title>
<path fill="none" stroke="black" d="M356.62,-441.49C353.95,-454.02 350.42,-470.63 347.75,-483.2"/>
</g>
<g id="node81" class="node">
<title>n80</title>
<ellipse fill="none" stroke="black" cx="457.55" cy="-392.06" rx="27" ry="18"/>
<text xml:space="preserve" text-anchor="middle" x="457.55" y="-387.86" font-family="Times,serif" font-size="14.00">n80</text>
</g>
<g id="edge107" class="edge">
<title>n60&#45;&#45;n80</title>
<path fill="none" stroke="black" d="M385.22,-415.4C399.82,-410.68 418.25,-404.74 432.84,-400.03"/>
</g>
<g id="node63" class="node">
<title>n62</title>
<ellipse fill="none" stroke="black" cx="327.64" cy="-572.51" rx="27" ry="18"/>
<text xml:space="preserve" text-anchor="middle" x="327.64" y="-568.31" font-family="Times,serif" font-size="14.00">n62</text>
</g>
<g id="edge62" class="edge">
<title>n61&#45;&#45;n62</title>
<path fill="none" stroke="black" d="M339.77,-519.41C337.33,-530.09 334.24,-543.62 331.79,-554.35"/>
</g>
<g id="node64" class="node">
<title>n63</title>
<ellipse fill="none" stroke="black" cx="316.15" cy="-633.77" rx="27" ry="18"/>
<text xml:space="preserve" text-anchor="middle" x="316.15" y="-629.57" font-family="Times,serif" font-size="14.00">n63</text>
</g>
<g id="edge63" class="edge">
<title>n62&#45;&#45;n63</title>
<path fill="none" stroke="black" d="M324.25,-590.56C322.77,-598.46 321.03,-607.72 319.55,-615.64"/>
</g>
<g id="node65" class="node">
<title>n64</title>
<ellipse fill="none" stroke="black" cx="315.16" cy="-680.31" rx="27" ry="18"/>
<text xml:space="preserve" text-anchor="middle" x="315.16" y="-676.11" font-family="Times,serif" font-size="14.00">n64</text>
</g>
<g id="edge64" class="edge">
<title>n63&#45;&#45;n64</title>
<path fill="none" stroke="black" d="M315.76,-652.16C315.69,-655.41 315.62,-658.8 315.55,-662.05"/>
</g>
<g id="node66" class="node">
<title>n65</title>
<ellipse fill="none" stroke="black" cx="341.9" cy="-692.38" rx="27" ry="18"/>
<text xml:space="preserve" text-anchor="middle" x="341.9" y="-688.18" font-family="Times,serif" font-size="14.00">n65</text>
</g>
<g id="edge65" class="edge">
<title>n64&#45;&#45;n65</title>
<path fill="none" stroke="black" d="M337.72,-690.5C337.88,-690.57 338.03,-690.64 338.18,-690.7"/>
</g>
<g id="node67" class="node">
<title>n66</title>
<ellipse fill="none" stroke="black" cx="372.18" cy="-696.89" rx="27" ry="18"/>
<text xml:space="preserve" text-anchor="middle" x="372.18" y="-692.69" font-family="Times,serif" font-size="14.00">n66</text>
</g>
<g id="edge66" class="edge">
<title>n65&#45;&#45;n66</title>
<path fill="none" stroke="black" d="M368.47,-696.34C368.61,-696.36 368.75,-696.38 368.88,-696.4"/>
</g>
<g id="node68" class="node">
<title>n67</title>
<ellipse fill="none" stroke="black" cx="394.79" cy="-676.61" rx="27" ry="18"/>
<text xml:space="preserve" text-anchor="middle" x="394.79" y="-672.41" font-family="Times,serif" font-size="14.00">n67</text>
</g>
<g id="edge67" class="edge">
<title>n66&#45;&#45;n67</title>
<path fill="none" stroke="black" d="M388.61,-682.15C388.72,-682.05 388.83,-681.96 388.94,-681.86"/>
</g>
<g id="node69" class="node">
<title>n68</title>
<ellipse fill="none" stroke="black" cx="400.47" cy="-626.08" rx="27" ry="18"/>
<text xml:space="preserve" text-anchor="middle" x="400.47" y="-621.88" font-family="Times,serif" font-size="14.00">n68</text>
</g>
<g id="edge68" class="edge">
<title>n67&#45;&#45;n68</title>
<path fill="none" stroke="black" d="M396.84,-658.37C397.35,-653.85 397.89,-649 398.4,-644.47"/>
</g>
<g id="node70" class="node">
<title>n69</title>
<ellipse fill="none" stroke="black" cx="402.36" cy="-561.06" rx="27" ry="18"/>
<text xml:space="preserve" text-anchor="middle" x="402.36" y="-556.86" font-family="Times,serif" font-size="14.00">n69</text>
</g>
<g id="edge69" class="edge">
<title>n68&#45;&#45;n69</title>
<path fill="none" stroke="black" d="M401,-607.62C401.26,-598.76 401.57,-588.18 401.83,-579.34"/>
</g>
<g id="edge70" class="edge">
<title>n69&#45;&#45;n70</title>
<path fill="none" stroke="black" d="M402.69,-542.92C402.9,-531.31 403.18,-516.29 403.4,-504.61"/>
</g>
<g id="node72" class="node">
<title>n71</title>
<ellipse fill="none" stroke="black" cx="443.99" cy="-555.49" rx="27" ry="18"/>
<text xml:space="preserve" text-anchor="middle" x="443.99" y="-551.29" font-family="Times,serif" font-size="14.00">n71</text>
</g>
<g id="edge71" class="edge">
<title>n70&#45;&#45;n71</title>
<path fill="none" stroke="black" d="M413.69,-503.27C419.93,-514.02 427.94,-527.83 434.15,-538.54"/>
</g>
<g id="node91" class="node">
<title>n90</title>
<ellipse fill="none" stroke="black" cx="467.95" cy="-414.87" rx="27" ry="18"/>
<text xml:space="preserve" text-anchor="middle" x="467.95" y="-410.67" font-family="Times,serif" font-size="14.00">n90</text>
</g>
<g id="edge108" class="edge">
<title>n70&#45;&#45;n90</title>
<path fill="none" stroke="black" d="M417.99,-470.31C428.63,-458.5 443.11,-442.43 453.74,-430.64"/>
</g>
<g id="node73" class="node">
<title>n72</title>
<ellipse fill="none" stroke="black" cx="482.52" cy="-614.69" rx="27" ry="18"/>
<text xml:space="preserve" text-anchor="middle" x="482.52" y="-610.49" font-family="Times,serif" font-size="14.00">n72</text>
</g>
<g id="edge72" class="edge">
<title>n71&#45;&#45;n72</title>
<path fill="none" stroke="black" d="M454.93,-572.3C460.18,-580.36 466.45,-590 471.69,-598.04"/>
</g>
<g id="node74" class="node">
<title>n73</title>
<ellipse fill="none" stroke="black" cx="521.11" cy="-657.72" rx="27" ry="18"/>
<text xml:space="preserve" text-anchor="middle" x="521.11" y="-653.52" font-family="Times,serif" font-size="14.00">n73</text>
</g>
<g id="edge73" class="edge">
<title>n72&#45;&#45;n73</title>
<path fill="none" stroke="black" d="M496.45,-630.22C499.91,-634.07 503.61,-638.2 507.07,-642.06"/>
</g>
<g id="node75" class="node">
<title>n74</title>
<ellipse fill="none" stroke="black" cx="560.5" cy="-670.08" rx="27" ry="18"/>
<text xml:space="preserve" text-anchor="middle" x="560.5" y="-665.88" font-family="Times,serif" font-size="14.00">n74</text>
</g>
<g id="edge74" class="edge">
<title>n73&#45;&#45;n74</title>
<path fill="none" stroke="black" d="M545.83,-665.48C545.96,-665.51 546.08,-665.55 546.2,-665.59"/>
</g>
<g id="node76" class="node">
<title>n75</title>
<ellipse fill="none" stroke="black" cx="578.55" cy="-638.21" rx="27" ry="18"/>
<text xml:space="preserve" text-anchor="middle" x="578.55" y="-634.01" font-family="Times,serif" font-size="14.00">n75</text>
</g>
<g id="edge75" class="edge">
<title>n74&#45;&#45;n75</title>
<path fill="none" stroke="black" d="M570.16,-653.03C570.23,-652.91 570.29,-652.79 570.36,-652.67"/>
</g>
<g id="node77" class="node">
<title>n76</title>
<ellipse fill="none" stroke="black" cx="583.4" cy="-607.22" rx="27" ry="18"/>
<text xml:space="preserve" text-anchor="middle" x="583.4" y="-603.02" font-family="Times,serif" font-size="14.00">n76</text>
</g>
<g id="edge76" class="edge">
<title>n75&#45;&#45;n76</title>
<path fill="none" stroke="black" d="M581.43,-619.83C581.44,-619.72 581.46,-619.62 581.47,-619.52"/>
</g>
<g id="node78" class="node">
<title>n77</title>
<ellipse fill="none" stroke="black" cx="565.06" cy="-567.77" rx="27" ry="18"/>
<text xml:space="preserve" text-anchor="middle" x="565.06" y="-563.57" font-family="Times,serif" font-size="14.00">n77</text>
</g>
<g id="edge77" class="edge">
<title>n76&#45;&#45;n77</title>
<path fill="none" stroke="black" d="M575.3,-589.8C574.61,-588.32 573.91,-586.81 573.22,-585.33"/>
</g>
<g id="node79" class="node">
<title>n78</title>
<ellipse fill="none" stroke="black" cx="533.61" cy="-517.97" rx="27" ry="18"/>
<text xml:space="preserve" text-anchor="middle" x="533.61" y="-513.77" font-family="Times,serif" font-size="14.00">n78</text>
</g>
<g id="edge78" class="edge">
<title>n77&#45;&#45;n78</title>
<path fill="none" stroke="black" d="M554.41,-550.91C551.13,-545.72 547.52,-540 544.24,-534.81"/>
</g>
<g id="node80" class="node">
<title>n79</title>
<ellipse fill="none" stroke="black" cx="496.1" cy="-458.89" rx="27" ry="18"/>
<text xml:space="preserve" text-anchor="middle" x="496.1" y="-454.69" font-family="Times,serif" font-size="14.00">n79</text>
</g>
<g id="edge79" class="edge">
<title>n78&#45;&#45;n79</title>
<path fill="none" stroke="black" d="M522.96,-501.2C517.85,-493.15 511.74,-483.53 506.65,-475.5"/>
</g>
<g id="edge80" class="edge">
<title>n79&#45;&#45;n80</title>
<path fill="none" stroke="black" d="M486.17,-441.68C480.37,-431.63 473.08,-418.99 467.31,-408.98"/>
</g>
<g id="edge109" class="edge">
<title>n80&#45;&#45;n0</title>
<path fill="none" stroke="black" d="M459.26,-373.83C460.57,-359.74 462.39,-340.32 463.71,-326.23"/>
</g>
<g id="node82" class="node">
<title>n81</title>
<ellipse fill="none" stroke="black" cx="535.52" cy="-377.03" rx="27" ry="18"/>
<text xml:space="preserve" text-anchor="middle" x="535.52" y="-372.83" font-family="Times,serif" font-size="14.00">n81</text>
</g>
<g id="edge81" class="edge">
<title>n80&#45;&#45;n81</title>
<path fill="none" stroke="black" d="M483.95,-386.97C492.08,-385.41 501.02,-383.68 509.15,-382.12"/>
</g>
<g id="node83" class="node">
<title>n82</title>
<ellipse fill="none" stroke="black" cx="608.4" cy="-362.88" rx="27" ry="18"/>
<text xml:space="preserve" text-anchor="middle" x="608.4" y="-358.68" font-family="Times,serif" font-size="14.00">n82</text>
</g>
<g id="edge82" class="edge">
<title>n81&#45;&#45;n82</title>
<path fill="none" stroke="black" d="M561.83,-371.92C568.52,-370.62 575.7,-369.23 582.37,-367.93"/>
</g>
<g id="node84" class="node">
<title>n83</title>
<ellipse fill="none" stroke="black" cx="672.95" cy="-350.69" rx="27" ry="18"/>
<text xml:space="preserve" text-anchor="middle" x="672.95" y="-346.49" font-family="Times,serif" font-size="14.00">n83</text>
</g>
<g id="edge83" class="edge">
<title>n82&#45;&#45;n83</title>
<path fill="none" stroke="black" d="M634.65,-357.92C638.56,-357.18 642.59,-356.42 646.51,-355.68"/>
</g>
<g id="node85" class="node">
<title>n84</title>
<ellipse fill="none" stroke="black" cx="720.72" cy="-348.4" rx="27" ry="18"/>
<text xml:space="preserve" text-anchor="middle" x="720.72" y="-344.2" font-family="Times,serif" font-size="14.00">n84</text>
</g>
<g id="edge84" class="edge">
<title>n83&#45;&#45;n84</title>
<path fill="none" stroke="black" d="M700.18,-349.39C700.27,-349.38 700.35,-349.38 700.44,-349.37"/>
</g>
<g id="node86" class="node">
<title>n85</title>
<ellipse fill="none" stroke="black" cx="729.52" cy="-373.91" rx="27" ry="18"/>
<text xml:space="preserve" text-anchor="middle" x="729.52" y="-369.71" font-family="Times,serif" font-size="14.00">n85</text>
</g>
<g id="edge85" class="edge">
<title>n84&#45;&#45;n85</title>
<path fill="none" stroke="black" d="M726.93,-366.39C726.98,-366.52 727.02,-366.66 727.07,-366.79"/>
</g>
<g id="node87" class="node">
<title>n86</title>
<ellipse fill="none" stroke="black" cx="723.34" cy="-406.04" rx="27" ry="18"/>
<text xml:space="preserve" text-anchor="middle" x="723.34" y="-401.84" font-family="Times,serif" font-size="14.00">n86</text>
</g>
<g id="edge86" class="edge">
<title>n85&#45;&#45;n86</title>
<path fill="none" stroke="black" d="M726,-392.22C725.98,-392.34 725.96,-392.45 725.93,-392.56"/>
</g>
<g id="node88" class="node">
<title>n87</title>
<ellipse fill="none" stroke="black" cx="681.76" cy="-422.36" rx="27" ry="18"/>
<text xml:space="preserve" text-anchor="middle" x="681.76" y="-418.16" font-family="Times,serif" font-size="14.00">n87</text>
</g>
<g id="edge87" class="edge">
<title>n86&#45;&#45;n87</title>
<path fill="none" stroke="black" d="M699.64,-415.34C699.49,-415.4 699.35,-415.46 699.2,-415.51"/>
</g>
<g id="node89" class="node">
<title>n88</title>
<ellipse fill="none" stroke="black" cx="618.55" cy="-425.82" rx="27" ry="18"/>
<text xml:space="preserve" text-anchor="middle" x="618.55" y="-421.62" font-family="Times,serif" font-size="14.00">n88</text>
</g>
<g id="edge88" class="edge">
<title>n87&#45;&#45;n88</title>
<path fill="none" stroke="black" d="M654.59,-423.84C651.64,-424.01 648.64,-424.17 645.7,-424.33"/>
</g>
<g id="node90" class="node">
<title>n89</title>
<ellipse fill="none" stroke="black" cx="546.59" cy="-422.18" rx="27" ry="18"/>
<text xml:space="preserve" text-anchor="middle" x="546.59" y="-417.98" font-family="Times,serif" font-size="14.00">n89</text>
</g>
<g id="edge89" class="edge">
<title>n88&#45;&#45;n89</title>
<path fill="none" stroke="black" d="M591.34,-424.44C585.61,-424.15 579.57,-423.84 573.83,-423.55"/>
</g>
<g id="edge90" class="edge">
<title>n89&#45;&#45;n90</title>
<path fill="none" stroke="black" d="M519.53,-419.66C511.62,-418.93 502.98,-418.12 495.06,-417.39"/>
</g>
<g id="edge110" class="edge">
<title>n90&#45;&#45;n10</title>
<path fill="none" stroke="black" d="M460.6,-397.05C453.37,-379.53 442.39,-352.93 435.18,-335.44"/>
</g>
<g id="node92" class="node">
<title>n91</title>
<ellipse fill="none" stroke="black" cx="526.51" cy="-447.84" rx="27" ry="18"/>
<text xml:space="preserve" text-anchor="middle" x="526.51" y="-443.64" font-family="Times,serif" font-size="14.00">n91</text>
</g>
<g id="edge91" class="edge">
<title>n90&#45;&#45;n91</title>
<path fill="none" stroke="black" d="M488.76,-426.59C494.29,-429.7 500.25,-433.05 505.77,-436.16"/>
</g>
<g id="node93" class="node">
<title>n92</title>
<ellipse fill="none" stroke="black" cx="579.94" cy="-471.8" rx="27" ry="18"/>
<text xml:space="preserve" text-anchor="middle" x="579.94" y="-467.6" font-family="Times,serif" font-size="14.00">n92</text>
</g>
<g id="edge92" class="edge">
<title>n91&#45;&#45;n92</title>
<path fill="none" stroke="black" d="M549.17,-458C551.79,-459.17 554.46,-460.37 557.08,-461.55"/>
</g>
<g id="node94" class="node">
<title>n93</title>
<ellipse fill="none" stroke="black" cx="624.7" cy="-482.64" rx="27" ry="18"/>
<text xml:space="preserve" text-anchor="middle" x="624.7" y="-478.44" font-family="Times,serif" font-size="14.00">n93</text>
</g>
<g id="edge93" class="edge">
<title>n92&#45;&#45;n93</title>
<path fill="none" stroke="black" d="M605.72,-478.04C605.87,-478.08 606.03,-478.11 606.18,-478.15"/>
</g>
<g id="node95" class="node">
<title>n94</title>
<ellipse fill="none" stroke="black" cx="663.13" cy="-474.18" rx="27" ry="18"/>
<text xml:space="preserve" text-anchor="middle" x="663.13" y="-469.98" font-family="Times,serif" font-size="14.00">n94</text>
</g>
<g id="edge94" class="edge">
<title>n93&#45;&#45;n94</title>
<path fill="none" stroke="black" d="M650.55,-476.95C650.66,-476.93 650.77,-476.9 650.87,-476.88"/>
</g>
<g id="node96" class="node">
<title>n95</title>
<ellipse fill="none" stroke="black" cx="678.11" cy="-440.19" rx="27" ry="18"/>
<text xml:space="preserve" text-anchor="middle" x="678.11" y="-435.99" font-family="Times,serif" font-size="14.00">n95</text>
</g>
<g id="edge95" class="edge">
<title>n94&#45;&#45;n95</title>
<path fill="none" stroke="black" d="M670.8,-456.79C670.85,-456.66 670.91,-456.53 670.97,-456.4"/>
</g>
<g id="node97" class="node">
<title>n96</title>
<ellipse fill="none" stroke="black" cx="662.93" cy="-393.72" rx="27" ry="18"/>
<text xml:space="preserve" text-anchor="middle" x="662.93" y="-389.52" font-family="Times,serif" font-size="14.00">n96</text>
</g>
<g id="edge96" class="edge">
<title>n95&#45;&#45;n96</title>
<path fill="none" stroke="black" d="M672.28,-422.36C671.14,-418.88 669.95,-415.22 668.81,-411.74"/>
</g>
<g id="node98" class="node">
<title>n97</title>
<ellipse fill="none" stroke="black" cx="633.25" cy="-351.88" rx="27" ry="18"/>
<text xml:space="preserve" text-anchor="middle" x="633.25" y="-347.68" font-family="Times,serif" font-size="14.00">n97</text>
</g>
<g id="edge97" class="edge">
<title>n96&#45;&#45;n97</title>
<path fill="none" stroke="black" d="M651.2,-377.18C649.19,-374.35 647.1,-371.4 645.09,-368.57"/>
</g>
<g id="node99" class="node">
<title>n98</title>
<ellipse fill="none" stroke="black" cx="590.49" cy="-324.1" rx="27" ry="18"/>
<text xml:space="preserve" text-anchor="middle" x="590.49" y="-319.9" font-family="Times,serif" font-size="14.00">n98</text>
</g>
<g id="edge98" class="edge">
<title>n97&#45;&#45;n98</title>
<path fill="none" stroke="black" d="M613.62,-339.13C612.48,-338.39 611.33,-337.64 610.19,-336.9"/>
</g>
<g id="node100" class="node">
<title>n99</title>
<ellipse fill="none" stroke="black" cx="532.19" cy="-312.19" rx="27" ry="18"/>
<text xml:space="preserve" text-anchor="middle" x="532.19" y="-307.99" font-family="Times,serif" font-size="14.00">n99</text>
</g>
<g id="edge99" class="edge">
<title>n98&#45;&#45;n99</title>
<path fill="none" stroke="black" d="M564.41,-318.77C562.35,-318.35 560.27,-317.93 558.21,-317.51"/>
</g>
<g id="edge100" class="edge">
<title>n99&#45;&#45;n0</title>
<path fill="none" stroke="black" d="M505.03,-310.5C500.99,-310.25 496.82,-309.99 492.77,-309.74"/>
</g>
</g>
</svg>
