<?xml version="1.0" encoding="UTF-8" standalone="no"?>
<!DOCTYPE svg PUBLIC "-//W3C//DTD SVG 1.1//EN"
 "http://www.w3.org/Graphics/SVG/1.1/DTD/svg11.dtd">
<!-- Generated by graphviz version 15.1.0~dev.20260610.0127 (20260610.0127)
 -->
<!-- Title: G Pages: 1 -->
<svg width="1327pt" height="886pt"
 viewBox="0.00 0.00 1327.00 886.00" xmlns="http://www.w3.org/2000/svg" xmlns:xlink="http://www.w3.org/1999/xlink">
<g id="graph0" class="graph" transform="scale(1 1) rotate(0) translate(4 881.6)">
<title>G</title>
<polygon fill="white" stroke="none" points="-4,4 -4,-881.6 1323.39,-881.6 1323.39,4 -4,4"/>
<g id="clust1" class="cluster">
<title>clustere3ffa58211d69e3db000538bf02fa1d0</title>
<polygon fill="none" stroke="black" points="75,-8 75,-797 1126,-797 1126,-8 75,-8"/>
<text xml:space="preserve" text-anchor="middle" x="600.5" y="-780.4" font-family="Times,serif" font-size="14.00">DriveCom Z</text>
</g>
<g id="clust2" class="cluster">
<title>clustere3ffa77611d69e3db000538bf02fa1d0</title>
<polygon fill="none" stroke="black" points="105,-269.8 105,-764.2 865,-764.2 865,-269.8 105,-269.8"/>
<text xml:space="preserve" text-anchor="middle" x="485" y="-747.6" font-family="Times,serif" font-size="14.00">Active</text>
</g>
<!-- routine1 -->
<g id="node1" class="node">
<title>routine1</title>
<ellipse fill="none" stroke="black" cx="577" cy="-859.6" rx="43.22" ry="18"/>
<text xml:space="preserve" text-anchor="middle" x="577" y="-855.4" font-family="Times,serif" font-size="14.00">routine1</text>
</g>
<!-- routine2 -->
<g id="node2" class="node">
<title>routine2</title>
<ellipse fill="none" stroke="black" cx="692" cy="-859.6" rx="43.22" ry="18"/>
<text xml:space="preserve" text-anchor="middle" x="692" y="-855.4" font-family="Times,serif" font-size="14.00">routine2</text>
</g>
<!-- Ie3ffa58211d69e3db000538bf02fa1d0 -->
<g id="node3" class="node">
<title>Ie3ffa58211d69e3db000538bf02fa1d0</title>
<ellipse fill="black" stroke="black" cx="90" cy="-295.8" rx="7.2" ry="7.2"/>
</g>
<!-- Se3ffa4bf11d69e3db000538bf02fa1d0 -->
<g id="node4" class="node">
<title>Se3ffa4bf11d69e3db000538bf02fa1d0</title>
<polygon fill="none" stroke="black" points="431,-182 377,-182 377,-146 431,-146 431,-182"/>
<text xml:space="preserve" text-anchor="middle" x="404" y="-161.3" font-family="Arial" font-size="9.00">Idle</text>
</g>
<!-- Ie3ffa58211d69e3db000538bf02fa1d0&#45;&gt;Se3ffa4bf11d69e3db000538bf02fa1d0 -->
<g id="edge1" class="edge">
<title>Ie3ffa58211d69e3db000538bf02fa1d0&#45;&gt;Se3ffa4bf11d69e3db000538bf02fa1d0</title>
<path fill="none" stroke="black" d="M90,-288.24C90.39,-270.34 94.14,-220.41 123.17,-197 159.57,-167.65 297.38,-164.26 365.46,-164.45"/>
<polygon fill="black" stroke="black" points="365.4,-167.95 375.42,-164.51 365.44,-160.95 365.4,-167.95"/>
<text xml:space="preserve" text-anchor="middle" x="182.59" y="-248.3" font-family="Arial" font-size="9.00">Out_RFGInhibit=true;</text>
<text xml:space="preserve" text-anchor="middle" x="182.59" y="-237.5" font-family="Arial" font-size="9.00">Out_SwitchOn = false;</text>
<text xml:space="preserve" text-anchor="middle" x="182.59" y="-226.7" font-family="Arial" font-size="9.00">Out_DisableVoltage = false;</text>
<text xml:space="preserve" text-anchor="middle" x="182.59" y="-215.9" font-family="Arial" font-size="9.00">Out_QuickStop = false;</text>
<text xml:space="preserve" text-anchor="middle" x="182.59" y="-205.1" font-family="Arial" font-size="9.00">Out_EnableOperation = false;</text>
<polyline fill="none" stroke="black" points="242,-202.4 123.17,-202.4 166.75,-179.52"/>
</g>
<!-- Se3ffa7b011d69e3db000538bf02fa1d0 -->
<g id="node5" class="node">
<title>Se3ffa7b011d69e3db000538bf02fa1d0</title>
<polygon fill="none" stroke="black" points="573,-52 519,-52 519,-16 573,-16 573,-52"/>
<text xml:space="preserve" text-anchor="middle" x="546" y="-31.3" font-family="Arial" font-size="9.00">Disabled</text>
</g>
<!-- Se3ffa4bf11d69e3db000538bf02fa1d0&#45;&gt;Se3ffa7b011d69e3db000538bf02fa1d0 -->
<g id="edge3" class="edge">
<title>Se3ffa4bf11d69e3db000538bf02fa1d0&#45;&gt;Se3ffa7b011d69e3db000538bf02fa1d0</title>
<path fill="none" stroke="black" d="M397.64,-145.63C391.16,-124.6 384.36,-89.24 402.19,-67 415.17,-50.82 469.45,-42.29 507.47,-38.22"/>
<polygon fill="black" stroke="black" points="507.58,-41.73 517.18,-37.25 506.88,-34.76 507.58,-41.73"/>
<text xml:space="preserve" text-anchor="middle" x="456.1" y="-122.9" font-family="Arial" font-size="9.00">!In_QuickStop &amp;&amp;</text>
<text xml:space="preserve" text-anchor="middle" x="456.1" y="-112.1" font-family="Arial" font-size="9.00">!In_ReadyToSwitchOn &amp;&amp;</text>
<text xml:space="preserve" text-anchor="middle" x="456.1" y="-101.3" font-family="Arial" font-size="9.00">!In_SwitchedOn &amp;&amp;</text>
<text xml:space="preserve" text-anchor="middle" x="456.1" y="-90.5" font-family="Arial" font-size="9.00">!In_OperationEnabled</text>
<text xml:space="preserve" text-anchor="middle" x="456.1" y="-69.7" font-family="Arial" font-size="9.00">Servo_Res_Disable = true;</text>
<polyline fill="none" stroke="black" points="510,-67 402.19,-67 444.04,-48.4"/>
</g>
<!-- Se3ffa7b011d69e3db000538bf02fa1d0&#45;&gt;Se3ffa4bf11d69e3db000538bf02fa1d0 -->
<g id="edge5" class="edge">
<title>Se3ffa7b011d69e3db000538bf02fa1d0&#45;&gt;Se3ffa4bf11d69e3db000538bf02fa1d0</title>
<path fill="none" stroke="black" d="M544.75,-52.46C542.28,-73.92 534.92,-110.06 513,-131 494.09,-149.07 465.53,-157 442.38,-160.46"/>
<polygon fill="black" stroke="black" points="442.18,-156.95 432.69,-161.66 443.05,-163.9 442.18,-156.95"/>
<text xml:space="preserve" text-anchor="middle" x="597.87" y="-122.9" font-family="Arial" font-size="9.00">In_QuickStop ||</text>
<text xml:space="preserve" text-anchor="middle" x="597.87" y="-112.1" font-family="Arial" font-size="9.00">In_ReadyToSwitchOn ||</text>
<text xml:space="preserve" text-anchor="middle" x="597.87" y="-101.3" font-family="Arial" font-size="9.00">In_SwitchedOn ||</text>
<text xml:space="preserve" text-anchor="middle" x="597.87" y="-90.5" font-family="Arial" font-size="9.00">In_OperationEnabled</text>
<text xml:space="preserve" text-anchor="middle" x="597.87" y="-69.7" font-family="Arial" font-size="9.00">Servo_Res_Disable = false;</text>
<polyline fill="none" stroke="black" points="653.52,-67 542.21,-67 538.95,-82.88"/>
</g>
<!-- Ie3ffa77611d69e3db000538bf02fa1d0 -->
<g id="node6" class="node">
<title>Ie3ffa77611d69e3db000538bf02fa1d0</title>
<ellipse fill="black" stroke="black" cx="850" cy="-713.4" rx="7.2" ry="7.2"/>
</g>
<!-- Se3ffa7b011d69e3db000538bf02fa1d0&#45;&gt;Ie3ffa77611d69e3db000538bf02fa1d0 -->
<g id="edge4" class="edge">
<title>Se3ffa7b011d69e3db000538bf02fa1d0&#45;&gt;Ie3ffa77611d69e3db000538bf02fa1d0</title>
<path fill="none" stroke="black" d="M573.22,-36.79C598.3,-39.69 635.4,-47.25 661,-67 700.11,-97.17 717,-113.6 717,-163 717,-563.8 717,-563.8 717,-563.8 717,-617.54 709.51,-643.96 749,-680.4 775.26,-704.64 795.41,-680.74 828,-695.4 831.03,-696.76 834.02,-698.62 836.78,-700.62"/>
<polygon fill="black" stroke="black" points="834.28,-703.09 844.21,-706.79 838.75,-697.7 834.28,-703.09"/>
<text xml:space="preserve" text-anchor="middle" x="799.87" y="-353.1" font-family="Arial" font-size="9.00">sig_Cmd_Init.isAvailable() || Cmd_Enable</text>
<text xml:space="preserve" text-anchor="middle" x="799.87" y="-342.3" font-family="Arial" font-size="9.00">sig_Cmd_Init.get();</text>
<text xml:space="preserve" text-anchor="middle" x="799.87" y="-331.5" font-family="Arial" font-size="9.00">Servo_R`s_Disable = true;</text>
<polyline fill="none" stroke="black" points="882.75,-328.8 717,-328.8 717,-394.72"/>
</g>
<!-- Se3ffa90d11d69e3db000538bf02fa1d0 -->
<g id="node17" class="node">
<title>Se3ffa90d11d69e3db000538bf02fa1d0</title>
<polygon fill="none" stroke="black" points="938.51,-580.8 873.49,-580.8 873.49,-544.8 938.51,-544.8 938.51,-580.8"/>
<text xml:space="preserve" text-anchor="middle" x="906" y="-560.1" font-family="Arial" font-size="9.00">Moverlapion</text>
</g>
<!-- Ie3ffa77611d69e3db000538bf02fa1d0&#45;&gt;Se3ffa90d11d69e3db000538bf02fa1d0 -->
<g id="edge22" class="edge">
<title>Ie3ffa77611d69e3db000538bf02fa1d0&#45;&gt;Se3ffa90d11d69e3db000538bf02fa1d0</title>
<path fill="none" stroke="black" d="M856.56,-710.09C867.16,-705.98 887.8,-696.29 897,-680.4 912.57,-653.53 912.74,-617.14 910.36,-592.2"/>
<polygon fill="black" stroke="black" points="913.87,-592 909.22,-582.47 906.91,-592.81 913.87,-592"/>
<text xml:space="preserve" text-anchor="middle" x="979.63" y="-672.3" font-family="Arial" font-size="9.00">In_Malfunction</text>
<text xml:space="preserve" text-anchor="middle" x="979.63" y="-661.5" font-family="Arial" font-size="9.00">/*1state_SwitchOnInhibit = false;</text>
<text xml:space="preserve" text-anchor="middle" x="979.63" y="-650.7" font-family="Arial" font-size="9.00">1state_ReadyToSwitchOn = false;</text>
<text xml:space="preserve" text-anchor="middle" x="979.63" y="-639.9" font-family="Arial" font-size="9.00">1state_SwitchedOn = false;</text>
<text xml:space="preserve" text-anchor="middle" x="979.63" y="-629.1" font-family="Arial" font-size="9.00">1state_OperationEnabled = false;</text>
<text xml:space="preserve" text-anchor="middle" x="979.63" y="-618.3" font-family="Arial" font-size="9.00">1state_QuickStopActive = false;*/</text>
<polyline fill="none" stroke="black" points="1047.79,-615.6 911.47,-615.6 910.02,-638.86"/>
</g>
<!-- Se3ffa84b11d69e3db000538bf02fa1d0 -->
<g id="node19" class="node">
<title>Se3ffa84b11d69e3db000538bf02fa1d0</title>
<polygon fill="none" stroke="black" points="1319.08,-580.8 1146.92,-580.8 1146.92,-544.8 1319.08,-544.8 1319.08,-580.8"/>
<text xml:space="preserve" text-anchor="middle" x="1233" y="-560.1" font-family="Arial" font-size="9.00">Se3ffa84b11d69e3db000538bf02fa1d0</text>
</g>
<!-- Ie3ffa77611d69e3db000538bf02fa1d0&#45;&gt;Se3ffa84b11d69e3db000538bf02fa1d0 -->
<g id="edge6" class="edge">
<title>Ie3ffa77611d69e3db000538bf02fa1d0&#45;&gt;Se3ffa84b11d69e3db000538bf02fa1d0</title>
<path fill="none" stroke="black" d="M857.49,-712.25C906.55,-711.24 1180.78,-704.49 1208,-680.4 1232.47,-658.75 1236.27,-619.47 1235.59,-592.54"/>
<polygon fill="black" stroke="black" points="1239.09,-592.46 1235.09,-582.65 1232.1,-592.81 1239.09,-592.46"/>
</g>
<!-- Se3€fa84b11d69e3db000538bf02fa1d0 -->
<g id="node7" class="node">
<title>Se3€fa84b11d69e3db000538bf02fa1d0</title>
<polygon fill="none" stroke="black" points="286.52,-731.4 229.48,-731.4 229.48,-695.4 286.52,-695.4 286.52,-731.4"/>
<text xml:space="preserve" text-anchor="middle" x="258" y="-710.7" font-family="Arial" font-size="9.00">Undefined</text>
</g>
<!-- Se3ffa60811d69e3db000538bf02fa1d0 -->
<g id="node8" class="node">
<title>Se3ffa60811d69e3db000538bf02fa1d0</title>
<polygon fill="none" stroke="black" points="643.02,-731.4 538.98,-731.4 538.98,-695.4 643.02,-695.4 643.02,-731.4"/>
<text xml:space="preserve" text-anchor="middle" x="591" y="-710.7" font-family="Arial" font-size="9.00">Wait Switch On Inhibit</text>
</g>
<!-- Se3ffa60811d69e3db000538bf02fa1d0&#45;&gt;Se3ffa60811d69e3db000538bf02fa1d0 -->
<g id="edge9" class="edge">
<title>Se3ffa60811d69e3db000538bf02fa1d0&#45;&gt;Se3ffa60811d69e3db000538bf02fa1d0</title>
<path fill="none" stroke="black" d="M643.21,-725.65C659.34,-725.4 672.02,-721.32 672.02,-713.4 672.02,-707.46 664.89,-703.68 654.52,-702.05"/>
<polygon fill="black" stroke="black" points="654.96,-698.58 644.72,-701.27 654.4,-705.56 654.96,-698.58"/>
<text xml:space="preserve" text-anchor="middle" x="748.4" y="-721.5" font-family="Arial" font-size="9.00">After(timeout_Response)</text>
<text xml:space="preserve" text-anchor="middle" x="748.4" y="-710.7" font-family="Arial" font-size="9.00">LogError(L&#39;Servo response timeout&#39;);</text>
<text xml:space="preserve" text-anchor="middle" x="748.4" y="-699.9" font-family="Arial" font-size="9.00">message = L&#39;Servo response timeout&#39;;</text>
<polyline fill="none" stroke="black" points="824.78,-697.2 672.02,-697.2 672.01,-713.26"/>
</g>
<!-- Se3ffa87211d69e3db000538bf02fa1d0 -->
<g id="node9" class="node">
<title>Se3ffa87211d69e3db000538bf02fa1d0</title>
<polygon fill="none" stroke="black" points="659.77,-580.8 576.23,-580.8 576.23,-544.8 659.77,-544.8 659.77,-580.8"/>
<text xml:space="preserve" text-anchor="middle" x="618" y="-560.1" font-family="Arial" font-size="9.00">Switch On Inhibit</text>
</g>
<!-- Se3ffa60811d69e3db000538bf02fa1d0&#45;&gt;Se3ffa87211d69e3db000538bf02fa1d0 -->
<g id="edge8" class="edge">
<title>Se3ffa60811d69e3db000538bf02fa1d0&#45;&gt;Se3ffa87211d69e3db000538bf02fa1d0</title>
<path fill="none" stroke="black" d="M590.41,-695.03C590.12,-675.47 590.8,-642.86 597,-615.6 598.82,-607.59 601.73,-599.21 604.82,-591.59"/>
<polygon fill="black" stroke="black" points="608,-593.04 608.75,-582.47 601.58,-590.27 608,-593.04"/>
<text xml:space="preserve" text-anchor="middle" x="650.9" y="-650.7" font-family="Arial" font-size="9.00">In_QuickStop</text>
<text xml:space="preserve" text-anchor="middle" x="650.9" y="-639.9" font-family="Arial" font-size="9.00">Servo_Res_Disable = true;</text>
<polyline fill="none" stroke="black" points="704.81,-637.2 597,-637.2 592.74,-641.48"/>
</g>
<!-- Se3ffa65611d69e3db000538bf02fa1d0 -->
<g id="node10" class="node">
<title>Se3ffa65611d69e3db000538bf02fa1d0</title>
<polygon fill="none" stroke="black" points="303.52,-426.6 184.48,-426.6 184.48,-390.6 303.52,-390.6 303.52,-426.6"/>
<text xml:space="preserve" text-anchor="middle" x="244" y="-405.9" font-family="Arial" font-size="9.00">Wait Ready To Switch On</text>
</g>
<!-- Se3ffa87211d69e3db000538bf02fa1d0&#45;&gt;Se3ffa65611d69e3db000538bf02fa1d0 -->
<g id="edge10" class="edge">
<title>Se3ffa87211d69e3db000538bf02fa1d0&#45;&gt;Se3ffa65611d69e3db000538bf02fa1d0</title>
<path fill="none" stroke="black" d="M593.07,-544.41C583.52,-538.02 572.42,-530.91 562,-525 548.69,-517.45 542.34,-520.28 531,-510 510.16,-491.11 521.6,-471.31 498,-456 454.39,-427.71 433.18,-450.11 382,-441 360.06,-437.09 336.35,-432.02 314.87,-427.08"/>
<polygon fill="black" stroke="black" points="315.87,-423.72 305.34,-424.87 314.29,-430.54 315.87,-423.72"/>
<text xml:space="preserve" text-anchor="middle" x="613.87" y="-501.9" font-family="Arial" font-size="9.00">sig_Cmd_Init.isAvailable() || Cmd_Enable</text>
<text xml:space="preserve" text-anchor="middle" x="613.87" y="-491.1" font-family="Arial" font-size="9.00">sig_Cmd_Init.get();</text>
<text xml:space="preserve" text-anchor="middle" x="613.87" y="-480.3" font-family="Arial" font-size="9.00">Out_DisableVoltage = true;</text>
<text xml:space="preserve" text-anchor="middle" x="613.87" y="-469.5" font-family="Arial" font-size="9.00">Out_QuickStop = true;</text>
<text xml:space="preserve" text-anchor="middle" x="613.87" y="-458.7" font-family="Arial" font-size="9.00">Servo_Res_Disable = false;</text>
<polyline fill="none" stroke="black" points="696.75,-456 531,-456 580.33,-536.09"/>
</g>
<!-- Sfa1d0 -->
<g id="node20" class="node">
<title>Sfa1d0</title>
<polygon fill="none" stroke="black" points="54,-313.8 0,-313.8 0,-277.8 54,-277.8 54,-313.8"/>
<text xml:space="preserve" text-anchor="middle" x="27" y="-293.1" font-family="Arial" font-size="9.00">Sfa1d0</text>
</g>
<!-- Se3ffa65611d69e3db000538bf02fa1d0&#45;&gt;Sfa1d0 -->
<g id="edge11" class="edge">
<title>Se3ffa65611d69e3db000538bf02fa1d0&#45;&gt;Sfa1d0</title>
<path fill="none" stroke="black" d="M219.54,-390.42C194.08,-373.12 152.62,-346.52 114,-328.8 94.45,-319.83 88.17,-321.26 68,-313.8 66.88,-313.39 65.74,-312.96 64.6,-312.52"/>
<polygon fill="black" stroke="black" points="66.23,-309.4 55.64,-308.99 63.66,-315.91 66.23,-309.4"/>
<text xml:space="preserve" text-anchor="middle" x="249.06" y="-353.1" font-family="Arial" font-size="9.00">After(timeout_Resposkewnse)</text>
<text xml:space="preserve" text-anchor="middle" x="249.06" y="-342.3" font-family="Arial" font-size="9.00">LogError(L&#39;Servo response timeout&#39;);</text>
<text xml:space="preserve" text-anchor="middle" x="249.06" y="-331.5" font-family="Arial" font-size="9.00">message = L&#39;Servo response timeout&#39;;</text>
<polyline fill="none" stroke="black" points="325.44,-328.8 172.68,-328.8 218.63,-389.81"/>
</g>
<!-- Se3ffa61c11d69e3db000538bf02fa1d0 -->
<g id="node11" class="node">
<title>Se3ffa61c11d69e3db000538bf02fa1d0</title>
<polygon fill="none" stroke="black" points="510.27,-731.4 411.73,-731.4 411.73,-695.4 510.27,-695.4 510.27,-731.4"/>
<text xml:space="preserve" text-anchor="middle" x="461" y="-710.7" font-family="Arial" font-size="9.00">Ready To Switch On</text>
</g>
<!-- Se3ffa53211d69e3db000538bf02fa1d0 -->
<g id="node12" class="node">
<title>Se3ffa53211d69e3db000538bf02fa1d0</title>
<polygon fill="none" stroke="black" points="200.76,-731.4 113.24,-731.4 113.24,-695.4 200.76,-695.4 200.76,-731.4"/>
<text xml:space="preserve" text-anchor="middle" x="157" y="-710.7" font-family="Arial" font-size="9.00">Wait Switched On</text>
</g>
<!-- Se3ffa8ac11d69e3db000538bf02fa1d0 -->
<g id="node13" class="node">
<title>Se3ffa8ac11d69e3db000538bf02fa1d0</title>
<polygon fill="none" stroke="black" points="382.51,-731.4 315.49,-731.4 315.49,-695.4 382.51,-695.4 382.51,-731.4"/>
<text xml:space="preserve" text-anchor="middle" x="349" y="-710.7" font-family="Arial" font-size="9.00">Switched On</text>
</g>
<!-- Se3ffa83711d69e3db000538bf02fa1d0 -->
<g id="node14" class="node">
<title>Se3ffa83711d69e3db000538bf02fa1d0</title>
<polygon fill="none" stroke="black" points="376.78,-580.8 265.22,-580.8 265.22,-544.8 376.78,-544.8 376.78,-580.8"/>
<text xml:space="preserve" text-anchor="middle" x="321" y="-560.1" font-family="Arial" font-size="9.00">Wait Operation Enabled</text>
</g>
<!-- Se3ffa8ac11d69e3db000538bf02fa1d0&#45;&gt;Se3ffa83711d69e3db000538bf02fa1d0 -->
<g id="edge13" class="edge">
<title>Se3ffa8ac11d69e3db000538bf02fa1d0&#45;&gt;Se3ffa83711d69e3db000538bf02fa1d0</title>
<path fill="none" stroke="black" d="M345.73,-695.06C340.97,-669.78 332.06,-622.52 326.34,-592.14"/>
<polygon fill="black" stroke="black" points="329.82,-591.69 324.53,-582.51 322.94,-592.99 329.82,-591.69"/>
<text xml:space="preserve" text-anchor="middle" x="425.83" y="-656.1" font-family="Arial" font-size="9.00">sig_Cmd_Init.isAvailable() || Cmd_Enable</text>
<text xml:space="preserve" text-anchor="middle" x="425.83" y="-645.3" font-family="Arial" font-size="9.00">sig_Cmd_Init.get();</text>
<text xml:space="preserve" text-anchor="middle" x="425.83" y="-634.5" font-family="Arial" font-size="9.00">Out_EnableOperation = true;</text>
<polyline fill="none" stroke="black" points="508.7,-631.8 342.95,-631.8 339.89,-664.04"/>
</g>
<!-- Se3ffa83711d69e3db000538bf02fa1d0&#45;&gt;Se3ffa83711d69e3db000538bf02fa1d0 -->
<g id="edge15" class="edge">
<title>Se3ffa83711d69e3db000538bf02fa1d0&#45;&gt;Se3ffa83711d69e3db000538bf02fa1d0</title>
<path fill="none" stroke="black" d="M377.25,-577.7C393.36,-577.12 405.78,-572.15 405.78,-562.8 405.78,-555.79 398.79,-551.24 388.5,-549.16"/>
<polygon fill="black" stroke="black" points="389.09,-545.7 378.76,-548.06 388.31,-552.66 389.09,-545.7"/>
<text xml:space="preserve" text-anchor="middle" x="482.16" y="-570.9" font-family="Arial" font-size="9.00">After(timeout_Response)</text>
<text xml:space="preserve" text-anchor="middle" x="482.16" y="-560.1" font-family="Arial" font-size="9.00">LogError(L&#39;Servo response timeout&#39;);</text>
<text xml:space="preserve" text-anchor="middle" x="482.16" y="-549.3" font-family="Arial" font-size="9.00">message = L&#39;Servo response timeout&#39;;</text>
<polyline fill="none" stroke="black" points="558.54,-546.6 405.78,-546.6 405.78,-562.64"/>
</g>
<!-- Se3ffa81011d69e3db000538bf02fa1d0 -->
<g id="node15" class="node">
<title>Se3ffa81011d69e3db000538bf02fa1d0</title>
<polygon fill="none" stroke="black" points="487.53,-426.6 396.47,-426.6 396.47,-390.6 487.53,-390.6 487.53,-426.6"/>
<text xml:space="preserve" text-anchor="middle" x="442" y="-405.9" font-family="Arial" font-size="9.00">Operation Enabled</text>
</g>
<!-- Se3ffa83711d69e3db000538bf02fa1d0&#45;&gt;Se3ffa81011d69e3db000538bf02fa1d0 -->
<g id="edge14" class="edge">
<title>Se3ffa83711d69e3db000538bf02fa1d0&#45;&gt;Se3ffa81011d69e3db000538bf02fa1d0</title>
<path fill="none" stroke="black" d="M330.07,-544.68C342.04,-522.89 364.51,-484.64 389.18,-456 395.65,-448.49 403.34,-441.08 410.81,-434.45"/>
<polygon fill="black" stroke="black" points="412.94,-437.23 418.25,-428.06 408.38,-431.92 412.94,-437.23"/>
<text xml:space="preserve" text-anchor="middle" x="442.09" y="-485.7" font-family="Arial" font-size="9.00">In_OperationEnabled</text>
<text xml:space="preserve" text-anchor="middle" x="442.09" y="-474.9" font-family="Arial" font-size="9.00">Servo_Res_Enable = true;</text>
<polyline fill="none" stroke="black" points="495,-472.2 389.18,-472.2 402.74,-441.87"/>
</g>
<!-- Se3ffa81011d69e3db000538bf02fa1d0&#45;&gt;Se3ffa4bf11d69e3db000538bf02fa1d0 -->
<g id="edge18" class="edge">
<title>Se3ffa81011d69e3db000538bf02fa1d0&#45;&gt;Se3ffa4bf11d69e3db000538bf02fa1d0</title>
<path fill="none" stroke="black" d="M467.3,-390.12C475.02,-385.23 483.67,-380.17 492,-376.2 510.65,-367.31 521.19,-375.6 536,-361.2 589.63,-309.04 620.72,-254.61 573,-197 556.78,-177.42 487.36,-169.73 442.7,-166.78"/>
<polygon fill="black" stroke="black" points="443.08,-163.29 432.88,-166.18 442.65,-170.28 443.08,-163.29"/>
<text xml:space="preserve" text-anchor="middle" x="649.88" y="-298.5" font-family="Arial" font-size="9.00">!In_OperationEnabled</text>
<text xml:space="preserve" text-anchor="middle" x="649.88" y="-287.7" font-family="Arial" font-size="9.00">Servo_Res_Enable = false;</text>
<polyline fill="none" stroke="black" points="704.54,-285 595.22,-285 593.08,-279.22"/>
</g>
<!-- Se3ffa81011d69e3db000538bf02fa1d0&#45;&gt;Se3ffa81011d69e3db000538bf02fa1d0 -->
<g id="edge19" class="edge">
<title>Se3ffa81011d69e3db000538bf02fa1d0&#45;&gt;Se3ffa81011d69e3db000538bf02fa1d0</title>
<path fill="none" stroke="black" d="M487.85,-420.52C503.71,-420.65 516.53,-416.67 516.53,-408.6 516.53,-402.54 509.32,-398.8 499.02,-397.35"/>
<polygon fill="black" stroke="black" points="499.55,-393.88 489.36,-396.77 499.13,-400.87 499.55,-393.88"/>
<text xml:space="preserve" text-anchor="middle" x="591.07" y="-432.9" font-family="Arial" font-size="9.00">!Cmd_Enable &amp;&amp; Servo_Res_Enable</text>
<text xml:space="preserve" text-anchor="middle" x="591.07" y="-422.1" font-family="Arial" font-size="9.00">Servo_Res_Enable = false;</text>
<text xml:space="preserve" text-anchor="middle" x="591.07" y="-411.3" font-family="Arial" font-size="9.00">Out_SwitchOn = false;</text>
<text xml:space="preserve" text-anchor="middle" x="591.07" y="-400.5" font-family="Arial" font-size="9.00">Out_DisableVoltage = false;</text>
<text xml:space="preserve" text-anchor="middle" x="591.07" y="-389.7" font-family="Arial" font-size="9.00">Out_QuickStop = false;</text>
<text xml:space="preserve" text-anchor="middle" x="591.07" y="-378.9" font-family="Arial" font-size="9.00">Out_EnableOperation = false;</text>
<polyline fill="none" stroke="black" points="665.62,-376.2 516.53,-376.2 516.53,-408.46"/>
</g>
<!-- Se3ffa8d311d69e3db000538bf02fa1d0 -->
<g id="node16" class="node">
<title>Se3ffa8d311d69e3db000538bf02fa1d0</title>
<polygon fill="none" stroke="black" points="447.51,-313.8 360.49,-313.8 360.49,-277.8 447.51,-277.8 447.51,-313.8"/>
<text xml:space="preserve" text-anchor="middle" x="404" y="-293.1" font-family="Arial" font-size="9.00">Quick Stop Active</text>
</g>
<!-- Se3ffa81011d69e3db000538bf02fa1d0&#45;&gt;Se3ffa8d311d69e3db000538bf02fa1d0 -->
<g id="edge16" class="edge">
<title>Se3ffa81011d69e3db000538bf02fa1d0&#45;&gt;Se3ffa8d311d69e3db000538bf02fa1d0</title>
<path fill="none" stroke="black" d="M432.8,-390.32C428.49,-381.74 423.54,-371.11 420,-361.2 415.89,-349.69 412.43,-336.65 409.8,-325.33"/>
<polygon fill="black" stroke="black" points="413.26,-324.78 407.69,-315.78 406.43,-326.3 413.26,-324.78"/>
<text xml:space="preserve" text-anchor="middle" x="474.66" y="-347.7" font-family="Arial" font-size="9.00">!In_QuickStop</text>
<text xml:space="preserve" text-anchor="middle" x="474.66" y="-336.9" font-family="Arial" font-size="9.00">Servo_Res_Enable = false;</text>
<polyline fill="none" stroke="black" points="529.32,-334.2 420,-334.2 419.98,-361.13"/>
</g>
<!-- Se3ffa81011d69e3db000538bq02fa1d0 -->
<g id="node21" class="node">
<title>Se3ffa81011d69e3db000538bq02fa1d0</title>
<polygon fill="none" stroke="black" points="1308.33,-313.8 1133.67,-313.8 1133.67,-277.8 1308.33,-277.8 1308.33,-313.8"/>
<text xml:space="preserve" text-anchor="middle" x="1221" y="-293.1" font-family="Arial" font-size="9.00">Se3ffa81011d69e3db000538bq02fa1d0</text>
</g>
<!-- Se3ffa81011d69e3db000538bf02fa1d0&#45;&gt;Se3ffa81011d69e3db000538bq02fa1d0 -->
<g id="edge17" class="edge">
<title>Se3ffa81011d69e3db000538bf02fa1d0&#45;&gt;Se3ffa81011d69e3db000538bq02fa1d0</title>
<path fill="none" stroke="black" d="M487.98,-407.83C622.61,-407.98 1013.96,-404.57 1133,-361.2 1156.26,-352.72 1178.72,-336.1 1195.13,-321.87"/>
<polygon fill="black" stroke="black" points="1197.36,-324.57 1202.46,-315.28 1192.68,-319.36 1197.36,-324.57"/>
<text xml:space="preserve" text-anchor="middle" x="1252.61" y="-353.1" font-family="Arial" font-size="9.00">sig_Cmd_QuickStop.isAvailable()</text>
<text xml:space="preserve" text-anchor="middle" x="1252.61" y="-342.3" font-family="Arial" font-size="9.00">sig_Cmd_QuickStop.get();</text>
<text xml:space="preserve" text-anchor="middle" x="1252.61" y="-331.5" font-family="Arial" font-size="9.00">Out_QuickStop = false;</text>
<polyline fill="none" stroke="black" points="1319.39,-328.8 1185.83,-328.8 1195.13,-321.87"/>
</g>
<!-- Se3ffa8d311d69e3db000538bf02fa1d0&#45;&gt;Se3ffa4bf11d69e3db000538bf02fa1d0 -->
<g id="edge20" class="edge">
<title>Se3ffa8d311d69e3db000538bf02fa1d0&#45;&gt;Se3ffa4bf11d69e3db000538bf02fa1d0</title>
<path fill="none" stroke="black" d="M375.06,-277.42C368.95,-274.42 362.41,-271.66 356,-269.8 336.18,-264.03 277.4,-277.01 263.45,-261.8 243.98,-240.58 245.49,-219.51 263.45,-197 276.04,-181.22 328.57,-172.62 365.71,-168.42"/>
<polygon fill="black" stroke="black" points="365.6,-171.95 375.17,-167.41 364.86,-164.99 365.6,-171.95"/>
<text xml:space="preserve" text-anchor="middle" x="315.72" y="-237.5" font-family="Arial" font-size="9.00">!In_ReadyToSwitchOn &amp;&amp;</text>
<text xml:space="preserve" text-anchor="middle" x="315.72" y="-226.7" font-family="Arial" font-size="9.00">!In_SwitchedOn &amp;&amp;</text>
<text xml:space="preserve" text-anchor="middle" x="315.72" y="-215.9" font-family="Arial" font-size="9.00">!In_OperationEnabled</text>
<polyline fill="none" stroke="black" points="368,-213.2 263.45,-213.2 317.29,-268.95"/>
</g>
<!-- Se3ffa8d311d69e3db000538bf02fa1d0&#45;&gt;Se3ffa4bf11d69e3db000538bf02fa1d0 -->
<g id="edge21" class="edge">
<title>Se3ffa8d311d69e3db000538bf02fa1d0&#45;&gt;Se3ffa4bf11d69e3db000538bf02fa1d0</title>
<path fill="none" stroke="black" d="M402.59,-277.34C402.24,-272.33 401.92,-266.85 401.75,-261.8 400.77,-233.02 400.74,-225.78 401.75,-197 401.79,-195.8 401.84,-194.58 401.9,-193.35"/>
<polygon fill="black" stroke="black" points="405.37,-193.96 402.47,-183.77 398.38,-193.54 405.37,-193.96"/>
<text xml:space="preserve" text-anchor="middle" x="485.88" y="-253.7" font-family="Arial" font-size="9.00">sig_Cmd_Init.isAvailable() || !Cmd_Enable</text>
<text xml:space="preserve" text-anchor="middle" x="485.88" y="-242.9" font-family="Arial" font-size="9.00">sig_Cmd_Init.get();</text>
<text xml:space="preserve" text-anchor="middle" x="485.88" y="-232.1" font-family="Arial" font-size="9.00">Out_SwitchOn = false;</text>
<text xml:space="preserve" text-anchor="middle" x="485.88" y="-221.3" font-family="Arial" font-size="9.00">Out_DisableVoltage = false;</text>
<text xml:space="preserve" text-anchor="middle" x="485.88" y="-210.5" font-family="Arial" font-size="9.00">Out_QuickStop = false;</text>
<text xml:space="preserve" text-anchor="middle" x="485.88" y="-199.7" font-family="Arial" font-size="9.00">Out_EnableOperation = false;</text>
<polyline fill="none" stroke="black" points="570,-197 401.75,-197 401,-229.4"/>
</g>
<!-- Se3ffa90d11d69e3db000538bf02fa1d0&#45;&gt;Ie3ffa77611d69e3db000538bf02fa1d0 -->
<g id="edge23" class="edge">
<title>Se3ffa90d11d69e3db000538bf02fa1d0&#45;&gt;Ie3ffa77611d69e3db000538bf02fa1d0</title>
<path fill="none" stroke="black" d="M892.99,-580.92C886.57,-588.15 878.23,-595.96 869,-600.6 828.92,-620.75 798.45,-581.6 769.19,-615.6 750.39,-637.43 751.52,-657.66 769.19,-680.4 785.74,-701.7 803.75,-683.57 828,-695.4 830.88,-696.81 833.76,-698.63 836.42,-700.56"/>
<polygon fill="black" stroke="black" points="834.2,-703.26 844.15,-706.9 838.64,-697.85 834.2,-703.26"/>
<text xml:space="preserve" text-anchor="middle" x="829.59" y="-650.7" font-family="Arial" font-size="9.00">!In_Malfunction</text>
<text xml:space="preserve" text-anchor="middle" x="829.59" y="-639.9" font-family="Arial" font-size="9.00">Out_ResetMalfunction = false;</text>
<polyline fill="none" stroke="black" points="890,-637.2 769.19,-637.2 834.39,-606.21"/>
</g>
<!-- Se3ffa90d11d69e3db000538bf02fa1d0&#45;&gt;Se3ffa90d11d69e3db000538bf02fa1d0 -->
<g id="edge24" class="edge">
<title>Se3ffa90d11d69e3db000538bf02fa1d0&#45;&gt;Se3ffa90d11d69e3db000538bf02fa1d0</title>
<path fill="none" stroke="black" d="M938.91,-577.47C954.17,-579.07 967.51,-574.18 967.51,-562.8 967.51,-554.36 960.17,-549.49 950.14,-548.19"/>
<polygon fill="black" stroke="black" points="950.44,-544.69 940.42,-548.14 950.4,-551.69 950.44,-544.69"/>
<text xml:space="preserve" text-anchor="middle" x="1048.3" y="-592.5" font-family="Arial" font-size="9.00">sig_Cmd_ResetMalfunction.isAvailable()</text>
<text xml:space="preserve" text-anchor="middle" x="1048.3" y="-581.7" font-family="Arial" font-size="9.00">sig_Cmd_ResetMalfunction.get();</text>
<text xml:space="preserve" text-anchor="middle" x="1048.3" y="-570.9" font-family="Arial" font-size="9.00">Out_ResetMalfunction = true;</text>
<text xml:space="preserve" text-anchor="middle" x="1048.3" y="-560.1" font-family="Arial" font-size="9.00">Out_SwitchOn = false;</text>
<text xml:space="preserve" text-anchor="middle" x="1048.3" y="-549.3" font-family="Arial" font-size="9.00">Out_DisableVoltage = false;</text>
<text xml:space="preserve" text-anchor="middle" x="1048.3" y="-538.5" font-family="Arial" font-size="9.00">Out_EnableOperation = false;</text>
<text xml:space="preserve" text-anchor="middle" x="1048.3" y="-527.7" font-family="Arial" font-size="9.00">Out_QuickStop = false;</text>
<polyline fill="none" stroke="black" points="1129.08,-525 967.51,-525 967.51,-562.7"/>
</g>
<!-- Se3dfa4bf11d69e3db000538bf02fa1d0 -->
<g id="node18" class="node">
<title>Se3dfa4bf11d69e3db000538bf02fa1d0</title>
<polygon fill="none" stroke="black" points="936.08,-877.6 763.92,-877.6 763.92,-841.6 936.08,-841.6 936.08,-877.6"/>
<text xml:space="preserve" text-anchor="middle" x="850" y="-856.9" font-family="Arial" font-size="9.00">Se3dfa4bf11d69e3db000538bf02fa1d0</text>
</g>
<!-- Se3dfa4bf11d69e3db000538bf02fa1d0&#45;&gt;Ie3ffa77611d69e3db000538bf02fa1d0 -->
<g id="edge2" class="edge">
<title>Se3dfa4bf11d69e3db000538bf02fa1d0&#45;&gt;Ie3ffa77611d69e3db000538bf02fa1d0</title>
<path fill="none" stroke="black" d="M850,-841.21C850,-813.65 850,-760.25 850,-732.35"/>
<polygon fill="black" stroke="black" points="853.5,-732.44 850,-722.44 846.5,-732.44 853.5,-732.44"/>
<text xml:space="preserve" text-anchor="middle" x="932.87" y="-818.5" font-family="Arial" font-size="9.00">sig_Cmd_Init.isAvailable() || Cmd_Enable</text>
<text xml:space="preserve" text-anchor="middle" x="932.87" y="-807.7" font-family="Arial" font-size="9.00">sig_Cmd_Init.get();</text>
<polyline fill="none" stroke="black" points="1015.75,-805 850,-805 850,-816.71"/>
</g>
<!-- Se3ffa84b11d69e3db000538bf02fa1d0&#45;&gt;Se3ffa60811d69e3db000538bf02fa1d0 -->
<g id="edge7" class="edge">
<title>Se3ffa84b11d69e3db000538bf02fa1d0&#45;&gt;Se3ffa60811d69e3db000538bf02fa1d0</title>
<path fill="none" stroke="black" d="M1182.95,-581.21C1154.63,-591.81 1122.72,-605.26 1111.7,-615.6 1088.18,-637.67 1105.96,-662.68 1079,-680.4 1055.65,-695.75 855.88,-693.57 828,-695.4 769.25,-699.26 702.34,-704.1 654.63,-707.63"/>
<polygon fill="black" stroke="black" points="654.46,-704.13 644.74,-708.36 654.97,-711.11 654.46,-704.13"/>
<text xml:space="preserve" text-anchor="middle" x="1156.35" y="-645.3" font-family="Arial" font-size="9.00">Out_QuickStop = true;</text>
<polyline fill="none" stroke="black" points="1201,-642.6 1111.7,-642.6 1111.69,-615.62"/>
</g>
<!-- Sfa1d0&#45;&gt;Se3ffa53211d69e3db000538bf02fa1d0 -->
<g id="edge12" class="edge">
<title>Sfa1d0&#45;&gt;Se3ffa53211d69e3db000538bf02fa1d0</title>
<path fill="none" stroke="black" d="M32.44,-314.2C52.63,-378.75 123.36,-604.85 148.25,-684.43"/>
<polygon fill="black" stroke="black" points="144.8,-685.13 151.13,-693.63 151.48,-683.04 144.8,-685.13"/>
<text xml:space="preserve" text-anchor="middle" x="169.88" y="-491.1" font-family="Arial" font-size="9.00">After(timeout_Resposkewnse)</text>
<text xml:space="preserve" text-anchor="middle" x="169.88" y="-480.3" font-family="Arial" font-size="9.00">LogError(L&#39;Servo response timeout&#39;);</text>
<text xml:space="preserve" text-anchor="middle" x="169.88" y="-469.5" font-family="Arial" font-size="9.00">message = L&#39;Servo response timeout&#39;;</text>
<polyline fill="none" stroke="black" points="246.27,-466.8 93.5,-466.8 92.82,-507.23"/>
</g>
</g>
</svg>
