<?xml version="1.0" encoding="UTF-8" standalone="no"?>
<!DOCTYPE svg PUBLIC "-//W3C//DTD SVG 1.1//EN"
 "http://www.w3.org/Graphics/SVG/1.1/DTD/svg11.dtd">
<!-- Generated by graphviz-ts -->
<svg width="449pt" height="473pt"
     viewBox="0.00 0.00 449.00 473.00"
     xmlns="http://www.w3.org/2000/svg" xmlns:xlink="http://www.w3.org/1999/xlink">
<g id="graph0" class="graph" transform="scale(1 1) rotate(0) translate(4 468.6)">
<title>G</title>
<polygon fill="white" stroke="none" points="-4,4 -4,-468.6 445.47,-468.6 445.47,4 -4,4"/>
<text xml:space="preserve" text-anchor="middle" x="220.73" y="-8.2" font-family="Times,serif" font-size="14.00">SelfBottom</text>
<g id="clust2" class="cluster">
<title>cluster_inner</title>
<polygon fill="none" stroke="black" points="62,-32.8 62,-328.6 203,-328.6 203,-32.8 62,-32.8"/>
<text xml:space="preserve" text-anchor="middle" x="132.5" y="-312" font-family="Times,serif" font-size="14.00"> &#160;&#160;&#160;&#160;&#160;&#160;&#160;&#160;&#160;&#160;&#160;&#160;&#160;&#160;&#160;&#160;&#160;&#160;&#160;&#160;&#160;&#160;&#160;&#160;&#160;Act_2</text>
</g>
<g id="node1" class="node">
<title>node55</title>
<ellipse fill="none" stroke="black" cx="137" cy="-446.6" rx="39.47" ry="18"/>
<text xml:space="preserve" text-anchor="middle" x="137" y="-442.4" font-family="Times,serif" font-size="14.00">node55</text>
</g>
<g id="edge1" class="edge">
<title>node55:se&#45;&gt;node55:se</title>
<path fill="none" stroke="black" d="M153.6,-430C158.1,-422.52 158.1,-410.35 153.6,-410.35 150.99,-410.35 149.9,-414.42 150.3,-419.29"/>
<polygon fill="black" stroke="black" points="146.87,-420.03 153.15,-428.56 153.56,-417.97 146.87,-420.03"/>
<text xml:space="preserve" text-anchor="middle" x="137" y="-397.75" font-family="Times,serif" font-size="14.00">tailport=se headport=se</text>
</g>
<g id="edge2" class="edge">
<title>node55:se&#45;&gt;node55:se</title>
<path fill="none" stroke="black" d="M153.6,-430C162.6,-416.43 162.6,-392.1 153.6,-392.1 146.63,-392.1 145.06,-406.66 148.86,-419.53"/>
<polygon fill="black" stroke="black" points="145.67,-420.95 152.97,-428.63 152.05,-418.07 145.67,-420.95"/>
<text xml:space="preserve" text-anchor="middle" x="137" y="-379.5" font-family="Times,serif" font-size="14.00">tailport=se headport=se</text>
</g>
<g id="node2" class="node">
<title>node66</title>
<ellipse fill="none" stroke="black" cx="137" cy="-373.6" rx="39.47" ry="18"/>
<text xml:space="preserve" text-anchor="middle" x="137" y="-369.4" font-family="Times,serif" font-size="14.00">node66</text>
</g>
<g id="edge3" class="edge">
<title>node55&#45;&gt;node66</title>
<path fill="none" stroke="black" d="M137,-428.41C137,-420.83 137,-411.7 137,-403.14"/>
<polygon fill="black" stroke="black" points="140.5,-403.14 137,-393.14 133.5,-403.14 140.5,-403.14"/>
</g>
<g id="node3" class="node">
<title>r</title>
<ellipse fill="none" stroke="black" cx="221" cy="-446.6" rx="27" ry="18"/>
<text xml:space="preserve" text-anchor="middle" x="221" y="-442.4" font-family="Times,serif" font-size="14.00">r</text>
</g>
<g id="node4" class="node">
<title>Act_1</title>
<ellipse fill="none" stroke="black" cx="300" cy="-373.6" rx="34.64" ry="18"/>
<text xml:space="preserve" text-anchor="middle" x="300" y="-369.4" font-family="Times,serif" font-size="14.00">Act_1</text>
</g>
<g id="node5" class="node">
<title>Act_21</title>
<ellipse fill="none" stroke="black" cx="156" cy="-277.8" rx="39.47" ry="18"/>
<text xml:space="preserve" text-anchor="middle" x="156" y="-273.6" font-family="Times,serif" font-size="14.00">Act_21</text>
</g>
<g id="edge4" class="edge">
<title>Act_1&#45;&gt;Act_21</title>
<path fill="none" stroke="black" d="M279.06,-358.96C254.92,-343.23 214.99,-317.23 187.19,-299.12"/>
<polygon fill="black" stroke="black" points="189.47,-296.42 179.18,-293.9 185.65,-302.29 189.47,-296.42"/>
</g>
<g id="node6" class="node">
<title>Act_23</title>
<ellipse fill="none" stroke="black" cx="402" cy="-277.8" rx="39.47" ry="18"/>
<text xml:space="preserve" text-anchor="middle" x="402" y="-273.6" font-family="Times,serif" font-size="14.00">Act_23</text>
</g>
<g id="edge5" class="edge">
<title>Act_1&#45;&gt;Act_23</title>
<path fill="none" stroke="black" d="M316.39,-357.53C332.63,-342.6 357.73,-319.51 376.56,-302.2"/>
<polygon fill="black" stroke="black" points="378.87,-304.83 383.86,-295.48 374.13,-299.68 378.87,-304.83"/>
</g>
<g id="node9" class="node">
<title>Act_22</title>
<ellipse fill="none" stroke="black" cx="156" cy="-204.8" rx="39.47" ry="18"/>
<text xml:space="preserve" text-anchor="middle" x="156" y="-200.6" font-family="Times,serif" font-size="14.00">Act_22</text>
</g>
<g id="edge7" class="edge">
<title>Act_21&#45;&gt;Act_22</title>
<path fill="none" stroke="black" d="M156,-259.61C156,-252.03 156,-242.9 156,-234.34"/>
<polygon fill="black" stroke="black" points="159.5,-234.34 156,-224.34 152.5,-234.34 159.5,-234.34"/>
</g>
<g id="node11" class="node">
<title>Act_24</title>
<ellipse fill="none" stroke="black" cx="354" cy="-131.8" rx="39.47" ry="18"/>
<text xml:space="preserve" text-anchor="middle" x="354" y="-127.6" font-family="Times,serif" font-size="14.00">Act_24</text>
</g>
<g id="edge10" class="edge">
<title>Act_23&#45;&gt;Act_24</title>
<path fill="none" stroke="black" d="M391.88,-260C381.14,-235.63 365.68,-190.19 357.84,-160.74"/>
<polygon fill="black" stroke="black" points="361.33,-160.27 355.52,-151.41 354.54,-161.96 361.33,-160.27"/>
</g>
<g id="edge17" class="edge">
<title>Act_23&#45;&gt;Act_24</title>
<path fill="none" stroke="black" d="M400.79,-259.43C395.11,-234.62 380.12,-188.83 368.34,-159.64"/>
<polygon fill="black" stroke="black" points="371.7,-158.6 364.6,-150.74 365.25,-161.31 371.7,-158.6"/>
</g>
<g id="node12" class="node">
<title>Act_25</title>
<ellipse fill="none" stroke="black" cx="156" cy="-58.8" rx="39.47" ry="18"/>
<text xml:space="preserve" text-anchor="middle" x="156" y="-54.6" font-family="Times,serif" font-size="14.00">Act_25</text>
</g>
<g id="edge11" class="edge">
<title>Act_23&#45;&gt;Act_25</title>
<path fill="none" stroke="black" d="M403.28,-259.4C410.35,-226.69 427.97,-155.57 393,-113.8 369.09,-85.24 268.02,-70.77 205.76,-64.29"/>
<polygon fill="black" stroke="black" points="206.42,-60.84 196.12,-63.33 205.72,-67.81 206.42,-60.84"/>
</g>
<g id="edge18" class="edge">
<title>Act_23&#45;&gt;Act_25</title>
<path fill="none" stroke="black" d="M413.28,-260.16C428.07,-227.8 446.24,-155.89 411,-113.8 385.59,-83.45 273.11,-69.02 206.22,-63.17"/>
<polygon fill="black" stroke="black" points="206.86,-59.71 196.6,-62.37 206.28,-66.69 206.86,-59.71"/>
</g>
<g id="node7" class="node">
<title>Hct_25</title>
<ellipse fill="none" stroke="black" cx="392" cy="-446.6" rx="39.47" ry="18"/>
<text xml:space="preserve" text-anchor="middle" x="392" y="-442.4" font-family="Times,serif" font-size="14.00">Hct_25</text>
</g>
<g id="node8" class="node">
<title>Act_3</title>
<ellipse fill="none" stroke="black" cx="392" cy="-373.6" rx="34.64" ry="18"/>
<text xml:space="preserve" text-anchor="middle" x="392" y="-369.4" font-family="Times,serif" font-size="14.00">Act_3</text>
</g>
<g id="edge6" class="edge">
<title>Hct_25&#45;&gt;Act_3</title>
<path fill="none" stroke="black" d="M392,-428.41C392,-420.83 392,-411.7 392,-403.14"/>
<polygon fill="black" stroke="black" points="395.5,-403.14 392,-393.14 388.5,-403.14 395.5,-403.14"/>
</g>
<g id="node10" class="node">
<title>Ac_t23</title>
<ellipse fill="none" stroke="black" cx="131" cy="-131.8" rx="39.47" ry="18"/>
<text xml:space="preserve" text-anchor="middle" x="131" y="-127.6" font-family="Times,serif" font-size="14.00">Ac_t23</text>
</g>
<g id="edge8" class="edge">
<title>Act_22&#45;&gt;Ac_t23</title>
<path fill="none" stroke="black" d="M149.95,-186.61C147.18,-178.76 143.84,-169.27 140.74,-160.46"/>
<polygon fill="black" stroke="black" points="144.12,-159.53 137.5,-151.26 137.52,-161.85 144.12,-159.53"/>
</g>
<g id="edge9" class="edge">
<title>Act_22&#45;&gt;Act_24</title>
<path fill="none" stroke="black" d="M186.5,-192.86C220.47,-180.68 275.53,-160.94 313.18,-147.44"/>
<polygon fill="black" stroke="black" points="314.13,-150.82 322.36,-144.14 311.77,-144.23 314.13,-150.82"/>
</g>
<g id="node16" class="node">
<title>AcT_24</title>
<ellipse fill="none" stroke="black" cx="254" cy="-131.8" rx="42.68" ry="18"/>
<text xml:space="preserve" text-anchor="middle" x="254" y="-127.6" font-family="Times,serif" font-size="14.00">AcT_24</text>
</g>
<g id="edge16" class="edge">
<title>Act_22&#45;&gt;AcT_24</title>
<path fill="none" stroke="black" d="M176.31,-189.09C190.14,-179.07 208.69,-165.63 224.19,-154.39"/>
<polygon fill="black" stroke="black" points="226.11,-157.33 232.16,-148.62 222.01,-151.66 226.11,-157.33"/>
</g>
<g id="edge12" class="edge">
<title>Act_24&#45;&gt;Act_25</title>
<path fill="none" stroke="black" d="M322.07,-121.08C287.26,-109.39 231.84,-89.63 194.63,-75.71"/>
<polygon fill="black" stroke="black" points="196.19,-72.56 185.6,-72.31 193.72,-79.11 196.19,-72.56"/>
</g>
<g id="edge19" class="edge">
<title>Act_24&#45;&gt;Act_25</title>
<path fill="none" stroke="black" d="M326.05,-118.92C292.97,-106.34 237.81,-86.53 199.24,-73.35"/>
<polygon fill="black" stroke="black" points="200.37,-70.04 189.77,-70.15 198.12,-76.67 200.37,-70.04"/>
</g>
<g id="node13" class="node">
<title>Ext_1</title>
<ellipse fill="none" stroke="black" cx="300" cy="-446.6" rx="34.1" ry="18"/>
<text xml:space="preserve" text-anchor="middle" x="300" y="-442.4" font-family="Times,serif" font-size="14.00">Ext_1</text>
</g>
<g id="edge13" class="edge">
<title>Ext_1&#45;&gt;Act_1</title>
<path fill="none" stroke="black" d="M300,-428.41C300,-420.83 300,-411.7 300,-403.14"/>
<polygon fill="black" stroke="black" points="303.5,-403.14 300,-393.14 296.5,-403.14 303.5,-403.14"/>
</g>
<g id="node14" class="node">
<title>3</title>
<ellipse fill="none" stroke="black" cx="27" cy="-277.8" rx="27" ry="18"/>
<text xml:space="preserve" text-anchor="middle" x="27" y="-273.6" font-family="Times,serif" font-size="14.00">3</text>
</g>
<g id="node15" class="node">
<title>22</title>
<ellipse fill="none" stroke="black" cx="27" cy="-204.8" rx="27" ry="18"/>
<text xml:space="preserve" text-anchor="middle" x="27" y="-200.6" font-family="Times,serif" font-size="14.00">22</text>
</g>
<g id="edge14" class="edge">
<title>3&#45;&gt;22</title>
<path fill="none" stroke="black" d="M27,-259.61C27,-252.03 27,-242.9 27,-234.34"/>
<polygon fill="black" stroke="black" points="30.5,-234.34 27,-224.34 23.5,-234.34 30.5,-234.34"/>
</g>
<g id="edge15" class="edge">
<title>22&#45;&gt;Ac_t23</title>
<path fill="none" stroke="black" d="M45.12,-191.43C60.34,-181.04 82.42,-165.96 100.38,-153.7"/>
<polygon fill="black" stroke="black" points="102.33,-156.61 108.62,-148.08 98.39,-150.83 102.33,-156.61"/>
</g>
</g>
</svg>
