<?xml version="1.0" encoding="UTF-8" standalone="no"?>
<!DOCTYPE svg PUBLIC "-//W3C//DTD SVG 1.1//EN"
 "http://www.w3.org/Graphics/SVG/1.1/DTD/svg11.dtd">
<!-- Generated by graphviz-ts -->
<svg width="13pt" height="480pt"
     viewBox="0.00 0.00 13.00 480.00"
     xmlns="http://www.w3.org/2000/svg" xmlns:xlink="http://www.w3.org/1999/xlink">
<g id="graph0" class="graph" transform="scale(1 1) rotate(0) translate(4 475.86)">
<title>CrashPOC</title>
<polygon fill="white" stroke="none" points="-4,4 -4,-475.86 8.76,-475.86 8.76,4 -4,4"/>
<g id="clust1" class="cluster">
<title>cluster_outer</title>
<polygon fill="none" stroke="black" points="0,0 0,0 0,0 0,0 0,0"/>
</g>
<g id="clust2" class="cluster">
<title>cluster_inner</title>
<polygon fill="none" stroke="black" points="-0.11,0 -0.11,-329 2.98,-329 2.98,0 -0.11,0"/>
</g>
<g id="node1" class="node">
<title>A</title>
<ellipse fill="none" stroke="black" cx="0" cy="-330" rx="27" ry="18"/>
<text xml:space="preserve" text-anchor="middle" x="0" y="-325.8" font-family="Times,serif" font-size="14.00">A</text>
</g>
<g id="node2" class="node">
<title>B</title>
<ellipse fill="none" stroke="black" cx="4" cy="-258" rx="27" ry="18"/>
<text xml:space="preserve" text-anchor="middle" x="4" y="-253.8" font-family="Times,serif" font-size="14.00">B</text>
</g>
<g id="edge1" class="edge">
<title>A&#45;&gt;B</title>
<path fill="none" stroke="black" d="M0.99,-311.7C1.41,-304.41 1.9,-295.73 2.37,-287.54"/>
<polygon fill="black" stroke="black" points="5.86,-287.8 2.94,-277.62 -1.13,-287.4 5.86,-287.8"/>
</g>
<g id="node3" class="node">
<title>C</title>
<ellipse fill="none" stroke="black" cx="2" cy="-186" rx="27" ry="18"/>
<text xml:space="preserve" text-anchor="middle" x="2" y="-181.8" font-family="Times,serif" font-size="14.00">C</text>
</g>
<g id="edge2" class="edge">
<title>B&#45;&gt;C</title>
<path fill="none" stroke="black" d="M3.51,-239.7C3.3,-232.41 3.05,-223.73 2.82,-215.54"/>
<polygon fill="black" stroke="black" points="6.32,-215.51 2.53,-205.62 -0.68,-215.71 6.32,-215.51"/>
</g>
<g id="node5" class="node">
<title>E</title>
<ellipse fill="none" stroke="black" cx="0" cy="-186" rx="27" ry="18"/>
<text xml:space="preserve" text-anchor="middle" x="0" y="-181.8" font-family="Times,serif" font-size="14.00">E</text>
</g>
<g id="edge4" class="edge">
<title>B&#45;&gt;E</title>
<path fill="none" stroke="black" d="M3.01,-239.7C2.59,-232.41 2.1,-223.73 1.63,-215.54"/>
<polygon fill="black" stroke="black" points="5.13,-215.4 1.06,-205.62 -1.86,-215.8 5.13,-215.4"/>
</g>
<g id="node4" class="node">
<title>D</title>
<ellipse fill="none" stroke="black" cx="0" cy="-114" rx="27" ry="18"/>
<text xml:space="preserve" text-anchor="middle" x="0" y="-109.8" font-family="Times,serif" font-size="14.00">D</text>
</g>
<g id="edge3" class="edge">
<title>C&#45;&gt;D</title>
<path fill="none" stroke="black" d="M1.51,-167.7C1.3,-160.41 1.05,-151.73 0.82,-143.54"/>
<polygon fill="black" stroke="black" points="4.32,-143.51 0.53,-133.62 -2.68,-143.71 4.32,-143.51"/>
</g>
<g id="node8" class="node">
<title>F</title>
<ellipse fill="none" stroke="black" cx="1" cy="-114" rx="27" ry="18"/>
<text xml:space="preserve" text-anchor="middle" x="1" y="-109.8" font-family="Times,serif" font-size="14.00">F</text>
</g>
<g id="edge7" class="edge">
<title>C&#45;&gt;F</title>
<path fill="none" stroke="black" d="M1.75,-167.7C1.65,-160.41 1.52,-151.73 1.41,-143.54"/>
<polygon fill="black" stroke="black" points="4.91,-143.57 1.27,-133.62 -2.09,-143.67 4.91,-143.57"/>
</g>
<g id="node9" class="node">
<title>G</title>
<ellipse fill="none" stroke="black" cx="0" cy="-42" rx="27" ry="18"/>
<text xml:space="preserve" text-anchor="middle" x="0" y="-37.8" font-family="Times,serif" font-size="14.00">G</text>
</g>
<g id="edge8" class="edge">
<title>D&#45;&gt;G</title>
<path fill="none" stroke="black" d="M0,-95.7C0,-88.41 0,-79.73 0,-71.54"/>
<polygon fill="black" stroke="black" points="3.5,-71.62 0,-61.62 -3.5,-71.62 3.5,-71.62"/>
</g>
<g id="node6" class="node">
<title>I</title>
<ellipse fill="none" stroke="black" cx="0" cy="-474" rx="27" ry="18"/>
<text xml:space="preserve" text-anchor="middle" x="0" y="-469.8" font-family="Times,serif" font-size="14.00">I</text>
</g>
<g id="node7" class="node">
<title>H</title>
<ellipse fill="none" stroke="black" cx="5" cy="-402" rx="27" ry="18"/>
<text xml:space="preserve" text-anchor="middle" x="5" y="-397.8" font-family="Times,serif" font-size="14.00">H</text>
</g>
<g id="edge5" class="edge">
<title>I&#45;&gt;H</title>
<path fill="none" stroke="black" d="M1.24,-455.7C1.76,-448.41 2.38,-439.73 2.96,-431.54"/>
<polygon fill="black" stroke="black" points="6.45,-431.84 3.67,-421.61 -0.53,-431.34 6.45,-431.84"/>
</g>
<g id="edge14" class="edge">
<title>H&#45;&gt;A</title>
<path fill="none" stroke="black" d="M3.76,-383.7C3.24,-376.41 2.62,-367.73 2.04,-359.54"/>
<polygon fill="black" stroke="black" points="5.53,-359.34 1.33,-349.61 -1.45,-359.84 5.53,-359.34"/>
</g>
<g id="edge6" class="edge">
<title>H&#45;&gt;C</title>
<path fill="none" stroke="black" d="M4.76,-383.85C4.25,-347.14 3.03,-260.66 2.4,-215.53"/>
<polygon fill="black" stroke="black" points="5.9,-215.7 2.26,-205.75 -1.1,-215.79 5.9,-215.7"/>
</g>
</g>
</svg>
