<?xml version="1.0" encoding="UTF-8" standalone="no"?>
<!DOCTYPE svg PUBLIC "-//W3C//DTD SVG 1.1//EN"
 "http://www.w3.org/Graphics/SVG/1.1/DTD/svg11.dtd">
<!-- Generated by graphviz version 15.1.0~dev.20260610.0127 (20260610.0127)
 -->
<!-- Title: GraphMain Pages: 1 -->
<svg width="967pt" height="825pt"
 viewBox="0.00 0.00 967.00 825.00" xmlns="http://www.w3.org/2000/svg" xmlns:xlink="http://www.w3.org/1999/xlink">
<g id="graph0" class="graph" transform="scale(2.08333 2.08333) rotate(0) translate(4 392)">
<title>GraphMain</title>
<polygon fill="white" stroke="none" points="-4,4 -4,-392 460,-392 460,4 -4,4"/>
<g id="clust1" class="cluster">
<title>cluster_Host_14MI233</title>
<polygon fill="none" stroke="black" points="8,-8 8,-380 448,-380 448,-8 8,-8"/>
<text xml:space="preserve" text-anchor="middle" x="228" y="-368.8" font-family="Times,serif" font-size="8.00">14MI233</text>
</g>
<g id="clust2" class="cluster">
<title>cluster_Proc_14MI233_13276</title>
<polygon fill="lightblue" stroke="black" points="87,-307.6 87,-354.4 145,-354.4 145,-307.6 87,-307.6"/>
<text xml:space="preserve" text-anchor="middle" x="116" y="-343.2" font-family="Times,serif" font-size="8.00">AppManager</text>
<text xml:space="preserve" text-anchor="middle" x="116" y="-333.6" font-family="Times,serif" font-size="8.00">(13276)</text>
</g>
<g id="clust3" class="cluster">
<title>cluster_Proc_14MI233_13752</title>
<polygon fill="pink" stroke="black" points="72,-232 72,-278.8 132,-278.8 132,-232 72,-232"/>
<text xml:space="preserve" text-anchor="middle" x="102" y="-267.6" font-family="Times,serif" font-size="8.00">AppLauncher</text>
<text xml:space="preserve" text-anchor="middle" x="102" y="-258" font-family="Times,serif" font-size="8.00">(13752)</text>
</g>
<g id="clust4" class="cluster">
<title>cluster_Proc_14MI233_19436</title>
<polygon fill="lemonchiffon" stroke="black" points="294,-16 294,-95.2 440,-95.2 440,-16 294,-16"/>
<text xml:space="preserve" text-anchor="middle" x="367" y="-84" font-family="Times,serif" font-size="8.00">Simu[Sine]</text>
<text xml:space="preserve" text-anchor="middle" x="367" y="-74.4" font-family="Times,serif" font-size="8.00">(19436)</text>
</g>
<g id="clust5" class="cluster">
<title>cluster_Proc_14MI233_19484</title>
<polygon fill="chartreuse" stroke="black" points="294,-124 294,-203.2 440,-203.2 440,-124 294,-124"/>
<text xml:space="preserve" text-anchor="middle" x="367" y="-192" font-family="Times,serif" font-size="8.00">Sched[14MI233]</text>
<text xml:space="preserve" text-anchor="middle" x="367" y="-182.4" font-family="Times,serif" font-size="8.00">(19484)</text>
</g>
<g id="clust6" class="cluster">
<title>cluster_Proc_14MI233_19812</title>
<polygon fill="chartreuse" stroke="black" points="16,-32.2 16,-79 80,-79 80,-32.2 16,-32.2"/>
<text xml:space="preserve" text-anchor="middle" x="48" y="-67.8" font-family="Times,serif" font-size="8.00">Dist[14MI233]</text>
<text xml:space="preserve" text-anchor="middle" x="48" y="-58.2" font-family="Times,serif" font-size="8.00">(19812)</text>
</g>
<g id="clust7" class="cluster">
<title>cluster_Proc_14MI233_20900</title>
<polygon fill="#cccccc" stroke="black" points="158,-307.6 158,-344.8 194,-344.8 194,-307.6 158,-307.6"/>
<text xml:space="preserve" text-anchor="middle" x="176" y="-333.6" font-family="Times,serif" font-size="8.00">20900</text>
</g>
<g id="clust8" class="cluster">
<title>cluster_Proc_14MI233_21704</title>
<polygon fill="pink" stroke="black" points="92,-124 92,-203.2 238,-203.2 238,-124 92,-124"/>
<text xml:space="preserve" text-anchor="middle" x="165" y="-192" font-family="Times,serif" font-size="8.00">AlysaManager[2]</text>
<text xml:space="preserve" text-anchor="middle" x="165" y="-182.4" font-family="Times,serif" font-size="8.00">(21704)</text>
</g>
<g id="clust9" class="cluster">
<title>cluster_Proc_14MI233_23428</title>
<polygon fill="lemonchiffon" stroke="black" points="92,-16 92,-95.2 238,-95.2 238,-16 92,-16"/>
<text xml:space="preserve" text-anchor="middle" x="165" y="-84" font-family="Times,serif" font-size="8.00">Simu[BigPing]</text>
<text xml:space="preserve" text-anchor="middle" x="165" y="-74.4" font-family="Times,serif" font-size="8.00">(23428)</text>
</g>
<!-- 0 -->
<!-- 1 -->
<!-- 0&#45;&gt;1 -->
<g id="edge1" class="edge">
<title>0&#45;&gt;1</title>
<path fill="none" stroke="blue" d="M102,-307.6C102,-302.93 102,-296.79 102,-290.14"/>
<polygon fill="blue" stroke="blue" points="105.5,-290.31 102,-280.31 98.5,-290.31 105.5,-290.31"/>
</g>
<!-- 6 -->
<!-- 1&#45;&gt;6 -->
<g id="edge2" class="edge">
<title>1&#45;&gt;6</title>
<path fill="none" stroke="blue" d="M102,-232C102,-227.4 102,-221.32 102,-214.56"/>
<polygon fill="blue" stroke="blue" points="105.5,-214.71 102,-204.71 98.5,-214.71 105.5,-214.71"/>
</g>
<!-- 2 -->
<!-- 9 -->
<g id="node4" class="node">
<title>9</title>
<ellipse fill="none" stroke="black" cx="405" cy="-42" rx="27" ry="18"/>
<text xml:space="preserve" text-anchor="middle" x="405" y="-39.6" font-family="Times,serif" font-size="8.00">RDMA</text>
</g>
<!-- 3 -->
<!-- 8 -->
<g id="node6" class="node">
<title>8</title>
<ellipse fill="none" stroke="black" cx="405" cy="-150" rx="27" ry="18"/>
<text xml:space="preserve" text-anchor="middle" x="405" y="-147.6" font-family="Times,serif" font-size="8.00">RDMA</text>
</g>
<!-- 8&#45;&gt;9 -->
<g id="edge7" class="edge">
<title>8&#45;&gt;9</title>
<path fill="none" stroke="#ffc125" d="M405,-131.97C405,-115.76 405,-91.06 405,-71.79"/>
<polygon fill="#ffc125" stroke="#ffc125" points="408.5,-71.85 405,-61.85 401.5,-71.85 408.5,-71.85"/>
</g>
<!-- 10 -->
<g id="node10" class="node">
<title>10</title>
<ellipse fill="none" stroke="black" cx="203" cy="-150" rx="27" ry="18"/>
<text xml:space="preserve" text-anchor="middle" x="203" y="-147.6" font-family="Times,serif" font-size="8.00">RDMA</text>
</g>
<!-- 8&#45;&gt;10 -->
<g id="edge8" class="edge">
<title>8&#45;&gt;10</title>
<path fill="none" stroke="#ffc125" d="M366.09,-150C330.25,-150 277.36,-150 241.61,-150"/>
<polygon fill="#ffc125" stroke="#ffc125" points="366.03,-153.5 376.03,-150 366.03,-146.5 366.03,-153.5"/>
<polygon fill="#ffc125" stroke="#ffc125" points="241.76,-146.5 231.76,-150 241.76,-153.5 241.76,-146.5"/>
</g>
<!-- 11 -->
<g id="node12" class="node">
<title>11</title>
<ellipse fill="none" stroke="black" cx="203" cy="-42" rx="27" ry="18"/>
<text xml:space="preserve" text-anchor="middle" x="203" y="-39.6" font-family="Times,serif" font-size="8.00">RDMA</text>
</g>
<!-- 8&#45;&gt;11 -->
<g id="edge9" class="edge">
<title>8&#45;&gt;11</title>
<path fill="none" stroke="#ffc125" d="M382.16,-139.8C347.79,-125.91 285.73,-100.61 276,-95.2 259.41,-85.96 242.07,-73.69 228.46,-63.37"/>
<polygon fill="#ffc125" stroke="#ffc125" points="230.93,-60.86 220.88,-57.52 226.65,-66.4 230.93,-60.86"/>
</g>
<!-- 4 -->
<!-- 5 -->
<!-- 6&#45;&gt;2 -->
<g id="edge3" class="edge">
<title>6&#45;&gt;2</title>
<path fill="none" stroke="blue" d="M140,-124C188.66,-102.7 210.31,-122.3 256,-95.2 268.02,-88.07 278.83,-76.99 287.12,-66.88"/>
<polygon fill="blue" stroke="blue" points="289.72,-69.24 293.08,-59.19 284.18,-64.95 289.72,-69.24"/>
</g>
<!-- 6&#45;&gt;3 -->
<g id="edge4" class="edge">
<title>6&#45;&gt;3</title>
<path fill="none" stroke="blue" d="M140,-203.2C168.42,-225.51 184.52,-224.43 220,-217.6 236.92,-214.34 241.86,-213.05 256,-203.2 267.72,-195.03 278.59,-183.48 287.01,-173.23"/>
<polygon fill="blue" stroke="blue" points="289.65,-175.54 293.07,-165.51 284.14,-171.21 289.65,-175.54"/>
</g>
<!-- 6&#45;&gt;4 -->
<g id="edge5" class="edge">
<title>6&#45;&gt;4</title>
<path fill="none" stroke="blue" d="M92,-135.05C83.4,-123.06 70.51,-105.07 58.39,-88.17"/>
<polygon fill="blue" stroke="blue" points="61.36,-86.31 52.69,-80.23 55.67,-90.39 61.36,-86.31"/>
</g>
<!-- 7 -->
<!-- 6&#45;&gt;7 -->
<g id="edge6" class="edge">
<title>6&#45;&gt;7</title>
<path fill="none" stroke="blue" d="M102,-124C102,-118.65 102,-112.76 102,-106.68"/>
<polygon fill="blue" stroke="blue" points="105.5,-106.71 102,-96.71 98.5,-106.71 105.5,-106.71"/>
</g>
<!-- 10&#45;&gt;9 -->
<g id="edge10" class="edge">
<title>10&#45;&gt;9</title>
<path fill="none" stroke="#ffc125" d="M226.6,-140.9C260.68,-129.04 321.8,-107.05 342,-95.2 356.31,-86.81 370.67,-75.21 382.06,-65.07"/>
<polygon fill="#ffc125" stroke="#ffc125" points="384.37,-67.71 389.39,-58.37 379.65,-62.54 384.37,-67.71"/>
</g>
<!-- 10&#45;&gt;11 -->
<g id="edge11" class="edge">
<title>10&#45;&gt;11</title>
<path fill="none" stroke="#ffc125" d="M203,-131.97C203,-115.76 203,-91.06 203,-71.79"/>
<polygon fill="#ffc125" stroke="#ffc125" points="206.5,-71.85 203,-61.85 199.5,-71.85 206.5,-71.85"/>
</g>
</g>
</svg>
