<?xml version="1.0" encoding="UTF-8" standalone="no"?>
<!DOCTYPE svg PUBLIC "-//W3C//DTD SVG 1.1//EN"
 "http://www.w3.org/Graphics/SVG/1.1/DTD/svg11.dtd">
<!-- Generated by graphviz-ts -->
<svg width="364pt" height="148pt"
     viewBox="0.00 0.00 364.00 148.00"
     xmlns="http://www.w3.org/2000/svg" xmlns:xlink="http://www.w3.org/1999/xlink">
<g id="graph0" class="graph" transform="scale(1 1) rotate(0) translate(4 144)">
<title>G</title>
<polygon fill="white" stroke="none" points="-4,4 -4,-144 360,-144 360,4 -4,4"/>
<g id="clust1" class="cluster">
<title>cluster0</title>
<polygon fill="none" stroke="black" points="356,-8 356,-132 278,-132 278,-8 356,-8"/>
</g>
<g id="clust2" class="cluster">
<title>cluster1</title>
<polygon fill="none" stroke="black" points="276,-8 276,-132 348,-132 348,-8 276,-8"/>
</g>
<g id="node1" class="node">
<title>a1</title>
<ellipse fill="none" stroke="black" cx="171" cy="-106" rx="27" ry="18"/>
<text xml:space="preserve" text-anchor="middle" x="171" y="-101.8" font-family="Times,serif" font-size="14.00">a1</text>
</g>
<g id="node2" class="node">
<title>a2</title>
<ellipse fill="none" stroke="black" cx="169" cy="-34" rx="27" ry="18"/>
<text xml:space="preserve" text-anchor="middle" x="169" y="-29.8" font-family="Times,serif" font-size="14.00">a2</text>
</g>
<g id="edge1" class="edge">
<title>a1&#45;&gt;a2</title>
<path fill="none" stroke="black" d="M170.51,-87.7C170.3,-80.41 170.05,-71.73 169.82,-63.54"/>
<polygon fill="black" stroke="black" points="173.32,-63.51 169.53,-53.62 166.32,-63.71 173.32,-63.51"/>
</g>
<g id="node3" class="node">
<title>a3</title>
<ellipse fill="none" stroke="black" cx="241" cy="-34" rx="27" ry="18"/>
<text xml:space="preserve" text-anchor="middle" x="241" y="-29.8" font-family="Times,serif" font-size="14.00">a3</text>
</g>
<g id="node5" class="node">
<title>b1</title>
<ellipse fill="none" stroke="black" cx="27" cy="-106" rx="27" ry="18"/>
<text xml:space="preserve" text-anchor="middle" x="27" y="-101.8" font-family="Times,serif" font-size="14.00">b1</text>
</g>
<g id="edge6" class="edge">
<title>a3&#45;&gt;b1</title>
<path fill="none" stroke="black" d="M219.97,-45.76C215.13,-48.01 209.94,-50.22 205,-52 143.72,-74 124.28,-66 63,-88 61.46,-88.55 59.89,-89.15 58.31,-89.78"/>
<polygon fill="black" stroke="black" points="57.2,-86.45 49.42,-93.64 59.99,-92.87 57.2,-86.45"/>
</g>
<g id="node4" class="node">
<title>a4</title>
<ellipse fill="none" stroke="black" cx="243" cy="-106" rx="27" ry="18"/>
<text xml:space="preserve" text-anchor="middle" x="243" y="-101.8" font-family="Times,serif" font-size="14.00">a4</text>
</g>
<g id="edge5" class="edge">
<title>a4&#45;&gt;a3</title>
<path fill="none" stroke="black" d="M242.51,-87.7C242.3,-80.41 242.05,-71.73 241.82,-63.54"/>
<polygon fill="black" stroke="black" points="245.32,-63.51 241.53,-53.62 238.32,-63.71 245.32,-63.51"/>
</g>
<g id="node6" class="node">
<title>b2</title>
<ellipse fill="none" stroke="black" cx="313" cy="-34" rx="27" ry="18"/>
<text xml:space="preserve" text-anchor="middle" x="313" y="-29.8" font-family="Times,serif" font-size="14.00">b2</text>
</g>
<g id="edge4" class="edge">
<title>b2&#45;&gt;a4</title>
<path fill="none" stroke="black" d="M298.51,-49.49C288.95,-59.05 276.21,-71.79 265.36,-82.64"/>
<polygon fill="black" stroke="black" points="263.17,-79.88 258.57,-89.43 268.12,-84.83 263.17,-79.88"/>
</g>
<g id="node7" class="node">
<title>b3</title>
<ellipse fill="none" stroke="black" cx="99" cy="-106" rx="27" ry="18"/>
<text xml:space="preserve" text-anchor="middle" x="99" y="-101.8" font-family="Times,serif" font-size="14.00">b3</text>
</g>
<g id="edge2" class="edge">
<title>b3&#45;&gt;a2</title>
<path fill="none" stroke="black" d="M113.5,-90.5C123.08,-80.92 135.81,-68.19 146.66,-57.34"/>
<polygon fill="black" stroke="black" points="148.85,-60.1 153.44,-50.56 143.9,-55.15 148.85,-60.1"/>
</g>
<g id="edge3" class="edge">
<title>b3&#45;&gt;b2</title>
<path fill="none" stroke="black" d="M124.46,-99.5C160.37,-91.32 227.58,-74.48 282,-52 282.35,-51.85 282.7,-51.71 283.06,-51.56"/>
<polygon fill="black" stroke="black" points="284.44,-54.77 291.94,-47.29 281.41,-48.46 284.44,-54.77"/>
</g>
</g>
</svg>
