<?xml version="1.0" encoding="UTF-8" standalone="no"?>
<!DOCTYPE svg PUBLIC "-//W3C//DTD SVG 1.1//EN"
 "http://www.w3.org/Graphics/SVG/1.1/DTD/svg11.dtd">
<!-- Generated by graphviz-ts -->
<svg width="262pt" height="156pt"
     viewBox="0.00 0.00 262.00 156.00"
     xmlns="http://www.w3.org/2000/svg" xmlns:xlink="http://www.w3.org/1999/xlink">
<g id="graph0" class="graph" transform="scale(1 1) rotate(0) translate(4 152.4)">
<title>structs</title>
<polygon fill="white" stroke="none" points="-4,4 -4,-152.4 257.65,-152.4 257.65,4 -4,4"/>
<g id="node1" class="node">
<title>struct1</title>
<polygon fill="none" stroke="black" points="9.62,-111.9 9.62,-147.9 141.6,-147.9 141.6,-111.9 9.62,-111.9"/>
<text xml:space="preserve" text-anchor="middle" x="26.94" y="-125.7" font-family="Times,serif" font-size="14.00">left</text>
<polyline fill="none" stroke="black" points="44.27,-111.9 44.27,-147.9"/>
<text xml:space="preserve" text-anchor="middle" x="71.71" y="-125.7" font-family="Times,serif" font-size="14.00">middle</text>
<polyline fill="none" stroke="black" points="99.16,-111.9 99.16,-147.9"/>
<text xml:space="preserve" text-anchor="middle" x="120.38" y="-125.7" font-family="Times,serif" font-size="14.00">right</text>
</g>
<g id="node2" class="node">
<title>struct2</title>
<polygon fill="none" stroke="black" points="0,-19.7 0,-55.7 73.21,-55.7 73.21,-19.7 0,-19.7"/>
<text xml:space="preserve" text-anchor="middle" x="18.11" y="-33.5" font-family="Times,serif" font-size="14.00">one</text>
<polyline fill="none" stroke="black" points="36.21,-19.7 36.21,-55.7"/>
<text xml:space="preserve" text-anchor="middle" x="54.71" y="-33.5" font-family="Times,serif" font-size="14.00">two</text>
</g>
<g id="edge1" class="edge">
<title>struct1:f1&#45;&gt;struct2:f0</title>
<path fill="none" stroke="black" d="M71.71,-111.4C71.71,-81.75 31.04,-88.08 20.55,-67.7"/>
<polygon fill="black" stroke="black" points="24.02,-67.18 18.43,-58.18 17.19,-68.7 24.02,-67.18"/>
</g>
<g id="node3" class="node">
<title>struct3</title>
<polygon fill="none" stroke="black" points="91.56,-0.5 91.56,-74.9 253.65,-74.9 253.65,-0.5 91.56,-0.5"/>
<text xml:space="preserve" text-anchor="middle" x="115.89" y="-41.9" font-family="Times,serif" font-size="14.00">hello</text>
<text xml:space="preserve" text-anchor="middle" x="115.89" y="-25.1" font-family="Times,serif" font-size="14.00">world</text>
<polyline fill="none" stroke="black" points="140.22,-0.5 140.22,-74.9"/>
<text xml:space="preserve" text-anchor="middle" x="173.94" y="-58.3" font-family="Times,serif" font-size="14.00">b</text>
<polyline fill="none" stroke="black" points="140.22,-50.1 207.65,-50.1"/>
<text xml:space="preserve" text-anchor="middle" x="151.33" y="-33.5" font-family="Times,serif" font-size="14.00">c</text>
<polyline fill="none" stroke="black" points="162.44,-25.3 162.44,-50.1"/>
<text xml:space="preserve" text-anchor="middle" x="173.94" y="-33.5" font-family="Times,serif" font-size="14.00">d</text>
<polyline fill="none" stroke="black" points="185.44,-25.3 185.44,-50.1"/>
<text xml:space="preserve" text-anchor="middle" x="196.54" y="-33.5" font-family="Times,serif" font-size="14.00">e</text>
<polyline fill="none" stroke="black" points="140.22,-25.3 207.65,-25.3"/>
<text xml:space="preserve" text-anchor="middle" x="173.94" y="-8.7" font-family="Times,serif" font-size="14.00">f</text>
<polyline fill="none" stroke="black" points="207.65,-0.5 207.65,-74.9"/>
<text xml:space="preserve" text-anchor="middle" x="219.15" y="-33.5" font-family="Times,serif" font-size="14.00">g</text>
<polyline fill="none" stroke="black" points="230.65,-0.5 230.65,-74.9"/>
<text xml:space="preserve" text-anchor="middle" x="242.15" y="-33.5" font-family="Times,serif" font-size="14.00">h</text>
</g>
<g id="edge2" class="edge">
<title>struct1:f2&#45;&gt;struct3:here</title>
<path fill="none" stroke="black" d="M120.38,-111.4C120.38,-99.41 139.15,-75.78 154.47,-58.5"/>
<polygon fill="black" stroke="black" points="156.91,-61.02 161.03,-51.26 151.73,-56.32 156.91,-61.02"/>
</g>
</g>
</svg>
