<?xml version="1.0" encoding="UTF-8" standalone="no"?>
<!DOCTYPE svg PUBLIC "-//W3C//DTD SVG 1.1//EN"
 "http://www.w3.org/Graphics/SVG/1.1/DTD/svg11.dtd">
<!-- Generated by graphviz-ts -->
<svg width="206pt" height="76pt"
     viewBox="0.00 0.00 206.00 76.00"
     xmlns="http://www.w3.org/2000/svg" xmlns:xlink="http://www.w3.org/1999/xlink">
<g id="graph0" class="graph" transform="scale(1 1) rotate(0) translate(4 71.56)">
<polygon fill="white" stroke="none" points="-4,4 -4,-71.56 202,-71.56 202,4 -4,4"/>
<g id="node1" class="node">
<title>A</title>
<ellipse fill="none" stroke="black" cx="27" cy="-49.56" rx="27" ry="18"/>
<text xml:space="preserve" text-anchor="middle" x="27" y="-44.51" font-family="Times,serif" font-size="14.00">A</text>
</g>
<g id="node2" class="node">
<title>C</title>
<ellipse fill="none" stroke="black" cx="99" cy="-49.56" rx="27" ry="18"/>
<text xml:space="preserve" text-anchor="middle" x="99" y="-44.51" font-family="Times,serif" font-size="14.00">C</text>
</g>
<g id="edge1" class="edge">
<title>A-&gt;C</title>
<path fill="none" stroke="black" d="M54.28,-49.32C56.28,-49.37 58.28,-49.43 60.29,-49.49"/>
<polygon fill="black" stroke="black" points="60.14,-52.98 70.24,-49.76 60.34,-45.99 60.14,-52.98"/>
</g>
<g id="node3" class="node">
<title>B</title>
<ellipse fill="none" stroke="black" cx="171" cy="-49.56" rx="27" ry="18"/>
<text xml:space="preserve" text-anchor="middle" x="171" y="-44.51" font-family="Times,serif" font-size="14.00">B</text>
</g>
<g id="edge3" class="edge">
<title>A-&gt;B</title>
<path fill="none" stroke="black" d="M27,-31.56C27,-3.31 139.23,0 165.53,-21.63"/>
<polygon fill="black" stroke="black" points="162.38,-23.16 170.27,-30.23 168.51,-19.79 162.38,-23.16"/>
</g>
<g id="edge2" class="edge">
<title>C-&gt;B</title>
<path fill="none" stroke="black" d="M126.28,-49.32C128.28,-49.37 130.28,-49.43 132.29,-49.49"/>
<polygon fill="black" stroke="black" points="132.14,-52.98 142.24,-49.76 132.34,-45.99 132.14,-52.98"/>
</g>
</g>
</svg>
