<?xml version="1.0" encoding="UTF-8" standalone="no"?>
<!DOCTYPE svg PUBLIC "-//W3C//DTD SVG 1.1//EN"
 "http://www.w3.org/Graphics/SVG/1.1/DTD/svg11.dtd">
<!-- Generated by graphviz-ts -->
<svg width="89pt" height="188pt"
     viewBox="0.00 0.00 89.00 188.00"
     xmlns="http://www.w3.org/2000/svg" xmlns:xlink="http://www.w3.org/1999/xlink">
<g id="graph0" class="graph" transform="scale(1 1) rotate(0) translate(4 184)">
<polygon fill="white" stroke="none" points="-4,4 -4,-184 85,-184 85,4 -4,4"/>
<g id="node1" class="node">
<title>A</title>
<ellipse fill="none" stroke="black" cx="54" cy="-162" rx="27" ry="18"/>
<text xml:space="preserve" text-anchor="middle" x="54" y="-156.95" font-family="Times,serif" font-size="14.00">A</text>
</g>
<g id="node2" class="node">
<title>C</title>
<ellipse fill="none" stroke="black" cx="27" cy="-90" rx="27" ry="18"/>
<text xml:space="preserve" text-anchor="middle" x="27" y="-84.95" font-family="Times,serif" font-size="14.00">C</text>
</g>
<g id="node3" class="node">
<title>B</title>
<ellipse fill="none" stroke="black" cx="54" cy="-18" rx="27" ry="18"/>
<text xml:space="preserve" text-anchor="middle" x="54" y="-12.95" font-family="Times,serif" font-size="14.00">B</text>
</g>
<g id="edge3" class="edge">
<title>A:s&#45;&gt;B:s</title>
<path fill="none" stroke="black" d="M57.65,-143.91C59.68,-133.57 61.98,-120.09 63,-108 64.34,-92.06 64.34,-87.94 63,-72 62.32,-63.97 61.08,-55.33 59.73,-47.4"/>
<polygon fill="black" stroke="black" points="63.17,-46.79 57.93,-37.58 56.29,-48.05 63.17,-46.79"/>
</g>
</g>
</svg>
