<?xml version="1.0" encoding="UTF-8" standalone="no"?>
<!DOCTYPE svg PUBLIC "-//W3C//DTD SVG 1.1//EN"
 "http://www.w3.org/Graphics/SVG/1.1/DTD/svg11.dtd">
<!-- Generated by graphviz version 15.0.0 (20260523.1842)
 -->
<!-- Pages: 1 -->
<svg width="103pt" height="188pt"
 viewBox="0.00 0.00 103.00 188.00" xmlns="http://www.w3.org/2000/svg" xmlns:xlink="http://www.w3.org/1999/xlink">
<g id="graph0" class="graph" transform="scale(1 1) rotate(0) translate(4 184)">
<polygon fill="white" stroke="none" points="-4,4 -4,-184 98.55,-184 98.55,4 -4,4"/>
<!-- A -->
<g id="node1" class="node">
<title>A</title>
<ellipse fill="none" stroke="black" cx="53.55" cy="-162" rx="27" ry="18"/>
<text xml:space="preserve" text-anchor="middle" x="53.55" y="-156.95" font-family="Times,serif" font-size="14.00">A</text>
</g>
<!-- C -->
<g id="node2" class="node">
<title>C</title>
<ellipse fill="none" stroke="black" cx="39.55" cy="-18" rx="27" ry="18"/>
<text xml:space="preserve" text-anchor="middle" x="39.55" y="-12.95" font-family="Times,serif" font-size="14.00">C</text>
</g>
<!-- A&#45;&gt;C -->
<g id="edge1" class="edge">
<title>A:w&#45;&gt;C</title>
<path fill="none" stroke="black" d="M25.3,-162C-20.97,-162 7.27,-86.97 26.35,-45.61"/>
<polygon fill="black" stroke="black" points="29.42,-47.31 30.54,-36.77 23.09,-44.31 29.42,-47.31"/>
</g>
<!-- B -->
<g id="node3" class="node">
<title>B</title>
<ellipse fill="none" stroke="black" cx="67.55" cy="-90" rx="27" ry="18"/>
<text xml:space="preserve" text-anchor="middle" x="67.55" y="-84.95" font-family="Times,serif" font-size="14.00">B</text>
</g>
<!-- A&#45;&gt;B -->
<g id="edge2" class="edge">
<title>A&#45;&gt;B</title>
<path fill="none" stroke="black" d="M57.01,-143.7C58.49,-136.32 60.25,-127.52 61.9,-119.25"/>
<polygon fill="black" stroke="black" points="65.3,-120.08 63.83,-109.59 58.44,-118.71 65.3,-120.08"/>
</g>
<!-- B&#45;&gt;C -->
<g id="edge3" class="edge">
<title>B&#45;&gt;C</title>
<path fill="none" stroke="black" d="M60.92,-72.41C57.78,-64.57 53.95,-54.99 50.4,-46.13"/>
<polygon fill="black" stroke="black" points="53.66,-44.86 46.7,-36.88 47.17,-47.46 53.66,-44.86"/>
</g>
</g>
</svg>
