<?xml version="1.0" encoding="UTF-8" standalone="no"?>
<!DOCTYPE svg PUBLIC "-//W3C//DTD SVG 1.1//EN"
 "http://www.w3.org/Graphics/SVG/1.1/DTD/svg11.dtd">
<!-- Generated by graphviz-ts -->
<svg width="90pt" height="341pt"
     viewBox="0.00 0.00 90.00 341.00"
     xmlns="http://www.w3.org/2000/svg" xmlns:xlink="http://www.w3.org/1999/xlink">
<g id="graph0" class="graph" transform="scale(1 1) rotate(0) translate(4 336.58)">
<polygon fill="white" stroke="none" points="-4,4 -4,-336.58 86,-336.58 86,4 -4,4"/>
<g id="node1" class="node">
<title>A</title>
<ellipse fill="none" stroke="black" cx="27" cy="-306" rx="27" ry="18"/>
<text xml:space="preserve" text-anchor="middle" x="27" y="-300.95" font-family="Times,serif" font-size="14.00">A</text>
</g>
<g id="node2" class="node">
<title>E</title>
<ellipse fill="none" stroke="black" cx="27" cy="-18" rx="27" ry="18"/>
<text xml:space="preserve" text-anchor="middle" x="27" y="-12.95" font-family="Times,serif" font-size="14.00">E</text>
</g>
<g id="edge1" class="edge">
<title>A:n&#45;&gt;E</title>
<path fill="none" stroke="black" d="M27,-325C27,-337.01 45.67,-332.65 54,-324 65.1,-312.48 60.02,-302.82 54,-288 45.61,-267.32 27.39,-272.68 19,-252 -11.09,-177.88 13.01,-151.78 19,-72 19.6,-63.99 20.71,-55.35 21.91,-47.43"/>
<polygon fill="black" stroke="black" points="25.35,-48.04 23.51,-37.61 18.45,-46.91 25.35,-48.04"/>
</g>
<g id="node3" class="node">
<title>B</title>
<ellipse fill="none" stroke="black" cx="55" cy="-234" rx="27" ry="18"/>
<text xml:space="preserve" text-anchor="middle" x="55" y="-228.95" font-family="Times,serif" font-size="14.00">B</text>
</g>
<g id="edge2" class="edge">
<title>A&#45;&gt;B</title>
<path fill="none" stroke="black" d="M33.64,-288.41C36.77,-280.57 40.6,-270.99 44.15,-262.13"/>
<polygon fill="black" stroke="black" points="47.39,-263.46 47.85,-252.88 40.89,-260.86 47.39,-263.46"/>
</g>
<g id="node4" class="node">
<title>C</title>
<ellipse fill="none" stroke="black" cx="55" cy="-162" rx="27" ry="18"/>
<text xml:space="preserve" text-anchor="middle" x="55" y="-156.95" font-family="Times,serif" font-size="14.00">C</text>
</g>
<g id="edge3" class="edge">
<title>B&#45;&gt;C</title>
<path fill="none" stroke="black" d="M55,-215.7C55,-208.41 55,-199.73 55,-191.54"/>
<polygon fill="black" stroke="black" points="58.5,-191.62 55,-181.62 51.5,-191.62 58.5,-191.62"/>
</g>
<g id="node5" class="node">
<title>D</title>
<ellipse fill="none" stroke="black" cx="55" cy="-90" rx="27" ry="18"/>
<text xml:space="preserve" text-anchor="middle" x="55" y="-84.95" font-family="Times,serif" font-size="14.00">D</text>
</g>
<g id="edge4" class="edge">
<title>C&#45;&gt;D</title>
<path fill="none" stroke="black" d="M55,-143.7C55,-136.41 55,-127.73 55,-119.54"/>
<polygon fill="black" stroke="black" points="58.5,-119.62 55,-109.62 51.5,-119.62 58.5,-119.62"/>
</g>
<g id="edge5" class="edge">
<title>D&#45;&gt;E</title>
<path fill="none" stroke="black" d="M48.36,-72.41C45.23,-64.57 41.4,-54.99 37.85,-46.13"/>
<polygon fill="black" stroke="black" points="41.11,-44.86 34.15,-36.88 34.61,-47.46 41.11,-44.86"/>
</g>
</g>
</svg>
