<?xml version="1.0" encoding="UTF-8" standalone="no"?>
<!DOCTYPE svg PUBLIC "-//W3C//DTD SVG 1.1//EN"
 "http://www.w3.org/Graphics/SVG/1.1/DTD/svg11.dtd">
<!-- Generated by graphviz-ts -->
<svg width="123pt" height="188pt"
     viewBox="0.00 0.00 123.00 188.00"
     xmlns="http://www.w3.org/2000/svg" xmlns:xlink="http://www.w3.org/1999/xlink">
<g id="graph0" class="graph" transform="scale(1 1) rotate(0) translate(4 184)">
<polygon fill="white" stroke="none" points="-4,4 -4,-184 119.26,-184 119.26,4 -4,4"/>
<g id="node1" class="node">
<title>A</title>
<ellipse fill="none" stroke="black" cx="74.26" cy="-162" rx="27" ry="18"/>
<text xml:space="preserve" text-anchor="middle" x="74.26" y="-156.95" font-family="Times,serif" font-size="14.00">A</text>
</g>
<g id="node2" class="node">
<title>C</title>
<ellipse fill="none" stroke="black" cx="60.26" cy="-18" rx="27" ry="18"/>
<text xml:space="preserve" text-anchor="middle" x="60.26" y="-12.95" font-family="Times,serif" font-size="14.00">C</text>
</g>
<g id="edge1" class="edge">
<title>A-&gt;C</title>
<path fill="none" stroke="black" d="M46.26,-162C0,-162 28.1,-86.97 47.11,-45.61"/>
<polygon fill="black" stroke="black" points="50.17,-47.31 51.28,-36.77 43.84,-44.32 50.17,-47.31"/>
</g>
<g id="node3" class="node">
<title>B</title>
<ellipse fill="none" stroke="black" cx="88.26" cy="-90" rx="27" ry="18"/>
<text xml:space="preserve" text-anchor="middle" x="88.26" y="-84.95" font-family="Times,serif" font-size="14.00">B</text>
</g>
<g id="edge2" class="edge">
<title>A-&gt;B</title>
<path fill="none" stroke="black" d="M77.72,-143.7C79.19,-136.32 80.95,-127.52 82.61,-119.25"/>
<polygon fill="black" stroke="black" points="86.01,-120.08 84.54,-109.59 79.14,-118.71 86.01,-120.08"/>
</g>
<g id="edge3" class="edge">
<title>B-&gt;C</title>
<path fill="none" stroke="black" d="M81.62,-72.41C78.48,-64.57 74.65,-54.99 71.11,-46.13"/>
<polygon fill="black" stroke="black" points="74.37,-44.86 67.41,-36.88 67.87,-47.46 74.37,-44.86"/>
</g>
</g>
</svg>
