<?xml version="1.0" encoding="UTF-8" standalone="no"?>
<!DOCTYPE svg PUBLIC "-//W3C//DTD SVG 1.1//EN"
 "http://www.w3.org/Graphics/SVG/1.1/DTD/svg11.dtd">
<!-- Generated by graphviz-ts -->
<svg width="102pt" height="188pt"
     viewBox="0.00 0.00 102.00 188.00"
     xmlns="http://www.w3.org/2000/svg" xmlns:xlink="http://www.w3.org/1999/xlink">
<g id="graph0" class="graph" transform="scale(1 1) rotate(0) translate(4 184)">
<polygon fill="white" stroke="none" points="-4,4 -4,-184 98.35,-184 98.35,4 -4,4"/>
<g id="node1" class="node">
<title>A</title>
<ellipse fill="none" stroke="black" cx="53.35" cy="-162" rx="27" ry="18"/>
<text xml:space="preserve" text-anchor="middle" x="53.35" y="-156.95" font-family="Times,serif" font-size="14.00">A</text>
</g>
<g id="node2" class="node">
<title>C</title>
<ellipse fill="none" stroke="black" cx="39.35" cy="-18" rx="27" ry="18"/>
<text xml:space="preserve" text-anchor="middle" x="39.35" y="-12.95" font-family="Times,serif" font-size="14.00">C</text>
</g>
<g id="edge1" class="edge">
<title>A:w&#45;&gt;C</title>
<path fill="none" stroke="black" d="M25.35,-162C-20.91,-162 7.19,-86.97 26.2,-45.61"/>
<polygon fill="black" stroke="black" points="29.27,-47.31 30.37,-36.77 22.94,-44.32 29.27,-47.31"/>
</g>
<g id="node3" class="node">
<title>B</title>
<ellipse fill="none" stroke="black" cx="67.35" cy="-90" rx="27" ry="18"/>
<text xml:space="preserve" text-anchor="middle" x="67.35" y="-84.95" font-family="Times,serif" font-size="14.00">B</text>
</g>
<g id="edge2" class="edge">
<title>A&#45;&gt;B</title>
<path fill="none" stroke="black" d="M56.81,-143.7C58.28,-136.32 60.04,-127.52 61.7,-119.25"/>
<polygon fill="black" stroke="black" points="65.1,-120.08 63.63,-109.59 58.24,-118.71 65.1,-120.08"/>
</g>
<g id="edge3" class="edge">
<title>B&#45;&gt;C</title>
<path fill="none" stroke="black" d="M60.71,-72.41C57.57,-64.57 53.75,-54.99 50.2,-46.13"/>
<polygon fill="black" stroke="black" points="53.46,-44.86 46.5,-36.88 46.96,-47.46 53.46,-44.86"/>
</g>
</g>
</svg>
