<?xml version="1.0" encoding="UTF-8" standalone="no"?>
<!DOCTYPE svg PUBLIC "-//W3C//DTD SVG 1.1//EN"
 "http://www.w3.org/Graphics/SVG/1.1/DTD/svg11.dtd">
<!-- Generated by graphviz-ts -->
<svg width="101pt" height="345pt"
     viewBox="0.00 0.00 101.00 345.00"
     xmlns="http://www.w3.org/2000/svg" xmlns:xlink="http://www.w3.org/1999/xlink">
<g id="graph0" class="graph" transform="scale(1 1) rotate(0) translate(4 341.01)">
<polygon fill="white" stroke="none" points="-4,4 -4,-341.01 97.09,-341.01 97.09,4 -4,4"/>
<g id="node1" class="node">
<title>A</title>
<ellipse fill="none" stroke="black" cx="38.09" cy="-306" rx="27" ry="18"/>
<text xml:space="preserve" text-anchor="middle" x="38.09" y="-300.95" font-family="Times,serif" font-size="14.00">A</text>
</g>
<g id="node2" class="node">
<title>E</title>
<ellipse fill="none" stroke="black" cx="38.09" cy="-18" rx="27" ry="18"/>
<text xml:space="preserve" text-anchor="middle" x="38.09" y="-12.95" font-family="Times,serif" font-size="14.00">E</text>
</g>
<g id="edge1" class="edge">
<title>A-&gt;E</title>
<path fill="none" stroke="black" d="M38.09,-325C38.09,-337.01 56.76,-332.65 65.09,-324 76.2,-312.48 71.11,-302.82 65.09,-288 56.7,-267.32 38.49,-272.68 30.09,-252 0,-177.88 24.11,-151.78 30.09,-72 30.69,-63.99 31.8,-55.35 33,-47.43"/>
<polygon fill="black" stroke="black" points="36.45,-48.04 34.6,-37.61 29.54,-46.91 36.45,-48.04"/>
</g>
<g id="node3" class="node">
<title>B</title>
<ellipse fill="none" stroke="black" cx="66.09" cy="-234" rx="27" ry="18"/>
<text xml:space="preserve" text-anchor="middle" x="66.09" y="-228.95" font-family="Times,serif" font-size="14.00">B</text>
</g>
<g id="edge2" class="edge">
<title>A-&gt;B</title>
<path fill="none" stroke="black" d="M44.73,-288.41C47.87,-280.57 51.7,-270.99 55.24,-262.13"/>
<polygon fill="black" stroke="black" points="58.48,-263.46 58.94,-252.88 51.98,-260.86 58.48,-263.46"/>
</g>
<g id="node4" class="node">
<title>C</title>
<ellipse fill="none" stroke="black" cx="66.09" cy="-162" rx="27" ry="18"/>
<text xml:space="preserve" text-anchor="middle" x="66.09" y="-156.95" font-family="Times,serif" font-size="14.00">C</text>
</g>
<g id="edge3" class="edge">
<title>B-&gt;C</title>
<path fill="none" stroke="black" d="M66.09,-215.7C66.09,-208.41 66.09,-199.73 66.09,-191.54"/>
<polygon fill="black" stroke="black" points="69.59,-191.62 66.09,-181.62 62.59,-191.62 69.59,-191.62"/>
</g>
<g id="node5" class="node">
<title>D</title>
<ellipse fill="none" stroke="black" cx="66.09" cy="-90" rx="27" ry="18"/>
<text xml:space="preserve" text-anchor="middle" x="66.09" y="-84.95" font-family="Times,serif" font-size="14.00">D</text>
</g>
<g id="edge4" class="edge">
<title>C-&gt;D</title>
<path fill="none" stroke="black" d="M66.09,-143.7C66.09,-136.41 66.09,-127.73 66.09,-119.54"/>
<polygon fill="black" stroke="black" points="69.59,-119.62 66.09,-109.62 62.59,-119.62 69.59,-119.62"/>
</g>
<g id="edge5" class="edge">
<title>D-&gt;E</title>
<path fill="none" stroke="black" d="M59.46,-72.41C56.32,-64.57 52.49,-54.99 48.95,-46.13"/>
<polygon fill="black" stroke="black" points="52.21,-44.86 45.24,-36.88 45.71,-47.46 52.21,-44.86"/>
</g>
</g>
</svg>
