<?xml version="1.0" encoding="UTF-8" standalone="no"?>
<!DOCTYPE svg PUBLIC "-//W3C//DTD SVG 1.1//EN"
 "http://www.w3.org/Graphics/SVG/1.1/DTD/svg11.dtd">
<!-- Generated by graphviz-ts -->
<svg width="97pt" height="152pt"
     viewBox="0.00 0.00 97.00 152.00"
     xmlns="http://www.w3.org/2000/svg" xmlns:xlink="http://www.w3.org/1999/xlink">
<g id="graph0" class="graph" transform="scale(1 1) rotate(0) translate(4 148)">
<polygon fill="white" stroke="none" points="-4,4 -4,-148 93.01,-148 93.01,4 -4,4"/>
<g id="node1" class="node">
<title>A</title>
<ellipse fill="none" stroke="black" cx="44.01" cy="-90" rx="27" ry="18"/>
<text xml:space="preserve" text-anchor="middle" x="44.01" y="-84.95" font-family="Times,serif" font-size="14.00">A</text>
</g>
<g id="edge1" class="edge">
<title>A-&gt;A</title>
<path fill="none" stroke="black" d="M71.01,-90C89.01,-108 89.01,-144 44.01,-144 5.69,-144 0,-117.89 10.27,-99.03"/>
<polygon fill="black" stroke="black" points="12.93,-101.32 16.1,-91.21 7.32,-97.13 12.93,-101.32"/>
</g>
<g id="node2" class="node">
<title>B</title>
<ellipse fill="none" stroke="black" cx="44.01" cy="-18" rx="27" ry="18"/>
<text xml:space="preserve" text-anchor="middle" x="44.01" y="-12.95" font-family="Times,serif" font-size="14.00">B</text>
</g>
<g id="edge2" class="edge">
<title>A-&gt;B</title>
<path fill="none" stroke="black" d="M44.01,-71.7C44.01,-64.41 44.01,-55.73 44.01,-47.54"/>
<polygon fill="black" stroke="black" points="47.51,-47.62 44.01,-37.62 40.51,-47.62 47.51,-47.62"/>
</g>
</g>
</svg>
