<?xml version="1.0" encoding="UTF-8" standalone="no"?>
<!DOCTYPE svg PUBLIC "-//W3C//DTD SVG 1.1//EN"
 "http://www.w3.org/Graphics/SVG/1.1/DTD/svg11.dtd">
<!-- Generated by graphviz-ts -->
<svg width="85pt" height="152pt"
     viewBox="0.00 0.00 85.00 152.00"
     xmlns="http://www.w3.org/2000/svg" xmlns:xlink="http://www.w3.org/1999/xlink">
<g id="graph0" class="graph" transform="scale(1 1) rotate(0) translate(4 148)">
<polygon fill="white" stroke="none" points="-4,4 -4,-148 81.31,-148 81.31,4 -4,4"/>
<g id="node1" class="node">
<title>A</title>
<ellipse fill="none" stroke="black" cx="38.5" cy="-90" rx="27" ry="18"/>
<text xml:space="preserve" text-anchor="middle" x="38.5" y="-84.95" font-family="Times,serif" font-size="14.00">A</text>
</g>
<g id="edge1" class="edge">
<title>A:e&#45;&gt;A:w</title>
<path fill="none" stroke="black" d="M65.5,-90C83.5,-108 83.5,-144 38.5,-144 0.18,-144 -5.51,-117.89 4.76,-99.03"/>
<polygon fill="black" stroke="black" points="7.42,-101.32 10.6,-91.21 1.81,-97.13 7.42,-101.32"/>
</g>
<g id="node2" class="node">
<title>B</title>
<ellipse fill="none" stroke="black" cx="38.5" cy="-18" rx="27" ry="18"/>
<text xml:space="preserve" text-anchor="middle" x="38.5" y="-12.95" font-family="Times,serif" font-size="14.00">B</text>
</g>
<g id="edge2" class="edge">
<title>A&#45;&gt;B</title>
<path fill="none" stroke="black" d="M38.5,-71.7C38.5,-64.41 38.5,-55.73 38.5,-47.54"/>
<polygon fill="black" stroke="black" points="42,-47.62 38.5,-37.62 35,-47.62 42,-47.62"/>
</g>
</g>
</svg>
