<?xml version="1.0" encoding="UTF-8" standalone="no"?>
<!DOCTYPE svg PUBLIC "-//W3C//DTD SVG 1.1//EN"
 "http://www.w3.org/Graphics/SVG/1.1/DTD/svg11.dtd">
<!-- Generated by graphviz version 15.0.0 (20260523.1842)
 -->
<!-- Pages: 1 -->
<svg width="85pt" height="152pt"
 viewBox="0.00 0.00 85.00 152.00" xmlns="http://www.w3.org/2000/svg" xmlns:xlink="http://www.w3.org/1999/xlink">
<g id="graph0" class="graph" transform="scale(1 1) rotate(0) translate(4 148)">
<polygon fill="white" stroke="none" points="-4,4 -4,-148 81.38,-148 81.38,4 -4,4"/>
<!-- A -->
<g id="node1" class="node">
<title>A</title>
<ellipse fill="none" stroke="black" cx="38.52" cy="-90" rx="27" ry="18"/>
<text xml:space="preserve" text-anchor="middle" x="38.52" y="-84.95" font-family="Times,serif" font-size="14.00">A</text>
</g>
<!-- A&#45;&gt;A -->
<g id="edge1" class="edge">
<title>A:e&#45;&gt;A:w</title>
<path fill="none" stroke="black" d="M65.77,-90C83.52,-108 83.52,-144 38.52,-144 0.38,-144 -5.44,-118.13 4.49,-99.29"/>
<polygon fill="black" stroke="black" points="7.31,-101.36 10.37,-91.22 1.65,-97.24 7.31,-101.36"/>
</g>
<!-- B -->
<g id="node2" class="node">
<title>B</title>
<ellipse fill="none" stroke="black" cx="38.52" cy="-18" rx="27" ry="18"/>
<text xml:space="preserve" text-anchor="middle" x="38.52" y="-12.95" font-family="Times,serif" font-size="14.00">B</text>
</g>
<!-- A&#45;&gt;B -->
<g id="edge2" class="edge">
<title>A&#45;&gt;B</title>
<path fill="none" stroke="black" d="M38.52,-71.7C38.52,-64.41 38.52,-55.73 38.52,-47.54"/>
<polygon fill="black" stroke="black" points="42.02,-47.62 38.52,-37.62 35.02,-47.62 42.02,-47.62"/>
</g>
</g>
</svg>
