<?xml version="1.0" encoding="UTF-8" standalone="no"?>
<!DOCTYPE svg PUBLIC "-//W3C//DTD SVG 1.1//EN"
 "http://www.w3.org/Graphics/SVG/1.1/DTD/svg11.dtd">
<!-- Generated by graphviz-ts -->
<svg width="209pt" height="720pt"
     viewBox="0.00 0.00 209.00 720.00"
     xmlns="http://www.w3.org/2000/svg" xmlns:xlink="http://www.w3.org/1999/xlink">
<g id="graph0" class="graph" transform="scale(0.274398 0.274398) rotate(-90) translate(-2619.93 756.97)">
<title>g</title>
<polygon fill="white" stroke="none" points="-4,4 -4,-756.97 2619.93,-756.97 2619.93,4 -4,4"/>
<g id="clust1" class="cluster">
<title>cluster_0</title>
<polygon fill="none" stroke="black" stroke-width="8" points="297.64,-121.98 297.64,-439.98 703.64,-439.98 703.64,-121.98 297.64,-121.98"/>
<text xml:space="preserve" text-anchor="middle" x="500.64" y="-413.18" font-family="Courier,monospace" font-size="24.00">gryphon</text>
</g>
<g id="clust2" class="cluster">
<title>cluster_1</title>
<polygon fill="none" stroke="black" stroke-width="8" points="807.64,-121.98 807.64,-439.98 1213.64,-439.98 1213.64,-121.98 807.64,-121.98"/>
<text xml:space="preserve" text-anchor="middle" x="1010.64" y="-413.18" font-family="Courier,monospace" font-size="24.00">toucan</text>
</g>
<g id="clust3" class="cluster">
<title>cluster_2</title>
<polygon fill="none" stroke="black" stroke-width="8" points="1270.64,-121.98 1270.64,-439.98 1372.64,-439.98 1372.64,-121.98 1270.64,-121.98"/>
<text xml:space="preserve" text-anchor="middle" x="1321.64" y="-413.18" font-family="Courier,monospace" font-size="24.00">parker</text>
</g>
<g id="clust4" class="cluster">
<title>cluster_3</title>
<polygon fill="none" stroke="black" stroke-width="8" points="1527.64,-121.98 1527.64,-439.98 1729.64,-439.98 1729.64,-121.98 1527.64,-121.98"/>
<text xml:space="preserve" text-anchor="middle" x="1628.64" y="-413.18" font-family="Courier,monospace" font-size="24.00">condor</text>
</g>
<g id="clust5" class="cluster">
<title>cluster_4</title>
<polygon fill="none" stroke="black" stroke-width="8" points="1898.64,-121.98 1898.64,-439.98 2100.64,-439.98 2100.64,-121.98 1898.64,-121.98"/>
<text xml:space="preserve" text-anchor="middle" x="1999.64" y="-413.18" font-family="Courier,monospace" font-size="24.00">kite</text>
</g>
<g id="clust6" class="cluster">
<title>cluster_5</title>
<polygon fill="none" stroke="black" stroke-width="8" points="2278.64,-121.98 2278.64,-439.98 2480.64,-439.98 2480.64,-121.98 2278.64,-121.98"/>
<text xml:space="preserve" text-anchor="middle" x="2379.64" y="-413.18" font-family="Courier,monospace" font-size="24.00">coot</text>
</g>
<g id="node1" class="node">
<title>22342</title>
<polygon fill="none" stroke="black" points="533.51,-396.98 483.76,-396.98 483.76,-355.98 533.51,-355.98 533.51,-396.98"/>
<text xml:space="preserve" text-anchor="middle" x="508.64" y="-379.68" font-family="Times,serif" font-size="14.00">22342</text>
<text xml:space="preserve" text-anchor="middle" x="508.64" y="-363.18" font-family="Times,serif" font-size="14.00">ksh</text>
</g>
<g id="node2" class="node">
<title>22343</title>
<polygon fill="none" stroke="black" points="457.51,-283.98 407.76,-283.98 407.76,-242.98 457.51,-242.98 457.51,-283.98"/>
<text xml:space="preserve" text-anchor="middle" x="432.64" y="-266.68" font-family="Times,serif" font-size="14.00">22343</text>
<text xml:space="preserve" text-anchor="middle" x="432.64" y="-250.18" font-family="Times,serif" font-size="14.00">gcc</text>
</g>
<g id="edge4" class="edge">
<title>22342&#45;&gt;22343</title>
<path fill="none" stroke="black" d="M495.05,-355.64C483.22,-338.35 465.9,-313.07 452.51,-293.51"/>
<polygon fill="black" stroke="black" points="455.5,-291.68 446.96,-285.4 449.72,-295.63 455.5,-291.68"/>
</g>
<g id="node3" class="node">
<title>22346</title>
<polygon fill="none" stroke="black" points="355.51,-170.98 305.76,-170.98 305.76,-129.98 355.51,-129.98 355.51,-170.98"/>
<text xml:space="preserve" text-anchor="middle" x="330.64" y="-153.68" font-family="Times,serif" font-size="14.00">22346</text>
<text xml:space="preserve" text-anchor="middle" x="330.64" y="-137.18" font-family="Times,serif" font-size="14.00">cpp</text>
</g>
<g id="edge7" class="edge">
<title>22343&#45;&gt;22346</title>
<path fill="none" stroke="black" d="M414.4,-242.64C398.23,-225.04 374.43,-199.14 356.33,-179.45"/>
<polygon fill="black" stroke="black" points="359.08,-177.27 349.74,-172.27 353.93,-182 359.08,-177.27"/>
</g>
<g id="node4" class="node">
<title>22347</title>
<polygon fill="none" stroke="black" points="423.51,-170.98 373.76,-170.98 373.76,-129.98 423.51,-129.98 423.51,-170.98"/>
<text xml:space="preserve" text-anchor="middle" x="398.64" y="-153.68" font-family="Times,serif" font-size="14.00">22347</text>
<text xml:space="preserve" text-anchor="middle" x="398.64" y="-137.18" font-family="Times,serif" font-size="14.00">cc1</text>
</g>
<g id="edge8" class="edge">
<title>22343&#45;&gt;22347</title>
<path fill="none" stroke="black" d="M426.56,-242.64C421.41,-225.83 413.94,-201.45 408.03,-182.13"/>
<polygon fill="black" stroke="black" points="411.38,-181.14 405.11,-172.6 404.69,-183.19 411.38,-181.14"/>
</g>
<g id="node5" class="node">
<title>22351</title>
<polygon fill="none" stroke="black" points="491.51,-170.98 441.76,-170.98 441.76,-129.98 491.51,-129.98 491.51,-170.98"/>
<text xml:space="preserve" text-anchor="middle" x="466.64" y="-153.68" font-family="Times,serif" font-size="14.00">22351</text>
<text xml:space="preserve" text-anchor="middle" x="466.64" y="-137.18" font-family="Times,serif" font-size="14.00">as</text>
</g>
<g id="edge14" class="edge">
<title>22343&#45;&gt;22351</title>
<path fill="none" stroke="black" d="M438.72,-242.64C443.87,-225.83 451.33,-201.45 457.25,-182.13"/>
<polygon fill="black" stroke="black" points="460.59,-183.19 460.17,-172.6 453.89,-181.14 460.59,-183.19"/>
</g>
<g id="node42" class="node">
<title>93736-32246</title>
<ellipse fill="none" stroke="black" cx="130.64" cy="-28.99" rx="130.64" ry="28.99"/>
<text xml:space="preserve" text-anchor="middle" x="130.64" y="-32.19" font-family="Times,serif" font-size="14.00">93736&#45;32246</text>
<text xml:space="preserve" text-anchor="middle" x="130.64" y="-15.69" font-family="Times,serif" font-size="14.00">/home/ek/work/src/lefty/lefty.c</text>
</g>
<g id="edge10" class="edge">
<title>22346&#45;&gt;93736&#45;32246</title>
<path fill="none" stroke="black" d="M305.31,-134.35C275.17,-116.34 224.02,-85.78 184.83,-62.37"/>
<polygon fill="black" stroke="black" points="186.83,-59.48 176.45,-57.36 183.24,-65.49 186.83,-59.48"/>
</g>
<g id="node6" class="node">
<title>22344</title>
<polygon fill="none" stroke="black" points="678.51,-396.98 628.76,-396.98 628.76,-355.98 678.51,-355.98 678.51,-396.98"/>
<text xml:space="preserve" text-anchor="middle" x="653.64" y="-379.68" font-family="Times,serif" font-size="14.00">22344</text>
<text xml:space="preserve" text-anchor="middle" x="653.64" y="-363.18" font-family="Times,serif" font-size="14.00">ksh</text>
</g>
<g id="node7" class="node">
<title>22345</title>
<polygon fill="none" stroke="black" points="644.51,-283.98 594.76,-283.98 594.76,-242.98 644.51,-242.98 644.51,-283.98"/>
<text xml:space="preserve" text-anchor="middle" x="619.64" y="-266.68" font-family="Times,serif" font-size="14.00">22345</text>
<text xml:space="preserve" text-anchor="middle" x="619.64" y="-250.18" font-family="Times,serif" font-size="14.00">gcc</text>
</g>
<g id="edge6" class="edge">
<title>22344&#45;&gt;22345</title>
<path fill="none" stroke="black" d="M647.56,-355.64C642.41,-338.83 634.94,-314.45 629.03,-295.13"/>
<polygon fill="black" stroke="black" points="632.38,-294.14 626.11,-285.6 625.69,-296.19 632.38,-294.14"/>
</g>
<g id="node8" class="node">
<title>22348</title>
<polygon fill="none" stroke="black" points="559.51,-170.98 509.76,-170.98 509.76,-129.98 559.51,-129.98 559.51,-170.98"/>
<text xml:space="preserve" text-anchor="middle" x="534.64" y="-153.68" font-family="Times,serif" font-size="14.00">22348</text>
<text xml:space="preserve" text-anchor="middle" x="534.64" y="-137.18" font-family="Times,serif" font-size="14.00">cpp</text>
</g>
<g id="edge9" class="edge">
<title>22345&#45;&gt;22348</title>
<path fill="none" stroke="black" d="M604.44,-242.64C591.15,-225.28 571.67,-199.84 556.66,-180.24"/>
<polygon fill="black" stroke="black" points="559.48,-178.17 550.62,-172.36 553.92,-182.42 559.48,-178.17"/>
</g>
<g id="node9" class="node">
<title>22350</title>
<polygon fill="none" stroke="black" points="627.51,-170.98 577.76,-170.98 577.76,-129.98 627.51,-129.98 627.51,-170.98"/>
<text xml:space="preserve" text-anchor="middle" x="602.64" y="-153.68" font-family="Times,serif" font-size="14.00">22350</text>
<text xml:space="preserve" text-anchor="middle" x="602.64" y="-137.18" font-family="Times,serif" font-size="14.00">cc1</text>
</g>
<g id="edge12" class="edge">
<title>22345&#45;&gt;22350</title>
<path fill="none" stroke="black" d="M616.6,-242.64C614.04,-225.91 610.33,-201.68 607.37,-182.4"/>
<polygon fill="black" stroke="black" points="610.85,-182.01 605.88,-172.65 603.93,-183.07 610.85,-182.01"/>
</g>
<g id="node10" class="node">
<title>22357</title>
<polygon fill="none" stroke="black" points="695.51,-170.98 645.76,-170.98 645.76,-129.98 695.51,-129.98 695.51,-170.98"/>
<text xml:space="preserve" text-anchor="middle" x="670.64" y="-153.68" font-family="Times,serif" font-size="14.00">22357</text>
<text xml:space="preserve" text-anchor="middle" x="670.64" y="-137.18" font-family="Times,serif" font-size="14.00">as</text>
</g>
<g id="edge20" class="edge">
<title>22345&#45;&gt;22357</title>
<path fill="none" stroke="black" d="M628.76,-242.64C636.55,-225.67 647.89,-200.99 656.81,-181.59"/>
<polygon fill="black" stroke="black" points="659.97,-183.08 660.97,-172.53 653.61,-180.16 659.97,-183.08"/>
</g>
<g id="node43" class="node">
<title>93627-32246</title>
<ellipse fill="none" stroke="black" cx="423.64" cy="-28.99" rx="144.43" ry="28.99"/>
<text xml:space="preserve" text-anchor="middle" x="423.64" y="-32.19" font-family="Times,serif" font-size="14.00">93627&#45;32246</text>
<text xml:space="preserve" text-anchor="middle" x="423.64" y="-15.69" font-family="Times,serif" font-size="14.00">/home/ek/work/src/lefty/gfxview.c</text>
</g>
<g id="edge13" class="edge">
<title>22348&#45;&gt;93627&#45;32246</title>
<path fill="none" stroke="black" d="M516.31,-129.75C500.29,-112.51 476.62,-87.03 457.22,-66.14"/>
<polygon fill="black" stroke="black" points="459.87,-63.85 450.5,-58.91 454.74,-68.62 459.87,-63.85"/>
</g>
<g id="node11" class="node">
<title>22349</title>
<polygon fill="none" stroke="black" points="1043.51,-396.98 993.76,-396.98 993.76,-355.98 1043.51,-355.98 1043.51,-396.98"/>
<text xml:space="preserve" text-anchor="middle" x="1018.64" y="-379.68" font-family="Times,serif" font-size="14.00">22349</text>
<text xml:space="preserve" text-anchor="middle" x="1018.64" y="-363.18" font-family="Times,serif" font-size="14.00">ksh</text>
</g>
<g id="node12" class="node">
<title>22352</title>
<polygon fill="none" stroke="black" points="967.51,-283.98 917.76,-283.98 917.76,-242.98 967.51,-242.98 967.51,-283.98"/>
<text xml:space="preserve" text-anchor="middle" x="942.64" y="-266.68" font-family="Times,serif" font-size="14.00">22352</text>
<text xml:space="preserve" text-anchor="middle" x="942.64" y="-250.18" font-family="Times,serif" font-size="14.00">gcc</text>
</g>
<g id="edge15" class="edge">
<title>22349&#45;&gt;22352</title>
<path fill="none" stroke="black" d="M1005.05,-355.64C993.22,-338.35 975.9,-313.07 962.51,-293.51"/>
<polygon fill="black" stroke="black" points="965.5,-291.68 956.96,-285.4 959.72,-295.63 965.5,-291.68"/>
</g>
<g id="node13" class="node">
<title>22356</title>
<polygon fill="none" stroke="black" points="865.51,-170.98 815.76,-170.98 815.76,-129.98 865.51,-129.98 865.51,-170.98"/>
<text xml:space="preserve" text-anchor="middle" x="840.64" y="-153.68" font-family="Times,serif" font-size="14.00">22356</text>
<text xml:space="preserve" text-anchor="middle" x="840.64" y="-137.18" font-family="Times,serif" font-size="14.00">cpp</text>
</g>
<g id="edge19" class="edge">
<title>22352&#45;&gt;22356</title>
<path fill="none" stroke="black" d="M924.4,-242.64C908.23,-225.04 884.43,-199.14 866.33,-179.45"/>
<polygon fill="black" stroke="black" points="869.08,-177.27 859.74,-172.27 863.93,-182 869.08,-177.27"/>
</g>
<g id="node14" class="node">
<title>22361</title>
<polygon fill="none" stroke="black" points="933.51,-170.98 883.76,-170.98 883.76,-129.98 933.51,-129.98 933.51,-170.98"/>
<text xml:space="preserve" text-anchor="middle" x="908.64" y="-153.68" font-family="Times,serif" font-size="14.00">22361</text>
<text xml:space="preserve" text-anchor="middle" x="908.64" y="-137.18" font-family="Times,serif" font-size="14.00">cc1</text>
</g>
<g id="edge24" class="edge">
<title>22352&#45;&gt;22361</title>
<path fill="none" stroke="black" d="M936.56,-242.64C931.41,-225.83 923.94,-201.45 918.03,-182.13"/>
<polygon fill="black" stroke="black" points="921.38,-181.14 915.11,-172.6 914.69,-183.19 921.38,-181.14"/>
</g>
<g id="node15" class="node">
<title>22369</title>
<polygon fill="none" stroke="black" points="1001.51,-170.98 951.76,-170.98 951.76,-129.98 1001.51,-129.98 1001.51,-170.98"/>
<text xml:space="preserve" text-anchor="middle" x="976.64" y="-153.68" font-family="Times,serif" font-size="14.00">22369</text>
<text xml:space="preserve" text-anchor="middle" x="976.64" y="-137.18" font-family="Times,serif" font-size="14.00">as</text>
</g>
<g id="edge33" class="edge">
<title>22352&#45;&gt;22369</title>
<path fill="none" stroke="black" d="M948.72,-242.64C953.87,-225.83 961.33,-201.45 967.25,-182.13"/>
<polygon fill="black" stroke="black" points="970.59,-183.19 970.17,-172.6 963.89,-181.14 970.59,-183.19"/>
</g>
<g id="node44" class="node">
<title>93645-32246</title>
<ellipse fill="none" stroke="black" cx="727.64" cy="-28.99" rx="141.77" ry="28.99"/>
<text xml:space="preserve" text-anchor="middle" x="727.64" y="-32.19" font-family="Times,serif" font-size="14.00">93645&#45;32246</text>
<text xml:space="preserve" text-anchor="middle" x="727.64" y="-15.69" font-family="Times,serif" font-size="14.00">/home/ek/work/src/lefty/txtview.c</text>
</g>
<g id="edge25" class="edge">
<title>22356&#45;&gt;93645&#45;32246</title>
<path fill="none" stroke="black" d="M821.98,-129.75C805.67,-112.51 781.58,-87.03 761.82,-66.14"/>
<polygon fill="black" stroke="black" points="764.39,-63.76 754.98,-58.9 759.3,-68.57 764.39,-63.76"/>
</g>
<g id="node16" class="node">
<title>22353</title>
<polygon fill="none" stroke="black" points="1188.51,-396.98 1138.76,-396.98 1138.76,-355.98 1188.51,-355.98 1188.51,-396.98"/>
<text xml:space="preserve" text-anchor="middle" x="1163.64" y="-379.68" font-family="Times,serif" font-size="14.00">22353</text>
<text xml:space="preserve" text-anchor="middle" x="1163.64" y="-363.18" font-family="Times,serif" font-size="14.00">ksh</text>
</g>
<g id="node17" class="node">
<title>22355</title>
<polygon fill="none" stroke="black" points="1171.51,-283.98 1121.76,-283.98 1121.76,-242.98 1171.51,-242.98 1171.51,-283.98"/>
<text xml:space="preserve" text-anchor="middle" x="1146.64" y="-266.68" font-family="Times,serif" font-size="14.00">22355</text>
<text xml:space="preserve" text-anchor="middle" x="1146.64" y="-250.18" font-family="Times,serif" font-size="14.00">gcc</text>
</g>
<g id="edge18" class="edge">
<title>22353&#45;&gt;22355</title>
<path fill="none" stroke="black" d="M1160.6,-355.64C1158.04,-338.91 1154.33,-314.68 1151.37,-295.4"/>
<polygon fill="black" stroke="black" points="1154.85,-295.01 1149.88,-285.65 1147.93,-296.07 1154.85,-295.01"/>
</g>
<g id="node18" class="node">
<title>22360</title>
<polygon fill="none" stroke="black" points="1069.51,-170.98 1019.76,-170.98 1019.76,-129.98 1069.51,-129.98 1069.51,-170.98"/>
<text xml:space="preserve" text-anchor="middle" x="1044.64" y="-153.68" font-family="Times,serif" font-size="14.00">22360</text>
<text xml:space="preserve" text-anchor="middle" x="1044.64" y="-137.18" font-family="Times,serif" font-size="14.00">cpp</text>
</g>
<g id="edge23" class="edge">
<title>22355&#45;&gt;22360</title>
<path fill="none" stroke="black" d="M1128.4,-242.64C1112.23,-225.04 1088.43,-199.14 1070.33,-179.45"/>
<polygon fill="black" stroke="black" points="1073.08,-177.27 1063.74,-172.27 1067.93,-182 1073.08,-177.27"/>
</g>
<g id="node19" class="node">
<title>22365</title>
<polygon fill="none" stroke="black" points="1137.51,-170.98 1087.76,-170.98 1087.76,-129.98 1137.51,-129.98 1137.51,-170.98"/>
<text xml:space="preserve" text-anchor="middle" x="1112.64" y="-153.68" font-family="Times,serif" font-size="14.00">22365</text>
<text xml:space="preserve" text-anchor="middle" x="1112.64" y="-137.18" font-family="Times,serif" font-size="14.00">cc1</text>
</g>
<g id="edge28" class="edge">
<title>22355&#45;&gt;22365</title>
<path fill="none" stroke="black" d="M1140.56,-242.64C1135.41,-225.83 1127.94,-201.45 1122.03,-182.13"/>
<polygon fill="black" stroke="black" points="1125.38,-181.14 1119.11,-172.6 1118.69,-183.19 1125.38,-181.14"/>
</g>
<g id="node20" class="node">
<title>22374</title>
<polygon fill="none" stroke="black" points="1205.51,-170.98 1155.76,-170.98 1155.76,-129.98 1205.51,-129.98 1205.51,-170.98"/>
<text xml:space="preserve" text-anchor="middle" x="1180.64" y="-153.68" font-family="Times,serif" font-size="14.00">22374</text>
<text xml:space="preserve" text-anchor="middle" x="1180.64" y="-137.18" font-family="Times,serif" font-size="14.00">as</text>
</g>
<g id="edge39" class="edge">
<title>22355&#45;&gt;22374</title>
<path fill="none" stroke="black" d="M1152.72,-242.64C1157.87,-225.83 1165.33,-201.45 1171.25,-182.13"/>
<polygon fill="black" stroke="black" points="1174.59,-183.19 1174.17,-172.6 1167.89,-181.14 1174.59,-183.19"/>
</g>
<g id="node45" class="node">
<title>93638-32246</title>
<ellipse fill="none" stroke="black" cx="1029.64" cy="-28.99" rx="142.31" ry="28.99"/>
<text xml:space="preserve" text-anchor="middle" x="1029.64" y="-32.19" font-family="Times,serif" font-size="14.00">93638&#45;32246</text>
<text xml:space="preserve" text-anchor="middle" x="1029.64" y="-15.69" font-family="Times,serif" font-size="14.00">/home/ek/work/src/lefty/internal.c</text>
</g>
<g id="edge30" class="edge">
<title>22360&#45;&gt;93638&#45;32246</title>
<path fill="none" stroke="black" d="M1042.16,-129.75C1040.12,-113.46 1037.15,-89.82 1034.62,-69.65"/>
<polygon fill="black" stroke="black" points="1038.09,-69.24 1033.37,-59.75 1031.15,-70.11 1038.09,-69.24"/>
</g>
<g id="node21" class="node">
<title>22354</title>
<polygon fill="none" stroke="black" points="1328.51,-396.98 1278.76,-396.98 1278.76,-355.98 1328.51,-355.98 1328.51,-396.98"/>
<text xml:space="preserve" text-anchor="middle" x="1303.64" y="-379.68" font-family="Times,serif" font-size="14.00">22354</text>
<text xml:space="preserve" text-anchor="middle" x="1303.64" y="-363.18" font-family="Times,serif" font-size="14.00">ksh</text>
</g>
<g id="node22" class="node">
<title>22359</title>
<polygon fill="none" stroke="black" points="1328.51,-283.98 1278.76,-283.98 1278.76,-242.98 1328.51,-242.98 1328.51,-283.98"/>
<text xml:space="preserve" text-anchor="middle" x="1303.64" y="-266.68" font-family="Times,serif" font-size="14.00">22359</text>
<text xml:space="preserve" text-anchor="middle" x="1303.64" y="-250.18" font-family="Times,serif" font-size="14.00">gcc</text>
</g>
<g id="edge22" class="edge">
<title>22354&#45;&gt;22359</title>
<path fill="none" stroke="black" d="M1303.64,-355.64C1303.64,-338.91 1303.64,-314.68 1303.64,-295.4"/>
<polygon fill="black" stroke="black" points="1307.14,-295.67 1303.64,-285.67 1300.14,-295.67 1307.14,-295.67"/>
</g>
<g id="node23" class="node">
<title>22375</title>
<polygon fill="none" stroke="black" points="1346.51,-170.98 1296.76,-170.98 1296.76,-129.98 1346.51,-129.98 1346.51,-170.98"/>
<text xml:space="preserve" text-anchor="middle" x="1321.64" y="-153.68" font-family="Times,serif" font-size="14.00">22375</text>
<text xml:space="preserve" text-anchor="middle" x="1321.64" y="-137.18" font-family="Times,serif" font-size="14.00">as</text>
</g>
<g id="edge40" class="edge">
<title>22359&#45;&gt;22375</title>
<path fill="none" stroke="black" d="M1306.86,-242.64C1309.57,-225.91 1313.5,-201.68 1316.62,-182.4"/>
<polygon fill="black" stroke="black" points="1320.06,-183.08 1318.21,-172.65 1313.15,-181.96 1320.06,-183.08"/>
</g>
<g id="node51" class="node">
<title>135504-32246</title>
<ellipse fill="none" stroke="black" cx="1337.64" cy="-28.99" rx="148.14" ry="28.99"/>
<text xml:space="preserve" text-anchor="middle" x="1337.64" y="-32.19" font-family="Times,serif" font-size="14.00">135504&#45;32246</text>
<text xml:space="preserve" text-anchor="middle" x="1337.64" y="-15.69" font-family="Times,serif" font-size="14.00">/home/ek/work/sun4/lefty/display.o</text>
</g>
<g id="edge50" class="edge">
<title>22375&#45;&gt;135504&#45;32246</title>
<path fill="none" stroke="black" d="M1324.28,-129.75C1326.46,-113.46 1329.63,-89.82 1332.33,-69.65"/>
<polygon fill="black" stroke="black" points="1335.8,-70.12 1333.65,-59.75 1328.86,-69.19 1335.8,-70.12"/>
</g>
<g id="node24" class="node">
<title>22358</title>
<polygon fill="none" stroke="black" points="1585.51,-396.98 1535.76,-396.98 1535.76,-355.98 1585.51,-355.98 1585.51,-396.98"/>
<text xml:space="preserve" text-anchor="middle" x="1560.64" y="-379.68" font-family="Times,serif" font-size="14.00">22358</text>
<text xml:space="preserve" text-anchor="middle" x="1560.64" y="-363.18" font-family="Times,serif" font-size="14.00">ksh</text>
</g>
<g id="node25" class="node">
<title>22362</title>
<polygon fill="none" stroke="black" points="1619.51,-283.98 1569.76,-283.98 1569.76,-242.98 1619.51,-242.98 1619.51,-283.98"/>
<text xml:space="preserve" text-anchor="middle" x="1594.64" y="-266.68" font-family="Times,serif" font-size="14.00">22362</text>
<text xml:space="preserve" text-anchor="middle" x="1594.64" y="-250.18" font-family="Times,serif" font-size="14.00">gcc</text>
</g>
<g id="edge26" class="edge">
<title>22358&#45;&gt;22362</title>
<path fill="none" stroke="black" d="M1566.72,-355.64C1571.87,-338.83 1579.33,-314.45 1585.25,-295.13"/>
<polygon fill="black" stroke="black" points="1588.59,-296.19 1588.17,-285.6 1581.89,-294.14 1588.59,-296.19"/>
</g>
<g id="node26" class="node">
<title>22367</title>
<polygon fill="none" stroke="black" points="1585.51,-170.98 1535.76,-170.98 1535.76,-129.98 1585.51,-129.98 1585.51,-170.98"/>
<text xml:space="preserve" text-anchor="middle" x="1560.64" y="-153.68" font-family="Times,serif" font-size="14.00">22367</text>
<text xml:space="preserve" text-anchor="middle" x="1560.64" y="-137.18" font-family="Times,serif" font-size="14.00">cpp</text>
</g>
<g id="edge31" class="edge">
<title>22362&#45;&gt;22367</title>
<path fill="none" stroke="black" d="M1588.56,-242.64C1583.41,-225.83 1575.94,-201.45 1570.03,-182.13"/>
<polygon fill="black" stroke="black" points="1573.38,-181.14 1567.11,-172.6 1566.69,-183.19 1573.38,-181.14"/>
</g>
<g id="node27" class="node">
<title>22373</title>
<polygon fill="none" stroke="black" points="1653.51,-170.98 1603.76,-170.98 1603.76,-129.98 1653.51,-129.98 1653.51,-170.98"/>
<text xml:space="preserve" text-anchor="middle" x="1628.64" y="-153.68" font-family="Times,serif" font-size="14.00">22373</text>
<text xml:space="preserve" text-anchor="middle" x="1628.64" y="-137.18" font-family="Times,serif" font-size="14.00">cc1</text>
</g>
<g id="edge37" class="edge">
<title>22362&#45;&gt;22373</title>
<path fill="none" stroke="black" d="M1600.72,-242.64C1605.87,-225.83 1613.33,-201.45 1619.25,-182.13"/>
<polygon fill="black" stroke="black" points="1622.59,-183.19 1622.17,-172.6 1615.89,-181.14 1622.59,-183.19"/>
</g>
<g id="node28" class="node">
<title>22378</title>
<polygon fill="none" stroke="black" points="1721.51,-170.98 1671.76,-170.98 1671.76,-129.98 1721.51,-129.98 1721.51,-170.98"/>
<text xml:space="preserve" text-anchor="middle" x="1696.64" y="-153.68" font-family="Times,serif" font-size="14.00">22378</text>
<text xml:space="preserve" text-anchor="middle" x="1696.64" y="-137.18" font-family="Times,serif" font-size="14.00">as</text>
</g>
<g id="edge44" class="edge">
<title>22362&#45;&gt;22378</title>
<path fill="none" stroke="black" d="M1612.87,-242.64C1629.05,-225.04 1652.84,-199.14 1670.94,-179.45"/>
<polygon fill="black" stroke="black" points="1673.35,-182 1677.54,-172.27 1668.19,-177.27 1673.35,-182"/>
</g>
<g id="node47" class="node">
<title>88860-32246</title>
<ellipse fill="none" stroke="black" cx="1643.64" cy="-28.99" rx="139.65" ry="28.99"/>
<text xml:space="preserve" text-anchor="middle" x="1643.64" y="-32.19" font-family="Times,serif" font-size="14.00">88860&#45;32246</text>
<text xml:space="preserve" text-anchor="middle" x="1643.64" y="-15.69" font-family="Times,serif" font-size="14.00">/home/ek/dev/src/lefty/stringify.c</text>
</g>
<g id="edge38" class="edge">
<title>22367&#45;&gt;88860&#45;32246</title>
<path fill="none" stroke="black" d="M1574.34,-129.75C1586.16,-112.74 1603.55,-87.71 1617.95,-66.98"/>
<polygon fill="black" stroke="black" points="1620.63,-69.25 1623.46,-59.04 1614.88,-65.26 1620.63,-69.25"/>
</g>
<g id="node29" class="node">
<title>22363</title>
<polygon fill="none" stroke="black" points="1956.51,-396.98 1906.76,-396.98 1906.76,-355.98 1956.51,-355.98 1956.51,-396.98"/>
<text xml:space="preserve" text-anchor="middle" x="1931.64" y="-379.68" font-family="Times,serif" font-size="14.00">22363</text>
<text xml:space="preserve" text-anchor="middle" x="1931.64" y="-363.18" font-family="Times,serif" font-size="14.00">ksh</text>
</g>
<g id="node30" class="node">
<title>22366</title>
<polygon fill="none" stroke="black" points="1990.51,-283.98 1940.76,-283.98 1940.76,-242.98 1990.51,-242.98 1990.51,-283.98"/>
<text xml:space="preserve" text-anchor="middle" x="1965.64" y="-266.68" font-family="Times,serif" font-size="14.00">22366</text>
<text xml:space="preserve" text-anchor="middle" x="1965.64" y="-250.18" font-family="Times,serif" font-size="14.00">gcc</text>
</g>
<g id="edge29" class="edge">
<title>22363&#45;&gt;22366</title>
<path fill="none" stroke="black" d="M1937.72,-355.64C1942.87,-338.83 1950.33,-314.45 1956.25,-295.13"/>
<polygon fill="black" stroke="black" points="1959.59,-296.19 1959.17,-285.6 1952.89,-294.14 1959.59,-296.19"/>
</g>
<g id="node31" class="node">
<title>22371</title>
<polygon fill="none" stroke="black" points="1956.51,-170.98 1906.76,-170.98 1906.76,-129.98 1956.51,-129.98 1956.51,-170.98"/>
<text xml:space="preserve" text-anchor="middle" x="1931.64" y="-153.68" font-family="Times,serif" font-size="14.00">22371</text>
<text xml:space="preserve" text-anchor="middle" x="1931.64" y="-137.18" font-family="Times,serif" font-size="14.00">cpp</text>
</g>
<g id="edge35" class="edge">
<title>22366&#45;&gt;22371</title>
<path fill="none" stroke="black" d="M1959.56,-242.64C1954.41,-225.83 1946.94,-201.45 1941.03,-182.13"/>
<polygon fill="black" stroke="black" points="1944.38,-181.14 1938.11,-172.6 1937.69,-183.19 1944.38,-181.14"/>
</g>
<g id="node32" class="node">
<title>22376</title>
<polygon fill="none" stroke="black" points="2024.51,-170.98 1974.76,-170.98 1974.76,-129.98 2024.51,-129.98 2024.51,-170.98"/>
<text xml:space="preserve" text-anchor="middle" x="1999.64" y="-153.68" font-family="Times,serif" font-size="14.00">22376</text>
<text xml:space="preserve" text-anchor="middle" x="1999.64" y="-137.18" font-family="Times,serif" font-size="14.00">cc1</text>
</g>
<g id="edge41" class="edge">
<title>22366&#45;&gt;22376</title>
<path fill="none" stroke="black" d="M1971.72,-242.64C1976.87,-225.83 1984.33,-201.45 1990.25,-182.13"/>
<polygon fill="black" stroke="black" points="1993.59,-183.19 1993.17,-172.6 1986.89,-181.14 1993.59,-183.19"/>
</g>
<g id="node33" class="node">
<title>22380</title>
<polygon fill="none" stroke="black" points="2092.51,-170.98 2042.76,-170.98 2042.76,-129.98 2092.51,-129.98 2092.51,-170.98"/>
<text xml:space="preserve" text-anchor="middle" x="2067.64" y="-153.68" font-family="Times,serif" font-size="14.00">22380</text>
<text xml:space="preserve" text-anchor="middle" x="2067.64" y="-137.18" font-family="Times,serif" font-size="14.00">as</text>
</g>
<g id="edge47" class="edge">
<title>22366&#45;&gt;22380</title>
<path fill="none" stroke="black" d="M1983.87,-242.64C2000.05,-225.04 2023.84,-199.14 2041.94,-179.45"/>
<polygon fill="black" stroke="black" points="2044.35,-182 2048.54,-172.27 2039.19,-177.27 2044.35,-182"/>
</g>
<g id="node48" class="node">
<title>93626-32246</title>
<ellipse fill="none" stroke="black" cx="1931.64" cy="-28.99" rx="130.64" ry="28.99"/>
<text xml:space="preserve" text-anchor="middle" x="1931.64" y="-32.19" font-family="Times,serif" font-size="14.00">93626&#45;32246</text>
<text xml:space="preserve" text-anchor="middle" x="1931.64" y="-15.69" font-family="Times,serif" font-size="14.00">/home/ek/work/src/lefty/exec.c</text>
</g>
<g id="edge42" class="edge">
<title>22371&#45;&gt;93626&#45;32246</title>
<path fill="none" stroke="black" d="M1931.64,-129.75C1931.64,-113.46 1931.64,-89.82 1931.64,-69.65"/>
<polygon fill="black" stroke="black" points="1935.14,-69.76 1931.64,-59.76 1928.14,-69.76 1935.14,-69.76"/>
</g>
<g id="node50" class="node">
<title>37592-32246</title>
<ellipse fill="none" stroke="black" cx="2205.64" cy="-28.99" rx="125.33" ry="28.99"/>
<text xml:space="preserve" text-anchor="middle" x="2205.64" y="-32.19" font-family="Times,serif" font-size="14.00">37592&#45;32246</text>
<text xml:space="preserve" text-anchor="middle" x="2205.64" y="-15.69" font-family="Times,serif" font-size="14.00">/home/ek/dev/src/lefty/exec.h</text>
</g>
<g id="edge49" class="edge">
<title>22371&#45;&gt;37592&#45;32246</title>
<path fill="none" stroke="black" d="M1954.35,-129.53C1957.99,-126.8 1961.82,-124.18 1965.64,-121.98 2013.69,-94.27 2071.67,-71.78 2118.61,-55.98"/>
<polygon fill="black" stroke="black" points="2119.54,-59.35 2127.93,-52.88 2117.33,-52.71 2119.54,-59.35"/>
</g>
<g id="node34" class="node">
<title>22368</title>
<polygon fill="none" stroke="black" points="2336.51,-396.98 2286.76,-396.98 2286.76,-355.98 2336.51,-355.98 2336.51,-396.98"/>
<text xml:space="preserve" text-anchor="middle" x="2311.64" y="-379.68" font-family="Times,serif" font-size="14.00">22368</text>
<text xml:space="preserve" text-anchor="middle" x="2311.64" y="-363.18" font-family="Times,serif" font-size="14.00">ksh</text>
</g>
<g id="node35" class="node">
<title>22372</title>
<polygon fill="none" stroke="black" points="2370.51,-283.98 2320.76,-283.98 2320.76,-242.98 2370.51,-242.98 2370.51,-283.98"/>
<text xml:space="preserve" text-anchor="middle" x="2345.64" y="-266.68" font-family="Times,serif" font-size="14.00">22372</text>
<text xml:space="preserve" text-anchor="middle" x="2345.64" y="-250.18" font-family="Times,serif" font-size="14.00">gcc</text>
</g>
<g id="edge36" class="edge">
<title>22368&#45;&gt;22372</title>
<path fill="none" stroke="black" d="M2317.72,-355.64C2322.87,-338.83 2330.33,-314.45 2336.25,-295.13"/>
<polygon fill="black" stroke="black" points="2339.59,-296.19 2339.17,-285.6 2332.89,-294.14 2339.59,-296.19"/>
</g>
<g id="node36" class="node">
<title>22377</title>
<polygon fill="none" stroke="black" points="2336.51,-170.98 2286.76,-170.98 2286.76,-129.98 2336.51,-129.98 2336.51,-170.98"/>
<text xml:space="preserve" text-anchor="middle" x="2311.64" y="-153.68" font-family="Times,serif" font-size="14.00">22377</text>
<text xml:space="preserve" text-anchor="middle" x="2311.64" y="-137.18" font-family="Times,serif" font-size="14.00">cpp</text>
</g>
<g id="edge43" class="edge">
<title>22372&#45;&gt;22377</title>
<path fill="none" stroke="black" d="M2339.56,-242.64C2334.41,-225.83 2326.94,-201.45 2321.03,-182.13"/>
<polygon fill="black" stroke="black" points="2324.38,-181.14 2318.11,-172.6 2317.69,-183.19 2324.38,-181.14"/>
</g>
<g id="node37" class="node">
<title>22379</title>
<polygon fill="none" stroke="black" points="2404.51,-170.98 2354.76,-170.98 2354.76,-129.98 2404.51,-129.98 2404.51,-170.98"/>
<text xml:space="preserve" text-anchor="middle" x="2379.64" y="-153.68" font-family="Times,serif" font-size="14.00">22379</text>
<text xml:space="preserve" text-anchor="middle" x="2379.64" y="-137.18" font-family="Times,serif" font-size="14.00">cc1</text>
</g>
<g id="edge45" class="edge">
<title>22372&#45;&gt;22379</title>
<path fill="none" stroke="black" d="M2351.72,-242.64C2356.87,-225.83 2364.33,-201.45 2370.25,-182.13"/>
<polygon fill="black" stroke="black" points="2373.59,-183.19 2373.17,-172.6 2366.89,-181.14 2373.59,-183.19"/>
</g>
<g id="node38" class="node">
<title>22381</title>
<polygon fill="none" stroke="black" points="2472.51,-170.98 2422.76,-170.98 2422.76,-129.98 2472.51,-129.98 2472.51,-170.98"/>
<text xml:space="preserve" text-anchor="middle" x="2447.64" y="-153.68" font-family="Times,serif" font-size="14.00">22381</text>
<text xml:space="preserve" text-anchor="middle" x="2447.64" y="-137.18" font-family="Times,serif" font-size="14.00">as</text>
</g>
<g id="edge48" class="edge">
<title>22372&#45;&gt;22381</title>
<path fill="none" stroke="black" d="M2363.87,-242.64C2380.05,-225.04 2403.84,-199.14 2421.94,-179.45"/>
<polygon fill="black" stroke="black" points="2424.35,-182 2428.54,-172.27 2419.19,-177.27 2424.35,-182"/>
</g>
<g id="node49" class="node">
<title>93643-32246</title>
<ellipse fill="none" stroke="black" cx="2482.64" cy="-28.99" rx="133.29" ry="28.99"/>
<text xml:space="preserve" text-anchor="middle" x="2482.64" y="-32.19" font-family="Times,serif" font-size="14.00">93643&#45;32246</text>
<text xml:space="preserve" text-anchor="middle" x="2482.64" y="-15.69" font-family="Times,serif" font-size="14.00">/home/ek/work/src/lefty/parse.c</text>
</g>
<g id="edge46" class="edge">
<title>22377&#45;&gt;93643&#45;32246</title>
<path fill="none" stroke="black" d="M2335.58,-129.68C2338.92,-127.05 2342.34,-124.42 2345.64,-121.98 2373.36,-101.53 2405.26,-80 2431.3,-62.91"/>
<polygon fill="black" stroke="black" points="2432.89,-66.05 2439.34,-57.65 2429.06,-60.19 2432.89,-66.05"/>
</g>
<g id="node39" class="node">
<title>22316</title>
<polygon fill="none" stroke="black" points="1447.51,-752.97 1397.76,-752.97 1397.76,-711.97 1447.51,-711.97 1447.51,-752.97"/>
<text xml:space="preserve" text-anchor="middle" x="1422.64" y="-735.67" font-family="Times,serif" font-size="14.00">22316</text>
<text xml:space="preserve" text-anchor="middle" x="1422.64" y="-719.17" font-family="Times,serif" font-size="14.00">ksh</text>
</g>
<g id="node40" class="node">
<title>22324</title>
<polygon fill="none" stroke="black" points="1449.01,-639.97 1396.26,-639.97 1396.26,-598.97 1449.01,-598.97 1449.01,-639.97"/>
<text xml:space="preserve" text-anchor="middle" x="1422.64" y="-622.67" font-family="Times,serif" font-size="14.00">22324</text>
<text xml:space="preserve" text-anchor="middle" x="1422.64" y="-606.17" font-family="Times,serif" font-size="14.00">nmake</text>
</g>
<g id="edge1" class="edge">
<title>22316&#45;&gt;22324</title>
<path fill="none" stroke="black" d="M1422.64,-711.62C1422.64,-694.89 1422.64,-670.66 1422.64,-651.39"/>
<polygon fill="black" stroke="black" points="1426.14,-651.65 1422.64,-641.65 1419.14,-651.65 1426.14,-651.65"/>
</g>
<g id="node41" class="node">
<title>22337</title>
<polygon fill="none" stroke="black" points="1283.51,-518.47 1233.76,-518.47 1233.76,-477.47 1283.51,-477.47 1283.51,-518.47"/>
<text xml:space="preserve" text-anchor="middle" x="1258.64" y="-501.17" font-family="Times,serif" font-size="14.00">22337</text>
<text xml:space="preserve" text-anchor="middle" x="1258.64" y="-484.67" font-family="Times,serif" font-size="14.00">ksh</text>
</g>
<g id="edge2" class="edge">
<title>22324&#45;&gt;22337</title>
<path fill="none" stroke="black" d="M1395.92,-599C1367.87,-578.56 1323.67,-546.36 1293.03,-524.03"/>
<polygon fill="black" stroke="black" points="1295.36,-521.4 1285.22,-518.34 1291.24,-527.06 1295.36,-521.4"/>
</g>
<g id="node46" class="node">
<title>93642-32246</title>
<ellipse fill="none" stroke="black" cx="1588.32" cy="-497.97" rx="124.8" ry="28.99"/>
<text xml:space="preserve" text-anchor="middle" x="1588.32" y="-501.17" font-family="Times,serif" font-size="14.00">93642&#45;32246</text>
<text xml:space="preserve" text-anchor="middle" x="1588.32" y="-484.67" font-family="Times,serif" font-size="14.00">/home/ek/work/src/lefty/lex.c</text>
</g>
<g id="edge34" class="edge">
<title>22324&#45;&gt;93642&#45;32246</title>
<path fill="none" stroke="black" d="M1449.26,-599.27C1474.21,-581.27 1512.05,-553.98 1541.96,-532.41"/>
<polygon fill="black" stroke="black" points="1543.67,-535.49 1549.73,-526.8 1539.57,-529.81 1543.67,-535.49"/>
</g>
<g id="edge3" class="edge">
<title>22337&#45;&gt;22342</title>
<path fill="none" stroke="black" d="M1233.37,-496.14C1129.77,-492.5 737.45,-476.54 619.64,-439.98 592.29,-431.5 564.2,-415.6 543.13,-401.97"/>
<polygon fill="black" stroke="black" points="545.2,-399.14 534.94,-396.54 541.34,-404.98 545.2,-399.14"/>
</g>
<g id="edge5" class="edge">
<title>22337&#45;&gt;22344</title>
<path fill="none" stroke="black" d="M1233.28,-496.19C1163.54,-493.52 963.48,-482.45 803.64,-439.98 763.08,-429.21 719.02,-409.86 689.21,-395.53"/>
<polygon fill="black" stroke="black" points="690.79,-392.41 680.27,-391.17 687.73,-398.7 690.79,-392.41"/>
</g>
<g id="edge11" class="edge">
<title>22337&#45;&gt;22349</title>
<path fill="none" stroke="black" d="M1233.58,-486.75C1207.34,-475.85 1165.1,-457.75 1129.64,-439.98 1103.69,-426.98 1075.18,-410.89 1053.55,-398.29"/>
<polygon fill="black" stroke="black" points="1055.53,-395.39 1045.14,-393.36 1051.99,-401.43 1055.53,-395.39"/>
</g>
<g id="edge16" class="edge">
<title>22337&#45;&gt;22353</title>
<path fill="none" stroke="black" d="M1242.95,-477.24C1227.55,-457.87 1203.89,-428.11 1186.42,-406.13"/>
<polygon fill="black" stroke="black" points="1189.25,-404.08 1180.29,-398.43 1183.77,-408.43 1189.25,-404.08"/>
</g>
<g id="edge17" class="edge">
<title>22337&#45;&gt;22354</title>
<path fill="none" stroke="black" d="M1266.07,-477.24C1273.17,-458.39 1283.97,-429.7 1292.18,-407.92"/>
<polygon fill="black" stroke="black" points="1295.41,-409.25 1295.66,-398.66 1288.86,-406.78 1295.41,-409.25"/>
</g>
<g id="edge21" class="edge">
<title>22337&#45;&gt;22358</title>
<path fill="none" stroke="black" d="M1283.87,-486.99C1337.49,-465.77 1462.96,-416.13 1524.84,-391.65"/>
<polygon fill="black" stroke="black" points="1525.85,-395.01 1533.86,-388.08 1523.27,-388.5 1525.85,-395.01"/>
</g>
<g id="edge27" class="edge">
<title>22337&#45;&gt;22363</title>
<path fill="none" stroke="black" d="M1283.97,-493.04C1321.28,-487.32 1393.23,-476.56 1454.64,-468.98 1578.37,-453.72 1611.57,-465.32 1733.64,-439.98 1791.58,-427.95 1856.64,-405.65 1895.86,-391.19"/>
<polygon fill="black" stroke="black" points="1896.88,-394.55 1905.03,-387.78 1894.43,-387.99 1896.88,-394.55"/>
</g>
<g id="edge32" class="edge">
<title>22337&#45;&gt;22368</title>
<path fill="none" stroke="black" d="M1283.92,-492.56C1321.16,-486.24 1393.04,-474.74 1454.64,-468.98 1742.56,-442.06 1819.58,-488.59 2104.64,-439.98 2166.03,-429.51 2234.79,-406.36 2275.58,-391.37"/>
<polygon fill="black" stroke="black" points="2276.74,-394.67 2284.9,-387.9 2274.3,-388.11 2276.74,-394.67"/>
</g>
</g>
</svg>
