<?xml version="1.0" encoding="UTF-8" standalone="no"?>
<!DOCTYPE svg PUBLIC "-//W3C//DTD SVG 1.1//EN"
 "http://www.w3.org/Graphics/SVG/1.1/DTD/svg11.dtd">
<!-- Generated by graphviz-ts -->
<svg width="62pt" height="133pt"
     viewBox="0.00 0.00 62.00 133.00"
     xmlns="http://www.w3.org/2000/svg" xmlns:xlink="http://www.w3.org/1999/xlink">
<g id="graph0" class="graph" transform="scale(1 1) rotate(0) translate(4 128.5)">
<polygon fill="white" stroke="none" points="-4,4 -4,-128.5 58,-128.5 58,4 -4,4"/>
<g id="node1" class="node">
<title>a</title>
<ellipse fill="none" stroke="black" cx="27" cy="-106.5" rx="27" ry="18"/>
<text xml:space="preserve" text-anchor="middle" x="27" y="-101.45" font-family="Times,serif" font-size="14.00">a</text>
</g>
<g id="node2" class="node">
<title>b</title>
<ellipse fill="none" stroke="black" cx="27" cy="-18" rx="27" ry="18"/>
<text xml:space="preserve" text-anchor="middle" x="27" y="-12.95" font-family="Times,serif" font-size="14.00">b</text>
</g>
<g id="edge1" class="edge">
<title>a&#45;&gt;b</title>
<path fill="none" stroke="black" d="M20.13,-88.69C18.14,-83.01 16.24,-76.57 15.25,-70.5 14.07,-63.26 14.07,-61.24 15.25,-54 15.64,-51.63 16.16,-49.2 16.78,-46.78"/>
<polygon fill="black" stroke="black" points="20.12,-47.84 19.69,-37.26 13.42,-45.8 20.12,-47.84"/>
<text xml:space="preserve" text-anchor="middle" x="15.38" y="-57.2" font-family="Times,serif" font-size="14.00">1</text>
</g>
<g id="edge2" class="edge">
<title>a&#45;&gt;b</title>
<path fill="none" stroke="black" d="M27.45,-88.05C27.57,-82.45 27.69,-76.21 27.75,-70.5 27.83,-63.17 27.83,-61.33 27.75,-54 27.73,-51.95 27.7,-49.83 27.66,-47.69"/>
<polygon fill="black" stroke="black" points="31.17,-47.89 27.48,-37.96 24.17,-48.02 31.17,-47.89"/>
<text xml:space="preserve" text-anchor="middle" x="45.38" y="-57.2" font-family="Times,serif" font-size="14.00">2</text>
</g>
</g>
</svg>
