<?xml version="1.0" encoding="UTF-8" standalone="no"?>
<!DOCTYPE svg PUBLIC "-//W3C//DTD SVG 1.1//EN"
 "http://www.w3.org/Graphics/SVG/1.1/DTD/svg11.dtd">
<!-- Generated by graphviz version 15.0.0 (20260523.1842)
 -->
<!-- Title: G Pages: 1 -->
<svg width="240pt" height="222pt"
 viewBox="0.00 0.00 240.00 222.00" xmlns="http://www.w3.org/2000/svg" xmlns:xlink="http://www.w3.org/1999/xlink">
<g id="graph0" class="graph" transform="scale(1 1) rotate(0) translate(4 218.12)">
<title>G</title>
<polygon fill="white" stroke="none" points="-4,4 -4,-218.12 235.62,-218.12 235.62,4 -4,4"/>
<!-- R -->
<g id="node1" class="node">
<title>R</title>
<polygon fill="none" stroke="black" points="82.06,-0.5 82.06,-36.5 149.56,-36.5 149.56,-0.5 82.06,-0.5"/>
<text xml:space="preserve" text-anchor="middle" x="93.43" y="-13.45" font-family="Times,serif" font-size="14.00">x</text>
<polyline fill="none" stroke="black" points="104.81,-0.5 104.81,-36.5"/>
<text xml:space="preserve" text-anchor="middle" x="116.18" y="-13.45" font-family="Times,serif" font-size="14.00">y</text>
<polyline fill="none" stroke="black" points="127.56,-0.5 127.56,-36.5"/>
<text xml:space="preserve" text-anchor="middle" x="138.56" y="-13.45" font-family="Times,serif" font-size="14.00">z</text>
</g>
<!-- B -->
<g id="node2" class="node">
<title>B</title>
<ellipse fill="none" stroke="black" cx="27" cy="-107.31" rx="27" ry="18"/>
<text xml:space="preserve" text-anchor="middle" x="27" y="-102.26" font-family="Times,serif" font-size="14.00">B</text>
</g>
<!-- R&#45;&#45;B -->
<g id="edge1" class="edge">
<title>R&#45;&#45;B</title>
<path fill="none" stroke="black" d="M97.41,-36.9C81.05,-53.26 57.42,-76.89 42.13,-92.18"/>
</g>
<!-- C -->
<g id="node3" class="node">
<title>C</title>
<ellipse fill="none" stroke="black" cx="115.81" cy="-196.12" rx="27" ry="18"/>
<text xml:space="preserve" text-anchor="middle" x="115.81" y="-191.07" font-family="Times,serif" font-size="14.00">C</text>
</g>
<!-- B&#45;&#45;C -->
<g id="edge2" class="edge">
<title>B&#45;&#45;C</title>
<path fill="none" stroke="black" d="M42.07,-122.37C58.4,-138.7 84.31,-164.62 100.67,-180.98"/>
</g>
<!-- D -->
<g id="node4" class="node">
<title>D</title>
<ellipse fill="none" stroke="black" cx="204.62" cy="-107.31" rx="27" ry="18"/>
<text xml:space="preserve" text-anchor="middle" x="204.62" y="-102.26" font-family="Times,serif" font-size="14.00">D</text>
</g>
<!-- C&#45;&#45;D -->
<g id="edge3" class="edge">
<title>C&#45;&#45;D</title>
<path fill="none" stroke="black" d="M130.87,-181.05C147.2,-164.72 173.12,-138.81 189.48,-122.45"/>
</g>
<!-- D&#45;&#45;R -->
<g id="edge4" class="edge">
<title>D&#45;&#45;R</title>
<path fill="none" stroke="black" d="M189.55,-92.24C174.21,-76.9 150.41,-53.1 134.02,-36.71"/>
</g>
</g>
</svg>
