<?xml version="1.0" encoding="UTF-8" standalone="no"?>
<!DOCTYPE svg PUBLIC "-//W3C//DTD SVG 1.1//EN"
 "http://www.w3.org/Graphics/SVG/1.1/DTD/svg11.dtd">
<!-- Generated by graphviz version 15.0.0 (20260523.1842)
 -->
<!-- Title: G Pages: 1 -->
<svg width="414pt" height="276pt"
 viewBox="0.00 0.00 414.00 276.00" xmlns="http://www.w3.org/2000/svg" xmlns:xlink="http://www.w3.org/1999/xlink">
<g id="graph0" class="graph" transform="scale(1 1) rotate(0) translate(4 272.43)">
<title>G</title>
<polygon fill="white" stroke="none" points="-4,4 -4,-272.43 410.43,-272.43 410.43,4 -4,4"/>
<!-- A -->
<g id="node1" class="node">
<title>A</title>
<ellipse fill="none" stroke="black" cx="107.21" cy="-18" rx="27" ry="18"/>
<text xml:space="preserve" text-anchor="middle" x="107.21" y="-12.95" font-family="Times,serif" font-size="14.00">A</text>
</g>
<!-- B -->
<g id="node2" class="node">
<title>B</title>
<ellipse fill="none" stroke="black" cx="27" cy="-98.21" rx="27" ry="18"/>
<text xml:space="preserve" text-anchor="middle" x="27" y="-93.16" font-family="Times,serif" font-size="14.00">B</text>
</g>
<!-- A&#45;&#45;B -->
<g id="edge1" class="edge">
<title>A&#45;&#45;B</title>
<path fill="none" stroke="black" d="M92.13,-33.09C77.88,-47.34 56.61,-68.6 42.29,-82.92"/>
</g>
<!-- C -->
<g id="node3" class="node">
<title>C</title>
<ellipse fill="none" stroke="black" cx="107.21" cy="-178.43" rx="27" ry="18"/>
<text xml:space="preserve" text-anchor="middle" x="107.21" y="-173.38" font-family="Times,serif" font-size="14.00">C</text>
</g>
<!-- B&#45;&#45;C -->
<g id="edge2" class="edge">
<title>B&#45;&#45;C</title>
<path fill="none" stroke="black" d="M42.09,-113.3C56.34,-127.55 77.6,-148.82 91.92,-163.14"/>
</g>
<!-- D -->
<g id="node4" class="node">
<title>D</title>
<ellipse fill="none" stroke="black" cx="187.43" cy="-98.21" rx="27" ry="18"/>
<text xml:space="preserve" text-anchor="middle" x="187.43" y="-93.16" font-family="Times,serif" font-size="14.00">D</text>
</g>
<!-- C&#45;&#45;D -->
<g id="edge3" class="edge">
<title>C&#45;&#45;D</title>
<path fill="none" stroke="black" d="M122.3,-163.34C136.55,-149.09 157.82,-127.82 172.14,-113.51"/>
</g>
<!-- D&#45;&#45;A -->
<g id="edge4" class="edge">
<title>D&#45;&#45;A</title>
<path fill="none" stroke="black" d="M172.34,-83.13C158.09,-68.88 136.82,-47.61 122.51,-33.29"/>
</g>
<!-- E -->
<g id="node5" class="node">
<title>E</title>
<ellipse fill="none" stroke="black" cx="299.21" cy="-90" rx="27" ry="18"/>
<text xml:space="preserve" text-anchor="middle" x="299.21" y="-84.95" font-family="Times,serif" font-size="14.00">E</text>
</g>
<!-- F -->
<g id="node6" class="node">
<title>F</title>
<ellipse fill="none" stroke="black" cx="219" cy="-170.21" rx="27" ry="18"/>
<text xml:space="preserve" text-anchor="middle" x="219" y="-165.16" font-family="Times,serif" font-size="14.00">F</text>
</g>
<!-- E&#45;&#45;F -->
<g id="edge5" class="edge">
<title>E&#45;&#45;F</title>
<path fill="none" stroke="black" d="M284.13,-105.09C269.88,-119.34 248.61,-140.6 234.29,-154.92"/>
</g>
<!-- G -->
<g id="node7" class="node">
<title>G</title>
<ellipse fill="none" stroke="black" cx="299.21" cy="-250.43" rx="27" ry="18"/>
<text xml:space="preserve" text-anchor="middle" x="299.21" y="-245.38" font-family="Times,serif" font-size="14.00">G</text>
</g>
<!-- F&#45;&#45;G -->
<g id="edge6" class="edge">
<title>F&#45;&#45;G</title>
<path fill="none" stroke="black" d="M234.09,-185.3C248.34,-199.55 269.6,-220.82 283.92,-235.14"/>
</g>
<!-- H -->
<g id="node8" class="node">
<title>H</title>
<ellipse fill="none" stroke="black" cx="379.43" cy="-170.21" rx="27" ry="18"/>
<text xml:space="preserve" text-anchor="middle" x="379.43" y="-165.16" font-family="Times,serif" font-size="14.00">H</text>
</g>
<!-- G&#45;&#45;H -->
<g id="edge7" class="edge">
<title>G&#45;&#45;H</title>
<path fill="none" stroke="black" d="M314.3,-235.34C328.55,-221.09 349.82,-199.82 364.14,-185.51"/>
</g>
<!-- H&#45;&#45;E -->
<g id="edge8" class="edge">
<title>H&#45;&#45;E</title>
<path fill="none" stroke="black" d="M364.34,-155.13C350.09,-140.88 328.82,-119.61 314.51,-105.29"/>
</g>
</g>
</svg>
