<?xml version="1.0" encoding="UTF-8" standalone="no"?>
<!DOCTYPE svg PUBLIC "-//W3C//DTD SVG 1.1//EN"
 "http://www.w3.org/Graphics/SVG/1.1/DTD/svg11.dtd">
<!-- Generated by graphviz version 15.1.0~dev.20260610.0127 (20260610.0127)
 -->
<!-- Title: G Pages: 1 -->
<svg width="152pt" height="148pt"
 viewBox="0.00 0.00 152.00 148.00" xmlns="http://www.w3.org/2000/svg" xmlns:xlink="http://www.w3.org/1999/xlink">
<g id="graph0" class="graph" transform="scale(1 1) rotate(0) translate(4 144.2)">
<title>G</title>
<polygon fill="white" stroke="none" points="-4,4 -4,-144.2 148.24,-144.2 148.24,4 -4,4"/>
<!-- A -->
<g id="node1" class="node">
<title>A</title>
<ellipse fill="none" stroke="black" cx="27" cy="-18" rx="27" ry="18"/>
<text xml:space="preserve" text-anchor="middle" x="27" y="-13.8" font-family="Times,serif" font-size="14.00">A</text>
</g>
<!-- A&#45;&#45;A -->
<g id="edge1" class="edge">
<title>A&#45;&#45;A</title>
<path fill="none" stroke="black" d="M52.44,-24.69C63.03,-25.15 72,-22.92 72,-18 72,-13.08 63.03,-10.85 52.44,-11.31"/>
</g>
<!-- B -->
<g id="node2" class="node">
<title>B</title>
<ellipse fill="none" stroke="black" cx="27" cy="-122.2" rx="27" ry="18"/>
<text xml:space="preserve" text-anchor="middle" x="27" y="-118" font-family="Times,serif" font-size="14.00">B</text>
</g>
<!-- A&#45;&#45;B -->
<g id="edge2" class="edge">
<title>A&#45;&#45;B</title>
<path fill="none" stroke="black" d="M27,-36.15C27,-55.16 27,-84.85 27,-103.91"/>
</g>
<!-- C -->
<g id="node3" class="node">
<title>C</title>
<ellipse fill="none" stroke="black" cx="117.24" cy="-70.1" rx="27" ry="18"/>
<text xml:space="preserve" text-anchor="middle" x="117.24" y="-65.9" font-family="Times,serif" font-size="14.00">C</text>
</g>
<!-- B&#45;&#45;C -->
<g id="edge3" class="edge">
<title>B&#45;&#45;C</title>
<path fill="none" stroke="black" d="M47.48,-110.38C62.14,-101.91 81.82,-90.55 96.53,-82.06"/>
</g>
<!-- C&#45;&#45;A -->
<g id="edge4" class="edge">
<title>C&#45;&#45;A</title>
<path fill="none" stroke="black" d="M96.76,-58.28C82.1,-49.81 62.43,-38.45 47.71,-29.96"/>
</g>
</g>
</svg>
