<?xml version="1.0" encoding="UTF-8" standalone="no"?>
<!DOCTYPE svg PUBLIC "-//W3C//DTD SVG 1.1//EN"
 "http://www.w3.org/Graphics/SVG/1.1/DTD/svg11.dtd">
<!-- Generated by graphviz version 15.1.0~dev.20260610.0127 (20260610.0127)
 -->
<!-- Pages: 1 -->
<svg width="22pt" height="102pt"
 viewBox="0.00 0.00 22.00 102.00" xmlns="http://www.w3.org/2000/svg" xmlns:xlink="http://www.w3.org/1999/xlink">
<g id="graph0" class="graph" transform="scale(1 1) rotate(0) translate(4 97.6)">
<polygon fill="white" stroke="none" points="-4,4 -4,-97.6 18.4,-97.6 18.4,4 -4,4"/>
<!-- a -->
<g id="node1" class="node">
<title>a</title>
<ellipse fill="black" stroke="black" cx="7.2" cy="-91.8" rx="1.8" ry="1.8"/>
</g>
<!-- b -->
<g id="node2" class="node">
<title>b</title>
<ellipse fill="black" stroke="black" cx="7.2" cy="-46.8" rx="7.2" ry="7.2"/>
</g>
<!-- a&#45;&gt;b -->
<g id="edge1" class="edge">
<title>a&#45;&gt;b</title>
<path fill="none" stroke="black" d="M7.2,-89.74C7.2,-86.35 7.2,-75.48 7.2,-65.66"/>
<polygon fill="black" stroke="black" points="10.7,-65.93 7.2,-55.93 3.7,-65.93 10.7,-65.93"/>
</g>
<!-- c -->
<g id="node3" class="node">
<title>c</title>
<ellipse fill="red" stroke="red" cx="7.2" cy="-1.8" rx="1.8" ry="1.8"/>
</g>
<!-- b&#45;&gt;c -->
<g id="edge2" class="edge">
<title>b&#45;&gt;c</title>
<path fill="none" stroke="black" d="M7.2,-39.46C7.2,-33.08 7.2,-23.08 7.2,-15.14"/>
<polygon fill="black" stroke="black" points="10.7,-15.4 7.2,-5.4 3.7,-15.4 10.7,-15.4"/>
</g>
</g>
</svg>
