<?xml version="1.0" encoding="UTF-8" standalone="no"?>
<!DOCTYPE svg PUBLIC "-//W3C//DTD SVG 1.1//EN"
 "http://www.w3.org/Graphics/SVG/1.1/DTD/svg11.dtd">
<!-- Generated by graphviz version 15.1.0~dev.20260610.0127 (20260610.0127)
 -->
<!-- Title: G Pages: 1 -->
<svg width="75pt" height="117pt"
 viewBox="0.00 0.00 75.00 117.00" xmlns="http://www.w3.org/2000/svg" xmlns:xlink="http://www.w3.org/1999/xlink">
<g id="graph0" class="graph" transform="scale(1 1) rotate(0) translate(4 113)">
<title>G</title>
<polygon fill="white" stroke="none" points="-4,4 -4,-113 71.43,-113 71.43,4 -4,4"/>
<!-- rec -->
<g id="node1" class="node">
<title>rec</title>
<polygon fill="none" stroke="black" points="0,-72.5 0,-108.5 67.43,-108.5 67.43,-72.5 0,-72.5"/>
<text xml:space="preserve" text-anchor="middle" x="11.11" y="-86.3" font-family="Times,serif" font-size="14.00">a</text>
<polyline fill="none" stroke="black" points="22.21,-72.5 22.21,-108.5"/>
<text xml:space="preserve" text-anchor="middle" x="33.71" y="-86.3" font-family="Times,serif" font-size="14.00">b</text>
<polyline fill="none" stroke="black" points="45.21,-72.5 45.21,-108.5"/>
<text xml:space="preserve" text-anchor="middle" x="56.32" y="-86.3" font-family="Times,serif" font-size="14.00">c</text>
</g>
<!-- dest -->
<g id="node2" class="node">
<title>dest</title>
<polygon fill="none" stroke="black" points="60.71,-36 6.71,-36 6.71,0 60.71,0 60.71,-36"/>
<text xml:space="preserve" text-anchor="middle" x="33.71" y="-13.8" font-family="Times,serif" font-size="14.00">dest</text>
</g>
<!-- rec&#45;&gt;dest -->
<g id="edge1" class="edge">
<title>rec&#45;&gt;dest</title>
<path fill="none" stroke="black" d="M33.71,-72.07C33.71,-64.73 33.71,-55.99 33.71,-47.74"/>
<polygon fill="black" stroke="black" points="37.21,-47.74 33.71,-37.74 30.21,-47.74 37.21,-47.74"/>
</g>
</g>
</svg>
