<?xml version="1.0" encoding="UTF-8" standalone="no"?>
<!DOCTYPE svg PUBLIC "-//W3C//DTD SVG 1.1//EN"
 "http://www.w3.org/Graphics/SVG/1.1/DTD/svg11.dtd">
<!-- Generated by graphviz version 15.0.0 (20260523.1842)
 -->
<!-- Title: G Pages: 1 -->
<svg width="89pt" height="260pt"
 viewBox="0.00 0.00 89.00 260.00" xmlns="http://www.w3.org/2000/svg" xmlns:xlink="http://www.w3.org/1999/xlink">
<g id="graph0" class="graph" transform="scale(1 1) rotate(0) translate(4 256)">
<title>G</title>
<polygon fill="white" stroke="none" points="-4,4 -4,-256 85,-256 85,4 -4,4"/>
<!-- A -->
<g id="node1" class="node">
<title>A</title>
<ellipse fill="none" stroke="black" cx="54" cy="-234" rx="27" ry="18"/>
<text xml:space="preserve" text-anchor="middle" x="54" y="-228.95" font-family="Times,serif" font-size="14.00">A</text>
</g>
<!-- B -->
<g id="node2" class="node">
<title>B</title>
<ellipse fill="none" stroke="black" cx="27" cy="-162" rx="27" ry="18"/>
<text xml:space="preserve" text-anchor="middle" x="27" y="-156.95" font-family="Times,serif" font-size="14.00">B</text>
</g>
<!-- A&#45;&gt;B -->
<g id="edge1" class="edge">
<title>A&#45;&gt;B</title>
<path fill="none" stroke="black" d="M47.46,-216.05C44.48,-208.32 40.87,-198.96 37.52,-190.27"/>
<polygon fill="black" stroke="black" points="40.88,-189.27 34.02,-181.2 34.35,-191.79 40.88,-189.27"/>
</g>
<!-- C -->
<g id="node3" class="node">
<title>C</title>
<ellipse fill="none" stroke="black" cx="27" cy="-90" rx="27" ry="18"/>
<text xml:space="preserve" text-anchor="middle" x="27" y="-84.95" font-family="Times,serif" font-size="14.00">C</text>
</g>
<!-- B&#45;&gt;C -->
<g id="edge2" class="edge">
<title>B&#45;&gt;C</title>
<path fill="none" stroke="black" d="M27,-132.24C27,-124.04 27,-115.37 27,-108.1"/>
<polygon fill="black" stroke="black" points="23.5,-132.18 27,-142.18 30.5,-132.18 23.5,-132.18"/>
</g>
<!-- D -->
<g id="node4" class="node">
<title>D</title>
<ellipse fill="none" stroke="black" cx="54" cy="-18" rx="27" ry="18"/>
<text xml:space="preserve" text-anchor="middle" x="54" y="-12.95" font-family="Times,serif" font-size="14.00">D</text>
</g>
<!-- C&#45;&gt;D -->
<g id="edge3" class="edge">
<title>C&#45;&gt;D</title>
<path fill="none" stroke="black" d="M37.58,-61.56C39.52,-56.53 41.55,-51.28 43.49,-46.26"/>
<polygon fill="black" stroke="black" points="34.41,-60.05 34.08,-70.64 40.94,-62.57 34.41,-60.05"/>
<polygon fill="black" stroke="black" points="46.65,-47.79 46.98,-37.2 40.12,-45.27 46.65,-47.79"/>
</g>
<!-- D&#45;&gt;A -->
<g id="edge4" class="edge">
<title>D&#45;&gt;A</title>
<path fill="none" stroke="black" d="M57.65,-36.09C59.68,-46.43 61.98,-59.91 63,-72 67.03,-119.83 67.03,-132.17 63,-180 61.98,-192.09 59.68,-205.57 57.65,-215.91"/>
</g>
</g>
</svg>
