<?xml version="1.0" encoding="UTF-8" standalone="no"?>
<!DOCTYPE svg PUBLIC "-//W3C//DTD SVG 1.1//EN"
 "http://www.w3.org/Graphics/SVG/1.1/DTD/svg11.dtd">
<!-- Generated by graphviz version 15.1.0~dev.20260610.0127 (20260610.0127)
 -->
<!-- Title: G Pages: 1 -->
<svg width="172pt" height="126pt"
 viewBox="0.00 0.00 172.00 126.00" xmlns="http://www.w3.org/2000/svg" xmlns:xlink="http://www.w3.org/1999/xlink">
<g id="graph0" class="graph" transform="scale(1 1) rotate(0) translate(4 122)">
<title>G</title>
<polygon fill="white" stroke="none" points="-4,4 -4,-122 168.12,-122 168.12,4 -4,4"/>
<!-- a -->
<g id="node1" class="node">
<title>a</title>
<ellipse fill="none" stroke="black" cx="37.12" cy="-100" rx="27" ry="18"/>
<text xml:space="preserve" text-anchor="middle" x="37.12" y="-95.8" font-family="Times,serif" font-size="14.00">a</text>
</g>
<!-- b -->
<g id="node2" class="node">
<title>b</title>
<ellipse fill="none" stroke="black" cx="37.12" cy="-28" rx="27" ry="18"/>
<text xml:space="preserve" text-anchor="middle" x="37.12" y="-23.8" font-family="Times,serif" font-size="14.00">b</text>
</g>
<!-- a&#45;&gt;b -->
<g id="edge1" class="edge">
<title>a&#45;&gt;b</title>
<path fill="none" stroke="black" d="M37.12,-81.7C37.12,-74.41 37.12,-65.73 37.12,-57.54"/>
<polygon fill="black" stroke="black" points="40.62,-57.62 37.12,-47.62 33.62,-57.62 40.62,-57.62"/>
<text xml:space="preserve" text-anchor="middle" x="19.44" y="-59.58" font-family="Times,serif" font-size="14.00">HEAD</text>
<text xml:space="preserve" text-anchor="middle" x="54.8" y="-59.82" font-family="Times,serif" font-size="14.00">TAIL</text>
</g>
<!-- x -->
<g id="node3" class="node">
<title>x</title>
<ellipse fill="none" stroke="black" cx="137.12" cy="-90" rx="27" ry="18"/>
<text xml:space="preserve" text-anchor="middle" x="137.12" y="-85.8" font-family="Times,serif" font-size="14.00">x</text>
</g>
<!-- y -->
<g id="node4" class="node">
<title>y</title>
<ellipse fill="none" stroke="black" cx="137.12" cy="-18" rx="27" ry="18"/>
<text xml:space="preserve" text-anchor="middle" x="137.12" y="-13.8" font-family="Times,serif" font-size="14.00">y</text>
</g>
<!-- x&#45;&gt;y -->
<g id="edge2" class="edge">
<title>x&#45;&gt;y</title>
<path fill="none" stroke="black" d="M137.12,-71.7C137.12,-64.41 137.12,-55.73 137.12,-47.54"/>
<polygon fill="black" stroke="black" points="140.62,-47.62 137.12,-37.62 133.62,-47.62 140.62,-47.62"/>
</g>
</g>
</svg>
