<?xml version="1.0" encoding="UTF-8" standalone="no"?>
<!DOCTYPE svg PUBLIC "-//W3C//DTD SVG 1.1//EN"
 "http://www.w3.org/Graphics/SVG/1.1/DTD/svg11.dtd">
<!-- Generated by graphviz version 15.1.0~dev.20260610.0127 (20260610.0127)
 -->
<!-- Title: G Pages: 1 -->
<svg width="246pt" height="111pt"
 viewBox="0.00 0.00 246.00 111.00" xmlns="http://www.w3.org/2000/svg" xmlns:xlink="http://www.w3.org/1999/xlink">
<g id="graph0" class="graph" transform="scale(1 1) rotate(0) translate(4 106.64)">
<title>G</title>
<polygon fill="white" stroke="none" points="-4,4 -4,-106.64 241.6,-106.64 241.6,4 -4,4"/>
<!-- a -->
<g id="node1" class="node">
<title>a</title>
<polygon fill="none" stroke="black" points="57.6,-59.44 0,-59.44 0,-1.84 57.6,-1.84 57.6,-59.44"/>
</g>
<!-- b -->
<g id="node2" class="node">
<title>b</title>
<ellipse fill="none" stroke="black" cx="120.6" cy="-30.64" rx="27" ry="18"/>
<text xml:space="preserve" text-anchor="middle" x="120.6" y="-26.44" font-family="Times,serif" font-size="14.00">b</text>
</g>
<!-- a&#45;&gt;b -->
<g id="edge1" class="edge">
<title>a&#45;&gt;b</title>
<path fill="none" stroke="black" d="M57.72,-30.64C65.33,-30.64 73.7,-30.64 81.77,-30.64"/>
<polygon fill="black" stroke="black" points="81.72,-34.14 91.72,-30.64 81.72,-27.14 81.72,-34.14"/>
</g>
<!-- c -->
<g id="node3" class="node">
<title>c</title>
<ellipse fill="none" stroke="black" cx="210.6" cy="-30.64" rx="27" ry="18"/>
<text xml:space="preserve" text-anchor="middle" x="210.6" y="-26.44" font-family="Times,serif" font-size="14.00">c</text>
</g>
<!-- b&#45;&gt;c -->
<g id="edge2" class="edge">
<title>b&#45;&gt;c</title>
<path fill="none" stroke="black" d="M148,-30.64C155.49,-30.64 163.78,-30.64 171.8,-30.64"/>
<polygon fill="black" stroke="black" points="171.7,-34.14 181.7,-30.64 171.7,-27.14 171.7,-34.14"/>
</g>
<!-- c&#45;&gt;a -->
<g id="edge3" class="edge">
<title>c&#45;&gt;a</title>
<path fill="none" stroke="black" d="M189.08,-19.16C177.33,-13.24 162.08,-6.66 147.6,-3.64 124.1,1.25 117.12,1.13 93.6,-3.64 85.16,-5.35 76.45,-8.22 68.28,-11.46"/>
<polygon fill="black" stroke="black" points="67.14,-8.14 59.31,-15.28 69.88,-14.58 67.14,-8.14"/>
</g>
<!-- d -->
<g id="node4" class="node">
<title>d</title>
<ellipse fill="none" stroke="black" cx="120.6" cy="-84.64" rx="27" ry="18"/>
<text xml:space="preserve" text-anchor="middle" x="120.6" y="-80.44" font-family="Times,serif" font-size="14.00">d</text>
</g>
</g>
</svg>
