<?xml version="1.0" encoding="UTF-8" standalone="no"?>
<!DOCTYPE svg PUBLIC "-//W3C//DTD SVG 1.1//EN"
 "http://www.w3.org/Graphics/SVG/1.1/DTD/svg11.dtd">
<!-- Generated by graphviz version 15.1.0~dev.20260610.0127 (20260610.0127)
 -->
<!-- Title: G Pages: 1 -->
<svg width="456pt" height="319pt"
 viewBox="0.00 0.00 456.00 319.00" xmlns="http://www.w3.org/2000/svg" xmlns:xlink="http://www.w3.org/1999/xlink">
<g id="graph0" class="graph" transform="scale(1 1) rotate(0) translate(4 314.8)">
<title>G</title>
<polygon fill="white" stroke="none" points="-4,4 -4,-314.8 452,-314.8 452,4 -4,4"/>
<g id="clust1" class="cluster">
<title>cluster0</title>
<polygon fill="none" stroke="black" points="0,-90 0,-310.8 214,-310.8 214,-90 0,-90"/>
<text xml:space="preserve" text-anchor="middle" x="107" y="-294.2" font-family="Times,serif" font-size="14.00">C0</text>
</g>
<g id="clust2" class="cluster">
<title>cluster1</title>
<polygon fill="none" stroke="black" points="286,0 286,-220.8 448,-220.8 448,0 286,0"/>
<text xml:space="preserve" text-anchor="middle" x="367" y="-204.2" font-family="Times,serif" font-size="14.00">C1</text>
</g>
<!-- a -->
<g id="node1" class="node">
<title>a</title>
<ellipse fill="none" stroke="black" cx="107" cy="-260" rx="27" ry="18"/>
<text xml:space="preserve" text-anchor="middle" x="107" y="-255.8" font-family="Times,serif" font-size="14.00">a</text>
</g>
<!-- b -->
<g id="node2" class="node">
<title>b</title>
<ellipse fill="none" stroke="black" cx="35" cy="-188" rx="27" ry="18"/>
<text xml:space="preserve" text-anchor="middle" x="35" y="-183.8" font-family="Times,serif" font-size="14.00">b</text>
</g>
<!-- a&#45;&gt;b -->
<g id="edge1" class="edge">
<title>a&#45;&gt;b</title>
<path fill="none" stroke="black" d="M92.08,-244.5C82.23,-234.92 69.14,-222.19 57.97,-211.34"/>
<polygon fill="black" stroke="black" points="60.59,-209 50.98,-204.54 55.71,-214.02 60.59,-209"/>
</g>
<!-- c -->
<g id="node3" class="node">
<title>c</title>
<ellipse fill="none" stroke="black" cx="107" cy="-188" rx="27" ry="18"/>
<text xml:space="preserve" text-anchor="middle" x="107" y="-183.8" font-family="Times,serif" font-size="14.00">c</text>
</g>
<!-- a&#45;&gt;c -->
<g id="edge2" class="edge">
<title>a&#45;&gt;c</title>
<path fill="none" stroke="black" d="M107,-241.7C107,-234.41 107,-225.73 107,-217.54"/>
<polygon fill="black" stroke="black" points="110.5,-217.62 107,-207.62 103.5,-217.62 110.5,-217.62"/>
</g>
<!-- d -->
<g id="node4" class="node">
<title>d</title>
<ellipse fill="none" stroke="black" cx="179" cy="-188" rx="27" ry="18"/>
<text xml:space="preserve" text-anchor="middle" x="179" y="-183.8" font-family="Times,serif" font-size="14.00">d</text>
</g>
<!-- a&#45;&gt;d -->
<g id="edge3" class="edge">
<title>a&#45;&gt;d</title>
<path fill="none" stroke="black" d="M117.58,-243.12C126.83,-232.99 140.28,-219.78 152.32,-208.95"/>
<polygon fill="black" stroke="black" points="154.4,-211.78 159.62,-202.56 149.79,-206.51 154.4,-211.78"/>
</g>
<!-- e -->
<g id="node5" class="node">
<title>e</title>
<ellipse fill="none" stroke="black" cx="71" cy="-116" rx="27" ry="18"/>
<text xml:space="preserve" text-anchor="middle" x="71" y="-111.8" font-family="Times,serif" font-size="14.00">e</text>
</g>
<!-- b&#45;&gt;e -->
<g id="edge4" class="edge">
<title>b&#45;&gt;e</title>
<path fill="none" stroke="black" d="M43.35,-170.76C47.58,-162.55 52.81,-152.37 57.58,-143.09"/>
<polygon fill="black" stroke="black" points="60.54,-144.99 62,-134.49 54.32,-141.79 60.54,-144.99"/>
</g>
<!-- c&#45;&gt;e -->
<g id="edge5" class="edge">
<title>c&#45;&gt;e</title>
<path fill="none" stroke="black" d="M98.65,-170.76C94.42,-162.55 89.19,-152.37 84.42,-143.09"/>
<polygon fill="black" stroke="black" points="87.68,-141.79 80,-134.49 81.46,-144.99 87.68,-141.79"/>
</g>
<!-- d&#45;&gt;a -->
<g id="edge7" class="edge">
<title>d&#45;&gt;a</title>
<path fill="none" stroke="black" d="M168.46,-204.85C159.2,-214.99 145.71,-228.23 133.64,-239.08"/>
<polygon fill="black" stroke="black" points="131.55,-236.27 126.33,-245.49 136.16,-241.54 131.55,-236.27"/>
</g>
<!-- z -->
<g id="node6" class="node">
<title>z</title>
<ellipse fill="none" stroke="black" cx="71" cy="-44" rx="27" ry="18"/>
<text xml:space="preserve" text-anchor="middle" x="71" y="-39.8" font-family="Times,serif" font-size="14.00">z</text>
</g>
<!-- e&#45;&gt;z -->
<g id="edge6" class="edge">
<title>e&#45;&gt;z</title>
<path fill="none" stroke="black" d="M71,-97.7C71,-90.41 71,-81.73 71,-73.54"/>
<polygon fill="black" stroke="black" points="74.5,-73.62 71,-63.62 67.5,-73.62 74.5,-73.62"/>
</g>
<!-- p -->
<g id="node7" class="node">
<title>p</title>
<ellipse fill="none" stroke="black" cx="357" cy="-170" rx="27" ry="18"/>
<text xml:space="preserve" text-anchor="middle" x="357" y="-165.8" font-family="Times,serif" font-size="14.00">p</text>
</g>
<!-- q -->
<g id="node8" class="node">
<title>q</title>
<ellipse fill="none" stroke="black" cx="321" cy="-98" rx="27" ry="18"/>
<text xml:space="preserve" text-anchor="middle" x="321" y="-93.8" font-family="Times,serif" font-size="14.00">q</text>
</g>
<!-- p&#45;&gt;q -->
<g id="edge8" class="edge">
<title>p&#45;&gt;q</title>
<path fill="none" stroke="black" d="M348.65,-152.76C344.42,-144.55 339.19,-134.37 334.42,-125.09"/>
<polygon fill="black" stroke="black" points="337.68,-123.79 330,-116.49 331.46,-126.99 337.68,-123.79"/>
</g>
<!-- r -->
<g id="node9" class="node">
<title>r</title>
<ellipse fill="none" stroke="black" cx="393" cy="-98" rx="27" ry="18"/>
<text xml:space="preserve" text-anchor="middle" x="393" y="-93.8" font-family="Times,serif" font-size="14.00">r</text>
</g>
<!-- p&#45;&gt;r -->
<g id="edge9" class="edge">
<title>p&#45;&gt;r</title>
<path fill="none" stroke="black" d="M365.35,-152.76C369.58,-144.55 374.81,-134.37 379.58,-125.09"/>
<polygon fill="black" stroke="black" points="382.54,-126.99 384,-116.49 376.32,-123.79 382.54,-126.99"/>
</g>
<!-- s -->
<g id="node10" class="node">
<title>s</title>
<ellipse fill="none" stroke="black" cx="357" cy="-26" rx="27" ry="18"/>
<text xml:space="preserve" text-anchor="middle" x="357" y="-21.8" font-family="Times,serif" font-size="14.00">s</text>
</g>
<!-- q&#45;&gt;s -->
<g id="edge10" class="edge">
<title>q&#45;&gt;s</title>
<path fill="none" stroke="black" d="M329.35,-80.76C333.58,-72.55 338.81,-62.37 343.58,-53.09"/>
<polygon fill="black" stroke="black" points="346.54,-54.99 348,-44.49 340.32,-51.79 346.54,-54.99"/>
</g>
<!-- r&#45;&gt;s -->
<g id="edge11" class="edge">
<title>r&#45;&gt;s</title>
<path fill="none" stroke="black" d="M384.65,-80.76C380.42,-72.55 375.19,-62.37 370.42,-53.09"/>
<polygon fill="black" stroke="black" points="373.68,-51.79 366,-44.49 367.46,-54.99 373.68,-51.79"/>
</g>
<!-- s&#45;&gt;p -->
<g id="edge12" class="edge">
<title>s&#45;&gt;p</title>
<path fill="none" stroke="black" d="M379.44,-36.57C396.49,-45.19 418.7,-59.64 429,-80 436.22,-94.28 436.22,-101.72 429,-116 420.64,-132.54 404.4,-145.19 389.47,-153.97"/>
<polygon fill="black" stroke="black" points="387.88,-150.85 380.77,-158.71 391.23,-156.99 387.88,-150.85"/>
</g>
</g>
</svg>
