<?xml version="1.0" encoding="UTF-8" standalone="no"?>
<!DOCTYPE svg PUBLIC "-//W3C//DTD SVG 1.1//EN"
 "http://www.w3.org/Graphics/SVG/1.1/DTD/svg11.dtd">
<!-- Generated by graphviz version 15.0.0 (20260523.1842)
 -->
<!-- Title: G Pages: 1 -->
<svg width="75pt" height="117pt"
 viewBox="0.00 0.00 75.00 117.00" xmlns="http://www.w3.org/2000/svg" xmlns:xlink="http://www.w3.org/1999/xlink">
<g id="graph0" class="graph" transform="scale(1 1) rotate(0) translate(4 113)">
<title>G</title>
<polygon fill="white" stroke="none" points="-4,4 -4,-113 70.75,-113 70.75,4 -4,4"/>
<!-- rec -->
<g id="node1" class="node">
<title>rec</title>
<polygon fill="none" stroke="black" points="0,-72.5 0,-108.5 66.75,-108.5 66.75,-72.5 0,-72.5"/>
<text xml:space="preserve" text-anchor="middle" x="11" y="-85.45" font-family="Times,serif" font-size="14.00">a</text>
<polyline fill="none" stroke="black" points="22,-72.5 22,-108.5"/>
<text xml:space="preserve" text-anchor="middle" x="33.38" y="-85.45" font-family="Times,serif" font-size="14.00">b</text>
<polyline fill="none" stroke="black" points="44.75,-72.5 44.75,-108.5"/>
<text xml:space="preserve" text-anchor="middle" x="55.75" y="-85.45" font-family="Times,serif" font-size="14.00">c</text>
</g>
<!-- dest -->
<g id="node2" class="node">
<title>dest</title>
<polygon fill="none" stroke="black" points="60.38,-36 6.38,-36 6.38,0 60.38,0 60.38,-36"/>
<text xml:space="preserve" text-anchor="middle" x="33.38" y="-12.95" font-family="Times,serif" font-size="14.00">dest</text>
</g>
<!-- rec&#45;&gt;dest -->
<g id="edge1" class="edge">
<title>rec&#45;&gt;dest</title>
<path fill="none" stroke="black" d="M33.38,-72.07C33.38,-64.73 33.38,-55.99 33.38,-47.74"/>
<polygon fill="black" stroke="black" points="36.88,-47.74 33.38,-37.74 29.88,-47.74 36.88,-47.74"/>
</g>
</g>
</svg>
