<?xml version="1.0" encoding="UTF-8" standalone="no"?>
<!DOCTYPE svg PUBLIC "-//W3C//DTD SVG 1.1//EN"
 "http://www.w3.org/Graphics/SVG/1.1/DTD/svg11.dtd">
<!-- Generated by graphviz version 15.1.0~dev.20260610.0127 (20260610.0127)
 -->
<!-- Title: G Pages: 1 -->
<svg width="545pt" height="432pt"
 viewBox="0.00 0.00 545.00 432.00" xmlns="http://www.w3.org/2000/svg" xmlns:xlink="http://www.w3.org/1999/xlink">
<g id="graph0" class="graph" transform="scale(1 1) rotate(0) translate(4 427.8)">
<title>G</title>
<polygon fill="white" stroke="none" points="-4,4 -4,-427.8 541,-427.8 541,4 -4,4"/>
<g id="clust1" class="cluster">
<title>cluster0</title>
<polygon fill="none" stroke="black" points="0,-64 0,-212.8 249,-212.8 249,-64 0,-64"/>
<text xml:space="preserve" text-anchor="middle" x="124.5" y="-196.2" font-family="Times,serif" font-size="14.00">C0</text>
</g>
<g id="clust2" class="cluster">
<title>cluster1</title>
<polygon fill="none" stroke="black" points="275,-275 275,-423.8 537,-423.8 537,-275 275,-275"/>
<text xml:space="preserve" text-anchor="middle" x="406" y="-407.2" font-family="Times,serif" font-size="14.00">C1</text>
</g>
<!-- lonely -->
<g id="node1" class="node">
<title>lonely</title>
<ellipse fill="none" stroke="black" cx="43" cy="-162" rx="35.17" ry="18"/>
<text xml:space="preserve" text-anchor="middle" x="43" y="-157.8" font-family="Times,serif" font-size="14.00">lonely</text>
</g>
<!-- a -->
<g id="node2" class="node">
<title>a</title>
<ellipse fill="none" stroke="black" cx="123" cy="-162" rx="27" ry="18"/>
<text xml:space="preserve" text-anchor="middle" x="123" y="-157.8" font-family="Times,serif" font-size="14.00">a</text>
</g>
<!-- b -->
<g id="node3" class="node">
<title>b</title>
<ellipse fill="none" stroke="black" cx="214" cy="-162" rx="27" ry="18"/>
<text xml:space="preserve" text-anchor="middle" x="214" y="-157.8" font-family="Times,serif" font-size="14.00">b</text>
</g>
<!-- a&#45;&gt;b -->
<g id="edge1" class="edge">
<title>a&#45;&gt;b</title>
<path fill="none" stroke="black" d="M150.3,-162C158.22,-162 167.02,-162 175.49,-162"/>
<polygon fill="black" stroke="black" points="175.2,-165.5 185.2,-162 175.2,-158.5 175.2,-165.5"/>
<text xml:space="preserve" text-anchor="middle" x="168.5" y="-169.2" font-family="Times,serif" font-size="14.00">flat</text>
</g>
<!-- c -->
<g id="node4" class="node">
<title>c</title>
<ellipse fill="none" stroke="black" cx="168" cy="-90" rx="27" ry="18"/>
<text xml:space="preserve" text-anchor="middle" x="168" y="-85.8" font-family="Times,serif" font-size="14.00">c</text>
</g>
<!-- a&#45;&gt;c -->
<g id="edge3" class="edge">
<title>a&#45;&gt;c</title>
<path fill="none" stroke="black" d="M133.21,-145.12C138.68,-136.61 145.54,-125.94 151.72,-116.32"/>
<polygon fill="black" stroke="black" points="154.55,-118.4 157.01,-108.09 148.66,-114.61 154.55,-118.4"/>
</g>
<!-- b&#45;&gt;c -->
<g id="edge2" class="edge">
<title>b&#45;&gt;c</title>
<path fill="none" stroke="black" d="M203.56,-145.12C197.97,-136.61 190.96,-125.94 184.64,-116.32"/>
<polygon fill="black" stroke="black" points="187.64,-114.52 179.23,-108.09 181.79,-118.37 187.64,-114.52"/>
</g>
<!-- z -->
<g id="node5" class="node">
<title>z</title>
<ellipse fill="none" stroke="black" cx="168" cy="-18" rx="27" ry="18"/>
<text xml:space="preserve" text-anchor="middle" x="168" y="-13.8" font-family="Times,serif" font-size="14.00">z</text>
</g>
<!-- c&#45;&gt;z -->
<g id="edge4" class="edge">
<title>c&#45;&gt;z</title>
<path fill="none" stroke="black" d="M168,-71.7C168,-64.41 168,-55.73 168,-47.54"/>
<polygon fill="black" stroke="black" points="171.5,-47.62 168,-37.62 164.5,-47.62 171.5,-47.62"/>
</g>
<!-- orphan -->
<g id="node6" class="node">
<title>orphan</title>
<ellipse fill="none" stroke="black" cx="321" cy="-373" rx="37.85" ry="18"/>
<text xml:space="preserve" text-anchor="middle" x="321" y="-368.8" font-family="Times,serif" font-size="14.00">orphan</text>
</g>
<!-- e -->
<g id="node7" class="node">
<title>e</title>
<ellipse fill="none" stroke="black" cx="404" cy="-373" rx="27" ry="18"/>
<text xml:space="preserve" text-anchor="middle" x="404" y="-368.8" font-family="Times,serif" font-size="14.00">e</text>
</g>
<!-- f -->
<g id="node8" class="node">
<title>f</title>
<ellipse fill="none" stroke="black" cx="502" cy="-373" rx="27" ry="18"/>
<text xml:space="preserve" text-anchor="middle" x="502" y="-368.8" font-family="Times,serif" font-size="14.00">f</text>
</g>
<!-- e&#45;&gt;f -->
<g id="edge5" class="edge">
<title>e&#45;&gt;f</title>
<path fill="none" stroke="black" d="M431.3,-373C441.2,-373 452.58,-373 463.27,-373"/>
<polygon fill="black" stroke="black" points="462.99,-376.5 472.99,-373 462.99,-369.5 462.99,-376.5"/>
<text xml:space="preserve" text-anchor="middle" x="453" y="-380.2" font-family="Times,serif" font-size="14.00">flat2</text>
</g>
<!-- g -->
<g id="node9" class="node">
<title>g</title>
<ellipse fill="none" stroke="black" cx="453" cy="-301" rx="27" ry="18"/>
<text xml:space="preserve" text-anchor="middle" x="453" y="-296.8" font-family="Times,serif" font-size="14.00">g</text>
</g>
<!-- e&#45;&gt;g -->
<g id="edge7" class="edge">
<title>e&#45;&gt;g</title>
<path fill="none" stroke="black" d="M415.12,-356.12C421.13,-347.52 428.7,-336.72 435.49,-327.02"/>
<polygon fill="black" stroke="black" points="438.19,-329.26 441.06,-319.06 432.46,-325.25 438.19,-329.26"/>
</g>
<!-- f&#45;&gt;g -->
<g id="edge6" class="edge">
<title>f&#45;&gt;g</title>
<path fill="none" stroke="black" d="M490.88,-356.12C484.87,-347.52 477.3,-336.72 470.51,-327.02"/>
<polygon fill="black" stroke="black" points="473.54,-325.25 464.94,-319.06 467.81,-329.26 473.54,-325.25"/>
</g>
</g>
</svg>
