<?xml version="1.0" encoding="UTF-8" standalone="no"?>
<!DOCTYPE svg PUBLIC "-//W3C//DTD SVG 1.1//EN"
 "http://www.w3.org/Graphics/SVG/1.1/DTD/svg11.dtd">
<!-- Generated by graphviz version 15.1.0~dev.20260610.0127 (20260610.0127)
 -->
<!-- Title: G Pages: 1 -->
<svg width="340pt" height="286pt"
 viewBox="0.00 0.00 340.00 286.00" xmlns="http://www.w3.org/2000/svg" xmlns:xlink="http://www.w3.org/1999/xlink">
<g id="graph0" class="graph" transform="scale(1 1) rotate(0) translate(4 282)">
<title>G</title>
<polygon fill="white" stroke="none" points="-4,4 -4,-282 336,-282 336,4 -4,4"/>
<g id="clust1" class="cluster">
<title>cluster0</title>
<polygon fill="none" stroke="black" points="0,0 0,-97 250,-97 250,0 0,0"/>
<text xml:space="preserve" text-anchor="middle" x="125" y="-80.4" font-family="Times,serif" font-size="14.00">C0</text>
</g>
<g id="clust2" class="cluster">
<title>cluster1</title>
<polygon fill="none" stroke="black" points="6,-147 6,-278 166,-278 166,-147 6,-147"/>
<text xml:space="preserve" text-anchor="middle" x="86" y="-261.4" font-family="Times,serif" font-size="14.00">C1 longer label</text>
</g>
<!-- a -->
<g id="node1" class="node">
<title>a</title>
<ellipse fill="none" stroke="black" cx="35" cy="-36" rx="27" ry="18"/>
<text xml:space="preserve" text-anchor="middle" x="35" y="-31.8" font-family="Times,serif" font-size="14.00">a</text>
</g>
<!-- b -->
<g id="node2" class="node">
<title>b</title>
<ellipse fill="none" stroke="black" cx="125" cy="-26" rx="27" ry="18"/>
<text xml:space="preserve" text-anchor="middle" x="125" y="-21.8" font-family="Times,serif" font-size="14.00">b</text>
</g>
<!-- a&#45;&gt;b -->
<g id="edge1" class="edge">
<title>a&#45;&gt;b</title>
<path fill="none" stroke="black" d="M61.93,-33.05C69.65,-32.18 78.26,-31.2 86.56,-30.25"/>
<polygon fill="black" stroke="black" points="86.91,-33.74 96.45,-29.13 86.12,-26.78 86.91,-33.74"/>
</g>
<!-- c -->
<g id="node3" class="node">
<title>c</title>
<ellipse fill="none" stroke="black" cx="215" cy="-36" rx="27" ry="18"/>
<text xml:space="preserve" text-anchor="middle" x="215" y="-31.8" font-family="Times,serif" font-size="14.00">c</text>
</g>
<!-- a&#45;&gt;c -->
<g id="edge3" class="edge">
<title>a&#45;&gt;c</title>
<path fill="none" stroke="black" d="M59.54,-44.05C71,-47.56 85.06,-51.26 98,-53 121.79,-56.2 128.21,-56.2 152,-53 161.1,-51.78 170.75,-49.58 179.67,-47.17"/>
<polygon fill="black" stroke="black" points="180.37,-50.61 189.01,-44.47 178.43,-43.88 180.37,-50.61"/>
</g>
<!-- b&#45;&gt;c -->
<g id="edge2" class="edge">
<title>b&#45;&gt;c</title>
<path fill="none" stroke="black" d="M151.93,-28.95C159.65,-29.82 168.26,-30.8 176.56,-31.75"/>
<polygon fill="black" stroke="black" points="176.12,-35.22 186.45,-32.87 176.91,-28.26 176.12,-35.22"/>
</g>
<!-- z -->
<g id="node4" class="node">
<title>z</title>
<ellipse fill="none" stroke="black" cx="305" cy="-36" rx="27" ry="18"/>
<text xml:space="preserve" text-anchor="middle" x="305" y="-31.8" font-family="Times,serif" font-size="14.00">z</text>
</g>
<!-- c&#45;&gt;z -->
<g id="edge4" class="edge">
<title>c&#45;&gt;z</title>
<path fill="none" stroke="black" d="M242.4,-36C249.89,-36 258.18,-36 266.2,-36"/>
<polygon fill="black" stroke="black" points="266.1,-39.5 276.1,-36 266.1,-32.5 266.1,-39.5"/>
</g>
<!-- p -->
<g id="node5" class="node">
<title>p</title>
<ellipse fill="none" stroke="black" cx="41" cy="-173" rx="27" ry="18"/>
<text xml:space="preserve" text-anchor="middle" x="41" y="-168.8" font-family="Times,serif" font-size="14.00">p</text>
</g>
<!-- q -->
<g id="node6" class="node">
<title>q</title>
<ellipse fill="none" stroke="black" cx="131" cy="-173" rx="27" ry="18"/>
<text xml:space="preserve" text-anchor="middle" x="131" y="-168.8" font-family="Times,serif" font-size="14.00">q</text>
</g>
<!-- p&#45;&gt;q -->
<g id="edge5" class="edge">
<title>p&#45;&gt;q</title>
<path fill="none" stroke="black" d="M68.4,-173C75.89,-173 84.18,-173 92.2,-173"/>
<polygon fill="black" stroke="black" points="92.1,-176.5 102.1,-173 92.1,-169.5 92.1,-176.5"/>
</g>
<!-- r -->
<g id="node7" class="node">
<title>r</title>
<ellipse fill="none" stroke="black" cx="131" cy="-227" rx="27" ry="18"/>
<text xml:space="preserve" text-anchor="middle" x="131" y="-222.8" font-family="Times,serif" font-size="14.00">r</text>
</g>
<!-- q&#45;&gt;r -->
<g id="edge6" class="edge">
<title>q&#45;&gt;r</title>
<path fill="none" stroke="black" d="M131,-191.14C131,-193.13 131,-195.12 131,-197.11"/>
<polygon fill="black" stroke="black" points="127.5,-197 131,-207 134.5,-197 127.5,-197"/>
</g>
<!-- s -->
<g id="node8" class="node">
<title>s</title>
<ellipse fill="none" stroke="black" cx="221" cy="-227" rx="27" ry="18"/>
<text xml:space="preserve" text-anchor="middle" x="221" y="-222.8" font-family="Times,serif" font-size="14.00">s</text>
</g>
<!-- r&#45;&gt;s -->
<g id="edge7" class="edge">
<title>r&#45;&gt;s</title>
<path fill="none" stroke="black" d="M158.4,-227C165.89,-227 174.18,-227 182.2,-227"/>
<polygon fill="black" stroke="black" points="182.1,-230.5 192.1,-227 182.1,-223.5 182.1,-230.5"/>
</g>
</g>
</svg>
