<?xml version="1.0" encoding="UTF-8" standalone="no"?>
<!DOCTYPE svg PUBLIC "-//W3C//DTD SVG 1.1//EN"
 "http://www.w3.org/Graphics/SVG/1.1/DTD/svg11.dtd">
<!-- Generated by graphviz version 15.0.0 (20260523.1842)
 -->
<!-- Title: G Pages: 1 -->
<svg width="83pt" height="100pt"
 viewBox="0.00 0.00 83.00 100.00" xmlns="http://www.w3.org/2000/svg" xmlns:xlink="http://www.w3.org/1999/xlink">
<g id="graph0" class="graph" transform="scale(1 1) rotate(0) translate(4 95.92)">
<title>G</title>
<polygon fill="white" stroke="none" points="-4,4 -4,-95.92 78.6,-95.92 78.6,4 -4,4"/>
<!-- A -->
<g id="node1" class="node">
<title>A</title>
<ellipse fill="none" stroke="black" cx="37.3" cy="-45.96" rx="37.3" ry="45.96"/>
<polygon fill="lightyellow" stroke="none" points="18.92,-17.46 18.92,-74.46 55.67,-74.46 55.67,-17.46 18.92,-17.46"/>
<polygon fill="lightblue" stroke="none" points="21.92,-46.96 21.92,-71.46 35.92,-71.46 35.92,-46.96 21.92,-46.96"/>
<polygon fill="none" stroke="black" stroke-width="2" points="22.92,-47.96 22.92,-70.46 34.92,-70.46 34.92,-47.96 22.92,-47.96"/>
<text xml:space="preserve" text-anchor="start" x="25.92" y="-54.71" font-family="Times,serif" font-size="14.00">a</text>
<polyline fill="none" stroke="black" stroke-width="2" points="51.67,-70.46 38.92,-70.46 38.92,-47.96"/>
<text xml:space="preserve" text-anchor="start" x="41.92" y="-54.71" font-family="Times,serif" font-size="14.00">b</text>
<polygon fill="none" stroke="black" stroke-width="2" points="22.92,-21.46 22.92,-43.96 51.67,-43.96 51.67,-21.46 22.92,-21.46"/>
<text xml:space="preserve" text-anchor="start" x="34.3" y="-28.21" font-family="Times,serif" font-size="14.00">c</text>
<polygon fill="black" stroke="black" points="36.92,-45.96 36.92,-74.46 36.92,-74.46 36.92,-45.96 36.92,-45.96"/>
<polygon fill="black" stroke="black" points="18.92,-45.96 18.92,-45.96 36.92,-45.96 36.92,-45.96 18.92,-45.96"/>
<polygon fill="black" stroke="black" points="36.92,-45.96 36.92,-45.96 55.67,-45.96 55.67,-45.96 36.92,-45.96"/>
<polygon fill="none" stroke="black" points="18.92,-17.46 18.92,-74.46 55.67,-74.46 55.67,-17.46 18.92,-17.46"/>
</g>
</g>
</svg>
