<?xml version="1.0" encoding="UTF-8" standalone="no"?>
<!DOCTYPE svg PUBLIC "-//W3C//DTD SVG 1.1//EN"
 "http://www.w3.org/Graphics/SVG/1.1/DTD/svg11.dtd">
<!-- Generated by graphviz version 15.1.0~dev.20260610.0127 (20260610.0127)
 -->
<!-- Title: G Pages: 1 -->
<svg width="72pt" height="45pt"
 viewBox="0.00 0.00 72.00 45.00" xmlns="http://www.w3.org/2000/svg" xmlns:xlink="http://www.w3.org/1999/xlink">
<g id="graph0" class="graph" transform="scale(1 1) rotate(0) translate(4 40.8)">
<title>G</title>
<polygon fill="white" stroke="none" points="-4,4 -4,-40.8 68,-40.8 68,4 -4,4"/>
<!-- a -->
<g id="node1" class="node">
<title>a</title>
<defs>
<radialGradient id="r_0" cx="50%" cy="50%" r="75%" fx="50%" fy="50%">
<stop offset="0" style="stop-color:yellow;stop-opacity:1.;"/>
<stop offset="1" style="stop-color:violet;stop-opacity:1.;"/>
</radialGradient>
</defs>
<polygon fill="url(#r_0)" stroke="none" points="11,-7 11,-29.8 31,-29.8 31,-7 11,-7"/>
<polygon fill="none" stroke="black" points="11,-7 11,-29.8 31,-29.8 31,-7 11,-7"/>
<text xml:space="preserve" text-anchor="start" x="14" y="-12.8" font-family="Times,serif" font-size="14.00">00</text>
<polygon fill="none" stroke="black" points="33,-7 33,-29.8 53,-29.8 53,-7 33,-7"/>
<text xml:space="preserve" text-anchor="start" x="36" y="-12.8" font-family="Times,serif" font-size="14.00">01</text>
<polygon fill="none" stroke="black" points="8,-4 8,-32.8 56,-32.8 56,-4 8,-4"/>
</g>
</g>
</svg>
