<?xml version="1.0" encoding="UTF-8" standalone="no"?>
<!DOCTYPE svg PUBLIC "-//W3C//DTD SVG 1.1//EN"
 "http://www.w3.org/Graphics/SVG/1.1/DTD/svg11.dtd">
<!-- Generated by graphviz version 15.0.0 (20260523.1842)
 -->
<!-- Title: G Pages: 1 -->
<svg width="190pt" height="189pt"
 viewBox="0.00 0.00 190.00 189.00" xmlns="http://www.w3.org/2000/svg" xmlns:xlink="http://www.w3.org/1999/xlink">
<g id="graph0" class="graph" transform="scale(1 1) rotate(0) translate(4 185.38)">
<title>G</title>
<polygon fill="white" stroke="none" points="-4,4 -4,-185.38 186.22,-185.38 186.22,4 -4,4"/>
<!-- A -->
<g id="node1" class="node">
<title>A</title>
<ellipse fill="none" stroke="black" cx="52.97" cy="-68.46" rx="27" ry="18"/>
<text xml:space="preserve" text-anchor="middle" x="52.97" y="-63.41" font-family="Times,serif" font-size="14.00">A</text>
</g>
<!-- B -->
<g id="node2" class="node">
<title>B</title>
<ellipse fill="none" stroke="black" cx="155.22" cy="-63.04" rx="27" ry="18"/>
<text xml:space="preserve" text-anchor="middle" x="155.22" y="-57.99" font-family="Times,serif" font-size="14.00">B</text>
</g>
<!-- A&#45;&#45;B -->
<g id="edge1" class="edge">
<title>A&#45;&#45;B</title>
<path fill="none" stroke="black" d="M80.37,-67.01C95.16,-66.22 113.35,-65.26 128.1,-64.48"/>
</g>
<!-- C -->
<g id="node3" class="node">
<title>C</title>
<ellipse fill="none" stroke="black" cx="91.22" cy="-18" rx="27" ry="18"/>
<text xml:space="preserve" text-anchor="middle" x="91.22" y="-12.95" font-family="Times,serif" font-size="14.00">C</text>
</g>
<!-- A&#45;&#45;C -->
<g id="edge2" class="edge">
<title>A&#45;&#45;C</title>
<path fill="none" stroke="black" d="M65.28,-52.22C69.65,-46.45 74.57,-39.97 78.93,-34.21"/>
</g>
<!-- D -->
<g id="node4" class="node">
<title>D</title>
<ellipse fill="none" stroke="black" cx="127.11" cy="-110.93" rx="27" ry="18"/>
<text xml:space="preserve" text-anchor="middle" x="127.11" y="-105.88" font-family="Times,serif" font-size="14.00">D</text>
</g>
<!-- B&#45;&#45;D -->
<g id="edge3" class="edge">
<title>B&#45;&#45;D</title>
<path fill="none" stroke="black" d="M145.23,-80.06C142.58,-84.58 139.71,-89.45 137.07,-93.97"/>
</g>
<!-- C&#45;&#45;D -->
<g id="edge4" class="edge">
<title>C&#45;&#45;D</title>
<path fill="none" stroke="black" d="M97.97,-35.48C104.35,-51.99 113.86,-76.63 120.27,-93.21"/>
</g>
<!-- E -->
<g id="node5" class="node">
<title>E</title>
<ellipse fill="none" stroke="black" cx="95.56" cy="-163.38" rx="27" ry="18"/>
<text xml:space="preserve" text-anchor="middle" x="95.56" y="-158.33" font-family="Times,serif" font-size="14.00">E</text>
</g>
<!-- D&#45;&#45;E -->
<g id="edge5" class="edge">
<title>D&#45;&#45;E</title>
<path fill="none" stroke="black" d="M116.95,-127.81C113.35,-133.8 109.3,-140.54 105.69,-146.53"/>
</g>
<!-- F -->
<g id="node6" class="node">
<title>F</title>
<ellipse fill="none" stroke="black" cx="27" cy="-118.44" rx="27" ry="18"/>
<text xml:space="preserve" text-anchor="middle" x="27" y="-113.39" font-family="Times,serif" font-size="14.00">F</text>
</g>
<!-- E&#45;&#45;F -->
<g id="edge6" class="edge">
<title>E&#45;&#45;F</title>
<path fill="none" stroke="black" d="M76.09,-150.62C66.75,-144.5 55.59,-137.18 46.27,-131.07"/>
</g>
<!-- F&#45;&#45;A -->
<g id="edge7" class="edge">
<title>F&#45;&#45;A</title>
<path fill="none" stroke="black" d="M35.94,-101.24C38.52,-96.27 41.34,-90.84 43.93,-85.86"/>
</g>
</g>
</svg>
