<?xml version="1.0" encoding="UTF-8" standalone="no"?>
<!DOCTYPE svg PUBLIC "-//W3C//DTD SVG 1.1//EN"
 "http://www.w3.org/Graphics/SVG/1.1/DTD/svg11.dtd">
<!-- Generated by graphviz version 15.1.0~dev.20260610.0127 (20260610.0127)
 -->
<!-- Title: G Pages: 1 -->
<svg width="134pt" height="116pt"
 viewBox="0.00 0.00 134.00 116.00" xmlns="http://www.w3.org/2000/svg" xmlns:xlink="http://www.w3.org/1999/xlink">
<g id="graph0" class="graph" transform="scale(1 1) rotate(0) translate(4 112)">
<title>G</title>
<defs>
<linearGradient id="graph0_l_0" gradientUnits="userSpaceOnUse" x1="-4" y1="-54" x2="130" y2="-54" >
<stop offset="0" style="stop-color:lightcyan;stop-opacity:1.;"/>
<stop offset="1" style="stop-color:white;stop-opacity:1.;"/>
</linearGradient>
</defs>
<polygon fill="url(#graph0_l_0)" stroke="none" points="-4,4 -4,-112 130,-112 130,4 -4,4"/>
<!-- a -->
<g id="node1" class="node">
<title>a</title>
<defs>
<linearGradient id="node1_l_1" gradientUnits="userSpaceOnUse" x1="0" y1="-90" x2="54" y2="-90" >
<stop offset="0" style="stop-color:red;stop-opacity:1.;"/>
<stop offset="1" style="stop-color:blue;stop-opacity:1.;"/>
</linearGradient>
</defs>
<ellipse fill="url(#node1_l_1)" stroke="black" cx="27" cy="-90" rx="27" ry="18"/>
<text xml:space="preserve" text-anchor="middle" x="27" y="-85.8" font-family="Times,serif" font-size="14.00">a</text>
</g>
<!-- c -->
<g id="node2" class="node">
<title>c</title>
<defs>
<linearGradient id="node2_l_2" gradientUnits="userSpaceOnUse" x1="0" y1="-18" x2="54" y2="-18" >
<stop offset="0" style="stop-color:green;stop-opacity:1.;"/>
<stop offset="1" style="stop-color:yellow;stop-opacity:1.;"/>
</linearGradient>
</defs>
<ellipse fill="url(#node2_l_2)" stroke="black" cx="27" cy="-18" rx="27" ry="18"/>
<text xml:space="preserve" text-anchor="middle" x="27" y="-13.8" font-family="Times,serif" font-size="14.00">c</text>
</g>
<!-- a&#45;&gt;c -->
<g id="edge1" class="edge">
<title>a&#45;&gt;c</title>
<path fill="none" stroke="red" d="M26,-71.7C26,-64.41 26,-55.73 26,-47.54"/>
<path fill="none" stroke="blue" d="M28,-71.7C28,-64.41 28,-55.73 28,-47.54"/>
<polygon fill="red" stroke="red" points="30.5,-47.62 27,-37.62 23.5,-47.62 30.5,-47.62"/>
</g>
<!-- b -->
<g id="node3" class="node">
<title>b</title>
<polygon fill="orange" stroke="black" stroke-width="0.5" points="72,-72 99,-72 99,-108 72,-108 72,-72"/>
<polygon fill="purple" stroke="black" stroke-width="0.5" points="99,-72 126,-72 126,-108 99,-108 99,-72"/>
<polygon fill="none" stroke="black" points="126,-108 72,-108 72,-72 126,-72 126,-108"/>
<text xml:space="preserve" text-anchor="middle" x="99" y="-85.8" font-family="Times,serif" font-size="14.00">b</text>
</g>
</g>
</svg>
