<?xml version="1.0" encoding="UTF-8" standalone="no"?>
<!DOCTYPE svg PUBLIC "-//W3C//DTD SVG 1.1//EN"
 "http://www.w3.org/Graphics/SVG/1.1/DTD/svg11.dtd">
<!-- Generated by graphviz version 15.0.0 (20260523.1842)
 -->
<!-- Title: G Pages: 1 -->
<svg width="188pt" height="169pt"
 viewBox="0.00 0.00 188.00 169.00" xmlns="http://www.w3.org/2000/svg" xmlns:xlink="http://www.w3.org/1999/xlink">
<g id="graph0" class="graph" transform="scale(1 1) rotate(0) translate(4 165.35)">
<title>G</title>
<polygon fill="white" stroke="none" points="-4,4 -4,-165.35 184.19,-165.35 184.19,4 -4,4"/>
<!-- A -->
<g id="node1" class="node">
<title>A</title>
<ellipse fill="none" stroke="black" cx="153.19" cy="-89.17" rx="27" ry="18"/>
<text xml:space="preserve" text-anchor="middle" x="153.19" y="-84.12" font-family="Times,serif" font-size="14.00">A</text>
</g>
<!-- B -->
<g id="node2" class="node">
<title>B</title>
<ellipse fill="none" stroke="black" cx="119.54" cy="-18" rx="27" ry="18"/>
<text xml:space="preserve" text-anchor="middle" x="119.54" y="-12.95" font-family="Times,serif" font-size="14.00">B</text>
</g>
<!-- A&#45;&#45;B -->
<g id="edge1" class="edge">
<title>A&#45;&#45;B</title>
<path fill="none" stroke="black" d="M144.87,-71.58C139.66,-60.55 132.96,-46.38 127.77,-35.39"/>
</g>
<!-- C -->
<g id="node3" class="node">
<title>C</title>
<ellipse fill="none" stroke="black" cx="41.49" cy="-28.21" rx="27" ry="18"/>
<text xml:space="preserve" text-anchor="middle" x="41.49" y="-23.16" font-family="Times,serif" font-size="14.00">C</text>
</g>
<!-- B&#45;&#45;C -->
<g id="edge2" class="edge">
<title>B&#45;&#45;C</title>
<path fill="none" stroke="black" d="M92.68,-21.51C84.83,-22.54 76.25,-23.66 68.4,-24.69"/>
</g>
<!-- D -->
<g id="node4" class="node">
<title>D</title>
<ellipse fill="none" stroke="black" cx="27" cy="-105.6" rx="27" ry="18"/>
<text xml:space="preserve" text-anchor="middle" x="27" y="-100.55" font-family="Times,serif" font-size="14.00">D</text>
</g>
<!-- C&#45;&#45;D -->
<g id="edge3" class="edge">
<title>C&#45;&#45;D</title>
<path fill="none" stroke="black" d="M38.06,-46.55C35.75,-58.88 32.71,-75.08 30.41,-87.39"/>
</g>
<!-- E -->
<g id="node5" class="node">
<title>E</title>
<ellipse fill="none" stroke="black" cx="96.07" cy="-143.35" rx="27" ry="18"/>
<text xml:space="preserve" text-anchor="middle" x="96.07" y="-138.3" font-family="Times,serif" font-size="14.00">E</text>
</g>
<!-- D&#45;&#45;E -->
<g id="edge4" class="edge">
<title>D&#45;&#45;E</title>
<path fill="none" stroke="black" d="M48.1,-117.13C56.67,-121.81 66.54,-127.21 75.1,-131.89"/>
</g>
<!-- E&#45;&#45;A -->
<g id="edge5" class="edge">
<title>E&#45;&#45;A</title>
<path fill="none" stroke="black" d="M111.68,-128.55C119.74,-120.9 129.55,-111.6 137.6,-103.96"/>
</g>
</g>
</svg>
