<?xml version="1.0" encoding="UTF-8" standalone="no"?>
<!DOCTYPE svg PUBLIC "-//W3C//DTD SVG 1.1//EN"
 "http://www.w3.org/Graphics/SVG/1.1/DTD/svg11.dtd">
<!-- Generated by graphviz version 15.1.0~dev.20260610.0127 (20260610.0127)
 -->
<!-- Title: G Pages: 1 -->
<svg width="198pt" height="254pt"
 viewBox="0.00 0.00 198.00 254.00" xmlns="http://www.w3.org/2000/svg" xmlns:xlink="http://www.w3.org/1999/xlink">
<g id="graph0" class="graph" transform="scale(1 1) rotate(0) translate(4 250.48)">
<title>G</title>
<polygon fill="white" stroke="none" points="-4,4 -4,-250.48 194.13,-250.48 194.13,4 -4,4"/>
<!-- A -->
<g id="node1" class="node">
<title>A</title>
<ellipse fill="none" stroke="black" cx="27" cy="-143.48" rx="27" ry="18"/>
<text xml:space="preserve" text-anchor="middle" x="27" y="-139.28" font-family="Times,serif" font-size="14.00">A</text>
</g>
<!-- B -->
<g id="node2" class="node">
<title>B</title>
<ellipse fill="none" stroke="black" cx="71.02" cy="-86.15" rx="27" ry="18"/>
<text xml:space="preserve" text-anchor="middle" x="71.02" y="-81.95" font-family="Times,serif" font-size="14.00">B</text>
</g>
<!-- A&#45;&#45;B -->
<g id="edge1" class="edge">
<title>A&#45;&#45;B</title>
<path fill="none" stroke="black" d="M39.5,-127.2C45.5,-119.39 52.66,-110.06 58.64,-102.27"/>
</g>
<!-- C -->
<g id="node3" class="node">
<title>C</title>
<ellipse fill="none" stroke="black" cx="95.13" cy="-18" rx="27" ry="18"/>
<text xml:space="preserve" text-anchor="middle" x="95.13" y="-13.8" font-family="Times,serif" font-size="14.00">C</text>
</g>
<!-- B&#45;&#45;C -->
<g id="edge2" class="edge">
<title>B&#45;&#45;C</title>
<path fill="none" stroke="black" d="M77.35,-68.25C80.92,-58.15 85.37,-45.59 88.92,-35.55"/>
</g>
<!-- D -->
<g id="node4" class="node">
<title>D</title>
<ellipse fill="none" stroke="black" cx="95" cy="-228.48" rx="27" ry="18"/>
<text xml:space="preserve" text-anchor="middle" x="95" y="-224.28" font-family="Times,serif" font-size="14.00">D</text>
</g>
<!-- E -->
<g id="node5" class="node">
<title>E</title>
<ellipse fill="none" stroke="black" cx="139.02" cy="-171.15" rx="27" ry="18"/>
<text xml:space="preserve" text-anchor="middle" x="139.02" y="-166.95" font-family="Times,serif" font-size="14.00">E</text>
</g>
<!-- D&#45;&#45;E -->
<g id="edge3" class="edge">
<title>D&#45;&#45;E</title>
<path fill="none" stroke="black" d="M107.5,-212.2C113.5,-204.39 120.66,-195.06 126.64,-187.27"/>
</g>
<!-- F -->
<g id="node6" class="node">
<title>F</title>
<ellipse fill="none" stroke="black" cx="163.13" cy="-103" rx="27" ry="18"/>
<text xml:space="preserve" text-anchor="middle" x="163.13" y="-98.8" font-family="Times,serif" font-size="14.00">F</text>
</g>
<!-- E&#45;&#45;F -->
<g id="edge4" class="edge">
<title>E&#45;&#45;F</title>
<path fill="none" stroke="black" d="M145.35,-153.25C148.92,-143.15 153.37,-130.59 156.92,-120.55"/>
</g>
</g>
</svg>
