<?xml version="1.0" encoding="UTF-8" standalone="no"?>
<!DOCTYPE svg PUBLIC "-//W3C//DTD SVG 1.1//EN"
 "http://www.w3.org/Graphics/SVG/1.1/DTD/svg11.dtd">
<!-- Generated by graphviz version 15.1.0~dev.20260610.0127 (20260610.0127)
 -->
<!-- Title: G Pages: 1 -->
<svg width="306pt" height="250pt"
 viewBox="0.00 0.00 306.00 250.00" xmlns="http://www.w3.org/2000/svg" xmlns:xlink="http://www.w3.org/1999/xlink">
<g id="graph0" class="graph" transform="scale(1 1) rotate(0) translate(4 246.4)">
<title>G</title>
<polygon fill="white" stroke="none" points="-4,4 -4,-246.4 302,-246.4 302,4 -4,4"/>
<g id="clust1" class="cluster">
<title>cluster_outer</title>
<polygon fill="none" stroke="black" points="0,-40 0,-242.4 240,-242.4 240,-40 0,-40"/>
<text xml:space="preserve" text-anchor="middle" x="120" y="-225.8" font-family="Times,serif" font-size="14.00">Outer</text>
</g>
<g id="clust2" class="cluster">
<title>cluster_mid</title>
<polygon fill="none" stroke="black" points="2,-82 2,-215.6 180,-215.6 180,-82 2,-82"/>
<text xml:space="preserve" text-anchor="middle" x="91" y="-199" font-family="Times,serif" font-size="14.00">Mid</text>
</g>
<g id="clust3" class="cluster">
<title>cluster_inner</title>
<polygon fill="none" stroke="black" points="4,-124 4,-188.8 120,-188.8 120,-124 4,-124"/>
<text xml:space="preserve" text-anchor="middle" x="62" y="-172.2" font-family="Times,serif" font-size="14.00">Inner</text>
</g>
<!-- A -->
<g id="node1" class="node">
<title>A</title>
<ellipse fill="none" stroke="black" cx="33" cy="-144" rx="27" ry="18"/>
<text xml:space="preserve" text-anchor="middle" x="33" y="-139.8" font-family="Times,serif" font-size="14.00">A</text>
</g>
<!-- B -->
<g id="node2" class="node">
<title>B</title>
<ellipse fill="none" stroke="black" cx="91" cy="-144" rx="27" ry="18"/>
<text xml:space="preserve" text-anchor="middle" x="91" y="-139.8" font-family="Times,serif" font-size="14.00">B</text>
</g>
<!-- C -->
<g id="node3" class="node">
<title>C</title>
<ellipse fill="none" stroke="black" cx="151" cy="-156" rx="27" ry="18"/>
<text xml:space="preserve" text-anchor="middle" x="151" y="-151.8" font-family="Times,serif" font-size="14.00">C</text>
</g>
<!-- D -->
<g id="node4" class="node">
<title>D</title>
<ellipse fill="none" stroke="black" cx="62" cy="-102" rx="27" ry="18"/>
<text xml:space="preserve" text-anchor="middle" x="62" y="-97.8" font-family="Times,serif" font-size="14.00">D</text>
</g>
<!-- E -->
<g id="node5" class="node">
<title>E</title>
<ellipse fill="none" stroke="black" cx="211" cy="-149" rx="27" ry="18"/>
<text xml:space="preserve" text-anchor="middle" x="211" y="-144.8" font-family="Times,serif" font-size="14.00">E</text>
</g>
<!-- F -->
<g id="node6" class="node">
<title>F</title>
<ellipse fill="none" stroke="black" cx="91" cy="-60" rx="27" ry="18"/>
<text xml:space="preserve" text-anchor="middle" x="91" y="-55.8" font-family="Times,serif" font-size="14.00">F</text>
</g>
<!-- G -->
<g id="node7" class="node">
<title>G</title>
<ellipse fill="none" stroke="black" cx="271" cy="-141" rx="27" ry="18"/>
<text xml:space="preserve" text-anchor="middle" x="271" y="-136.8" font-family="Times,serif" font-size="14.00">G</text>
</g>
<!-- H -->
<g id="node8" class="node">
<title>H</title>
<ellipse fill="none" stroke="black" cx="120" cy="-18" rx="27" ry="18"/>
<text xml:space="preserve" text-anchor="middle" x="120" y="-13.8" font-family="Times,serif" font-size="14.00">H</text>
</g>
</g>
</svg>
