<?xml version="1.0" encoding="UTF-8" standalone="no"?>
<!DOCTYPE svg PUBLIC "-//W3C//DTD SVG 1.1//EN"
 "http://www.w3.org/Graphics/SVG/1.1/DTD/svg11.dtd">
<!-- Generated by graphviz version 15.0.0 (20260523.1842)
 -->
<!-- Title: G Pages: 1 -->
<svg width="244pt" height="113pt"
 viewBox="0.00 0.00 244.00 113.00" xmlns="http://www.w3.org/2000/svg" xmlns:xlink="http://www.w3.org/1999/xlink">
<g id="graph0" class="graph" transform="scale(1 1) rotate(0) translate(4 108.5)">
<title>G</title>
<polygon fill="white" stroke="none" points="-4,4 -4,-108.5 240,-108.5 240,4 -4,4"/>
<g id="clust1" class="cluster">
<title>cluster_0</title>
<polygon fill="none" stroke="black" points="0,0 0,-104.5 116,-104.5 116,0 0,0"/>
<text xml:space="preserve" text-anchor="middle" x="58" y="-87.2" font-family="Times,serif" font-size="14.00">ClusterA</text>
</g>
<g id="clust2" class="cluster">
<title>cluster_1</title>
<polygon fill="none" stroke="black" points="120,0 120,-104.5 236,-104.5 236,0 120,0"/>
<text xml:space="preserve" text-anchor="middle" x="178" y="-87.2" font-family="Times,serif" font-size="14.00">ClusterB</text>
</g>
<!-- A -->
<g id="node1" class="node">
<title>A</title>
<ellipse fill="none" stroke="black" cx="29" cy="-60" rx="27" ry="18"/>
<text xml:space="preserve" text-anchor="middle" x="29" y="-54.95" font-family="Times,serif" font-size="14.00">A</text>
</g>
<!-- B -->
<g id="node2" class="node">
<title>B</title>
<ellipse fill="none" stroke="black" cx="87" cy="-60" rx="27" ry="18"/>
<text xml:space="preserve" text-anchor="middle" x="87" y="-54.95" font-family="Times,serif" font-size="14.00">B</text>
</g>
<!-- C -->
<g id="node3" class="node">
<title>C</title>
<ellipse fill="none" stroke="black" cx="29" cy="-20" rx="27" ry="18"/>
<text xml:space="preserve" text-anchor="middle" x="29" y="-14.95" font-family="Times,serif" font-size="14.00">C</text>
</g>
<!-- D -->
<g id="node4" class="node">
<title>D</title>
<ellipse fill="none" stroke="black" cx="149" cy="-60" rx="27" ry="18"/>
<text xml:space="preserve" text-anchor="middle" x="149" y="-54.95" font-family="Times,serif" font-size="14.00">D</text>
</g>
<!-- E -->
<g id="node5" class="node">
<title>E</title>
<ellipse fill="none" stroke="black" cx="207" cy="-60" rx="27" ry="18"/>
<text xml:space="preserve" text-anchor="middle" x="207" y="-54.95" font-family="Times,serif" font-size="14.00">E</text>
</g>
<!-- F -->
<g id="node6" class="node">
<title>F</title>
<ellipse fill="none" stroke="black" cx="149" cy="-20" rx="27" ry="18"/>
<text xml:space="preserve" text-anchor="middle" x="149" y="-14.95" font-family="Times,serif" font-size="14.00">F</text>
</g>
</g>
</svg>
