<?xml version="1.0" encoding="UTF-8" standalone="no"?>
<!DOCTYPE svg PUBLIC "-//W3C//DTD SVG 1.1//EN"
 "http://www.w3.org/Graphics/SVG/1.1/DTD/svg11.dtd">
<!-- Generated by graphviz version 15.1.0~dev.20260610.0127 (20260610.0127)
 -->
<!-- Pages: 1 -->
<svg width="231pt" height="212pt"
 viewBox="0.00 0.00 231.00 212.00" xmlns="http://www.w3.org/2000/svg" xmlns:xlink="http://www.w3.org/1999/xlink">
<g id="graph0" class="graph" transform="scale(1 1) rotate(0) translate(4 208)">
<polygon fill="white" stroke="none" points="-4,4 -4,-208 227,-208 227,4 -4,4"/>
<g id="clust1" class="cluster">
<title>cluster_a</title>
<polygon fill="none" stroke="black" points="0,0 0,-204 86,-204 86,0 0,0"/>
</g>
<g id="clust2" class="cluster">
<title>cluster_a_inner</title>
<polygon fill="none" stroke="black" points="8,-8 8,-132 78,-132 78,-8 8,-8"/>
</g>
<g id="clust3" class="cluster">
<title>cluster_b</title>
<polygon fill="none" stroke="black" points="153,-34 153,-158 223,-158 223,-34 153,-34"/>
</g>
<!-- a1 -->
<g id="node1" class="node">
<title>a1</title>
<ellipse fill="none" stroke="black" cx="43" cy="-106" rx="27" ry="18"/>
<text xml:space="preserve" text-anchor="middle" x="43" y="-101.8" font-family="Times,serif" font-size="14.00">a1</text>
</g>
<!-- a2 -->
<g id="node2" class="node">
<title>a2</title>
<ellipse fill="none" stroke="black" cx="43" cy="-34" rx="27" ry="18"/>
<text xml:space="preserve" text-anchor="middle" x="43" y="-29.8" font-family="Times,serif" font-size="14.00">a2</text>
</g>
<!-- a1&#45;&gt;a2 -->
<g id="edge1" class="edge">
<title>a1&#45;&gt;a2</title>
<path fill="none" stroke="black" d="M43,-87.7C43,-80.41 43,-71.73 43,-63.54"/>
<polygon fill="black" stroke="black" points="46.5,-63.62 43,-53.62 39.5,-63.62 46.5,-63.62"/>
</g>
<!-- a3 -->
<g id="node3" class="node">
<title>a3</title>
<ellipse fill="none" stroke="black" cx="43" cy="-178" rx="27" ry="18"/>
<text xml:space="preserve" text-anchor="middle" x="43" y="-173.8" font-family="Times,serif" font-size="14.00">a3</text>
</g>
<!-- a3&#45;&gt;a1 -->
<g id="edge2" class="edge">
<title>a3&#45;&gt;a1</title>
<path fill="none" stroke="black" d="M43,-159.7C43,-152.41 43,-143.73 43,-135.54"/>
<polygon fill="black" stroke="black" points="46.5,-135.62 43,-125.62 39.5,-135.62 46.5,-135.62"/>
</g>
<!-- b1 -->
<g id="node4" class="node">
<title>b1</title>
<ellipse fill="none" stroke="black" cx="188" cy="-132" rx="27" ry="18"/>
<text xml:space="preserve" text-anchor="middle" x="188" y="-127.8" font-family="Times,serif" font-size="14.00">b1</text>
</g>
<!-- b2 -->
<g id="node5" class="node">
<title>b2</title>
<ellipse fill="none" stroke="black" cx="188" cy="-60" rx="27" ry="18"/>
<text xml:space="preserve" text-anchor="middle" x="188" y="-55.8" font-family="Times,serif" font-size="14.00">b2</text>
</g>
<!-- b1&#45;&gt;b2 -->
<g id="edge3" class="edge">
<title>b1&#45;&gt;b2</title>
<path fill="none" stroke="black" d="M188,-113.7C188,-106.41 188,-97.73 188,-89.54"/>
<polygon fill="black" stroke="black" points="191.5,-89.62 188,-79.62 184.5,-89.62 191.5,-89.62"/>
</g>
</g>
</svg>
