<?xml version="1.0" encoding="UTF-8" standalone="no"?>
<!DOCTYPE svg PUBLIC "-//W3C//DTD SVG 1.1//EN"
 "http://www.w3.org/Graphics/SVG/1.1/DTD/svg11.dtd">
<!-- Generated by graphviz version 15.1.0~dev.20260610.0127 (20260610.0127)
 -->
<!-- Pages: 1 -->
<svg width="204pt" height="146pt"
 viewBox="0.00 0.00 204.00 146.00" xmlns="http://www.w3.org/2000/svg" xmlns:xlink="http://www.w3.org/1999/xlink">
<g id="graph0" class="graph" transform="scale(1 1) rotate(0) translate(4 142)">
<polygon fill="white" stroke="none" points="-4,4 -4,-142 200,-142 200,4 -4,4"/>
<g id="clust1" class="cluster">
<title>cluster_0</title>
<polygon fill="none" stroke="black" points="0,0 0,-124 70,-124 70,0 0,0"/>
</g>
<g id="clust2" class="cluster">
<title>cluster_1</title>
<polygon fill="none" stroke="black" points="126,-14 126,-138 196,-138 196,-14 126,-14"/>
</g>
<!-- a -->
<g id="node1" class="node">
<title>a</title>
<ellipse fill="none" stroke="black" cx="35" cy="-98" rx="27" ry="18"/>
<text xml:space="preserve" text-anchor="middle" x="35" y="-93.8" font-family="Times,serif" font-size="14.00">a</text>
</g>
<!-- b -->
<g id="node2" class="node">
<title>b</title>
<ellipse fill="none" stroke="black" cx="35" cy="-26" rx="27" ry="18"/>
<text xml:space="preserve" text-anchor="middle" x="35" y="-21.8" font-family="Times,serif" font-size="14.00">b</text>
</g>
<!-- a&#45;&gt;b -->
<g id="edge1" class="edge">
<title>a&#45;&gt;b</title>
<path fill="none" stroke="black" d="M35,-79.7C35,-72.41 35,-63.73 35,-55.54"/>
<polygon fill="black" stroke="black" points="38.5,-55.62 35,-45.62 31.5,-55.62 38.5,-55.62"/>
</g>
<!-- c -->
<g id="node3" class="node">
<title>c</title>
<ellipse fill="none" stroke="black" cx="161" cy="-112" rx="27" ry="18"/>
<text xml:space="preserve" text-anchor="middle" x="161" y="-107.8" font-family="Times,serif" font-size="14.00">c</text>
</g>
<!-- d -->
<g id="node4" class="node">
<title>d</title>
<ellipse fill="none" stroke="black" cx="161" cy="-40" rx="27" ry="18"/>
<text xml:space="preserve" text-anchor="middle" x="161" y="-35.8" font-family="Times,serif" font-size="14.00">d</text>
</g>
<!-- c&#45;&gt;d -->
<g id="edge2" class="edge">
<title>c&#45;&gt;d</title>
<path fill="none" stroke="black" d="M161,-93.7C161,-86.41 161,-77.73 161,-69.54"/>
<polygon fill="black" stroke="black" points="164.5,-69.62 161,-59.62 157.5,-69.62 164.5,-69.62"/>
</g>
</g>
</svg>
