<?xml version="1.0" encoding="UTF-8" standalone="no"?>
<!DOCTYPE svg PUBLIC "-//W3C//DTD SVG 1.1//EN"
 "http://www.w3.org/Graphics/SVG/1.1/DTD/svg11.dtd">
<!-- Generated by graphviz version 15.1.0~dev.20260610.0127 (20260610.0127)
 -->
<!-- Pages: 1 -->
<svg width="124pt" height="301pt"
 viewBox="0.00 0.00 124.00 301.00" xmlns="http://www.w3.org/2000/svg" xmlns:xlink="http://www.w3.org/1999/xlink">
<g id="graph0" class="graph" transform="scale(1 1) rotate(0) translate(4 296.8)">
<polygon fill="white" stroke="none" points="-4,4 -4,-296.8 120,-296.8 120,4 -4,4"/>
<g id="clust1" class="cluster">
<title>cluster0</title>
<polygon fill="none" stroke="black" points="8,-64 8,-284.8 60,-284.8 60,-64 8,-64"/>
<text xml:space="preserve" text-anchor="middle" x="34" y="-268.2" font-family="Times,serif" font-size="14.00">c0</text>
</g>
<!-- a -->
<g id="node1" class="node">
<title>a</title>
<polygon fill="none" stroke="black" points="52,-252 16,-252 16,-216 52,-216 52,-252"/>
<text xml:space="preserve" text-anchor="middle" x="34" y="-229.8" font-family="Times,serif" font-size="14.00">a</text>
</g>
<!-- c -->
<g id="node2" class="node">
<title>c</title>
<polygon fill="none" stroke="black" points="52,-180 16,-180 16,-144 52,-144 52,-180"/>
<text xml:space="preserve" text-anchor="middle" x="34" y="-157.8" font-family="Times,serif" font-size="14.00">c</text>
</g>
<!-- a&#45;&gt;c -->
<g id="edge1" class="edge">
<title>a&#45;&gt;c</title>
<path fill="none" stroke="black" d="M34,-215.7C34,-208.41 34,-199.73 34,-191.54"/>
<polygon fill="black" stroke="black" points="37.5,-191.62 34,-181.62 30.5,-191.62 37.5,-191.62"/>
</g>
<!-- b -->
<g id="node4" class="node">
<title>b</title>
<polygon fill="none" stroke="black" points="116,-36 80,-36 80,0 116,0 116,-36"/>
<text xml:space="preserve" text-anchor="middle" x="98" y="-13.8" font-family="Times,serif" font-size="14.00">b</text>
</g>
<!-- a&#45;&gt;b -->
<g id="edge3" class="edge">
<title>a&#45;&gt;b</title>
<path fill="none" stroke="black" d="M28.36,-215.82C31.74,-205.67 38.49,-192.42 43,-180 59.47,-134.67 70.27,-79.42 80.84,-46.84"/>
<polygon fill="black" stroke="black" points="84.02,-48.34 84.07,-37.74 77.43,-45.99 84.02,-48.34"/>
</g>
<!-- a&#45;&gt;b -->
<g id="edge4" class="edge">
<title>a&#45;&gt;b</title>
<path fill="none" stroke="black" d="M44.11,-215.82C49.74,-205.67 56.49,-192.42 61,-180 77.4,-134.87 88.18,-79.9 93.67,-47.27"/>
<polygon fill="black" stroke="black" points="97.05,-48.24 95.21,-37.81 90.15,-47.12 97.05,-48.24"/>
</g>
<!-- a&#45;&gt;b -->
<g id="edge5" class="edge">
<title>a&#45;&gt;b</title>
<path fill="none" stroke="black" d="M52.19,-224.3C63.3,-214.04 73.08,-196.31 79,-180 95.33,-135.06 106.08,-80.38 106.62,-47.7"/>
<polygon fill="black" stroke="black" points="110.13,-47.73 106.36,-37.83 103.13,-47.92 110.13,-47.73"/>
</g>
<!-- d -->
<g id="node3" class="node">
<title>d</title>
<polygon fill="none" stroke="black" points="52,-108 16,-108 16,-72 52,-72 52,-108"/>
<text xml:space="preserve" text-anchor="middle" x="34" y="-85.8" font-family="Times,serif" font-size="14.00">d</text>
</g>
<!-- c&#45;&gt;d -->
<g id="edge2" class="edge">
<title>c&#45;&gt;d</title>
<path fill="none" stroke="black" d="M34,-143.7C34,-136.41 34,-127.73 34,-119.54"/>
<polygon fill="black" stroke="black" points="37.5,-119.62 34,-109.62 30.5,-119.62 37.5,-119.62"/>
</g>
<!-- d&#45;&gt;b -->
<g id="edge6" class="edge">
<title>d&#45;&gt;b</title>
<path fill="none" stroke="black" d="M49.82,-71.7C57.34,-63.47 66.47,-53.48 74.76,-44.42"/>
<polygon fill="black" stroke="black" points="77.18,-46.96 81.34,-37.22 72.01,-42.24 77.18,-46.96"/>
</g>
</g>
</svg>
