<?xml version="1.0" encoding="UTF-8" standalone="no"?>
<!DOCTYPE svg PUBLIC "-//W3C//DTD SVG 1.1//EN"
 "http://www.w3.org/Graphics/SVG/1.1/DTD/svg11.dtd">
<!-- Generated by graphviz version 15.1.0~dev.20260610.0127 (20260610.0127)
 -->
<!-- Title: G Pages: 1 -->
<svg width="243pt" height="243pt"
 viewBox="0.00 0.00 243.00 243.00" xmlns="http://www.w3.org/2000/svg" xmlns:xlink="http://www.w3.org/1999/xlink">
<g id="graph0" class="graph" transform="scale(1 1) rotate(0) translate(4 238.52)">
<title>G</title>
<polygon fill="white" stroke="none" points="-4,4 -4,-238.52 238.52,-238.52 238.52,4 -4,4"/>
<g id="clust1" class="cluster">
<title>cluster_0</title>
<polygon fill="none" stroke="black" points="0,0 0,-234.52 234.52,-234.52 234.52,0 0,0"/>
</g>
<!-- A -->
<g id="node1" class="node">
<title>A</title>
<polygon fill="none" stroke="black" points="234.52,-59.7 217.77,-59.7 217.77,0 234.52,0 234.52,-59.7"/>
<text xml:space="preserve" text-anchor="middle" x="226.15" y="-25.65" font-family="Times,serif" font-size="14.00">A</text>
</g>
<!-- B -->
<g id="node2" class="node">
<title>B</title>
<polygon fill="none" stroke="black" points="217.77,-59.7 150.76,-59.7 150.76,0 217.77,0 217.77,-59.7"/>
<text xml:space="preserve" text-anchor="middle" x="184.27" y="-25.65" font-family="Times,serif" font-size="14.00">B</text>
</g>
<!-- C -->
<g id="node3" class="node">
<title>C</title>
<polygon fill="none" stroke="black" points="150.76,-59.7 0,-59.7 0,0 150.76,0 150.76,-59.7"/>
<text xml:space="preserve" text-anchor="middle" x="75.38" y="-25.65" font-family="Times,serif" font-size="14.00">C</text>
</g>
<!-- D -->
<g id="node4" class="node">
<title>D</title>
<polygon fill="none" stroke="black" points="234.52,-234.52 143,-234.52 143,-59.7 234.52,-59.7 234.52,-234.52"/>
<text xml:space="preserve" text-anchor="middle" x="188.76" y="-142.91" font-family="Times,serif" font-size="14.00">D</text>
</g>
<!-- E -->
<g id="node5" class="node">
<title>E</title>
<polygon fill="none" stroke="black" points="143,-234.52 0,-234.52 0,-59.7 143,-59.7 143,-234.52"/>
<text xml:space="preserve" text-anchor="middle" x="71.5" y="-142.91" font-family="Times,serif" font-size="14.00">E</text>
</g>
</g>
</svg>
