<?xml version="1.0" encoding="UTF-8" standalone="no"?>
<!DOCTYPE svg PUBLIC "-//W3C//DTD SVG 1.1//EN"
 "http://www.w3.org/Graphics/SVG/1.1/DTD/svg11.dtd">
<!-- Generated by graphviz version 15.1.0~dev.20260610.0127 (20260610.0127)
 -->
<!-- Title: G Pages: 1 -->
<svg width="192pt" height="181pt"
 viewBox="0.00 0.00 192.00 181.00" xmlns="http://www.w3.org/2000/svg" xmlns:xlink="http://www.w3.org/1999/xlink">
<g id="graph0" class="graph" transform="scale(1 1) rotate(0) translate(4 176.95)">
<title>G</title>
<polygon fill="white" stroke="none" points="-4,4 -4,-176.95 188.25,-176.95 188.25,4 -4,4"/>
<!-- center -->
<g id="node1" class="node">
<title>center</title>
<ellipse fill="none" stroke="black" cx="99" cy="-86.48" rx="34.62" ry="18"/>
<text xml:space="preserve" text-anchor="middle" x="99" y="-82.28" font-family="Times,serif" font-size="14.00">center</text>
</g>
<!-- L1 -->
<g id="node2" class="node">
<title>L1</title>
<ellipse fill="none" stroke="black" cx="157.25" cy="-128.8" rx="27" ry="18"/>
<text xml:space="preserve" text-anchor="middle" x="157.25" y="-124.6" font-family="Times,serif" font-size="14.00">L1</text>
</g>
<!-- center&#45;&#45;L1 -->
<g id="edge1" class="edge">
<title>center&#45;&#45;L1</title>
<path fill="none" stroke="black" d="M119.37,-101.28C125.67,-105.85 132.57,-110.87 138.74,-115.35"/>
</g>
<!-- L2 -->
<g id="node3" class="node">
<title>L2</title>
<ellipse fill="none" stroke="black" cx="76.75" cy="-154.95" rx="27" ry="18"/>
<text xml:space="preserve" text-anchor="middle" x="76.75" y="-150.75" font-family="Times,serif" font-size="14.00">L2</text>
</g>
<!-- center&#45;&#45;L2 -->
<g id="edge2" class="edge">
<title>center&#45;&#45;L2</title>
<path fill="none" stroke="black" d="M93.15,-104.47C89.86,-114.61 85.76,-127.23 82.48,-137.32"/>
</g>
<!-- L3 -->
<g id="node4" class="node">
<title>L3</title>
<ellipse fill="none" stroke="black" cx="27" cy="-86.48" rx="27" ry="18"/>
<text xml:space="preserve" text-anchor="middle" x="27" y="-82.28" font-family="Times,serif" font-size="14.00">L3</text>
</g>
<!-- center&#45;&#45;L3 -->
<g id="edge3" class="edge">
<title>center&#45;&#45;L3</title>
<path fill="none" stroke="black" d="M64.27,-86.48C60.96,-86.48 57.63,-86.48 54.41,-86.48"/>
</g>
<!-- L4 -->
<g id="node5" class="node">
<title>L4</title>
<ellipse fill="none" stroke="black" cx="76.75" cy="-18" rx="27" ry="18"/>
<text xml:space="preserve" text-anchor="middle" x="76.75" y="-13.8" font-family="Times,serif" font-size="14.00">L4</text>
</g>
<!-- center&#45;&#45;L4 -->
<g id="edge4" class="edge">
<title>center&#45;&#45;L4</title>
<path fill="none" stroke="black" d="M93.15,-68.48C89.86,-58.34 85.76,-45.72 82.48,-35.63"/>
</g>
<!-- L5 -->
<g id="node6" class="node">
<title>L5</title>
<ellipse fill="none" stroke="black" cx="157.25" cy="-44.16" rx="27" ry="18"/>
<text xml:space="preserve" text-anchor="middle" x="157.25" y="-39.96" font-family="Times,serif" font-size="14.00">L5</text>
</g>
<!-- center&#45;&#45;L5 -->
<g id="edge5" class="edge">
<title>center&#45;&#45;L5</title>
<path fill="none" stroke="black" d="M119.37,-71.67C125.67,-67.1 132.57,-62.08 138.74,-57.6"/>
</g>
</g>
</svg>
