<?xml version="1.0" encoding="UTF-8" standalone="no"?>
<!DOCTYPE svg PUBLIC "-//W3C//DTD SVG 1.1//EN"
 "http://www.w3.org/Graphics/SVG/1.1/DTD/svg11.dtd">
<!-- Generated by graphviz version 15.1.0~dev.20260610.0127 (20260610.0127)
 -->
<!-- Title: G Pages: 1 -->
<svg width="322pt" height="318pt"
 viewBox="0.00 0.00 322.00 318.00" xmlns="http://www.w3.org/2000/svg" xmlns:xlink="http://www.w3.org/1999/xlink">
<g id="graph0" class="graph" transform="scale(1 1) rotate(0) translate(4 313.9)">
<title>G</title>
<polygon fill="white" stroke="none" points="-4,4 -4,-313.9 318.5,-313.9 318.5,4 -4,4"/>
<!-- center -->
<g id="node1" class="node">
<title>center</title>
<ellipse fill="none" stroke="black" cx="171" cy="-154.95" rx="34.62" ry="18"/>
<text xml:space="preserve" text-anchor="middle" x="171" y="-150.75" font-family="Times,serif" font-size="14.00">center</text>
</g>
<!-- A -->
<g id="node2" class="node">
<title>A</title>
<ellipse fill="none" stroke="black" cx="287.5" cy="-239.59" rx="27" ry="18"/>
<text xml:space="preserve" text-anchor="middle" x="287.5" y="-235.39" font-family="Times,serif" font-size="14.00">A</text>
</g>
<!-- center&#45;&#45;A -->
<g id="edge1" class="edge">
<title>center&#45;&#45;A</title>
<path fill="none" stroke="black" d="M191.56,-169.89C213.51,-185.84 247.97,-210.87 269.06,-226.2"/>
</g>
<!-- B -->
<g id="node3" class="node">
<title>B</title>
<ellipse fill="none" stroke="black" cx="126.5" cy="-291.9" rx="27" ry="18"/>
<text xml:space="preserve" text-anchor="middle" x="126.5" y="-287.7" font-family="Times,serif" font-size="14.00">B</text>
</g>
<!-- center&#45;&#45;B -->
<g id="edge2" class="edge">
<title>center&#45;&#45;B</title>
<path fill="none" stroke="black" d="M165.09,-173.14C156.53,-199.48 140.79,-247.94 132.29,-274.08"/>
</g>
<!-- C -->
<g id="node4" class="node">
<title>C</title>
<ellipse fill="none" stroke="black" cx="27" cy="-154.95" rx="27" ry="18"/>
<text xml:space="preserve" text-anchor="middle" x="27" y="-150.75" font-family="Times,serif" font-size="14.00">C</text>
</g>
<!-- center&#45;&#45;C -->
<g id="edge3" class="edge">
<title>center&#45;&#45;C</title>
<path fill="none" stroke="black" d="M136.14,-154.95C111,-154.95 77.55,-154.95 54.33,-154.95"/>
</g>
<!-- D -->
<g id="node5" class="node">
<title>D</title>
<ellipse fill="none" stroke="black" cx="126.5" cy="-18" rx="27" ry="18"/>
<text xml:space="preserve" text-anchor="middle" x="126.5" y="-13.8" font-family="Times,serif" font-size="14.00">D</text>
</g>
<!-- center&#45;&#45;D -->
<g id="edge4" class="edge">
<title>center&#45;&#45;D</title>
<path fill="none" stroke="black" d="M165.09,-136.77C156.53,-110.43 140.79,-61.96 132.29,-35.83"/>
</g>
<!-- E -->
<g id="node6" class="node">
<title>E</title>
<ellipse fill="none" stroke="black" cx="287.5" cy="-70.31" rx="27" ry="18"/>
<text xml:space="preserve" text-anchor="middle" x="287.5" y="-66.11" font-family="Times,serif" font-size="14.00">E</text>
</g>
<!-- center&#45;&#45;E -->
<g id="edge5" class="edge">
<title>center&#45;&#45;E</title>
<path fill="none" stroke="black" d="M191.56,-140.01C213.51,-124.07 247.97,-99.03 269.06,-83.71"/>
</g>
</g>
</svg>
