<?xml version="1.0" encoding="UTF-8" standalone="no"?>
<!DOCTYPE svg PUBLIC "-//W3C//DTD SVG 1.1//EN"
 "http://www.w3.org/Graphics/SVG/1.1/DTD/svg11.dtd">
<!-- Generated by graphviz version 15.1.0~dev.20260610.0127 (20260610.0127)
 -->
<!-- Title: Honda&#45;Tokoro Pages: 1 -->
<svg width="563pt" height="255pt"
 viewBox="0.00 0.00 563.00 255.00" xmlns="http://www.w3.org/2000/svg" xmlns:xlink="http://www.w3.org/1999/xlink">
<g id="graph0" class="graph" transform="scale(1 1) rotate(0) translate(4 251.45)">
<title>Honda&#45;Tokoro</title>
<polygon fill="white" stroke="none" points="-4,4 -4,-251.45 559.17,-251.45 559.17,4 -4,4"/>
<!-- n000 -->
<g id="node1" class="node">
<title>n000</title>
<ellipse fill="none" stroke="black" cx="540.72" cy="-137.14" rx="14.45" ry="14.14"/>
<text xml:space="preserve" text-anchor="middle" x="540.72" y="-134.14" font-family="Times,serif" font-size="10.00">z</text>
</g>
<!-- n001 -->
<g id="node2" class="node">
<title>n001</title>
<ellipse fill="none" stroke="black" cx="495.46" cy="-182.14" rx="16.81" ry="14.14"/>
<text xml:space="preserve" text-anchor="middle" x="495.46" y="-179.14" font-family="Times,serif" font-size="10.00">m</text>
</g>
<!-- n001&#45;&gt;n000 -->
<g id="edge1" class="edge">
<title>n001&#45;&gt;n000</title>
<path fill="none" stroke="black" d="M506.93,-171.25C514.03,-163.86 523.34,-154.18 530.23,-147.01"/>
<text xml:space="preserve" text-anchor="middle" x="528.31" y="-152.38" font-family="Times,serif" font-size="8.00">:s:</text>
</g>
<!-- n002 -->
<g id="node3" class="node">
<title>n002</title>
<ellipse fill="none" stroke="black" cx="402.56" cy="-221.14" rx="18.38" ry="14.14"/>
<text xml:space="preserve" text-anchor="middle" x="402.56" y="-218.14" font-family="Times,serif" font-size="10.00">p1</text>
</g>
<!-- n002&#45;&gt;n001 -->
<g id="edge2" class="edge">
<title>n002&#45;&gt;n001</title>
<path fill="none" stroke="black" d="M419.39,-214.55C431.89,-209.19 449.65,-201.22 464.64,-193.14 470.55,-189.96 477.46,-185.14 477.46,-185.14"/>
<text xml:space="preserve" text-anchor="middle" x="474.04" y="-189.98" font-family="Times,serif" font-size="8.00">:r:</text>
</g>
<!-- n003 -->
<g id="node4" class="node">
<title>n003</title>
<ellipse fill="none" stroke="black" cx="355.32" cy="-224.14" rx="14.85" ry="14.14"/>
<text xml:space="preserve" text-anchor="middle" x="355.32" y="-221.14" font-family="Times,serif" font-size="10.00">b</text>
</g>
<!-- n003&#45;&gt;n002 -->
<g id="edge3" class="edge">
<title>n003&#45;&gt;n002</title>
<path fill="none" stroke="black" d="M367.48,-215.44C375.13,-212.46 383.99,-211.23 384.53,-214.78"/>
<text xml:space="preserve" text-anchor="middle" x="378.1" y="-207.63" font-family="Times,serif" font-size="8.00">:s:</text>
</g>
<!-- n003&#45;&gt;n002 -->
<g id="edge6" class="edge">
<title>n003&#45;&gt;n002</title>
<path fill="none" stroke="black" d="M370.44,-224.89C377.5,-222.64 384.56,-218.64 384.56,-215.14"/>
</g>
<!-- n004 -->
<g id="node5" class="node">
<title>n004</title>
<ellipse fill="none" stroke="black" cx="308.09" cy="-224.14" rx="18.38" ry="14.14"/>
<text xml:space="preserve" text-anchor="middle" x="308.09" y="-221.14" font-family="Times,serif" font-size="10.00">x1</text>
</g>
<!-- n004&#45;&gt;n003 -->
<g id="edge4" class="edge">
<title>n004&#45;&gt;n003</title>
<path fill="none" stroke="black" d="M326.97,-224.14C331.31,-224.14 335.91,-224.14 340.06,-224.14"/>
</g>
<!-- n022 -->
<g id="node6" class="node">
<title>n022</title>
<polygon fill="none" stroke="black" stroke-dasharray="5,2" points="36,-191.74 0,-191.74 0,-166.54 36,-166.54 36,-191.74"/>
<text xml:space="preserve" text-anchor="middle" x="18" y="-176.14" font-family="Times,serif" font-size="10.00">[P]</text>
</g>
<!-- n022&#45;&gt;n004 -->
<g id="edge5" class="edge">
<title>n022&#45;&gt;n004</title>
<path fill="none" stroke="black" d="M22.48,-192.24C26.71,-205.49 35.19,-225.48 50,-236.14 68.6,-249.53 77.94,-243.13 100.77,-245.14 136.4,-248.28 145.6,-248.1 181.24,-245.14 220.53,-241.89 266.03,-233.01 290.1,-227.9"/>
<text xml:space="preserve" text-anchor="middle" x="284.14" y="-230.83" font-family="Times,serif" font-size="8.00">:s/r:</text>
</g>
<!-- n008 -->
<g id="node10" class="node">
<title>n008</title>
<ellipse fill="none" stroke="black" cx="119.15" cy="-224.14" rx="18.38" ry="14.14"/>
<text xml:space="preserve" text-anchor="middle" x="119.15" y="-221.14" font-family="Times,serif" font-size="10.00">x2</text>
</g>
<!-- n022&#45;&gt;n008 -->
<g id="edge12" class="edge">
<title>n022&#45;&gt;n008</title>
<path fill="none" stroke="black" d="M24.58,-191.89C29.65,-201.78 38.16,-214.84 50,-221.14 65.68,-229.49 86.38,-229.09 100.84,-227.32"/>
<text xml:space="preserve" text-anchor="middle" x="94.38" y="-229.63" font-family="Times,serif" font-size="8.00">:s/r:</text>
</g>
<!-- n009 -->
<g id="node11" class="node">
<title>n009</title>
<ellipse fill="none" stroke="black" cx="68.38" cy="-200.14" rx="18.38" ry="14.14"/>
<text xml:space="preserve" text-anchor="middle" x="68.38" y="-197.14" font-family="Times,serif" font-size="10.00">b2</text>
</g>
<!-- n022&#45;&gt;n009 -->
<g id="edge15" class="edge">
<title>n022&#45;&gt;n009</title>
<path fill="none" stroke="black" d="M36.47,-181.66C42.53,-183.95 49.21,-186.98 54.8,-190.01"/>
</g>
<!-- n022&#45;&gt;n009 -->
<g id="edge16" class="edge">
<title>n022&#45;&gt;n009</title>
<path fill="none" stroke="black" d="M36.47,-191.79C40.91,-193.97 45.67,-196.03 50.1,-197.7"/>
</g>
<!-- n010 -->
<g id="node12" class="node">
<title>n010</title>
<ellipse fill="none" stroke="black" cx="68.38" cy="-158.14" rx="18.38" ry="14.14"/>
<text xml:space="preserve" text-anchor="middle" x="68.38" y="-155.14" font-family="Times,serif" font-size="10.00">b2</text>
</g>
<!-- n022&#45;&gt;n010 -->
<g id="edge18" class="edge">
<title>n022&#45;&gt;n010</title>
<path fill="none" stroke="black" d="M36.47,-166.5C40.91,-164.32 45.67,-162.25 50.1,-160.59"/>
</g>
<!-- n022&#45;&gt;n010 -->
<g id="edge19" class="edge">
<title>n022&#45;&gt;n010</title>
<path fill="none" stroke="black" d="M36.47,-176.63C42.53,-174.34 49.21,-171.31 54.8,-168.28"/>
</g>
<!-- n005 -->
<g id="node7" class="node">
<title>n005</title>
<ellipse fill="none" stroke="black" cx="355.32" cy="-182.14" rx="14.85" ry="14.14"/>
<text xml:space="preserve" text-anchor="middle" x="355.32" y="-179.14" font-family="Times,serif" font-size="10.00">b</text>
</g>
<!-- n005&#45;&gt;n001 -->
<g id="edge8" class="edge">
<title>n005&#45;&gt;n001</title>
<path fill="none" stroke="black" d="M370.22,-182.49C402.04,-183.27 477.46,-185.14 477.46,-185.14"/>
</g>
<!-- n005&#45;&gt;n002 -->
<g id="edge7" class="edge">
<title>n005&#45;&gt;n002</title>
<path fill="none" stroke="black" d="M365.57,-192.95C373.8,-202.57 384.56,-215.14 384.56,-215.14"/>
<text xml:space="preserve" text-anchor="middle" x="377.02" y="-210.08" font-family="Times,serif" font-size="8.00">:u:</text>
</g>
<!-- n006 -->
<g id="node8" class="node">
<title>n006</title>
<ellipse fill="none" stroke="black" cx="213.62" cy="-188.14" rx="18.38" ry="14.14"/>
<text xml:space="preserve" text-anchor="middle" x="213.62" y="-185.14" font-family="Times,serif" font-size="10.00">p2</text>
</g>
<!-- n006&#45;&gt;n005 -->
<g id="edge9" class="edge">
<title>n006&#45;&gt;n005</title>
<path fill="none" stroke="black" d="M232.32,-187.38C260.36,-186.18 314.48,-183.85 340.15,-182.75"/>
</g>
<!-- n007 -->
<g id="node9" class="node">
<title>n007</title>
<ellipse fill="none" stroke="black" cx="166.39" cy="-224.14" rx="14.85" ry="14.14"/>
<text xml:space="preserve" text-anchor="middle" x="166.39" y="-221.14" font-family="Times,serif" font-size="10.00">b</text>
</g>
<!-- n007&#45;&gt;n006 -->
<g id="edge10" class="edge">
<title>n007&#45;&gt;n006</title>
<path fill="none" stroke="black" d="M174.13,-211.58C181.86,-200.82 193.65,-188.09 195.09,-190.46"/>
<text xml:space="preserve" text-anchor="middle" x="187.2" y="-189.36" font-family="Times,serif" font-size="8.00">:s:</text>
</g>
<!-- n007&#45;&gt;n006 -->
<g id="edge13" class="edge">
<title>n007&#45;&gt;n006</title>
<path fill="none" stroke="black" d="M178.72,-215.89C186.43,-207.24 195.24,-195.08 195.24,-191.14"/>
<text xml:space="preserve" text-anchor="middle" x="197.95" y="-196.27" font-family="Times,serif" font-size="8.00">:u:</text>
</g>
<!-- n008&#45;&gt;n007 -->
<g id="edge11" class="edge">
<title>n008&#45;&gt;n007</title>
<path fill="none" stroke="black" d="M138.03,-224.14C142.38,-224.14 146.97,-224.14 151.12,-224.14"/>
</g>
<!-- n009&#45;&gt;n006 -->
<g id="edge14" class="edge">
<title>n009&#45;&gt;n006</title>
<path fill="none" stroke="black" d="M87.15,-198.87C121.84,-196.39 195.24,-191.14 195.24,-191.14"/>
</g>
<!-- n010&#45;&gt;n006 -->
<g id="edge17" class="edge">
<title>n010&#45;&gt;n006</title>
<path fill="none" stroke="black" d="M86.36,-162.59C120.71,-171.6 195.24,-191.14 195.24,-191.14"/>
</g>
<!-- n011 -->
<g id="node13" class="node">
<title>n011</title>
<ellipse fill="none" stroke="black" cx="495.46" cy="-104.14" rx="14.85" ry="14.14"/>
<text xml:space="preserve" text-anchor="middle" x="495.46" y="-101.14" font-family="Times,serif" font-size="10.00">n</text>
</g>
<!-- n011&#45;&gt;n000 -->
<g id="edge20" class="edge">
<title>n011&#45;&gt;n000</title>
<path fill="none" stroke="black" d="M507.82,-112.81C514.23,-117.7 522.21,-123.78 528.58,-128.64"/>
<text xml:space="preserve" text-anchor="middle" x="520.64" y="-125.22" font-family="Times,serif" font-size="8.00">:r:</text>
</g>
<!-- n012 -->
<g id="node14" class="node">
<title>n012</title>
<ellipse fill="none" stroke="black" cx="449.79" cy="-104.14" rx="14.85" ry="14.14"/>
<text xml:space="preserve" text-anchor="middle" x="449.79" y="-101.14" font-family="Times,serif" font-size="10.00">b</text>
</g>
<!-- n012&#45;&gt;n011 -->
<g id="edge21" class="edge">
<title>n012&#45;&gt;n011</title>
<path fill="none" stroke="black" d="M464.12,-98.9C471.6,-98.73 479.46,-100.48 479.46,-104.14"/>
<text xml:space="preserve" text-anchor="middle" x="474.07" y="-95.83" font-family="Times,serif" font-size="8.00">:s:</text>
</g>
<!-- n012&#45;&gt;n011 -->
<g id="edge29" class="edge">
<title>n012&#45;&gt;n011</title>
<path fill="none" stroke="black" d="M464.12,-109.38C471.6,-109.55 479.46,-107.81 479.46,-104.14"/>
</g>
<!-- n013 -->
<g id="node15" class="node">
<title>n013</title>
<ellipse fill="none" stroke="black" cx="402.56" cy="-104.14" rx="17.99" ry="14.14"/>
<text xml:space="preserve" text-anchor="middle" x="402.56" y="-101.14" font-family="Times,serif" font-size="10.00">c1</text>
</g>
<!-- n013&#45;&gt;n012 -->
<g id="edge22" class="edge">
<title>n013&#45;&gt;n012</title>
<path fill="none" stroke="black" d="M420.92,-104.14C425.4,-104.14 430.18,-104.14 434.49,-104.14"/>
</g>
<!-- n014 -->
<g id="node16" class="node">
<title>n014</title>
<ellipse fill="none" stroke="black" cx="355.32" cy="-104.14" rx="14.85" ry="14.14"/>
<text xml:space="preserve" text-anchor="middle" x="355.32" y="-101.14" font-family="Times,serif" font-size="10.00">b</text>
</g>
<!-- n014&#45;&gt;n011 -->
<g id="edge28" class="edge">
<title>n014&#45;&gt;n011</title>
<path fill="none" stroke="black" d="M366.23,-114.11C371.17,-118.39 377.51,-122.91 384.17,-125.14 418.09,-136.5 432.89,-141.6 464.64,-125.14 474.78,-119.89 479.46,-104.14 479.46,-104.14"/>
<text xml:space="preserve" text-anchor="middle" x="481.18" y="-109.55" font-family="Times,serif" font-size="8.00">:u:</text>
</g>
<!-- n014&#45;&gt;n013 -->
<g id="edge23" class="edge">
<title>n014&#45;&gt;n013</title>
<path fill="none" stroke="black" d="M370.64,-104.14C374.99,-104.14 379.81,-104.14 384.33,-104.14"/>
<text xml:space="preserve" text-anchor="middle" x="377.4" y="-105.74" font-family="Times,serif" font-size="8.00">:r:</text>
</g>
<!-- n015 -->
<g id="node17" class="node">
<title>n015</title>
<ellipse fill="none" stroke="black" cx="308.09" cy="-104.14" rx="18.38" ry="14.14"/>
<text xml:space="preserve" text-anchor="middle" x="308.09" y="-101.14" font-family="Times,serif" font-size="10.00">y1</text>
</g>
<!-- n015&#45;&gt;n014 -->
<g id="edge24" class="edge">
<title>n015&#45;&gt;n014</title>
<path fill="none" stroke="black" d="M326.97,-104.14C331.31,-104.14 335.91,-104.14 340.06,-104.14"/>
</g>
<!-- n023 -->
<g id="node18" class="node">
<title>n023</title>
<polygon fill="none" stroke="black" stroke-dasharray="5,2" points="36,-47.74 0,-47.74 0,-22.54 36,-22.54 36,-47.74"/>
<text xml:space="preserve" text-anchor="middle" x="18" y="-32.14" font-family="Times,serif" font-size="10.00">[Q]</text>
</g>
<!-- n023&#45;&gt;n015 -->
<g id="edge25" class="edge">
<title>n023&#45;&gt;n015</title>
<path fill="none" stroke="black" d="M22.45,-48.02C26.66,-61 35.12,-80.45 50,-90.14 127.17,-140.38 246.62,-118.83 290.33,-108.5"/>
<text xml:space="preserve" text-anchor="middle" x="284.42" y="-111.49" font-family="Times,serif" font-size="8.00">:s/r:</text>
</g>
<!-- n019 -->
<g id="node22" class="node">
<title>n019</title>
<ellipse fill="none" stroke="black" cx="119.15" cy="-56.14" rx="18.38" ry="14.14"/>
<text xml:space="preserve" text-anchor="middle" x="119.15" y="-53.14" font-family="Times,serif" font-size="10.00">y2</text>
</g>
<!-- n023&#45;&gt;n019 -->
<g id="edge34" class="edge">
<title>n023&#45;&gt;n019</title>
<path fill="none" stroke="black" d="M24.5,-48.03C29.54,-58 38.03,-71.1 50,-77.14 64.59,-84.51 71.13,-81.89 86.77,-77.14 93.8,-75.01 100.68,-70.72 106.2,-66.58"/>
<text xml:space="preserve" text-anchor="middle" x="102.99" y="-71.5" font-family="Times,serif" font-size="8.00">:s/r:</text>
</g>
<!-- n020 -->
<g id="node23" class="node">
<title>n020</title>
<ellipse fill="none" stroke="black" cx="68.38" cy="-56.14" rx="18.38" ry="14.14"/>
<text xml:space="preserve" text-anchor="middle" x="68.38" y="-53.14" font-family="Times,serif" font-size="10.00">b2</text>
</g>
<!-- n023&#45;&gt;n020 -->
<g id="edge36" class="edge">
<title>n023&#45;&gt;n020</title>
<path fill="none" stroke="black" d="M36.47,-37.66C42.53,-39.95 49.21,-42.98 54.8,-46.01"/>
</g>
<!-- n023&#45;&gt;n020 -->
<g id="edge37" class="edge">
<title>n023&#45;&gt;n020</title>
<path fill="none" stroke="black" d="M36.47,-47.79C40.91,-49.97 45.67,-52.03 50.1,-53.7"/>
</g>
<!-- n021 -->
<g id="node24" class="node">
<title>n021</title>
<ellipse fill="none" stroke="black" cx="68.38" cy="-14.14" rx="18.38" ry="14.14"/>
<text xml:space="preserve" text-anchor="middle" x="68.38" y="-11.14" font-family="Times,serif" font-size="10.00">b2</text>
</g>
<!-- n023&#45;&gt;n021 -->
<g id="edge39" class="edge">
<title>n023&#45;&gt;n021</title>
<path fill="none" stroke="black" d="M36.47,-22.5C40.91,-20.32 45.67,-18.25 50.1,-16.59"/>
</g>
<!-- n023&#45;&gt;n021 -->
<g id="edge40" class="edge">
<title>n023&#45;&gt;n021</title>
<path fill="none" stroke="black" d="M36.47,-32.63C42.53,-30.34 49.21,-27.31 54.8,-24.28"/>
</g>
<!-- n016 -->
<g id="node19" class="node">
<title>n016</title>
<ellipse fill="none" stroke="black" cx="260.86" cy="-68.14" rx="14.85" ry="14.14"/>
<text xml:space="preserve" text-anchor="middle" x="260.86" y="-65.14" font-family="Times,serif" font-size="10.00">b</text>
</g>
<!-- n016&#45;&gt;n011 -->
<g id="edge30" class="edge">
<title>n016&#45;&gt;n011</title>
<path fill="none" stroke="black" d="M275.96,-68.14C294.09,-68.14 326.55,-68.14 354.32,-68.14 354.32,-68.14 354.32,-68.14 403.56,-68.14 431.51,-68.14 441.37,-67.66 464.64,-83.14 473.85,-89.27 479.46,-103.14 479.46,-103.14"/>
</g>
<!-- n016&#45;&gt;n015 -->
<g id="edge26" class="edge">
<title>n016&#45;&gt;n015</title>
<path fill="none" stroke="black" d="M272.08,-77.94C280.51,-86.01 291.09,-96.14 291.09,-96.14"/>
<text xml:space="preserve" text-anchor="middle" x="283.32" y="-91.84" font-family="Times,serif" font-size="8.00">:u:</text>
</g>
<!-- n018 -->
<g id="node20" class="node">
<title>n018</title>
<ellipse fill="none" stroke="black" cx="166.39" cy="-68.14" rx="14.85" ry="14.14"/>
<text xml:space="preserve" text-anchor="middle" x="166.39" y="-65.14" font-family="Times,serif" font-size="10.00">b</text>
</g>
<!-- n018&#45;&gt;n015 -->
<g id="edge27" class="edge">
<title>n018&#45;&gt;n015</title>
<path fill="none" stroke="black" d="M177.62,-78.12C182.55,-82.28 188.78,-86.71 195.24,-89.14 235.22,-104.17 291.09,-96.14 291.09,-96.14"/>
</g>
<!-- n017 -->
<g id="node21" class="node">
<title>n017</title>
<ellipse fill="none" stroke="black" cx="213.62" cy="-68.14" rx="17.99" ry="14.14"/>
<text xml:space="preserve" text-anchor="middle" x="213.62" y="-65.14" font-family="Times,serif" font-size="10.00">c2</text>
</g>
<!-- n018&#45;&gt;n017 -->
<g id="edge32" class="edge">
<title>n018&#45;&gt;n017</title>
<path fill="none" stroke="black" d="M181.7,-68.14C186.05,-68.14 190.87,-68.14 195.39,-68.14"/>
<text xml:space="preserve" text-anchor="middle" x="188.46" y="-69.74" font-family="Times,serif" font-size="8.00">:r:</text>
</g>
<!-- n017&#45;&gt;n016 -->
<g id="edge31" class="edge">
<title>n017&#45;&gt;n016</title>
<path fill="none" stroke="black" d="M231.98,-68.14C236.47,-68.14 241.24,-68.14 245.55,-68.14"/>
</g>
<!-- n019&#45;&gt;n018 -->
<g id="edge33" class="edge">
<title>n019&#45;&gt;n018</title>
<path fill="none" stroke="black" d="M137,-60.61C141.82,-61.89 147.02,-63.27 151.63,-64.49"/>
</g>
<!-- n020&#45;&gt;n019 -->
<g id="edge35" class="edge">
<title>n020&#45;&gt;n019</title>
<path fill="none" stroke="black" d="M86.76,-52.86C94.17,-51.46 101.15,-50.14 101.15,-50.14"/>
<text xml:space="preserve" text-anchor="middle" x="95.09" y="-52.96" font-family="Times,serif" font-size="8.00">:u:</text>
</g>
<!-- n021&#45;&gt;n019 -->
<g id="edge38" class="edge">
<title>n021&#45;&gt;n019</title>
<path fill="none" stroke="black" d="M79.44,-25.53C88.74,-36.08 101.15,-50.14 101.15,-50.14"/>
</g>
</g>
</svg>
