<?xml version="1.0" encoding="UTF-8" standalone="no"?>
<!DOCTYPE svg PUBLIC "-//W3C//DTD SVG 1.1//EN"
 "http://www.w3.org/Graphics/SVG/1.1/DTD/svg11.dtd">
<!-- Generated by graphviz-ts -->
<svg width="563pt" height="255pt"
     viewBox="0.00 0.00 563.00 255.00"
     xmlns="http://www.w3.org/2000/svg" xmlns:xlink="http://www.w3.org/1999/xlink">
<g id="graph0" class="graph" transform="scale(1 1) rotate(0) translate(4 251.45)">
<title>Honda-Tokoro</title>
<polygon fill="white" stroke="none" points="-4,4 -4,-251.45 559.17,-251.45 559.17,4 -4,4"/>
<g id="node1" class="node">
<title>n000</title>
<ellipse fill="none" stroke="black" cx="540.72" cy="-137.14" rx="14.45" ry="14.14"/>
<text xml:space="preserve" text-anchor="middle" x="540.72" y="-134.14" font-family="Times,serif" font-size="10.00">z</text>
</g>
<g id="node2" class="node">
<title>n001</title>
<ellipse fill="none" stroke="black" cx="495.46" cy="-182.14" rx="16.81" ry="14.14"/>
<text xml:space="preserve" text-anchor="middle" x="495.46" y="-179.14" font-family="Times,serif" font-size="10.00">m</text>
</g>
<g id="edge1" class="edge">
<title>n001&#45;&gt;n000</title>
<path fill="none" stroke="black" d="M506.93,-171.25C514.03,-163.86 523.34,-154.18 530.23,-147.01"/>
<text xml:space="preserve" text-anchor="middle" x="528.31" y="-152.38" font-family="Times,serif" font-size="8.00">:s:</text>
</g>
<g id="node3" class="node">
<title>n002</title>
<ellipse fill="none" stroke="black" cx="402.56" cy="-221.14" rx="18.38" ry="14.14"/>
<text xml:space="preserve" text-anchor="middle" x="402.56" y="-218.14" font-family="Times,serif" font-size="10.00">p1</text>
</g>
<g id="edge2" class="edge">
<title>n002&#45;&gt;n001</title>
<path fill="none" stroke="black" d="M418.98,-214.53C436,-207.22 463.18,-195.56 479.86,-188.4"/>
<text xml:space="preserve" text-anchor="middle" x="475.07" y="-192.41" font-family="Times,serif" font-size="8.00">:r:</text>
</g>
<g id="node4" class="node">
<title>n003</title>
<ellipse fill="none" stroke="black" cx="355.32" cy="-224.14" rx="14.85" ry="14.14"/>
<text xml:space="preserve" text-anchor="middle" x="355.32" y="-221.14" font-family="Times,serif" font-size="10.00">b</text>
</g>
<g id="edge3" class="edge">
<title>n003&#45;&gt;n002</title>
<path fill="none" stroke="black" d="M369.17,-218.5C373.97,-217.7 379.51,-217.23 384.63,-217.17"/>
<text xml:space="preserve" text-anchor="middle" x="377.78" y="-218.9" font-family="Times,serif" font-size="8.00">:s:</text>
</g>
<g id="edge6" class="edge">
<title>n003&#45;&gt;n002</title>
<path fill="none" stroke="black" d="M369.65,-228.09C374.66,-228.23 380.39,-227.92 385.61,-227.24"/>
</g>
<g id="node5" class="node">
<title>n004</title>
<ellipse fill="none" stroke="black" cx="308.09" cy="-224.14" rx="18.38" ry="14.14"/>
<text xml:space="preserve" text-anchor="middle" x="308.09" y="-221.14" font-family="Times,serif" font-size="10.00">x1</text>
</g>
<g id="edge4" class="edge">
<title>n004&#45;&gt;n003</title>
<path fill="none" stroke="black" d="M326.97,-224.14C331.31,-224.14 335.91,-224.14 340.06,-224.14"/>
</g>
<g id="node6" class="node">
<title>n022</title>
<polygon fill="none" stroke="black" stroke-dasharray="5,2" points="36,-191.74 0,-191.74 0,-166.54 36,-166.54 36,-191.74"/>
<text xml:space="preserve" text-anchor="middle" x="18" y="-176.14" font-family="Times,serif" font-size="10.00">[P]</text>
</g>
<g id="edge5" class="edge">
<title>n022&#45;&gt;n004</title>
<path fill="none" stroke="black" d="M22.48,-192.24C26.71,-205.49 35.19,-225.48 50,-236.14 68.6,-249.53 77.94,-243.13 100.77,-245.14 136.4,-248.28 145.6,-248.1 181.24,-245.14 220.53,-241.89 266.03,-233.01 290.1,-227.9"/>
<text xml:space="preserve" text-anchor="middle" x="284.14" y="-230.83" font-family="Times,serif" font-size="8.00">:s/r:</text>
</g>
<g id="node10" class="node">
<title>n008</title>
<ellipse fill="none" stroke="black" cx="119.15" cy="-224.14" rx="18.38" ry="14.14"/>
<text xml:space="preserve" text-anchor="middle" x="119.15" y="-221.14" font-family="Times,serif" font-size="10.00">x2</text>
</g>
<g id="edge12" class="edge">
<title>n022&#45;&gt;n008</title>
<path fill="none" stroke="black" d="M24.58,-191.89C29.65,-201.78 38.16,-214.84 50,-221.14 65.68,-229.49 86.38,-229.09 100.84,-227.32"/>
<text xml:space="preserve" text-anchor="middle" x="94.38" y="-229.63" font-family="Times,serif" font-size="8.00">:s/r:</text>
</g>
<g id="node11" class="node">
<title>n009</title>
<ellipse fill="none" stroke="black" cx="68.38" cy="-200.14" rx="18.38" ry="14.14"/>
<text xml:space="preserve" text-anchor="middle" x="68.38" y="-197.14" font-family="Times,serif" font-size="10.00">b2</text>
</g>
<g id="edge15" class="edge">
<title>n022&#45;&gt;n009</title>
<path fill="none" stroke="black" d="M36.47,-181.66C42.53,-183.95 49.21,-186.98 54.8,-190.01"/>
</g>
<g id="edge16" class="edge">
<title>n022&#45;&gt;n009</title>
<path fill="none" stroke="black" d="M36.47,-191.79C40.91,-193.97 45.67,-196.03 50.1,-197.7"/>
</g>
<g id="node12" class="node">
<title>n010</title>
<ellipse fill="none" stroke="black" cx="68.38" cy="-158.14" rx="18.38" ry="14.14"/>
<text xml:space="preserve" text-anchor="middle" x="68.38" y="-155.14" font-family="Times,serif" font-size="10.00">b2</text>
</g>
<g id="edge18" class="edge">
<title>n022&#45;&gt;n010</title>
<path fill="none" stroke="black" d="M36.47,-166.5C40.91,-164.32 45.67,-162.25 50.1,-160.59"/>
</g>
<g id="edge19" class="edge">
<title>n022&#45;&gt;n010</title>
<path fill="none" stroke="black" d="M36.47,-176.63C42.53,-174.34 49.21,-171.31 54.8,-168.28"/>
</g>
<g id="node7" class="node">
<title>n005</title>
<ellipse fill="none" stroke="black" cx="355.32" cy="-182.14" rx="14.85" ry="14.14"/>
<text xml:space="preserve" text-anchor="middle" x="355.32" y="-179.14" font-family="Times,serif" font-size="10.00">b</text>
</g>
<g id="edge8" class="edge">
<title>n005&#45;&gt;n001</title>
<path fill="none" stroke="black" d="M370.59,-182.14C396.5,-182.14 451.16,-182.14 478.37,-182.14"/>
</g>
<g id="edge7" class="edge">
<title>n005&#45;&gt;n002</title>
<path fill="none" stroke="black" d="M366.82,-191.19C373.6,-197.04 382.45,-204.67 389.53,-210.77"/>
<text xml:space="preserve" text-anchor="middle" x="381.67" y="-206.87" font-family="Times,serif" font-size="8.00">:u:</text>
</g>
<g id="node8" class="node">
<title>n006</title>
<ellipse fill="none" stroke="black" cx="213.62" cy="-188.14" rx="18.38" ry="14.14"/>
<text xml:space="preserve" text-anchor="middle" x="213.62" y="-185.14" font-family="Times,serif" font-size="10.00">p2</text>
</g>
<g id="edge9" class="edge">
<title>n006&#45;&gt;n005</title>
<path fill="none" stroke="black" d="M232.32,-187.38C260.36,-186.18 314.48,-183.85 340.15,-182.75"/>
</g>
<g id="node9" class="node">
<title>n007</title>
<ellipse fill="none" stroke="black" cx="166.39" cy="-224.14" rx="14.85" ry="14.14"/>
<text xml:space="preserve" text-anchor="middle" x="166.39" y="-221.14" font-family="Times,serif" font-size="10.00">b</text>
</g>
<g id="edge10" class="edge">
<title>n007&#45;&gt;n006</title>
<path fill="none" stroke="black" d="M176.11,-212.96C182.17,-207.12 190.4,-200.32 197.51,-195.18"/>
<text xml:space="preserve" text-anchor="middle" x="194.3" y="-200.11" font-family="Times,serif" font-size="8.00">:s:</text>
</g>
<g id="edge13" class="edge">
<title>n007&#45;&gt;n006</title>
<path fill="none" stroke="black" d="M180.23,-218.71C187.54,-213.63 196.55,-206.32 203.2,-200"/>
<text xml:space="preserve" text-anchor="middle" x="200.86" y="-205.25" font-family="Times,serif" font-size="8.00">:u:</text>
</g>
<g id="edge11" class="edge">
<title>n008&#45;&gt;n007</title>
<path fill="none" stroke="black" d="M138.03,-224.14C142.38,-224.14 146.97,-224.14 151.12,-224.14"/>
</g>
<g id="edge14" class="edge">
<title>n009&#45;&gt;n006</title>
<path fill="none" stroke="black" d="M86.95,-198.67C114.44,-196.37 167.34,-191.94 194.91,-189.63"/>
</g>
<g id="edge17" class="edge">
<title>n010&#45;&gt;n006</title>
<path fill="none" stroke="black" d="M86.66,-161.76C114.34,-167.56 168.29,-178.86 195.73,-184.6"/>
</g>
<g id="node13" class="node">
<title>n011</title>
<ellipse fill="none" stroke="black" cx="495.46" cy="-104.14" rx="14.85" ry="14.14"/>
<text xml:space="preserve" text-anchor="middle" x="495.46" y="-101.14" font-family="Times,serif" font-size="10.00">n</text>
</g>
<g id="edge20" class="edge">
<title>n011&#45;&gt;n000</title>
<path fill="none" stroke="black" d="M507.82,-112.81C514.23,-117.7 522.21,-123.78 528.58,-128.64"/>
<text xml:space="preserve" text-anchor="middle" x="520.64" y="-125.22" font-family="Times,serif" font-size="8.00">:r:</text>
</g>
<g id="node14" class="node">
<title>n012</title>
<ellipse fill="none" stroke="black" cx="449.79" cy="-104.14" rx="14.85" ry="14.14"/>
<text xml:space="preserve" text-anchor="middle" x="449.79" y="-101.14" font-family="Times,serif" font-size="10.00">b</text>
</g>
<g id="edge21" class="edge">
<title>n012&#45;&gt;n011</title>
<path fill="none" stroke="black" d="M464.13,-99.26C469.55,-98.77 475.79,-98.77 481.2,-99.27"/>
<text xml:space="preserve" text-anchor="middle" x="473.97" y="-100.29" font-family="Times,serif" font-size="8.00">:s:</text>
</g>
<g id="edge29" class="edge">
<title>n012&#45;&gt;n011</title>
<path fill="none" stroke="black" d="M464.13,-109.02C469.55,-109.52 475.79,-109.52 481.2,-109.01"/>
</g>
<g id="node15" class="node">
<title>n013</title>
<ellipse fill="none" stroke="black" cx="402.56" cy="-104.14" rx="17.99" ry="14.14"/>
<text xml:space="preserve" text-anchor="middle" x="402.56" y="-101.14" font-family="Times,serif" font-size="10.00">c1</text>
</g>
<g id="edge22" class="edge">
<title>n013&#45;&gt;n012</title>
<path fill="none" stroke="black" d="M420.92,-104.14C425.4,-104.14 430.18,-104.14 434.49,-104.14"/>
</g>
<g id="node16" class="node">
<title>n014</title>
<ellipse fill="none" stroke="black" cx="355.32" cy="-104.14" rx="14.85" ry="14.14"/>
<text xml:space="preserve" text-anchor="middle" x="355.32" y="-101.14" font-family="Times,serif" font-size="10.00">b</text>
</g>
<g id="edge28" class="edge">
<title>n014&#45;&gt;n011</title>
<path fill="none" stroke="black" d="M366.23,-114.11C371.17,-118.39 377.51,-122.91 384.17,-125.14 418.09,-136.5 430.55,-135.94 464.64,-125.14 471.88,-122.85 478.89,-118.09 484.29,-113.68"/>
<text xml:space="preserve" text-anchor="middle" x="481.37" y="-118.73" font-family="Times,serif" font-size="8.00">:u:</text>
</g>
<g id="edge23" class="edge">
<title>n014&#45;&gt;n013</title>
<path fill="none" stroke="black" d="M370.64,-104.14C374.99,-104.14 379.81,-104.14 384.33,-104.14"/>
<text xml:space="preserve" text-anchor="middle" x="377.4" y="-105.74" font-family="Times,serif" font-size="8.00">:r:</text>
</g>
<g id="node17" class="node">
<title>n015</title>
<ellipse fill="none" stroke="black" cx="308.09" cy="-104.14" rx="18.38" ry="14.14"/>
<text xml:space="preserve" text-anchor="middle" x="308.09" y="-101.14" font-family="Times,serif" font-size="10.00">y1</text>
</g>
<g id="edge24" class="edge">
<title>n015&#45;&gt;n014</title>
<path fill="none" stroke="black" d="M326.97,-104.14C331.31,-104.14 335.91,-104.14 340.06,-104.14"/>
</g>
<g id="node18" class="node">
<title>n023</title>
<polygon fill="none" stroke="black" stroke-dasharray="5,2" points="36,-47.74 0,-47.74 0,-22.54 36,-22.54 36,-47.74"/>
<text xml:space="preserve" text-anchor="middle" x="18" y="-32.14" font-family="Times,serif" font-size="10.00">[Q]</text>
</g>
<g id="edge25" class="edge">
<title>n023&#45;&gt;n015</title>
<path fill="none" stroke="black" d="M22.5,-47.95C26.75,-60.87 35.24,-80.27 50,-90.14 122.94,-138.95 158.41,-108.8 246.01,-114.14 259.18,-114.95 262.66,-116.17 275.71,-114.14 280.79,-113.35 286.18,-111.88 291.03,-110.31"/>
<text xml:space="preserve" text-anchor="middle" x="285.64" y="-113.82" font-family="Times,serif" font-size="8.00">:s/r:</text>
</g>
<g id="node22" class="node">
<title>n019</title>
<ellipse fill="none" stroke="black" cx="119.15" cy="-56.14" rx="18.38" ry="14.14"/>
<text xml:space="preserve" text-anchor="middle" x="119.15" y="-53.14" font-family="Times,serif" font-size="10.00">y2</text>
</g>
<g id="edge34" class="edge">
<title>n023&#45;&gt;n019</title>
<path fill="none" stroke="black" d="M24.5,-48.03C29.54,-58 38.03,-71.1 50,-77.14 64.59,-84.51 71.13,-81.89 86.77,-77.14 93.8,-75.01 100.68,-70.72 106.2,-66.58"/>
<text xml:space="preserve" text-anchor="middle" x="102.99" y="-71.5" font-family="Times,serif" font-size="8.00">:s/r:</text>
</g>
<g id="node23" class="node">
<title>n020</title>
<ellipse fill="none" stroke="black" cx="68.38" cy="-56.14" rx="18.38" ry="14.14"/>
<text xml:space="preserve" text-anchor="middle" x="68.38" y="-53.14" font-family="Times,serif" font-size="10.00">b2</text>
</g>
<g id="edge36" class="edge">
<title>n023&#45;&gt;n020</title>
<path fill="none" stroke="black" d="M36.47,-37.66C42.53,-39.95 49.21,-42.98 54.8,-46.01"/>
</g>
<g id="edge37" class="edge">
<title>n023&#45;&gt;n020</title>
<path fill="none" stroke="black" d="M36.47,-47.79C40.91,-49.97 45.67,-52.03 50.1,-53.7"/>
</g>
<g id="node24" class="node">
<title>n021</title>
<ellipse fill="none" stroke="black" cx="68.38" cy="-14.14" rx="18.38" ry="14.14"/>
<text xml:space="preserve" text-anchor="middle" x="68.38" y="-11.14" font-family="Times,serif" font-size="10.00">b2</text>
</g>
<g id="edge39" class="edge">
<title>n023&#45;&gt;n021</title>
<path fill="none" stroke="black" d="M36.47,-22.5C40.91,-20.32 45.67,-18.25 50.1,-16.59"/>
</g>
<g id="edge40" class="edge">
<title>n023&#45;&gt;n021</title>
<path fill="none" stroke="black" d="M36.47,-32.63C42.53,-30.34 49.21,-27.31 54.8,-24.28"/>
</g>
<g id="node19" class="node">
<title>n016</title>
<ellipse fill="none" stroke="black" cx="260.86" cy="-68.14" rx="14.85" ry="14.14"/>
<text xml:space="preserve" text-anchor="middle" x="260.86" y="-65.14" font-family="Times,serif" font-size="10.00">b</text>
</g>
<g id="edge30" class="edge">
<title>n016&#45;&gt;n011</title>
<path fill="none" stroke="black" d="M275.96,-68.14C294.09,-68.14 326.55,-68.14 354.32,-68.14 354.32,-68.14 354.32,-68.14 403.56,-68.14 431.51,-68.14 439.2,-71.56 464.64,-83.14 471.44,-86.24 478.31,-90.94 483.73,-95.11"/>
</g>
<g id="edge26" class="edge">
<title>n016&#45;&gt;n015</title>
<path fill="none" stroke="black" d="M272.81,-76.86C279.4,-82.1 287.8,-88.79 294.64,-94.24"/>
<text xml:space="preserve" text-anchor="middle" x="286.73" y="-90.65" font-family="Times,serif" font-size="8.00">:u:</text>
</g>
<g id="node20" class="node">
<title>n018</title>
<ellipse fill="none" stroke="black" cx="166.39" cy="-68.14" rx="14.85" ry="14.14"/>
<text xml:space="preserve" text-anchor="middle" x="166.39" y="-65.14" font-family="Times,serif" font-size="10.00">b</text>
</g>
<g id="edge27" class="edge">
<title>n018&#45;&gt;n015</title>
<path fill="none" stroke="black" d="M177.69,-77.94C182.63,-82.07 188.85,-86.52 195.24,-89.14 226.59,-102.02 266.65,-104.34 289.33,-104.5"/>
</g>
<g id="node21" class="node">
<title>n017</title>
<ellipse fill="none" stroke="black" cx="213.62" cy="-68.14" rx="17.99" ry="14.14"/>
<text xml:space="preserve" text-anchor="middle" x="213.62" y="-65.14" font-family="Times,serif" font-size="10.00">c2</text>
</g>
<g id="edge32" class="edge">
<title>n018&#45;&gt;n017</title>
<path fill="none" stroke="black" d="M181.7,-68.14C186.05,-68.14 190.87,-68.14 195.39,-68.14"/>
<text xml:space="preserve" text-anchor="middle" x="188.46" y="-69.74" font-family="Times,serif" font-size="8.00">:r:</text>
</g>
<g id="edge31" class="edge">
<title>n017&#45;&gt;n016</title>
<path fill="none" stroke="black" d="M231.98,-68.14C236.47,-68.14 241.24,-68.14 245.55,-68.14"/>
</g>
<g id="edge33" class="edge">
<title>n019&#45;&gt;n018</title>
<path fill="none" stroke="black" d="M137,-60.61C141.82,-61.89 147.02,-63.27 151.63,-64.49"/>
</g>
<g id="edge35" class="edge">
<title>n020&#45;&gt;n019</title>
<path fill="none" stroke="black" d="M87.27,-56.14C91.51,-56.14 96.03,-56.14 100.27,-56.14"/>
<text xml:space="preserve" text-anchor="middle" x="93.35" y="-57.74" font-family="Times,serif" font-size="8.00">:u:</text>
</g>
<g id="edge38" class="edge">
<title>n021&#45;&gt;n019</title>
<path fill="none" stroke="black" d="M81.44,-24.52C89,-31.03 98.7,-39.39 106.24,-45.88"/>
</g>
</g>
</svg>
