<?xml version="1.0" encoding="UTF-8" standalone="no"?>
<!DOCTYPE svg PUBLIC "-//W3C//DTD SVG 1.1//EN"
 "http://www.w3.org/Graphics/SVG/1.1/DTD/svg11.dtd">
<!-- Generated by graphviz version 15.1.0~dev.20260610.0127 (20260610.0127)
 -->
<!-- Title: g Pages: 1 -->
<svg width="209pt" height="720pt"
 viewBox="0.00 0.00 209.00 720.00" xmlns="http://www.w3.org/2000/svg" xmlns:xlink="http://www.w3.org/1999/xlink">
<g id="graph0" class="graph" transform="scale(0.274767 0.274767) rotate(-90) translate(-2616.4 756.97)">
<title>g</title>
<polygon fill="white" stroke="none" points="-4,4 -4,-756.97 2616.4,-756.97 2616.4,4 -4,4"/>
<g id="clust1" class="cluster">
<title>cluster_0</title>
<polygon fill="none" stroke="black" stroke-width="8" points="296.11,-121.98 296.11,-440.73 702.11,-440.73 702.11,-121.98 296.11,-121.98"/>
<text xml:space="preserve" text-anchor="middle" x="499.11" y="-413.93" font-family="Courier,monospace" font-size="24.00">gryphon</text>
</g>
<g id="clust2" class="cluster">
<title>cluster_1</title>
<polygon fill="none" stroke="black" stroke-width="8" points="805.11,-121.98 805.11,-440.73 1211.11,-440.73 1211.11,-121.98 805.11,-121.98"/>
<text xml:space="preserve" text-anchor="middle" x="1008.11" y="-413.93" font-family="Courier,monospace" font-size="24.00">toucan</text>
</g>
<g id="clust3" class="cluster">
<title>cluster_2</title>
<polygon fill="none" stroke="black" stroke-width="8" points="1268.11,-121.98 1268.11,-440.73 1370.11,-440.73 1370.11,-121.98 1268.11,-121.98"/>
<text xml:space="preserve" text-anchor="middle" x="1319.11" y="-413.93" font-family="Courier,monospace" font-size="24.00">parker</text>
</g>
<g id="clust4" class="cluster">
<title>cluster_3</title>
<polygon fill="none" stroke="black" stroke-width="8" points="1524.11,-121.98 1524.11,-440.73 1726.11,-440.73 1726.11,-121.98 1524.11,-121.98"/>
<text xml:space="preserve" text-anchor="middle" x="1625.11" y="-413.93" font-family="Courier,monospace" font-size="24.00">condor</text>
</g>
<g id="clust5" class="cluster">
<title>cluster_4</title>
<polygon fill="none" stroke="black" stroke-width="8" points="1895.11,-121.98 1895.11,-440.73 2097.11,-440.73 2097.11,-121.98 1895.11,-121.98"/>
<text xml:space="preserve" text-anchor="middle" x="1996.11" y="-413.93" font-family="Courier,monospace" font-size="24.00">kite</text>
</g>
<g id="clust6" class="cluster">
<title>cluster_5</title>
<polygon fill="none" stroke="black" stroke-width="8" points="2275.11,-121.98 2275.11,-440.73 2477.11,-440.73 2477.11,-121.98 2275.11,-121.98"/>
<text xml:space="preserve" text-anchor="middle" x="2376.11" y="-413.93" font-family="Courier,monospace" font-size="24.00">coot</text>
</g>
<!-- 22342 -->
<g id="node1" class="node">
<title>22342</title>
<polygon fill="none" stroke="black" points="531.98,-396.98 482.23,-396.98 482.23,-355.98 531.98,-355.98 531.98,-396.98"/>
<text xml:space="preserve" text-anchor="middle" x="507.11" y="-379.68" font-family="Times,serif" font-size="14.00">22342</text>
<text xml:space="preserve" text-anchor="middle" x="507.11" y="-363.18" font-family="Times,serif" font-size="14.00">ksh</text>
</g>
<!-- 22343 -->
<g id="node2" class="node">
<title>22343</title>
<polygon fill="none" stroke="black" points="455.98,-283.98 406.23,-283.98 406.23,-242.98 455.98,-242.98 455.98,-283.98"/>
<text xml:space="preserve" text-anchor="middle" x="431.11" y="-266.68" font-family="Times,serif" font-size="14.00">22343</text>
<text xml:space="preserve" text-anchor="middle" x="431.11" y="-250.18" font-family="Times,serif" font-size="14.00">gcc</text>
</g>
<!-- 22342&#45;&gt;22343 -->
<g id="edge4" class="edge">
<title>22342&#45;&gt;22343</title>
<path fill="none" stroke="black" d="M493.52,-355.64C481.69,-338.35 464.37,-313.07 450.98,-293.51"/>
<polygon fill="black" stroke="black" points="453.97,-291.68 445.43,-285.4 448.19,-295.63 453.97,-291.68"/>
</g>
<!-- 22346 -->
<g id="node3" class="node">
<title>22346</title>
<polygon fill="none" stroke="black" points="353.98,-170.98 304.23,-170.98 304.23,-129.98 353.98,-129.98 353.98,-170.98"/>
<text xml:space="preserve" text-anchor="middle" x="329.11" y="-153.68" font-family="Times,serif" font-size="14.00">22346</text>
<text xml:space="preserve" text-anchor="middle" x="329.11" y="-137.18" font-family="Times,serif" font-size="14.00">cpp</text>
</g>
<!-- 22343&#45;&gt;22346 -->
<g id="edge7" class="edge">
<title>22343&#45;&gt;22346</title>
<path fill="none" stroke="black" d="M412.87,-242.64C396.7,-225.04 372.9,-199.14 354.8,-179.45"/>
<polygon fill="black" stroke="black" points="357.55,-177.27 348.21,-172.27 352.4,-182 357.55,-177.27"/>
</g>
<!-- 22347 -->
<g id="node4" class="node">
<title>22347</title>
<polygon fill="none" stroke="black" points="421.98,-170.98 372.23,-170.98 372.23,-129.98 421.98,-129.98 421.98,-170.98"/>
<text xml:space="preserve" text-anchor="middle" x="397.11" y="-153.68" font-family="Times,serif" font-size="14.00">22347</text>
<text xml:space="preserve" text-anchor="middle" x="397.11" y="-137.18" font-family="Times,serif" font-size="14.00">cc1</text>
</g>
<!-- 22343&#45;&gt;22347 -->
<g id="edge8" class="edge">
<title>22343&#45;&gt;22347</title>
<path fill="none" stroke="black" d="M425.03,-242.64C419.88,-225.83 412.41,-201.45 406.5,-182.13"/>
<polygon fill="black" stroke="black" points="409.85,-181.14 403.58,-172.6 403.16,-183.19 409.85,-181.14"/>
</g>
<!-- 22351 -->
<g id="node5" class="node">
<title>22351</title>
<polygon fill="none" stroke="black" points="489.98,-170.98 440.23,-170.98 440.23,-129.98 489.98,-129.98 489.98,-170.98"/>
<text xml:space="preserve" text-anchor="middle" x="465.11" y="-153.68" font-family="Times,serif" font-size="14.00">22351</text>
<text xml:space="preserve" text-anchor="middle" x="465.11" y="-137.18" font-family="Times,serif" font-size="14.00">as</text>
</g>
<!-- 22343&#45;&gt;22351 -->
<g id="edge14" class="edge">
<title>22343&#45;&gt;22351</title>
<path fill="none" stroke="black" d="M437.19,-242.64C442.34,-225.83 449.8,-201.45 455.72,-182.13"/>
<polygon fill="black" stroke="black" points="459.06,-183.19 458.64,-172.6 452.36,-181.14 459.06,-183.19"/>
</g>
<!-- 93736&#45;32246 -->
<g id="node42" class="node">
<title>93736&#45;32246</title>
<ellipse fill="none" stroke="black" cx="130.11" cy="-28.99" rx="130.11" ry="28.99"/>
<text xml:space="preserve" text-anchor="middle" x="130.11" y="-32.19" font-family="Times,serif" font-size="14.00">93736&#45;32246</text>
<text xml:space="preserve" text-anchor="middle" x="130.11" y="-15.69" font-family="Times,serif" font-size="14.00">/home/ek/work/src/lefty/lefty.c</text>
</g>
<!-- 22346&#45;&gt;93736&#45;32246 -->
<g id="edge10" class="edge">
<title>22346&#45;&gt;93736&#45;32246</title>
<path fill="none" stroke="black" d="M303.9,-134.35C273.92,-116.34 223.02,-85.78 184.03,-62.37"/>
<polygon fill="black" stroke="black" points="186.07,-59.51 175.69,-57.36 182.46,-65.51 186.07,-59.51"/>
</g>
<!-- 22344 -->
<g id="node6" class="node">
<title>22344</title>
<polygon fill="none" stroke="black" points="676.98,-396.98 627.23,-396.98 627.23,-355.98 676.98,-355.98 676.98,-396.98"/>
<text xml:space="preserve" text-anchor="middle" x="652.11" y="-379.68" font-family="Times,serif" font-size="14.00">22344</text>
<text xml:space="preserve" text-anchor="middle" x="652.11" y="-363.18" font-family="Times,serif" font-size="14.00">ksh</text>
</g>
<!-- 22345 -->
<g id="node7" class="node">
<title>22345</title>
<polygon fill="none" stroke="black" points="642.98,-283.98 593.23,-283.98 593.23,-242.98 642.98,-242.98 642.98,-283.98"/>
<text xml:space="preserve" text-anchor="middle" x="618.11" y="-266.68" font-family="Times,serif" font-size="14.00">22345</text>
<text xml:space="preserve" text-anchor="middle" x="618.11" y="-250.18" font-family="Times,serif" font-size="14.00">gcc</text>
</g>
<!-- 22344&#45;&gt;22345 -->
<g id="edge6" class="edge">
<title>22344&#45;&gt;22345</title>
<path fill="none" stroke="black" d="M646.03,-355.64C640.88,-338.83 633.41,-314.45 627.5,-295.13"/>
<polygon fill="black" stroke="black" points="630.85,-294.14 624.58,-285.6 624.16,-296.19 630.85,-294.14"/>
</g>
<!-- 22348 -->
<g id="node8" class="node">
<title>22348</title>
<polygon fill="none" stroke="black" points="557.98,-170.98 508.23,-170.98 508.23,-129.98 557.98,-129.98 557.98,-170.98"/>
<text xml:space="preserve" text-anchor="middle" x="533.11" y="-153.68" font-family="Times,serif" font-size="14.00">22348</text>
<text xml:space="preserve" text-anchor="middle" x="533.11" y="-137.18" font-family="Times,serif" font-size="14.00">cpp</text>
</g>
<!-- 22345&#45;&gt;22348 -->
<g id="edge9" class="edge">
<title>22345&#45;&gt;22348</title>
<path fill="none" stroke="black" d="M602.91,-242.64C589.62,-225.28 570.14,-199.84 555.13,-180.24"/>
<polygon fill="black" stroke="black" points="557.95,-178.17 549.09,-172.36 552.39,-182.42 557.95,-178.17"/>
</g>
<!-- 22350 -->
<g id="node9" class="node">
<title>22350</title>
<polygon fill="none" stroke="black" points="625.98,-170.98 576.23,-170.98 576.23,-129.98 625.98,-129.98 625.98,-170.98"/>
<text xml:space="preserve" text-anchor="middle" x="601.11" y="-153.68" font-family="Times,serif" font-size="14.00">22350</text>
<text xml:space="preserve" text-anchor="middle" x="601.11" y="-137.18" font-family="Times,serif" font-size="14.00">cc1</text>
</g>
<!-- 22345&#45;&gt;22350 -->
<g id="edge12" class="edge">
<title>22345&#45;&gt;22350</title>
<path fill="none" stroke="black" d="M615.07,-242.64C612.51,-225.91 608.8,-201.68 605.84,-182.4"/>
<polygon fill="black" stroke="black" points="609.32,-182.01 604.35,-172.65 602.4,-183.07 609.32,-182.01"/>
</g>
<!-- 22357 -->
<g id="node10" class="node">
<title>22357</title>
<polygon fill="none" stroke="black" points="693.98,-170.98 644.23,-170.98 644.23,-129.98 693.98,-129.98 693.98,-170.98"/>
<text xml:space="preserve" text-anchor="middle" x="669.11" y="-153.68" font-family="Times,serif" font-size="14.00">22357</text>
<text xml:space="preserve" text-anchor="middle" x="669.11" y="-137.18" font-family="Times,serif" font-size="14.00">as</text>
</g>
<!-- 22345&#45;&gt;22357 -->
<g id="edge20" class="edge">
<title>22345&#45;&gt;22357</title>
<path fill="none" stroke="black" d="M627.23,-242.64C635.02,-225.67 646.36,-200.99 655.28,-181.59"/>
<polygon fill="black" stroke="black" points="658.44,-183.08 659.44,-172.53 652.08,-180.16 658.44,-183.08"/>
</g>
<!-- 93627&#45;32246 -->
<g id="node43" class="node">
<title>93627&#45;32246</title>
<ellipse fill="none" stroke="black" cx="422.11" cy="-28.99" rx="143.9" ry="28.99"/>
<text xml:space="preserve" text-anchor="middle" x="422.11" y="-32.19" font-family="Times,serif" font-size="14.00">93627&#45;32246</text>
<text xml:space="preserve" text-anchor="middle" x="422.11" y="-15.69" font-family="Times,serif" font-size="14.00">/home/ek/work/src/lefty/gfxview.c</text>
</g>
<!-- 22348&#45;&gt;93627&#45;32246 -->
<g id="edge13" class="edge">
<title>22348&#45;&gt;93627&#45;32246</title>
<path fill="none" stroke="black" d="M514.78,-129.75C498.76,-112.51 475.09,-87.03 455.69,-66.14"/>
<polygon fill="black" stroke="black" points="458.34,-63.85 448.97,-58.91 453.21,-68.62 458.34,-63.85"/>
</g>
<!-- 22349 -->
<g id="node11" class="node">
<title>22349</title>
<polygon fill="none" stroke="black" points="1040.98,-396.98 991.23,-396.98 991.23,-355.98 1040.98,-355.98 1040.98,-396.98"/>
<text xml:space="preserve" text-anchor="middle" x="1016.11" y="-379.68" font-family="Times,serif" font-size="14.00">22349</text>
<text xml:space="preserve" text-anchor="middle" x="1016.11" y="-363.18" font-family="Times,serif" font-size="14.00">ksh</text>
</g>
<!-- 22352 -->
<g id="node12" class="node">
<title>22352</title>
<polygon fill="none" stroke="black" points="964.98,-283.98 915.23,-283.98 915.23,-242.98 964.98,-242.98 964.98,-283.98"/>
<text xml:space="preserve" text-anchor="middle" x="940.11" y="-266.68" font-family="Times,serif" font-size="14.00">22352</text>
<text xml:space="preserve" text-anchor="middle" x="940.11" y="-250.18" font-family="Times,serif" font-size="14.00">gcc</text>
</g>
<!-- 22349&#45;&gt;22352 -->
<g id="edge15" class="edge">
<title>22349&#45;&gt;22352</title>
<path fill="none" stroke="black" d="M1002.52,-355.64C990.69,-338.35 973.37,-313.07 959.98,-293.51"/>
<polygon fill="black" stroke="black" points="962.97,-291.68 954.43,-285.4 957.19,-295.63 962.97,-291.68"/>
</g>
<!-- 22356 -->
<g id="node13" class="node">
<title>22356</title>
<polygon fill="none" stroke="black" points="862.98,-170.98 813.23,-170.98 813.23,-129.98 862.98,-129.98 862.98,-170.98"/>
<text xml:space="preserve" text-anchor="middle" x="838.11" y="-153.68" font-family="Times,serif" font-size="14.00">22356</text>
<text xml:space="preserve" text-anchor="middle" x="838.11" y="-137.18" font-family="Times,serif" font-size="14.00">cpp</text>
</g>
<!-- 22352&#45;&gt;22356 -->
<g id="edge19" class="edge">
<title>22352&#45;&gt;22356</title>
<path fill="none" stroke="black" d="M921.87,-242.64C905.7,-225.04 881.9,-199.14 863.8,-179.45"/>
<polygon fill="black" stroke="black" points="866.55,-177.27 857.21,-172.27 861.4,-182 866.55,-177.27"/>
</g>
<!-- 22361 -->
<g id="node14" class="node">
<title>22361</title>
<polygon fill="none" stroke="black" points="930.98,-170.98 881.23,-170.98 881.23,-129.98 930.98,-129.98 930.98,-170.98"/>
<text xml:space="preserve" text-anchor="middle" x="906.11" y="-153.68" font-family="Times,serif" font-size="14.00">22361</text>
<text xml:space="preserve" text-anchor="middle" x="906.11" y="-137.18" font-family="Times,serif" font-size="14.00">cc1</text>
</g>
<!-- 22352&#45;&gt;22361 -->
<g id="edge24" class="edge">
<title>22352&#45;&gt;22361</title>
<path fill="none" stroke="black" d="M934.03,-242.64C928.88,-225.83 921.41,-201.45 915.5,-182.13"/>
<polygon fill="black" stroke="black" points="918.85,-181.14 912.58,-172.6 912.16,-183.19 918.85,-181.14"/>
</g>
<!-- 22369 -->
<g id="node15" class="node">
<title>22369</title>
<polygon fill="none" stroke="black" points="998.98,-170.98 949.23,-170.98 949.23,-129.98 998.98,-129.98 998.98,-170.98"/>
<text xml:space="preserve" text-anchor="middle" x="974.11" y="-153.68" font-family="Times,serif" font-size="14.00">22369</text>
<text xml:space="preserve" text-anchor="middle" x="974.11" y="-137.18" font-family="Times,serif" font-size="14.00">as</text>
</g>
<!-- 22352&#45;&gt;22369 -->
<g id="edge33" class="edge">
<title>22352&#45;&gt;22369</title>
<path fill="none" stroke="black" d="M946.19,-242.64C951.34,-225.83 958.8,-201.45 964.72,-182.13"/>
<polygon fill="black" stroke="black" points="968.06,-183.19 967.64,-172.6 961.36,-181.14 968.06,-183.19"/>
</g>
<!-- 93645&#45;32246 -->
<g id="node44" class="node">
<title>93645&#45;32246</title>
<ellipse fill="none" stroke="black" cx="725.11" cy="-28.99" rx="141.24" ry="28.99"/>
<text xml:space="preserve" text-anchor="middle" x="725.11" y="-32.19" font-family="Times,serif" font-size="14.00">93645&#45;32246</text>
<text xml:space="preserve" text-anchor="middle" x="725.11" y="-15.69" font-family="Times,serif" font-size="14.00">/home/ek/work/src/lefty/txtview.c</text>
</g>
<!-- 22356&#45;&gt;93645&#45;32246 -->
<g id="edge25" class="edge">
<title>22356&#45;&gt;93645&#45;32246</title>
<path fill="none" stroke="black" d="M819.45,-129.75C803.14,-112.51 779.05,-87.03 759.29,-66.14"/>
<polygon fill="black" stroke="black" points="761.86,-63.76 752.45,-58.9 756.77,-68.57 761.86,-63.76"/>
</g>
<!-- 22353 -->
<g id="node16" class="node">
<title>22353</title>
<polygon fill="none" stroke="black" points="1185.98,-396.98 1136.23,-396.98 1136.23,-355.98 1185.98,-355.98 1185.98,-396.98"/>
<text xml:space="preserve" text-anchor="middle" x="1161.11" y="-379.68" font-family="Times,serif" font-size="14.00">22353</text>
<text xml:space="preserve" text-anchor="middle" x="1161.11" y="-363.18" font-family="Times,serif" font-size="14.00">ksh</text>
</g>
<!-- 22355 -->
<g id="node17" class="node">
<title>22355</title>
<polygon fill="none" stroke="black" points="1168.98,-283.98 1119.23,-283.98 1119.23,-242.98 1168.98,-242.98 1168.98,-283.98"/>
<text xml:space="preserve" text-anchor="middle" x="1144.11" y="-266.68" font-family="Times,serif" font-size="14.00">22355</text>
<text xml:space="preserve" text-anchor="middle" x="1144.11" y="-250.18" font-family="Times,serif" font-size="14.00">gcc</text>
</g>
<!-- 22353&#45;&gt;22355 -->
<g id="edge18" class="edge">
<title>22353&#45;&gt;22355</title>
<path fill="none" stroke="black" d="M1158.07,-355.64C1155.51,-338.91 1151.8,-314.68 1148.84,-295.4"/>
<polygon fill="black" stroke="black" points="1152.32,-295.01 1147.35,-285.65 1145.4,-296.07 1152.32,-295.01"/>
</g>
<!-- 22360 -->
<g id="node18" class="node">
<title>22360</title>
<polygon fill="none" stroke="black" points="1066.98,-170.98 1017.23,-170.98 1017.23,-129.98 1066.98,-129.98 1066.98,-170.98"/>
<text xml:space="preserve" text-anchor="middle" x="1042.11" y="-153.68" font-family="Times,serif" font-size="14.00">22360</text>
<text xml:space="preserve" text-anchor="middle" x="1042.11" y="-137.18" font-family="Times,serif" font-size="14.00">cpp</text>
</g>
<!-- 22355&#45;&gt;22360 -->
<g id="edge23" class="edge">
<title>22355&#45;&gt;22360</title>
<path fill="none" stroke="black" d="M1125.87,-242.64C1109.7,-225.04 1085.9,-199.14 1067.8,-179.45"/>
<polygon fill="black" stroke="black" points="1070.55,-177.27 1061.21,-172.27 1065.4,-182 1070.55,-177.27"/>
</g>
<!-- 22365 -->
<g id="node19" class="node">
<title>22365</title>
<polygon fill="none" stroke="black" points="1134.98,-170.98 1085.23,-170.98 1085.23,-129.98 1134.98,-129.98 1134.98,-170.98"/>
<text xml:space="preserve" text-anchor="middle" x="1110.11" y="-153.68" font-family="Times,serif" font-size="14.00">22365</text>
<text xml:space="preserve" text-anchor="middle" x="1110.11" y="-137.18" font-family="Times,serif" font-size="14.00">cc1</text>
</g>
<!-- 22355&#45;&gt;22365 -->
<g id="edge28" class="edge">
<title>22355&#45;&gt;22365</title>
<path fill="none" stroke="black" d="M1138.03,-242.64C1132.88,-225.83 1125.41,-201.45 1119.5,-182.13"/>
<polygon fill="black" stroke="black" points="1122.85,-181.14 1116.58,-172.6 1116.16,-183.19 1122.85,-181.14"/>
</g>
<!-- 22374 -->
<g id="node20" class="node">
<title>22374</title>
<polygon fill="none" stroke="black" points="1202.98,-170.98 1153.23,-170.98 1153.23,-129.98 1202.98,-129.98 1202.98,-170.98"/>
<text xml:space="preserve" text-anchor="middle" x="1178.11" y="-153.68" font-family="Times,serif" font-size="14.00">22374</text>
<text xml:space="preserve" text-anchor="middle" x="1178.11" y="-137.18" font-family="Times,serif" font-size="14.00">as</text>
</g>
<!-- 22355&#45;&gt;22374 -->
<g id="edge39" class="edge">
<title>22355&#45;&gt;22374</title>
<path fill="none" stroke="black" d="M1150.19,-242.64C1155.34,-225.83 1162.8,-201.45 1168.72,-182.13"/>
<polygon fill="black" stroke="black" points="1172.06,-183.19 1171.64,-172.6 1165.36,-181.14 1172.06,-183.19"/>
</g>
<!-- 93638&#45;32246 -->
<g id="node45" class="node">
<title>93638&#45;32246</title>
<ellipse fill="none" stroke="black" cx="1027.11" cy="-28.99" rx="142.31" ry="28.99"/>
<text xml:space="preserve" text-anchor="middle" x="1027.11" y="-32.19" font-family="Times,serif" font-size="14.00">93638&#45;32246</text>
<text xml:space="preserve" text-anchor="middle" x="1027.11" y="-15.69" font-family="Times,serif" font-size="14.00">/home/ek/work/src/lefty/internal.c</text>
</g>
<!-- 22360&#45;&gt;93638&#45;32246 -->
<g id="edge30" class="edge">
<title>22360&#45;&gt;93638&#45;32246</title>
<path fill="none" stroke="black" d="M1039.63,-129.75C1037.59,-113.46 1034.62,-89.82 1032.09,-69.65"/>
<polygon fill="black" stroke="black" points="1035.56,-69.24 1030.84,-59.75 1028.62,-70.11 1035.56,-69.24"/>
</g>
<!-- 22354 -->
<g id="node21" class="node">
<title>22354</title>
<polygon fill="none" stroke="black" points="1325.98,-396.98 1276.23,-396.98 1276.23,-355.98 1325.98,-355.98 1325.98,-396.98"/>
<text xml:space="preserve" text-anchor="middle" x="1301.11" y="-379.68" font-family="Times,serif" font-size="14.00">22354</text>
<text xml:space="preserve" text-anchor="middle" x="1301.11" y="-363.18" font-family="Times,serif" font-size="14.00">ksh</text>
</g>
<!-- 22359 -->
<g id="node22" class="node">
<title>22359</title>
<polygon fill="none" stroke="black" points="1325.98,-283.98 1276.23,-283.98 1276.23,-242.98 1325.98,-242.98 1325.98,-283.98"/>
<text xml:space="preserve" text-anchor="middle" x="1301.11" y="-266.68" font-family="Times,serif" font-size="14.00">22359</text>
<text xml:space="preserve" text-anchor="middle" x="1301.11" y="-250.18" font-family="Times,serif" font-size="14.00">gcc</text>
</g>
<!-- 22354&#45;&gt;22359 -->
<g id="edge22" class="edge">
<title>22354&#45;&gt;22359</title>
<path fill="none" stroke="black" d="M1301.11,-355.64C1301.11,-338.91 1301.11,-314.68 1301.11,-295.4"/>
<polygon fill="black" stroke="black" points="1304.61,-295.67 1301.11,-285.67 1297.61,-295.67 1304.61,-295.67"/>
</g>
<!-- 22375 -->
<g id="node23" class="node">
<title>22375</title>
<polygon fill="none" stroke="black" points="1343.98,-170.98 1294.23,-170.98 1294.23,-129.98 1343.98,-129.98 1343.98,-170.98"/>
<text xml:space="preserve" text-anchor="middle" x="1319.11" y="-153.68" font-family="Times,serif" font-size="14.00">22375</text>
<text xml:space="preserve" text-anchor="middle" x="1319.11" y="-137.18" font-family="Times,serif" font-size="14.00">as</text>
</g>
<!-- 22359&#45;&gt;22375 -->
<g id="edge40" class="edge">
<title>22359&#45;&gt;22375</title>
<path fill="none" stroke="black" d="M1304.33,-242.64C1307.04,-225.91 1310.97,-201.68 1314.09,-182.4"/>
<polygon fill="black" stroke="black" points="1317.53,-183.08 1315.68,-172.65 1310.62,-181.96 1317.53,-183.08"/>
</g>
<!-- 135504&#45;32246 -->
<g id="node51" class="node">
<title>135504&#45;32246</title>
<ellipse fill="none" stroke="black" cx="1335.11" cy="-28.99" rx="147.61" ry="28.99"/>
<text xml:space="preserve" text-anchor="middle" x="1335.11" y="-32.19" font-family="Times,serif" font-size="14.00">135504&#45;32246</text>
<text xml:space="preserve" text-anchor="middle" x="1335.11" y="-15.69" font-family="Times,serif" font-size="14.00">/home/ek/work/sun4/lefty/display.o</text>
</g>
<!-- 22375&#45;&gt;135504&#45;32246 -->
<g id="edge50" class="edge">
<title>22375&#45;&gt;135504&#45;32246</title>
<path fill="none" stroke="black" d="M1321.75,-129.75C1323.93,-113.46 1327.1,-89.82 1329.8,-69.65"/>
<polygon fill="black" stroke="black" points="1333.27,-70.12 1331.12,-59.75 1326.33,-69.19 1333.27,-70.12"/>
</g>
<!-- 22358 -->
<g id="node24" class="node">
<title>22358</title>
<polygon fill="none" stroke="black" points="1581.98,-396.98 1532.23,-396.98 1532.23,-355.98 1581.98,-355.98 1581.98,-396.98"/>
<text xml:space="preserve" text-anchor="middle" x="1557.11" y="-379.68" font-family="Times,serif" font-size="14.00">22358</text>
<text xml:space="preserve" text-anchor="middle" x="1557.11" y="-363.18" font-family="Times,serif" font-size="14.00">ksh</text>
</g>
<!-- 22362 -->
<g id="node25" class="node">
<title>22362</title>
<polygon fill="none" stroke="black" points="1615.98,-283.98 1566.23,-283.98 1566.23,-242.98 1615.98,-242.98 1615.98,-283.98"/>
<text xml:space="preserve" text-anchor="middle" x="1591.11" y="-266.68" font-family="Times,serif" font-size="14.00">22362</text>
<text xml:space="preserve" text-anchor="middle" x="1591.11" y="-250.18" font-family="Times,serif" font-size="14.00">gcc</text>
</g>
<!-- 22358&#45;&gt;22362 -->
<g id="edge26" class="edge">
<title>22358&#45;&gt;22362</title>
<path fill="none" stroke="black" d="M1563.19,-355.64C1568.34,-338.83 1575.8,-314.45 1581.72,-295.13"/>
<polygon fill="black" stroke="black" points="1585.06,-296.19 1584.64,-285.6 1578.36,-294.14 1585.06,-296.19"/>
</g>
<!-- 22367 -->
<g id="node26" class="node">
<title>22367</title>
<polygon fill="none" stroke="black" points="1581.98,-170.98 1532.23,-170.98 1532.23,-129.98 1581.98,-129.98 1581.98,-170.98"/>
<text xml:space="preserve" text-anchor="middle" x="1557.11" y="-153.68" font-family="Times,serif" font-size="14.00">22367</text>
<text xml:space="preserve" text-anchor="middle" x="1557.11" y="-137.18" font-family="Times,serif" font-size="14.00">cpp</text>
</g>
<!-- 22362&#45;&gt;22367 -->
<g id="edge31" class="edge">
<title>22362&#45;&gt;22367</title>
<path fill="none" stroke="black" d="M1585.03,-242.64C1579.88,-225.83 1572.41,-201.45 1566.5,-182.13"/>
<polygon fill="black" stroke="black" points="1569.85,-181.14 1563.58,-172.6 1563.16,-183.19 1569.85,-181.14"/>
</g>
<!-- 22373 -->
<g id="node27" class="node">
<title>22373</title>
<polygon fill="none" stroke="black" points="1649.98,-170.98 1600.23,-170.98 1600.23,-129.98 1649.98,-129.98 1649.98,-170.98"/>
<text xml:space="preserve" text-anchor="middle" x="1625.11" y="-153.68" font-family="Times,serif" font-size="14.00">22373</text>
<text xml:space="preserve" text-anchor="middle" x="1625.11" y="-137.18" font-family="Times,serif" font-size="14.00">cc1</text>
</g>
<!-- 22362&#45;&gt;22373 -->
<g id="edge37" class="edge">
<title>22362&#45;&gt;22373</title>
<path fill="none" stroke="black" d="M1597.19,-242.64C1602.34,-225.83 1609.8,-201.45 1615.72,-182.13"/>
<polygon fill="black" stroke="black" points="1619.06,-183.19 1618.64,-172.6 1612.36,-181.14 1619.06,-183.19"/>
</g>
<!-- 22378 -->
<g id="node28" class="node">
<title>22378</title>
<polygon fill="none" stroke="black" points="1717.98,-170.98 1668.23,-170.98 1668.23,-129.98 1717.98,-129.98 1717.98,-170.98"/>
<text xml:space="preserve" text-anchor="middle" x="1693.11" y="-153.68" font-family="Times,serif" font-size="14.00">22378</text>
<text xml:space="preserve" text-anchor="middle" x="1693.11" y="-137.18" font-family="Times,serif" font-size="14.00">as</text>
</g>
<!-- 22362&#45;&gt;22378 -->
<g id="edge44" class="edge">
<title>22362&#45;&gt;22378</title>
<path fill="none" stroke="black" d="M1609.34,-242.64C1625.52,-225.04 1649.31,-199.14 1667.41,-179.45"/>
<polygon fill="black" stroke="black" points="1669.82,-182 1674.01,-172.27 1664.66,-177.27 1669.82,-182"/>
</g>
<!-- 88860&#45;32246 -->
<g id="node47" class="node">
<title>88860&#45;32246</title>
<ellipse fill="none" stroke="black" cx="1640.11" cy="-28.99" rx="139.12" ry="28.99"/>
<text xml:space="preserve" text-anchor="middle" x="1640.11" y="-32.19" font-family="Times,serif" font-size="14.00">88860&#45;32246</text>
<text xml:space="preserve" text-anchor="middle" x="1640.11" y="-15.69" font-family="Times,serif" font-size="14.00">/home/ek/dev/src/lefty/stringify.c</text>
</g>
<!-- 22367&#45;&gt;88860&#45;32246 -->
<g id="edge38" class="edge">
<title>22367&#45;&gt;88860&#45;32246</title>
<path fill="none" stroke="black" d="M1570.81,-129.75C1582.63,-112.74 1600.02,-87.71 1614.42,-66.98"/>
<polygon fill="black" stroke="black" points="1617.1,-69.25 1619.93,-59.04 1611.35,-65.26 1617.1,-69.25"/>
</g>
<!-- 22363 -->
<g id="node29" class="node">
<title>22363</title>
<polygon fill="none" stroke="black" points="1952.98,-396.98 1903.23,-396.98 1903.23,-355.98 1952.98,-355.98 1952.98,-396.98"/>
<text xml:space="preserve" text-anchor="middle" x="1928.11" y="-379.68" font-family="Times,serif" font-size="14.00">22363</text>
<text xml:space="preserve" text-anchor="middle" x="1928.11" y="-363.18" font-family="Times,serif" font-size="14.00">ksh</text>
</g>
<!-- 22366 -->
<g id="node30" class="node">
<title>22366</title>
<polygon fill="none" stroke="black" points="1986.98,-283.98 1937.23,-283.98 1937.23,-242.98 1986.98,-242.98 1986.98,-283.98"/>
<text xml:space="preserve" text-anchor="middle" x="1962.11" y="-266.68" font-family="Times,serif" font-size="14.00">22366</text>
<text xml:space="preserve" text-anchor="middle" x="1962.11" y="-250.18" font-family="Times,serif" font-size="14.00">gcc</text>
</g>
<!-- 22363&#45;&gt;22366 -->
<g id="edge29" class="edge">
<title>22363&#45;&gt;22366</title>
<path fill="none" stroke="black" d="M1934.19,-355.64C1939.34,-338.83 1946.8,-314.45 1952.72,-295.13"/>
<polygon fill="black" stroke="black" points="1956.06,-296.19 1955.64,-285.6 1949.36,-294.14 1956.06,-296.19"/>
</g>
<!-- 22371 -->
<g id="node31" class="node">
<title>22371</title>
<polygon fill="none" stroke="black" points="1952.98,-170.98 1903.23,-170.98 1903.23,-129.98 1952.98,-129.98 1952.98,-170.98"/>
<text xml:space="preserve" text-anchor="middle" x="1928.11" y="-153.68" font-family="Times,serif" font-size="14.00">22371</text>
<text xml:space="preserve" text-anchor="middle" x="1928.11" y="-137.18" font-family="Times,serif" font-size="14.00">cpp</text>
</g>
<!-- 22366&#45;&gt;22371 -->
<g id="edge35" class="edge">
<title>22366&#45;&gt;22371</title>
<path fill="none" stroke="black" d="M1956.03,-242.64C1950.88,-225.83 1943.41,-201.45 1937.5,-182.13"/>
<polygon fill="black" stroke="black" points="1940.85,-181.14 1934.58,-172.6 1934.16,-183.19 1940.85,-181.14"/>
</g>
<!-- 22376 -->
<g id="node32" class="node">
<title>22376</title>
<polygon fill="none" stroke="black" points="2020.98,-170.98 1971.23,-170.98 1971.23,-129.98 2020.98,-129.98 2020.98,-170.98"/>
<text xml:space="preserve" text-anchor="middle" x="1996.11" y="-153.68" font-family="Times,serif" font-size="14.00">22376</text>
<text xml:space="preserve" text-anchor="middle" x="1996.11" y="-137.18" font-family="Times,serif" font-size="14.00">cc1</text>
</g>
<!-- 22366&#45;&gt;22376 -->
<g id="edge41" class="edge">
<title>22366&#45;&gt;22376</title>
<path fill="none" stroke="black" d="M1968.19,-242.64C1973.34,-225.83 1980.8,-201.45 1986.72,-182.13"/>
<polygon fill="black" stroke="black" points="1990.06,-183.19 1989.64,-172.6 1983.36,-181.14 1990.06,-183.19"/>
</g>
<!-- 22380 -->
<g id="node33" class="node">
<title>22380</title>
<polygon fill="none" stroke="black" points="2088.98,-170.98 2039.23,-170.98 2039.23,-129.98 2088.98,-129.98 2088.98,-170.98"/>
<text xml:space="preserve" text-anchor="middle" x="2064.11" y="-153.68" font-family="Times,serif" font-size="14.00">22380</text>
<text xml:space="preserve" text-anchor="middle" x="2064.11" y="-137.18" font-family="Times,serif" font-size="14.00">as</text>
</g>
<!-- 22366&#45;&gt;22380 -->
<g id="edge47" class="edge">
<title>22366&#45;&gt;22380</title>
<path fill="none" stroke="black" d="M1980.34,-242.64C1996.52,-225.04 2020.31,-199.14 2038.41,-179.45"/>
<polygon fill="black" stroke="black" points="2040.82,-182 2045.01,-172.27 2035.66,-177.27 2040.82,-182"/>
</g>
<!-- 93626&#45;32246 -->
<g id="node48" class="node">
<title>93626&#45;32246</title>
<ellipse fill="none" stroke="black" cx="1928.11" cy="-28.99" rx="130.64" ry="28.99"/>
<text xml:space="preserve" text-anchor="middle" x="1928.11" y="-32.19" font-family="Times,serif" font-size="14.00">93626&#45;32246</text>
<text xml:space="preserve" text-anchor="middle" x="1928.11" y="-15.69" font-family="Times,serif" font-size="14.00">/home/ek/work/src/lefty/exec.c</text>
</g>
<!-- 22371&#45;&gt;93626&#45;32246 -->
<g id="edge42" class="edge">
<title>22371&#45;&gt;93626&#45;32246</title>
<path fill="none" stroke="black" d="M1928.11,-129.75C1928.11,-113.46 1928.11,-89.82 1928.11,-69.65"/>
<polygon fill="black" stroke="black" points="1931.61,-69.76 1928.11,-59.76 1924.61,-69.76 1931.61,-69.76"/>
</g>
<!-- 37592&#45;32246 -->
<g id="node50" class="node">
<title>37592&#45;32246</title>
<ellipse fill="none" stroke="black" cx="2202.11" cy="-28.99" rx="125.33" ry="28.99"/>
<text xml:space="preserve" text-anchor="middle" x="2202.11" y="-32.19" font-family="Times,serif" font-size="14.00">37592&#45;32246</text>
<text xml:space="preserve" text-anchor="middle" x="2202.11" y="-15.69" font-family="Times,serif" font-size="14.00">/home/ek/dev/src/lefty/exec.h</text>
</g>
<!-- 22371&#45;&gt;37592&#45;32246 -->
<g id="edge49" class="edge">
<title>22371&#45;&gt;37592&#45;32246</title>
<path fill="none" stroke="black" d="M1950.82,-129.53C1954.46,-126.8 1958.29,-124.18 1962.11,-121.98 2010.16,-94.27 2068.14,-71.78 2115.08,-55.98"/>
<polygon fill="black" stroke="black" points="2116.01,-59.35 2124.4,-52.88 2113.8,-52.71 2116.01,-59.35"/>
</g>
<!-- 22368 -->
<g id="node34" class="node">
<title>22368</title>
<polygon fill="none" stroke="black" points="2332.98,-396.98 2283.23,-396.98 2283.23,-355.98 2332.98,-355.98 2332.98,-396.98"/>
<text xml:space="preserve" text-anchor="middle" x="2308.11" y="-379.68" font-family="Times,serif" font-size="14.00">22368</text>
<text xml:space="preserve" text-anchor="middle" x="2308.11" y="-363.18" font-family="Times,serif" font-size="14.00">ksh</text>
</g>
<!-- 22372 -->
<g id="node35" class="node">
<title>22372</title>
<polygon fill="none" stroke="black" points="2366.98,-283.98 2317.23,-283.98 2317.23,-242.98 2366.98,-242.98 2366.98,-283.98"/>
<text xml:space="preserve" text-anchor="middle" x="2342.11" y="-266.68" font-family="Times,serif" font-size="14.00">22372</text>
<text xml:space="preserve" text-anchor="middle" x="2342.11" y="-250.18" font-family="Times,serif" font-size="14.00">gcc</text>
</g>
<!-- 22368&#45;&gt;22372 -->
<g id="edge36" class="edge">
<title>22368&#45;&gt;22372</title>
<path fill="none" stroke="black" d="M2314.19,-355.64C2319.34,-338.83 2326.8,-314.45 2332.72,-295.13"/>
<polygon fill="black" stroke="black" points="2336.06,-296.19 2335.64,-285.6 2329.36,-294.14 2336.06,-296.19"/>
</g>
<!-- 22377 -->
<g id="node36" class="node">
<title>22377</title>
<polygon fill="none" stroke="black" points="2332.98,-170.98 2283.23,-170.98 2283.23,-129.98 2332.98,-129.98 2332.98,-170.98"/>
<text xml:space="preserve" text-anchor="middle" x="2308.11" y="-153.68" font-family="Times,serif" font-size="14.00">22377</text>
<text xml:space="preserve" text-anchor="middle" x="2308.11" y="-137.18" font-family="Times,serif" font-size="14.00">cpp</text>
</g>
<!-- 22372&#45;&gt;22377 -->
<g id="edge43" class="edge">
<title>22372&#45;&gt;22377</title>
<path fill="none" stroke="black" d="M2336.03,-242.64C2330.88,-225.83 2323.41,-201.45 2317.5,-182.13"/>
<polygon fill="black" stroke="black" points="2320.85,-181.14 2314.58,-172.6 2314.16,-183.19 2320.85,-181.14"/>
</g>
<!-- 22379 -->
<g id="node37" class="node">
<title>22379</title>
<polygon fill="none" stroke="black" points="2400.98,-170.98 2351.23,-170.98 2351.23,-129.98 2400.98,-129.98 2400.98,-170.98"/>
<text xml:space="preserve" text-anchor="middle" x="2376.11" y="-153.68" font-family="Times,serif" font-size="14.00">22379</text>
<text xml:space="preserve" text-anchor="middle" x="2376.11" y="-137.18" font-family="Times,serif" font-size="14.00">cc1</text>
</g>
<!-- 22372&#45;&gt;22379 -->
<g id="edge45" class="edge">
<title>22372&#45;&gt;22379</title>
<path fill="none" stroke="black" d="M2348.19,-242.64C2353.34,-225.83 2360.8,-201.45 2366.72,-182.13"/>
<polygon fill="black" stroke="black" points="2370.06,-183.19 2369.64,-172.6 2363.36,-181.14 2370.06,-183.19"/>
</g>
<!-- 22381 -->
<g id="node38" class="node">
<title>22381</title>
<polygon fill="none" stroke="black" points="2468.98,-170.98 2419.23,-170.98 2419.23,-129.98 2468.98,-129.98 2468.98,-170.98"/>
<text xml:space="preserve" text-anchor="middle" x="2444.11" y="-153.68" font-family="Times,serif" font-size="14.00">22381</text>
<text xml:space="preserve" text-anchor="middle" x="2444.11" y="-137.18" font-family="Times,serif" font-size="14.00">as</text>
</g>
<!-- 22372&#45;&gt;22381 -->
<g id="edge48" class="edge">
<title>22372&#45;&gt;22381</title>
<path fill="none" stroke="black" d="M2360.34,-242.64C2376.52,-225.04 2400.31,-199.14 2418.41,-179.45"/>
<polygon fill="black" stroke="black" points="2420.82,-182 2425.01,-172.27 2415.66,-177.27 2420.82,-182"/>
</g>
<!-- 93643&#45;32246 -->
<g id="node49" class="node">
<title>93643&#45;32246</title>
<ellipse fill="none" stroke="black" cx="2479.11" cy="-28.99" rx="133.29" ry="28.99"/>
<text xml:space="preserve" text-anchor="middle" x="2479.11" y="-32.19" font-family="Times,serif" font-size="14.00">93643&#45;32246</text>
<text xml:space="preserve" text-anchor="middle" x="2479.11" y="-15.69" font-family="Times,serif" font-size="14.00">/home/ek/work/src/lefty/parse.c</text>
</g>
<!-- 22377&#45;&gt;93643&#45;32246 -->
<g id="edge46" class="edge">
<title>22377&#45;&gt;93643&#45;32246</title>
<path fill="none" stroke="black" d="M2332.05,-129.68C2335.39,-127.05 2338.81,-124.42 2342.11,-121.98 2369.82,-101.53 2401.73,-80 2427.77,-62.91"/>
<polygon fill="black" stroke="black" points="2429.36,-66.05 2435.81,-57.65 2425.53,-60.19 2429.36,-66.05"/>
</g>
<!-- 22316 -->
<g id="node39" class="node">
<title>22316</title>
<polygon fill="none" stroke="black" points="1444.98,-752.97 1395.23,-752.97 1395.23,-711.97 1444.98,-711.97 1444.98,-752.97"/>
<text xml:space="preserve" text-anchor="middle" x="1420.11" y="-735.67" font-family="Times,serif" font-size="14.00">22316</text>
<text xml:space="preserve" text-anchor="middle" x="1420.11" y="-719.17" font-family="Times,serif" font-size="14.00">ksh</text>
</g>
<!-- 22324 -->
<g id="node40" class="node">
<title>22324</title>
<polygon fill="none" stroke="black" points="1446.48,-639.97 1393.73,-639.97 1393.73,-598.97 1446.48,-598.97 1446.48,-639.97"/>
<text xml:space="preserve" text-anchor="middle" x="1420.11" y="-622.67" font-family="Times,serif" font-size="14.00">22324</text>
<text xml:space="preserve" text-anchor="middle" x="1420.11" y="-606.17" font-family="Times,serif" font-size="14.00">nmake</text>
</g>
<!-- 22316&#45;&gt;22324 -->
<g id="edge1" class="edge">
<title>22316&#45;&gt;22324</title>
<path fill="none" stroke="black" d="M1420.11,-711.62C1420.11,-694.89 1420.11,-670.66 1420.11,-651.39"/>
<polygon fill="black" stroke="black" points="1423.61,-651.65 1420.11,-641.65 1416.61,-651.65 1423.61,-651.65"/>
</g>
<!-- 22337 -->
<g id="node41" class="node">
<title>22337</title>
<polygon fill="none" stroke="black" points="1280.98,-518.47 1231.23,-518.47 1231.23,-477.47 1280.98,-477.47 1280.98,-518.47"/>
<text xml:space="preserve" text-anchor="middle" x="1256.11" y="-501.17" font-family="Times,serif" font-size="14.00">22337</text>
<text xml:space="preserve" text-anchor="middle" x="1256.11" y="-484.67" font-family="Times,serif" font-size="14.00">ksh</text>
</g>
<!-- 22324&#45;&gt;22337 -->
<g id="edge2" class="edge">
<title>22324&#45;&gt;22337</title>
<path fill="none" stroke="black" d="M1393.39,-599C1365.34,-578.56 1321.14,-546.36 1290.5,-524.03"/>
<polygon fill="black" stroke="black" points="1292.83,-521.4 1282.69,-518.34 1288.71,-527.06 1292.83,-521.4"/>
</g>
<!-- 93642&#45;32246 -->
<g id="node46" class="node">
<title>93642&#45;32246</title>
<ellipse fill="none" stroke="black" cx="1585.11" cy="-497.97" rx="124.8" ry="28.99"/>
<text xml:space="preserve" text-anchor="middle" x="1585.11" y="-501.17" font-family="Times,serif" font-size="14.00">93642&#45;32246</text>
<text xml:space="preserve" text-anchor="middle" x="1585.11" y="-484.67" font-family="Times,serif" font-size="14.00">/home/ek/work/src/lefty/lex.c</text>
</g>
<!-- 22324&#45;&gt;93642&#45;32246 -->
<g id="edge34" class="edge">
<title>22324&#45;&gt;93642&#45;32246</title>
<path fill="none" stroke="black" d="M1446.62,-599.27C1471.47,-581.27 1509.15,-553.98 1538.94,-532.41"/>
<polygon fill="black" stroke="black" points="1540.63,-535.51 1546.68,-526.8 1536.53,-529.84 1540.63,-535.51"/>
</g>
<!-- 22337&#45;&gt;22342 -->
<g id="edge3" class="edge">
<title>22337&#45;&gt;22342</title>
<path fill="none" stroke="black" d="M1230.87,-496.19C1127.41,-492.74 735.65,-477.47 618.11,-440.73 590.69,-432.16 562.61,-416.08 541.55,-402.28"/>
<polygon fill="black" stroke="black" points="543.62,-399.45 533.36,-396.77 539.71,-405.26 543.62,-399.45"/>
</g>
<!-- 22337&#45;&gt;22344 -->
<g id="edge5" class="edge">
<title>22337&#45;&gt;22344</title>
<path fill="none" stroke="black" d="M1230.98,-496.31C1161.44,-493.95 961,-483.65 801.11,-440.73 760.86,-429.93 717.24,-410.42 687.67,-395.91"/>
<polygon fill="black" stroke="black" points="689.31,-392.82 678.79,-391.5 686.19,-399.09 689.31,-392.82"/>
</g>
<!-- 22337&#45;&gt;22349 -->
<g id="edge11" class="edge">
<title>22337&#45;&gt;22349</title>
<path fill="none" stroke="black" d="M1231.02,-486.97C1204.75,-476.28 1162.49,-458.46 1127.11,-440.73 1101.09,-427.69 1072.58,-411.4 1050.97,-398.62"/>
<polygon fill="black" stroke="black" points="1052.94,-395.72 1042.56,-393.61 1049.36,-401.74 1052.94,-395.72"/>
</g>
<!-- 22337&#45;&gt;22353 -->
<g id="edge16" class="edge">
<title>22337&#45;&gt;22353</title>
<path fill="none" stroke="black" d="M1240.42,-477.24C1225.02,-457.87 1201.36,-428.11 1183.89,-406.13"/>
<polygon fill="black" stroke="black" points="1186.72,-404.08 1177.76,-398.43 1181.24,-408.43 1186.72,-404.08"/>
</g>
<!-- 22337&#45;&gt;22354 -->
<g id="edge17" class="edge">
<title>22337&#45;&gt;22354</title>
<path fill="none" stroke="black" d="M1263.54,-477.24C1270.64,-458.39 1281.44,-429.7 1289.65,-407.92"/>
<polygon fill="black" stroke="black" points="1292.88,-409.25 1293.13,-398.66 1286.33,-406.78 1292.88,-409.25"/>
</g>
<!-- 22337&#45;&gt;22358 -->
<g id="edge21" class="edge">
<title>22337&#45;&gt;22358</title>
<path fill="none" stroke="black" d="M1281.25,-486.99C1334.7,-465.77 1459.76,-416.13 1521.43,-391.65"/>
<polygon fill="black" stroke="black" points="1522.41,-395.02 1530.42,-388.08 1519.83,-388.52 1522.41,-395.02"/>
</g>
<!-- 22337&#45;&gt;22363 -->
<g id="edge27" class="edge">
<title>22337&#45;&gt;22363</title>
<path fill="none" stroke="black" d="M1281.31,-493.01C1318.42,-487.26 1390,-476.46 1451.11,-468.98 1574.82,-453.85 1608.08,-466.11 1730.11,-440.73 1788.11,-428.67 1853.15,-406.06 1892.35,-391.4"/>
<polygon fill="black" stroke="black" points="1893.4,-394.75 1901.52,-387.93 1890.92,-388.2 1893.4,-394.75"/>
</g>
<!-- 22337&#45;&gt;22368 -->
<g id="edge32" class="edge">
<title>22337&#45;&gt;22368</title>
<path fill="none" stroke="black" d="M1281.26,-492.55C1318.31,-486.22 1389.81,-474.7 1451.11,-468.98 1739.02,-442.13 1816.11,-489.65 2101.11,-440.73 2162.55,-430.19 2231.29,-406.75 2272.07,-391.55"/>
<polygon fill="black" stroke="black" points="2273.26,-394.84 2281.38,-388.04 2270.79,-388.29 2273.26,-394.84"/>
</g>
<!-- 22337&#45;&gt;93642&#45;32246 -->
</g>
</svg>
